<svg width="326" height="677" viewBox="0 0 326 677" fill="none" xmlns="http://www.w3.org/2000/svg">
<path d="M175.5 1H191.5H209L228.5 10L243.5 39L255 61.5L265.5 71L259.5 85L265.5 96.5L259.5 121.5L265.5 138.5L259.5 152.5V162L278 174.5L306.5 205.5L311.5 234V264L325 273.5V291.5L298.5 296L265.5 312.5L248 343.5L235.5 404L231 451V497.5L191.5 503L171 514.5L157.5 532V556L165.5 564L171 582H180.5L211 576.5L248 572L259.5 602L252.5 629.5V676.5H133V670.5L106.5 610L101 602L106.5 592.5L101 582L93 576.5L86 556L74.5 532V521.5L56 474.5L42.5 440L36.5 404L32 381L36.5 367.5L1 350L6.5 325L27.5 273.5L22 268.5V250.5L36.5 225L56 191.5L81.5 170L106.5 152.5L101 128.5L106.5 116L111 104V85L116 71L126.5 52.5L139 39L146 25L157.5 10L175.5 1Z" stroke="black"/>
</svg>
