<svg width="296" height="142" viewBox="0 0 296 142" fill="none" xmlns="http://www.w3.org/2000/svg">
<path fill-rule="evenodd" clip-rule="evenodd" d="M24.2721 2.42099C25.6408 10.8675 22.8709 25.8447 14.5036 55.237C6.66659 82.7667 5.28018 88.7158 5.05992 95.749C4.89442 101.039 5.07934 102.254 6.37781 104.425C8.39472 107.797 11.3836 109.112 11.3536 106.613C11.2771 100.234 16.1384 99.2481 22.437 104.368C25.6121 106.949 28.0855 108.045 31.3845 108.333C35.9219 108.729 35.955 108.71 38.1195 104.458C39.8982 100.964 40.2845 99.3021 40.2369 95.344C40.1575 88.7271 38.4027 81.4895 36.1897 78.6556C34.2933 76.2273 30.2554 75.6558 26.0292 77.2198L23.9422 77.9919L25.8133 76.2085C26.8424 75.2265 29.3917 74.3345 31.4784 74.2248C34.4888 74.0665 35.7456 74.6035 37.5645 76.8258C40.7067 80.664 42.9391 89.9023 42.6314 97.7959C42.1742 109.527 37.7925 115.475 29.3709 115.798L24.2067 115.996L24.2892 124.599C24.3346 129.33 24.1288 134.522 23.8309 136.135C23.3743 138.614 23.2054 137.891 22.7417 131.48C22.4399 127.306 21.8011 122.23 21.3219 120.201C20.4559 116.533 20.4139 116.506 14.7244 116.032C4.61384 115.188 1.30699 110.562 1.14587 97.0363C1.05749 89.6221 2.82305 82.3076 11.0622 55.9625C19.2455 29.7942 22.7233 15.6587 23.2977 6.2319C23.6808 -0.0621144 23.7959 -0.512849 24.2721 2.42099Z" fill="#152F3F"/>
<path d="M58.5148 58H123.083V65H58.5148V58Z" fill="#EB3F3F"/>
<path d="M61.66 102V75.4H69.184V96.034H81.876V102H61.66Z" fill="#152F3F"/>
<path d="M97.8592 102.532C95.7312 102.532 93.7678 102.19 91.9692 101.506C90.1705 100.822 88.5998 99.8594 87.2572 98.618C85.9398 97.3514 84.9138 95.882 84.1792 94.21C83.4445 92.538 83.0772 90.7014 83.0772 88.7C83.0772 86.6987 83.4445 84.862 84.1792 83.19C84.9138 81.518 85.9398 80.0614 87.2572 78.82C88.5998 77.5534 90.1705 76.578 91.9692 75.894C93.7678 75.21 95.7312 74.868 97.8592 74.868C100.012 74.868 101.976 75.21 103.749 75.894C105.548 76.578 107.106 77.5534 108.423 78.82C109.74 80.0614 110.766 81.518 111.501 83.19C112.261 84.862 112.641 86.6987 112.641 88.7C112.641 90.7014 112.261 92.5507 111.501 94.248C110.766 95.92 109.74 97.3767 108.423 98.618C107.106 99.8594 105.548 100.822 103.749 101.506C101.976 102.19 100.012 102.532 97.8592 102.532ZM97.8592 96.3C98.8725 96.3 99.8098 96.1227 100.671 95.768C101.558 95.4134 102.318 94.9067 102.951 94.248C103.61 93.564 104.116 92.7534 104.471 91.816C104.851 90.8787 105.041 89.84 105.041 88.7C105.041 87.5347 104.851 86.496 104.471 85.584C104.116 84.6467 103.61 83.8487 102.951 83.19C102.318 82.506 101.558 81.9867 100.671 81.632C99.8098 81.2774 98.8725 81.1 97.8592 81.1C96.8458 81.1 95.8958 81.2774 95.0092 81.632C94.1478 81.9867 93.3878 82.506 92.7292 83.19C92.0958 83.8487 91.5892 84.6467 91.2092 85.584C90.8545 86.496 90.6772 87.5347 90.6772 88.7C90.6772 89.84 90.8545 90.8787 91.2092 91.816C91.5892 92.7534 92.0958 93.564 92.7292 94.248C93.3878 94.9067 94.1478 95.4134 95.0092 95.768C95.8958 96.1227 96.8458 96.3 97.8592 96.3Z" fill="#152F3F"/>
<path d="M116.582 102V75.4H128.742C131.174 75.4 133.264 75.7927 135.012 76.578C136.785 77.3634 138.153 78.5034 139.116 79.998C140.079 81.4674 140.56 83.2154 140.56 85.242C140.56 87.2434 140.079 88.9787 139.116 90.448C138.153 91.892 136.785 93.0067 135.012 93.792C133.264 94.552 131.174 94.932 128.742 94.932H120.762L124.106 91.778V102H116.582ZM133.036 102L126.424 92.31H134.442L141.092 102H133.036ZM124.106 92.576L120.762 89.118H128.286C129.857 89.118 131.022 88.776 131.782 88.092C132.567 87.408 132.96 86.458 132.96 85.242C132.96 84.0007 132.567 83.038 131.782 82.354C131.022 81.67 129.857 81.328 128.286 81.328H120.762L124.106 77.87V92.576Z" fill="#152F3F"/>
<path d="M154.059 102.532C151.88 102.532 149.777 102.266 147.751 101.734C145.749 101.177 144.115 100.467 142.849 99.606L145.319 94.058C146.509 94.818 147.877 95.4514 149.423 95.958C150.993 96.4394 152.551 96.68 154.097 96.68C155.135 96.68 155.971 96.5914 156.605 96.414C157.238 96.2114 157.694 95.958 157.973 95.654C158.277 95.3247 158.429 94.9447 158.429 94.514C158.429 93.906 158.15 93.4247 157.593 93.07C157.035 92.7154 156.313 92.424 155.427 92.196C154.54 91.968 153.552 91.74 152.463 91.512C151.399 91.284 150.322 90.9927 149.233 90.638C148.169 90.2834 147.193 89.8274 146.307 89.27C145.42 88.6874 144.698 87.94 144.141 87.028C143.583 86.0907 143.305 84.9127 143.305 83.494C143.305 81.898 143.735 80.454 144.597 79.162C145.483 77.87 146.801 76.8314 148.549 76.046C150.297 75.2607 152.475 74.868 155.085 74.868C156.833 74.868 158.543 75.0707 160.215 75.476C161.912 75.856 163.419 76.426 164.737 77.186L162.419 82.772C161.152 82.088 159.898 81.5814 158.657 81.252C157.415 80.8974 156.212 80.72 155.047 80.72C154.008 80.72 153.172 80.834 152.539 81.062C151.905 81.2647 151.449 81.5434 151.171 81.898C150.892 82.2527 150.753 82.658 150.753 83.114C150.753 83.6967 151.019 84.1654 151.551 84.52C152.108 84.8494 152.83 85.128 153.717 85.356C154.629 85.5587 155.617 85.774 156.681 86.002C157.77 86.23 158.847 86.5214 159.911 86.876C161 87.2054 161.988 87.6614 162.875 88.244C163.761 88.8014 164.471 89.5487 165.003 90.486C165.56 91.398 165.839 92.5507 165.839 93.944C165.839 95.4894 165.395 96.9207 164.509 98.238C163.647 99.53 162.343 100.569 160.595 101.354C158.872 102.139 156.693 102.532 154.059 102.532Z" fill="#152F3F"/>
<path d="M172.754 102.342C171.538 102.342 170.512 101.937 169.676 101.126C168.84 100.315 168.422 99.2894 168.422 98.048C168.422 96.756 168.84 95.73 169.676 94.97C170.512 94.1847 171.538 93.792 172.754 93.792C173.97 93.792 174.996 94.1847 175.832 94.97C176.668 95.73 177.086 96.756 177.086 98.048C177.086 99.2894 176.668 100.315 175.832 101.126C174.996 101.937 173.97 102.342 172.754 102.342Z" fill="#152F3F"/>
<path d="M180.818 102V75.4H188.342V96.034H201.034V102H180.818Z" fill="#152F3F"/>
<path d="M210.4 102L199.038 75.4H207.17L216.746 98.428H211.958L221.762 75.4H229.21L217.81 102H210.4Z" fill="#152F3F"/>
<path d="M61.34 123.096C60.844 123.096 60.38 122.992 59.948 122.784C59.516 122.576 59.164 122.276 58.892 121.884L59.588 121.068C59.82 121.388 60.08 121.636 60.368 121.812C60.664 121.98 60.988 122.064 61.34 122.064C62.3 122.064 62.78 121.496 62.78 120.36V115.644H59.744V114.6H63.968V120.3C63.968 121.236 63.744 121.936 63.296 122.4C62.856 122.864 62.204 123.096 61.34 123.096Z" fill="black"/>
<path d="M65.4446 123L69.2486 114.6H70.4366L74.2526 123H72.9926L69.5966 115.272H70.0766L66.6806 123H65.4446ZM67.0646 120.9L67.3886 119.94H72.1166L72.4646 120.9H67.0646Z" fill="black"/>
<path d="M79.2898 123.096C78.1858 123.096 77.3178 122.78 76.6858 122.148C76.0538 121.516 75.7378 120.592 75.7378 119.376V114.6H76.9378V119.328C76.9378 120.264 77.1418 120.948 77.5498 121.38C77.9658 121.812 78.5498 122.028 79.3018 122.028C80.0618 122.028 80.6458 121.812 81.0538 121.38C81.4698 120.948 81.6778 120.264 81.6778 119.328V114.6H82.8418V119.376C82.8418 120.592 82.5258 121.516 81.8938 122.148C81.2698 122.78 80.4018 123.096 79.2898 123.096Z" fill="black"/>
<path d="M87.2977 123V115.644H84.4177V114.6H91.3657V115.644H88.4857V123H87.2977Z" fill="black"/>
<path d="M93.1527 123V114.6H96.4287C97.1647 114.6 97.7927 114.716 98.3127 114.948C98.8327 115.18 99.2327 115.516 99.5127 115.956C99.7927 116.396 99.9327 116.92 99.9327 117.528C99.9327 118.136 99.7927 118.66 99.5127 119.1C99.2327 119.532 98.8327 119.864 98.3127 120.096C97.7927 120.328 97.1647 120.444 96.4287 120.444H93.8127L94.3527 119.892V123H93.1527ZM98.7687 123L96.6327 119.952H97.9167L100.077 123H98.7687ZM94.3527 120.012L93.8127 119.424H96.3927C97.1607 119.424 97.7407 119.26 98.1327 118.932C98.5327 118.596 98.7327 118.128 98.7327 117.528C98.7327 116.928 98.5327 116.464 98.1327 116.136C97.7407 115.808 97.1607 115.644 96.3927 115.644H93.8127L94.3527 115.044V120.012Z" fill="black"/>
<path d="M102.351 123V114.6H103.551V123H102.351ZM101.355 113.496V112.776H104.547V113.496H101.355Z" fill="black"/>
<path d="M108.214 123V115.644H105.334V114.6H112.282V115.644H109.402V123H108.214Z" fill="black"/>
<path d="M115.161 118.224H119.481V119.244H115.161V118.224ZM115.269 121.956H120.165V123H114.069V114.6H119.997V115.644H115.269V121.956Z" fill="black"/>
<path d="M125.036 123.096C124.396 123.096 123.784 123 123.2 122.808C122.616 122.608 122.156 122.352 121.82 122.04L122.264 121.104C122.584 121.384 122.992 121.616 123.488 121.8C123.984 121.984 124.5 122.076 125.036 122.076C125.524 122.076 125.92 122.02 126.224 121.908C126.528 121.796 126.752 121.644 126.896 121.452C127.04 121.252 127.112 121.028 127.112 120.78C127.112 120.492 127.016 120.26 126.824 120.084C126.64 119.908 126.396 119.768 126.092 119.664C125.796 119.552 125.468 119.456 125.108 119.376C124.748 119.296 124.384 119.204 124.016 119.1C123.656 118.988 123.324 118.848 123.02 118.68C122.724 118.512 122.484 118.288 122.3 118.008C122.116 117.72 122.024 117.352 122.024 116.904C122.024 116.472 122.136 116.076 122.36 115.716C122.592 115.348 122.944 115.056 123.416 114.84C123.896 114.616 124.504 114.504 125.24 114.504C125.728 114.504 126.212 114.568 126.692 114.696C127.172 114.824 127.588 115.008 127.94 115.248L127.544 116.208C127.184 115.968 126.804 115.796 126.404 115.692C126.004 115.58 125.616 115.524 125.24 115.524C124.768 115.524 124.38 115.584 124.076 115.704C123.772 115.824 123.548 115.984 123.404 116.184C123.268 116.384 123.2 116.608 123.2 116.856C123.2 117.152 123.292 117.388 123.476 117.564C123.668 117.74 123.912 117.88 124.208 117.984C124.512 118.088 124.844 118.184 125.204 118.272C125.564 118.352 125.924 118.444 126.284 118.548C126.652 118.652 126.984 118.788 127.28 118.956C127.584 119.124 127.828 119.348 128.012 119.628C128.196 119.908 128.288 120.268 128.288 120.708C128.288 121.132 128.172 121.528 127.94 121.896C127.708 122.256 127.348 122.548 126.86 122.772C126.38 122.988 125.772 123.096 125.036 123.096Z" fill="black"/>
<path d="M134.224 123V114.6H135.424V121.956H139.972V123H134.224Z" fill="black"/>
<path d="M141.829 123V114.6H143.029V123H141.829Z" fill="black"/>
<path d="M147.116 118.224H151.436V119.244H147.116V118.224ZM147.224 121.956H152.12V123H146.024V114.6H151.952V115.644H147.224V121.956Z" fill="black"/>
<path d="M154.543 123V114.6H157.819C158.555 114.6 159.183 114.716 159.703 114.948C160.223 115.18 160.623 115.516 160.903 115.956C161.183 116.396 161.323 116.92 161.323 117.528C161.323 118.136 161.183 118.66 160.903 119.1C160.623 119.532 160.223 119.868 159.703 120.108C159.183 120.34 158.555 120.456 157.819 120.456H155.203L155.743 119.892V123H154.543ZM155.743 120.012L155.203 119.412H157.783C158.551 119.412 159.131 119.248 159.523 118.92C159.923 118.592 160.123 118.128 160.123 117.528C160.123 116.928 159.923 116.464 159.523 116.136C159.131 115.808 158.551 115.644 157.783 115.644H155.203L155.743 115.044V120.012Z" fill="black"/>
<path d="M163.566 123V114.6H164.766V123H163.566Z" fill="black"/>
<path d="M167.761 123V114.6H168.745L174.301 121.5H173.785V114.6H174.985V123H174.001L168.445 116.1H168.961V123H167.761ZM170.857 126.156L171.253 124.788L171.361 125.22C171.169 125.22 171.017 125.168 170.905 125.064C170.801 124.968 170.749 124.84 170.749 124.68C170.749 124.52 170.805 124.388 170.917 124.284C171.029 124.18 171.177 124.128 171.361 124.128C171.553 124.128 171.701 124.18 171.805 124.284C171.917 124.396 171.973 124.528 171.973 124.68C171.973 124.76 171.961 124.852 171.937 124.956C171.921 125.06 171.881 125.172 171.817 125.292L171.457 126.156H170.857Z" fill="black"/>
<path d="M176.707 123L180.511 114.6H181.699L185.515 123H184.255L180.859 115.272H181.339L177.943 123H176.707ZM178.327 120.9L178.651 119.94H183.379L183.727 120.9H178.327Z" fill="black"/>
<path d="M189.696 123.096C189.056 123.096 188.444 123 187.86 122.808C187.276 122.608 186.816 122.352 186.48 122.04L186.924 121.104C187.244 121.384 187.652 121.616 188.148 121.8C188.644 121.984 189.16 122.076 189.696 122.076C190.184 122.076 190.58 122.02 190.884 121.908C191.188 121.796 191.412 121.644 191.556 121.452C191.7 121.252 191.772 121.028 191.772 120.78C191.772 120.492 191.676 120.26 191.484 120.084C191.3 119.908 191.056 119.768 190.752 119.664C190.456 119.552 190.128 119.456 189.768 119.376C189.408 119.296 189.044 119.204 188.676 119.1C188.316 118.988 187.984 118.848 187.68 118.68C187.384 118.512 187.144 118.288 186.96 118.008C186.776 117.72 186.684 117.352 186.684 116.904C186.684 116.472 186.796 116.076 187.02 115.716C187.252 115.348 187.604 115.056 188.076 114.84C188.556 114.616 189.164 114.504 189.9 114.504C190.388 114.504 190.872 114.568 191.352 114.696C191.832 114.824 192.248 115.008 192.6 115.248L192.204 116.208C191.844 115.968 191.464 115.796 191.064 115.692C190.664 115.58 190.276 115.524 189.9 115.524C189.428 115.524 189.04 115.584 188.736 115.704C188.432 115.824 188.208 115.984 188.064 116.184C187.928 116.384 187.86 116.608 187.86 116.856C187.86 117.152 187.952 117.388 188.136 117.564C188.328 117.74 188.572 117.88 188.868 117.984C189.172 118.088 189.504 118.184 189.864 118.272C190.224 118.352 190.584 118.444 190.944 118.548C191.312 118.652 191.644 118.788 191.94 118.956C192.244 119.124 192.488 119.348 192.672 119.628C192.856 119.908 192.948 120.268 192.948 120.708C192.948 121.132 192.832 121.528 192.6 121.896C192.368 122.256 192.008 122.548 191.52 122.772C191.04 122.988 190.432 123.096 189.696 123.096Z" fill="black"/>
<path d="M197.612 123L201.416 114.6H202.604L206.42 123H205.16L201.764 115.272H202.244L198.848 123H197.612ZM199.232 120.9L199.556 119.94H204.284L204.632 120.9H199.232ZM200.06 113.496V112.776H203.972V113.496H200.06Z" fill="black"/>
<path d="M208.153 123V114.6H211.429C212.165 114.6 212.793 114.716 213.313 114.948C213.833 115.18 214.233 115.516 214.513 115.956C214.793 116.396 214.933 116.92 214.933 117.528C214.933 118.136 214.793 118.66 214.513 119.1C214.233 119.532 213.833 119.864 213.313 120.096C212.793 120.328 212.165 120.444 211.429 120.444H208.813L209.353 119.892V123H208.153ZM213.769 123L211.633 119.952H212.917L215.077 123H213.769ZM209.353 120.012L208.813 119.424H211.393C212.161 119.424 212.741 119.26 213.133 118.932C213.533 118.596 213.733 118.128 213.733 117.528C213.733 116.928 213.533 116.464 213.133 116.136C212.741 115.808 212.161 115.644 211.393 115.644H208.813L209.353 115.044V120.012Z" fill="black"/>
<path d="M219.8 123.096C219.16 123.096 218.548 123 217.964 122.808C217.38 122.608 216.92 122.352 216.584 122.04L217.028 121.104C217.348 121.384 217.756 121.616 218.252 121.8C218.748 121.984 219.264 122.076 219.8 122.076C220.288 122.076 220.684 122.02 220.988 121.908C221.292 121.796 221.516 121.644 221.66 121.452C221.804 121.252 221.876 121.028 221.876 120.78C221.876 120.492 221.78 120.26 221.588 120.084C221.404 119.908 221.16 119.768 220.856 119.664C220.56 119.552 220.232 119.456 219.872 119.376C219.512 119.296 219.148 119.204 218.78 119.1C218.42 118.988 218.088 118.848 217.784 118.68C217.488 118.512 217.248 118.288 217.064 118.008C216.88 117.72 216.788 117.352 216.788 116.904C216.788 116.472 216.9 116.076 217.124 115.716C217.356 115.348 217.708 115.056 218.18 114.84C218.66 114.616 219.268 114.504 220.004 114.504C220.492 114.504 220.976 114.568 221.456 114.696C221.936 114.824 222.352 115.008 222.704 115.248L222.308 116.208C221.948 115.968 221.568 115.796 221.168 115.692C220.768 115.58 220.38 115.524 220.004 115.524C219.532 115.524 219.144 115.584 218.84 115.704C218.536 115.824 218.312 115.984 218.168 116.184C218.032 116.384 217.964 116.608 217.964 116.856C217.964 117.152 218.056 117.388 218.24 117.564C218.432 117.74 218.676 117.88 218.972 117.984C219.276 118.088 219.608 118.184 219.968 118.272C220.328 118.352 220.688 118.444 221.048 118.548C221.416 118.652 221.748 118.788 222.044 118.956C222.348 119.124 222.592 119.348 222.776 119.628C222.96 119.908 223.052 120.268 223.052 120.708C223.052 121.132 222.936 121.528 222.704 121.896C222.472 122.256 222.112 122.548 221.624 122.772C221.144 122.988 220.536 123.096 219.8 123.096Z" fill="black"/>
<path d="M226.836 123V115.644H223.956V114.6H230.904V115.644H228.024V123H226.836Z" fill="black"/>
<path d="M230.997 123L234.801 114.6H235.989L239.805 123H238.545L235.149 115.272H235.629L232.233 123H230.997ZM232.617 120.9L232.941 119.94H237.669L238.017 120.9H232.617Z" fill="black"/>
<path d="M245.24 123V114.6H248.516C249.252 114.6 249.88 114.716 250.4 114.948C250.92 115.18 251.32 115.516 251.6 115.956C251.88 116.396 252.02 116.92 252.02 117.528C252.02 118.136 251.88 118.66 251.6 119.1C251.32 119.532 250.92 119.868 250.4 120.108C249.88 120.34 249.252 120.456 248.516 120.456H245.9L246.44 119.892V123H245.24ZM246.44 120.012L245.9 119.412H248.48C249.248 119.412 249.828 119.248 250.22 118.92C250.62 118.592 250.82 118.128 250.82 117.528C250.82 116.928 250.62 116.464 250.22 116.136C249.828 115.808 249.248 115.644 248.48 115.644H245.9L246.44 115.044V120.012Z" fill="black"/>
<path d="M254.263 123V114.6H257.539C258.275 114.6 258.903 114.716 259.423 114.948C259.943 115.18 260.343 115.516 260.623 115.956C260.903 116.396 261.043 116.92 261.043 117.528C261.043 118.136 260.903 118.66 260.623 119.1C260.343 119.532 259.943 119.864 259.423 120.096C258.903 120.328 258.275 120.444 257.539 120.444H254.923L255.463 119.892V123H254.263ZM259.879 123L257.743 119.952H259.027L261.187 123H259.879ZM255.463 120.012L254.923 119.424H257.503C258.271 119.424 258.851 119.26 259.243 118.932C259.643 118.596 259.843 118.128 259.843 117.528C259.843 116.928 259.643 116.464 259.243 116.136C258.851 115.808 258.271 115.644 257.503 115.644H254.923L255.463 115.044V120.012Z" fill="black"/>
<path d="M262.19 123L265.994 114.6H267.182L270.998 123H269.738L266.342 115.272H266.822L263.426 123H262.19ZM263.81 120.9L264.134 119.94H268.862L269.21 120.9H263.81Z" fill="black"/>
<path d="M273.787 120.972L273.727 119.508L278.491 114.6H279.859L276.175 118.488L275.503 119.232L273.787 120.972ZM272.731 123V114.6H273.931V123H272.731ZM278.683 123L275.239 118.992L276.043 118.104L280.087 123H278.683Z" fill="black"/>
<path d="M284.108 123.096C283.468 123.096 282.856 123 282.272 122.808C281.688 122.608 281.228 122.352 280.892 122.04L281.336 121.104C281.656 121.384 282.064 121.616 282.56 121.8C283.056 121.984 283.572 122.076 284.108 122.076C284.596 122.076 284.992 122.02 285.296 121.908C285.6 121.796 285.824 121.644 285.968 121.452C286.112 121.252 286.184 121.028 286.184 120.78C286.184 120.492 286.088 120.26 285.896 120.084C285.712 119.908 285.468 119.768 285.164 119.664C284.868 119.552 284.54 119.456 284.18 119.376C283.82 119.296 283.456 119.204 283.088 119.1C282.728 118.988 282.396 118.848 282.092 118.68C281.796 118.512 281.556 118.288 281.372 118.008C281.188 117.72 281.096 117.352 281.096 116.904C281.096 116.472 281.208 116.076 281.432 115.716C281.664 115.348 282.016 115.056 282.488 114.84C282.968 114.616 283.576 114.504 284.312 114.504C284.8 114.504 285.284 114.568 285.764 114.696C286.244 114.824 286.66 115.008 287.012 115.248L286.616 116.208C286.256 115.968 285.876 115.796 285.476 115.692C285.076 115.58 284.688 115.524 284.312 115.524C283.84 115.524 283.452 115.584 283.148 115.704C282.844 115.824 282.62 115.984 282.476 116.184C282.34 116.384 282.272 116.608 282.272 116.856C282.272 117.152 282.364 117.388 282.548 117.564C282.74 117.74 282.984 117.88 283.28 117.984C283.584 118.088 283.916 118.184 284.276 118.272C284.636 118.352 284.996 118.444 285.356 118.548C285.724 118.652 286.056 118.788 286.352 118.956C286.656 119.124 286.9 119.348 287.084 119.628C287.268 119.908 287.36 120.268 287.36 120.708C287.36 121.132 287.244 121.528 287.012 121.896C286.78 122.256 286.42 122.548 285.932 122.772C285.452 122.988 284.844 123.096 284.108 123.096Z" fill="black"/>
<path d="M290.686 118.224H295.006V119.244H290.686V118.224ZM290.794 121.956H295.69V123H289.594V114.6H295.522V115.644H290.794V121.956Z" fill="black"/>
<path d="M64.052 138.096C63.412 138.096 62.816 137.988 62.264 137.772C61.72 137.556 61.248 137.256 60.848 136.872C60.448 136.48 60.136 136.024 59.912 135.504C59.688 134.984 59.576 134.416 59.576 133.8C59.576 133.184 59.688 132.616 59.912 132.096C60.136 131.576 60.448 131.124 60.848 130.74C61.248 130.348 61.72 130.044 62.264 129.828C62.808 129.612 63.404 129.504 64.052 129.504C64.692 129.504 65.28 129.612 65.816 129.828C66.36 130.036 66.832 130.336 67.232 130.728C67.64 131.112 67.952 131.564 68.168 132.084C68.392 132.604 68.504 133.176 68.504 133.8C68.504 134.424 68.392 134.996 68.168 135.516C67.952 136.036 67.64 136.492 67.232 136.884C66.832 137.268 66.36 137.568 65.816 137.784C65.28 137.992 64.692 138.096 64.052 138.096ZM64.052 137.028C64.516 137.028 64.944 136.948 65.336 136.788C65.736 136.628 66.08 136.404 66.368 136.116C66.664 135.82 66.892 135.476 67.052 135.084C67.22 134.692 67.304 134.264 67.304 133.8C67.304 133.336 67.22 132.908 67.052 132.516C66.892 132.124 66.664 131.784 66.368 131.496C66.08 131.2 65.736 130.972 65.336 130.812C64.944 130.652 64.516 130.572 64.052 130.572C63.58 130.572 63.144 130.652 62.744 130.812C62.352 130.972 62.008 131.2 61.712 131.496C61.416 131.784 61.184 132.124 61.016 132.516C60.856 132.908 60.776 133.336 60.776 133.8C60.776 134.264 60.856 134.692 61.016 135.084C61.184 135.476 61.416 135.82 61.712 136.116C62.008 136.404 62.352 136.628 62.744 136.788C63.144 136.948 63.58 137.028 64.052 137.028Z" fill="black"/>
<path d="M72.3689 138V130.644H69.4889V129.6H76.4369V130.644H73.5569V138H72.3689Z" fill="black"/>
<path d="M81.8987 138.096C81.2587 138.096 80.6627 137.988 80.1107 137.772C79.5667 137.556 79.0947 137.256 78.6947 136.872C78.2947 136.48 77.9827 136.024 77.7587 135.504C77.5347 134.984 77.4227 134.416 77.4227 133.8C77.4227 133.184 77.5347 132.616 77.7587 132.096C77.9827 131.576 78.2947 131.124 78.6947 130.74C79.0947 130.348 79.5667 130.044 80.1107 129.828C80.6547 129.612 81.2507 129.504 81.8987 129.504C82.5387 129.504 83.1267 129.612 83.6627 129.828C84.2067 130.036 84.6787 130.336 85.0787 130.728C85.4867 131.112 85.7987 131.564 86.0147 132.084C86.2387 132.604 86.3507 133.176 86.3507 133.8C86.3507 134.424 86.2387 134.996 86.0147 135.516C85.7987 136.036 85.4867 136.492 85.0787 136.884C84.6787 137.268 84.2067 137.568 83.6627 137.784C83.1267 137.992 82.5387 138.096 81.8987 138.096ZM81.8987 137.028C82.3627 137.028 82.7907 136.948 83.1827 136.788C83.5827 136.628 83.9267 136.404 84.2147 136.116C84.5107 135.82 84.7387 135.476 84.8987 135.084C85.0667 134.692 85.1507 134.264 85.1507 133.8C85.1507 133.336 85.0667 132.908 84.8987 132.516C84.7387 132.124 84.5107 131.784 84.2147 131.496C83.9267 131.2 83.5827 130.972 83.1827 130.812C82.7907 130.652 82.3627 130.572 81.8987 130.572C81.4267 130.572 80.9907 130.652 80.5907 130.812C80.1987 130.972 79.8547 131.2 79.5587 131.496C79.2627 131.784 79.0307 132.124 78.8627 132.516C78.7027 132.908 78.6227 133.336 78.6227 133.8C78.6227 134.264 78.7027 134.692 78.8627 135.084C79.0307 135.476 79.2627 135.82 79.5587 136.116C79.8547 136.404 80.1987 136.628 80.5907 136.788C80.9907 136.948 81.4267 137.028 81.8987 137.028Z" fill="black"/>
<path d="M88.6648 138V129.6H91.9408C92.6768 129.6 93.3048 129.716 93.8248 129.948C94.3448 130.18 94.7448 130.516 95.0248 130.956C95.3048 131.396 95.4448 131.92 95.4448 132.528C95.4448 133.136 95.3048 133.66 95.0248 134.1C94.7448 134.532 94.3448 134.864 93.8248 135.096C93.3048 135.328 92.6768 135.444 91.9408 135.444H89.3248L89.8648 134.892V138H88.6648ZM94.2808 138L92.1448 134.952H93.4288L95.5888 138H94.2808ZM89.8648 135.012L89.3248 134.424H91.9048C92.6728 134.424 93.2528 134.26 93.6448 133.932C94.0448 133.596 94.2448 133.128 94.2448 132.528C94.2448 131.928 94.0448 131.464 93.6448 131.136C93.2528 130.808 92.6728 130.644 91.9048 130.644H89.3248L89.8648 130.044V135.012Z" fill="black"/>
<path d="M97.8636 138V129.6H99.0636V138H97.8636Z" fill="black"/>
<path d="M102.058 138V129.6H103.042L108.598 136.5H108.082V129.6H109.282V138H108.298L102.742 131.1H103.258V138H102.058Z" fill="black"/>
<path d="M116.069 138.096C115.429 138.096 114.833 137.988 114.281 137.772C113.737 137.556 113.265 137.256 112.865 136.872C112.465 136.48 112.153 136.024 111.929 135.504C111.705 134.984 111.593 134.416 111.593 133.8C111.593 133.184 111.705 132.616 111.929 132.096C112.153 131.576 112.465 131.124 112.865 130.74C113.265 130.348 113.737 130.044 114.281 129.828C114.825 129.612 115.421 129.504 116.069 129.504C116.709 129.504 117.297 129.612 117.833 129.828C118.377 130.036 118.849 130.336 119.249 130.728C119.657 131.112 119.969 131.564 120.185 132.084C120.409 132.604 120.521 133.176 120.521 133.8C120.521 134.424 120.409 134.996 120.185 135.516C119.969 136.036 119.657 136.492 119.249 136.884C118.849 137.268 118.377 137.568 117.833 137.784C117.297 137.992 116.709 138.096 116.069 138.096ZM116.069 137.028C116.533 137.028 116.961 136.948 117.353 136.788C117.753 136.628 118.097 136.404 118.385 136.116C118.681 135.82 118.909 135.476 119.069 135.084C119.237 134.692 119.321 134.264 119.321 133.8C119.321 133.336 119.237 132.908 119.069 132.516C118.909 132.124 118.681 131.784 118.385 131.496C118.097 131.2 117.753 130.972 117.353 130.812C116.961 130.652 116.533 130.572 116.069 130.572C115.597 130.572 115.161 130.652 114.761 130.812C114.369 130.972 114.025 131.2 113.729 131.496C113.433 131.784 113.201 132.124 113.033 132.516C112.873 132.908 112.793 133.336 112.793 133.8C112.793 134.264 112.873 134.692 113.033 135.084C113.201 135.476 113.433 135.82 113.729 136.116C114.025 136.404 114.369 136.628 114.761 136.788C115.161 136.948 115.597 137.028 116.069 137.028Z" fill="black"/>
<path d="M122.835 138V129.6H124.035V136.956H128.583V138H122.835Z" fill="black"/>
<path d="M129.168 138L132.972 129.6H134.16L137.976 138H136.716L133.32 130.272H133.8L130.404 138H129.168ZM130.788 135.9L131.112 134.94H135.84L136.188 135.9H130.788Z" fill="black"/>
<path d="M139.709 138V129.6H142.985C143.721 129.6 144.349 129.716 144.869 129.948C145.389 130.18 145.789 130.516 146.069 130.956C146.349 131.396 146.489 131.92 146.489 132.528C146.489 133.136 146.349 133.66 146.069 134.1C145.789 134.532 145.389 134.864 144.869 135.096C144.349 135.328 143.721 135.444 142.985 135.444H140.369L140.909 134.892V138H139.709ZM145.325 138L143.189 134.952H144.473L146.633 138H145.325ZM140.909 135.012L140.369 134.424H142.949C143.717 134.424 144.297 134.26 144.689 133.932C145.089 133.596 145.289 133.128 145.289 132.528C145.289 131.928 145.089 131.464 144.689 131.136C144.297 130.808 143.717 130.644 142.949 130.644H140.369L140.909 130.044V135.012Z" fill="black"/>
<path d="M148.908 138V129.6H150.108V138H148.908Z" fill="black"/>
<path d="M153.103 138V129.6H154.087L159.643 136.5H159.127V129.6H160.326V138H159.342L153.786 131.1H154.302V138H153.103Z" fill="black"/>
<path d="M167.113 138.096C166.465 138.096 165.869 137.992 165.325 137.784C164.781 137.568 164.309 137.268 163.909 136.884C163.509 136.492 163.197 136.036 162.973 135.516C162.749 134.996 162.637 134.424 162.637 133.8C162.637 133.176 162.749 132.604 162.973 132.084C163.197 131.564 163.509 131.112 163.909 130.728C164.317 130.336 164.793 130.036 165.337 129.828C165.881 129.612 166.481 129.504 167.137 129.504C167.801 129.504 168.409 129.612 168.961 129.828C169.513 130.044 169.981 130.368 170.365 130.8L169.621 131.544C169.277 131.208 168.901 130.964 168.493 130.812C168.093 130.652 167.657 130.572 167.185 130.572C166.705 130.572 166.257 130.652 165.841 130.812C165.433 130.972 165.077 131.196 164.773 131.484C164.477 131.772 164.245 132.116 164.077 132.516C163.917 132.908 163.837 133.336 163.837 133.8C163.837 134.256 163.917 134.684 164.077 135.084C164.245 135.476 164.477 135.82 164.773 136.116C165.077 136.404 165.433 136.628 165.841 136.788C166.249 136.948 166.693 137.028 167.173 137.028C167.621 137.028 168.049 136.96 168.457 136.824C168.873 136.68 169.257 136.444 169.609 136.116L170.293 137.028C169.877 137.38 169.389 137.648 168.829 137.832C168.277 138.008 167.705 138.096 167.113 138.096ZM169.141 136.872V133.752H170.293V137.028L169.141 136.872Z" fill="black"/>
<path d="M176.862 138.096C176.222 138.096 175.626 137.988 175.074 137.772C174.53 137.556 174.058 137.256 173.658 136.872C173.258 136.48 172.946 136.024 172.722 135.504C172.498 134.984 172.386 134.416 172.386 133.8C172.386 133.184 172.498 132.616 172.722 132.096C172.946 131.576 173.258 131.124 173.658 130.74C174.058 130.348 174.53 130.044 175.074 129.828C175.618 129.612 176.214 129.504 176.862 129.504C177.502 129.504 178.09 129.612 178.626 129.828C179.17 130.036 179.642 130.336 180.042 130.728C180.45 131.112 180.762 131.564 180.978 132.084C181.202 132.604 181.314 133.176 181.314 133.8C181.314 134.424 181.202 134.996 180.978 135.516C180.762 136.036 180.45 136.492 180.042 136.884C179.642 137.268 179.17 137.568 178.626 137.784C178.09 137.992 177.502 138.096 176.862 138.096ZM176.862 137.028C177.326 137.028 177.754 136.948 178.146 136.788C178.546 136.628 178.89 136.404 179.178 136.116C179.474 135.82 179.702 135.476 179.862 135.084C180.03 134.692 180.114 134.264 180.114 133.8C180.114 133.336 180.03 132.908 179.862 132.516C179.702 132.124 179.474 131.784 179.178 131.496C178.89 131.2 178.546 130.972 178.146 130.812C177.754 130.652 177.326 130.572 176.862 130.572C176.39 130.572 175.954 130.652 175.554 130.812C175.162 130.972 174.818 131.2 174.522 131.496C174.226 131.784 173.994 132.124 173.826 132.516C173.666 132.908 173.586 133.336 173.586 133.8C173.586 134.264 173.666 134.692 173.826 135.084C173.994 135.476 174.226 135.82 174.522 136.116C174.818 136.404 175.162 136.628 175.554 136.788C175.954 136.948 176.39 137.028 176.862 137.028Z" fill="black"/>
<path d="M183.628 138V129.6H184.828V136.956H189.376V138H183.628Z" fill="black"/>
<path d="M194.873 138.096C194.233 138.096 193.637 137.988 193.085 137.772C192.541 137.556 192.069 137.256 191.669 136.872C191.269 136.48 190.957 136.024 190.733 135.504C190.509 134.984 190.397 134.416 190.397 133.8C190.397 133.184 190.509 132.616 190.733 132.096C190.957 131.576 191.269 131.124 191.669 130.74C192.069 130.348 192.541 130.044 193.085 129.828C193.629 129.612 194.225 129.504 194.873 129.504C195.513 129.504 196.101 129.612 196.637 129.828C197.181 130.036 197.653 130.336 198.053 130.728C198.461 131.112 198.773 131.564 198.989 132.084C199.213 132.604 199.325 133.176 199.325 133.8C199.325 134.424 199.213 134.996 198.989 135.516C198.773 136.036 198.461 136.492 198.053 136.884C197.653 137.268 197.181 137.568 196.637 137.784C196.101 137.992 195.513 138.096 194.873 138.096ZM194.873 137.028C195.337 137.028 195.765 136.948 196.157 136.788C196.557 136.628 196.901 136.404 197.189 136.116C197.485 135.82 197.713 135.476 197.873 135.084C198.041 134.692 198.125 134.264 198.125 133.8C198.125 133.336 198.041 132.908 197.873 132.516C197.713 132.124 197.485 131.784 197.189 131.496C196.901 131.2 196.557 130.972 196.157 130.812C195.765 130.652 195.337 130.572 194.873 130.572C194.401 130.572 193.965 130.652 193.565 130.812C193.173 130.972 192.829 131.2 192.533 131.496C192.237 131.784 192.005 132.124 191.837 132.516C191.677 132.908 191.597 133.336 191.597 133.8C191.597 134.264 191.677 134.692 191.837 135.084C192.005 135.476 192.237 135.82 192.533 136.116C192.829 136.404 193.173 136.628 193.565 136.788C193.965 136.948 194.401 137.028 194.873 137.028Z" fill="black"/>
<path d="M205.431 138.096C204.783 138.096 204.187 137.992 203.643 137.784C203.099 137.568 202.627 137.268 202.227 136.884C201.827 136.492 201.515 136.036 201.291 135.516C201.067 134.996 200.955 134.424 200.955 133.8C200.955 133.176 201.067 132.604 201.291 132.084C201.515 131.564 201.827 131.112 202.227 130.728C202.635 130.336 203.111 130.036 203.655 129.828C204.199 129.612 204.799 129.504 205.455 129.504C206.119 129.504 206.727 129.612 207.279 129.828C207.831 130.044 208.299 130.368 208.683 130.8L207.939 131.544C207.595 131.208 207.219 130.964 206.811 130.812C206.411 130.652 205.975 130.572 205.503 130.572C205.023 130.572 204.575 130.652 204.159 130.812C203.751 130.972 203.395 131.196 203.091 131.484C202.795 131.772 202.563 132.116 202.395 132.516C202.235 132.908 202.155 133.336 202.155 133.8C202.155 134.256 202.235 134.684 202.395 135.084C202.563 135.476 202.795 135.82 203.091 136.116C203.395 136.404 203.751 136.628 204.159 136.788C204.567 136.948 205.011 137.028 205.491 137.028C205.939 137.028 206.367 136.96 206.775 136.824C207.191 136.68 207.575 136.444 207.927 136.116L208.611 137.028C208.195 137.38 207.707 137.648 207.147 137.832C206.595 138.008 206.023 138.096 205.431 138.096ZM207.459 136.872V133.752H208.611V137.028L207.459 136.872ZM204.735 141.156L205.131 139.788L205.239 140.22C205.047 140.22 204.895 140.168 204.783 140.064C204.679 139.968 204.627 139.84 204.627 139.68C204.627 139.52 204.683 139.388 204.795 139.284C204.907 139.18 205.055 139.128 205.239 139.128C205.431 139.128 205.579 139.18 205.683 139.284C205.795 139.396 205.851 139.528 205.851 139.68C205.851 139.76 205.839 139.852 205.815 139.956C205.799 140.06 205.759 140.172 205.695 140.292L205.335 141.156H204.735Z" fill="black"/>
<path d="M211.389 138V129.6H212.589V138H211.389Z" fill="black"/>
<path d="M216.664 138.096C216.168 138.096 215.704 137.992 215.272 137.784C214.84 137.576 214.488 137.276 214.216 136.884L214.912 136.068C215.144 136.388 215.404 136.636 215.692 136.812C215.988 136.98 216.312 137.064 216.664 137.064C217.624 137.064 218.104 136.496 218.104 135.36V130.644H215.068V129.6H219.292V135.3C219.292 136.236 219.068 136.936 218.62 137.4C218.18 137.864 217.528 138.096 216.664 138.096Z" fill="black"/>
<path d="M220.768 138L224.572 129.6H225.76L229.576 138H228.316L224.92 130.272H225.4L222.004 138H220.768ZM222.388 135.9L222.712 134.94H227.44L227.788 135.9H222.388ZM223.216 128.496V127.776H227.128V128.496H223.216Z" fill="black"/>
</svg>
