<svg width="40" height="40" viewBox="0 0 40 40" fill="none" xmlns="http://www.w3.org/2000/svg">
<circle cx="20" cy="20" r="20" fill="#3F3F3F"/>
<path fill-rule="evenodd" clip-rule="evenodd" d="M26.375 20.997C26.415 21.6533 25.731 22.0305 25.0764 22.0935C23.3115 22.2631 21.5427 22.2697 19.7702 22.113C19.6648 22.1037 19.5578 22.0803 19.4608 22.0379C19.0988 21.8797 18.8933 21.5174 18.8051 21.1323C18.5273 19.9195 18.1648 18.732 17.7176 17.5697C17.6275 17.6921 17.5372 17.8145 17.4471 17.9369C17.729 19.3218 18.1348 20.6458 18.6645 21.9537C18.9088 22.2478 19.2243 22.4519 19.6114 22.5657C21.6857 22.729 23.7596 22.7515 25.8339 22.5882C26.4429 22.4051 26.8035 22.0379 26.916 21.4866C27.5968 21.8626 27.8959 22.6452 27.9333 23.422C28.0415 25.6693 28.0181 27.9111 27.8631 30.1473C27.7913 31.1844 27.2318 32.5045 26.2478 32.1688C25.6071 31.9502 25.3812 31.1699 25.288 30.4993C25.0396 28.7135 24.7708 26.9332 24.4812 25.1586C21.9618 25.1977 19.4436 25.1615 16.9269 25.0495C16.7385 25.0411 16.559 24.967 16.4191 24.8404C16.2958 24.7288 16.2095 24.5821 16.1724 24.42C15.5969 21.9084 15.0749 19.3803 14.6064 16.8353C14.3847 15.7243 14.6871 14.9573 15.4698 14.3751C15.8584 14.0861 16.4206 13.8964 16.902 13.8441C19.2542 13.5882 20.3416 16.3236 20.7686 18.6509C20.8372 19.0246 20.9024 19.3986 20.9641 19.7729C22.2101 19.9389 23.4611 20.051 24.7175 20.1091C25.2802 20.1352 25.9795 20.0834 26.2611 20.5713C26.33 20.6907 26.3679 20.8326 26.375 20.997Z" fill="white"/>
<path fill-rule="evenodd" clip-rule="evenodd" d="M12.4248 17.9992C12.6125 17.9309 12.9094 17.9091 13.109 17.9183C13.7042 17.9455 13.8482 18.619 13.952 19.2058C14.3333 21.3626 14.8081 23.6192 15.2852 25.893C17.9877 25.893 20.5579 25.893 23.1309 25.893C24.2066 26.5579 24.2066 27.4332 23.1309 28.0738C20.0168 28.0738 16.9056 28.0738 13.6591 28.0738C12.9827 25.1362 12.3093 21.5866 11.7653 18.6489C11.7471 18.308 12.1394 18.1028 12.4248 17.9992Z" fill="white"/>
<ellipse cx="16.5882" cy="10.7059" rx="2.94118" ry="2.70588" fill="white"/>
</svg>
