<svg width="20" height="20" viewBox="0 0 20 20" fill="none" xmlns="http://www.w3.org/2000/svg">
<path d="M1.64016 1.34936L1.63989 1.34963C0.305937 2.68537 0.191227 4.72591 1.04066 7.10176C1.88543 9.46458 3.64569 12.0208 5.80741 14.1857C7.96897 16.3504 10.5213 18.113 12.8804 18.9588C15.2524 19.8092 17.2892 19.6942 18.6228 18.3585L18.6231 18.3582C18.9593 18.0221 19.2229 17.6221 19.3994 17.1831L13.5127 13.4846C13.0583 13.9863 12.7575 14.6101 12.6488 15.2813L12.5348 15.9853L11.9118 15.6381C10.6278 14.9224 9.17116 13.8591 7.65146 12.3372C6.13114 10.8147 5.06937 9.35668 4.35473 8.07003L4.0091 7.44776L4.71171 7.33371C5.35047 7.23002 5.94639 6.95154 6.43474 6.53136L2.72482 0.609813C2.32107 0.785252 1.95282 1.03581 1.64016 1.34936Z" fill="#EDAE0E" stroke="#EDAE0E"/>
</svg>
