<svg width="40" height="40" viewBox="0 0 40 40" fill="none" xmlns="http://www.w3.org/2000/svg">
<circle cx="20" cy="20" r="20" fill="#3F3F3F"/>
<path fill-rule="evenodd" clip-rule="evenodd" d="M21.4295 5.41659C22.6497 5.40374 23.8696 5.4166 25.0894 5.45519C25.1794 5.51724 25.2255 5.60729 25.2275 5.72533C24.8857 6.19775 24.529 6.66085 24.1572 7.11463C23.8954 7.45957 23.5962 7.7426 23.2595 7.96365C22.6008 7.30504 21.9563 6.61037 21.326 5.8797C21.2743 5.69908 21.3088 5.54471 21.4295 5.41659Z" fill="white"/>
<path fill-rule="evenodd" clip-rule="evenodd" d="M16.872 5.4166C16.9669 5.4045 17.059 5.41737 17.1483 5.45519C17.7331 6.18614 18.3431 6.89366 18.9782 7.57774C19.0273 7.72184 18.9928 7.83761 18.8746 7.92506C17.6316 7.97654 16.3887 7.97654 15.1457 7.92506C15.0276 7.83761 14.993 7.72184 15.0421 7.57774C15.6371 6.84817 16.2471 6.1278 16.872 5.4166Z" fill="white"/>
<path fill-rule="evenodd" clip-rule="evenodd" d="M12.3147 8.96705C17.4708 8.95416 22.6268 8.96705 27.7827 9.00565C28.7163 9.19999 29.3263 9.80465 29.6127 10.8195C29.6587 18.1776 29.6587 25.5358 29.6127 32.894C29.421 33.903 28.8801 34.5334 27.9899 34.7849C22.7188 34.8364 17.4477 34.8364 12.1766 34.7849C11.2787 34.4245 10.7608 33.717 10.6229 32.6624C10.5769 25.4586 10.5769 18.2548 10.6229 11.051C10.8175 9.97198 11.3815 9.27733 12.3147 8.96705Z" fill="white"/>
<path fill-rule="evenodd" clip-rule="evenodd" d="M28.8185 11.2825C28.8185 18.3834 28.8185 25.4843 28.8185 32.5852C28.7118 33.1804 28.4125 33.6049 27.9208 33.8587C22.7188 33.9102 17.5167 33.9102 12.3147 33.8587C11.8482 33.6203 11.5604 33.2216 11.4515 32.6624C11.4055 25.4586 11.4055 18.2548 11.4515 11.051C11.5963 10.5835 11.861 10.2362 12.2457 10.009C17.3977 9.88112 22.5537 9.85534 27.7137 9.93183C28.3593 10.1002 28.7276 10.5505 28.8185 11.2825Z" fill="#3F3F3F"/>
<path fill-rule="evenodd" clip-rule="evenodd" d="M15.8945 12.6388C17.2087 12.6813 17.7173 13.4409 17.4202 14.9176C16.9696 15.6592 16.3706 15.8818 15.6233 15.5855C14.925 15.0105 14.7554 14.264 15.1147 13.346C15.329 13.031 15.589 12.7953 15.8945 12.6388Z" fill="white"/>
<path fill-rule="evenodd" clip-rule="evenodd" d="M14.1789 15.9907C15.5371 15.9778 16.8952 15.9907 18.253 16.0293C18.7856 16.187 19.1423 16.56 19.3234 17.1485C19.3694 19.181 19.3694 21.2135 19.3234 23.246C18.9492 23.8565 18.5809 23.8565 18.2185 23.246C18.1955 21.7023 18.1725 20.1586 18.1495 18.615C18.1019 18.5488 18.0444 18.4974 17.9768 18.4606C17.9193 22.8855 17.8848 27.3108 17.8733 31.7362C17.6491 32.2274 17.2923 32.3947 16.8029 32.2379C16.604 32.1413 16.4774 31.9741 16.4231 31.7362C16.3886 29.0091 16.3771 26.282 16.3886 23.5547C16.2966 23.5547 16.2044 23.5547 16.1124 23.5547C16.1239 26.2563 16.1124 28.9577 16.0779 31.659C15.9064 32.244 15.5496 32.4369 15.0075 32.2379C14.8086 32.1413 14.682 31.9741 14.6277 31.7362C14.6162 27.3108 14.5817 22.8855 14.5242 18.4606C14.4566 18.4974 14.3991 18.5488 14.3515 18.615C14.3285 20.1329 14.3055 21.6508 14.2825 23.1688C14.1018 23.701 13.7911 23.8296 13.3502 23.5547C13.2754 23.4648 13.2179 23.3619 13.1776 23.246C13.1316 21.1877 13.1316 19.1296 13.1776 17.0713C13.3759 16.5445 13.7096 16.1843 14.1789 15.9907Z" fill="white"/>
<path fill-rule="evenodd" clip-rule="evenodd" d="M23.3569 12.4727C24.6711 12.5152 25.1797 13.2747 24.8826 14.7514C24.432 15.493 23.833 15.7156 23.0857 15.4194C22.3874 14.8443 22.2178 14.0978 22.5771 13.1799C22.7914 12.8648 23.0514 12.6291 23.3569 12.4727Z" fill="white"/>
<path fill-rule="evenodd" clip-rule="evenodd" d="M21.6413 15.8246C22.9995 15.8117 24.3576 15.8246 25.7155 15.8632C26.248 16.0209 26.6047 16.3939 26.7858 16.9824C26.8318 19.0148 26.8318 21.0474 26.7858 23.0799C26.4116 23.6904 26.0433 23.6904 25.6809 23.0799C25.6579 21.5362 25.6349 19.9925 25.6119 18.4488C25.5643 18.3827 25.5068 18.3313 25.4392 18.2945C25.3817 22.7194 25.3472 27.1446 25.3357 31.57C25.1115 32.0613 24.7547 32.2286 24.2653 32.0717C24.0664 31.9752 23.9398 31.808 23.8855 31.57C23.851 28.843 23.8395 26.1159 23.851 23.3886C23.759 23.3886 23.6668 23.3886 23.5748 23.3886C23.5863 26.0902 23.5748 28.7916 23.5403 31.4929C23.3688 32.0778 23.012 32.2708 22.4699 32.0717C22.271 31.9752 22.1444 31.808 22.0901 31.57C22.0786 27.1446 22.0441 22.7194 21.9866 18.2945C21.919 18.3313 21.8615 18.3827 21.8139 18.4488C21.7909 19.9668 21.7679 21.4847 21.7449 23.0027C21.5642 23.5348 21.2535 23.6634 20.8126 23.3886C20.7378 23.2987 20.6803 23.1958 20.64 23.0799C20.594 21.0216 20.594 18.9634 20.64 16.9052C20.8383 16.3784 21.172 16.0182 21.6413 15.8246Z" fill="white"/>
</svg>
