<svg width="280" height="67" viewBox="0 0 280 67" fill="none" xmlns="http://www.w3.org/2000/svg">
<path d="M47.4294 43.9091C46.9372 43.9091 46.4767 43.7992 46.048 43.5793C45.6193 43.3594 45.2699 43.0423 45 42.6279L45.6907 41.7653C45.921 42.1036 46.179 42.3658 46.4648 42.5518C46.7585 42.7294 47.0801 42.8182 47.4294 42.8182C48.3821 42.8182 48.8585 42.2178 48.8585 41.0169V36.0317H45.8455V34.9281H50.0375V40.9535C50.0375 41.9429 49.8152 42.6829 49.3706 43.1734C48.9339 43.6638 48.2869 43.9091 47.4294 43.9091Z" fill="#152F3F"/>
<path d="M51.5028 43.8076L55.2779 34.9281H56.4569L60.244 43.8076H58.9935L55.6233 35.6385H56.0997L52.7294 43.8076H51.5028ZM53.1105 41.5877L53.4321 40.5729H58.1242L58.4695 41.5877H53.1105Z" fill="#152F3F"/>
<path d="M65.243 43.9091C64.1474 43.9091 63.286 43.5751 62.6588 42.907C62.0316 42.2389 61.718 41.2622 61.718 39.9767V34.9281H62.9089V39.926C62.9089 40.9154 63.1113 41.6385 63.5162 42.0951C63.929 42.5518 64.5086 42.7801 65.2549 42.7801C66.0091 42.7801 66.5887 42.5518 66.9936 42.0951C67.4065 41.6385 67.6129 40.9154 67.6129 39.926V34.9281H68.768V39.9767C68.768 41.2622 68.4544 42.2389 67.8272 42.907C67.208 43.5751 66.3466 43.9091 65.243 43.9091Z" fill="#152F3F"/>
<path d="M73.1901 43.8076V36.0317H70.3319V34.9281H77.2272V36.0317H74.369V43.8076H73.1901Z" fill="#152F3F"/>
<path d="M79.0006 43.8076V34.9281H82.2517C82.9821 34.9281 83.6054 35.0507 84.1214 35.296C84.6375 35.5412 85.0344 35.8964 85.3123 36.3615C85.5902 36.8266 85.7291 37.3806 85.7291 38.0233C85.7291 38.666 85.5902 39.2199 85.3123 39.685C85.0344 40.1416 84.6375 40.4926 84.1214 40.7378C83.6054 40.9831 82.9821 41.1057 82.2517 41.1057H79.6556L80.1915 40.5222V43.8076H79.0006ZM84.5739 43.8076L82.4542 40.5856H83.7284L85.872 43.8076H84.5739ZM80.1915 40.649L79.6556 40.0275H82.216C82.9781 40.0275 83.5537 39.8541 83.9428 39.5074C84.3397 39.1522 84.5382 38.6575 84.5382 38.0233C84.5382 37.389 84.3397 36.8985 83.9428 36.5518C83.5537 36.2051 82.9781 36.0317 82.216 36.0317H79.6556L80.1915 35.3975V40.649Z" fill="#152F3F"/>
<path d="M88.1295 43.8076V34.9281H89.3204V43.8076H88.1295ZM87.1411 33.7611V33H90.3088V33.7611H87.1411Z" fill="#152F3F"/>
<path d="M93.9478 43.8076V36.0317H91.0897V34.9281H97.985V36.0317H95.1268V43.8076H93.9478Z" fill="#152F3F"/>
<path d="M100.842 38.759H105.129V39.8372H100.842V38.759ZM100.949 42.704H105.808V43.8076H99.7584V34.9281H105.641V36.0317H100.949V42.704Z" fill="#152F3F"/>
<path d="M110.642 43.9091C110.007 43.9091 109.4 43.8076 108.82 43.6047C108.241 43.3932 107.784 43.1226 107.451 42.7928L107.891 41.8034C108.209 42.0994 108.614 42.3446 109.106 42.5391C109.598 42.7336 110.11 42.8309 110.642 42.8309C111.126 42.8309 111.519 42.7717 111.821 42.6533C112.123 42.5349 112.345 42.3742 112.488 42.1712C112.631 41.9598 112.702 41.723 112.702 41.4609C112.702 41.1564 112.607 40.9112 112.417 40.7252C112.234 40.5391 111.992 40.3911 111.69 40.2812C111.396 40.1628 111.071 40.0613 110.714 39.9767C110.356 39.8922 109.995 39.7949 109.63 39.685C109.273 39.5666 108.943 39.4186 108.641 39.241C108.348 39.0634 108.11 38.8266 107.927 38.5307C107.744 38.2262 107.653 37.8372 107.653 37.3636C107.653 36.907 107.764 36.4884 107.986 36.1078C108.217 35.7188 108.566 35.4101 109.034 35.1818C109.511 34.945 110.114 34.8266 110.845 34.8266C111.329 34.8266 111.809 34.8943 112.286 35.0296C112.762 35.1649 113.175 35.3594 113.524 35.6131L113.131 36.6279C112.774 36.3742 112.397 36.1924 112 36.0825C111.603 35.9641 111.218 35.9049 110.845 35.9049C110.376 35.9049 109.991 35.9683 109.689 36.0951C109.388 36.222 109.165 36.3911 109.023 36.6025C108.888 36.814 108.82 37.0507 108.82 37.3129C108.82 37.6258 108.911 37.8753 109.094 38.0613C109.285 38.2474 109.527 38.3953 109.82 38.5053C110.122 38.6152 110.452 38.7167 110.809 38.8097C111.166 38.8943 111.523 38.9915 111.881 39.1015C112.246 39.2114 112.575 39.3552 112.869 39.5328C113.171 39.7104 113.413 39.9471 113.596 40.2431C113.778 40.5391 113.869 40.9197 113.869 41.3848C113.869 41.833 113.754 42.2516 113.524 42.6406C113.294 43.0211 112.937 43.3298 112.452 43.5666C111.976 43.7949 111.373 43.9091 110.642 43.9091Z" fill="#152F3F"/>
<path d="M119.76 43.8076V34.9281H120.951V42.704H125.465V43.8076H119.76Z" fill="#152F3F"/>
<path d="M127.307 43.8076V34.9281H128.498V43.8076H127.307Z" fill="#152F3F"/>
<path d="M132.554 38.759H136.841V39.8372H132.554V38.759ZM132.661 42.704H137.52V43.8076H131.47V34.9281H137.353V36.0317H132.661V42.704Z" fill="#152F3F"/>
<path d="M139.925 43.8076V34.9281H143.176C143.906 34.9281 144.53 35.0507 145.046 35.296C145.562 35.5412 145.959 35.8964 146.237 36.3615C146.514 36.8266 146.653 37.3806 146.653 38.0233C146.653 38.666 146.514 39.2199 146.237 39.685C145.959 40.1416 145.562 40.4968 145.046 40.7505C144.53 40.9958 143.906 41.1184 143.176 41.1184H140.58L141.116 40.5222V43.8076H139.925ZM141.116 40.649L140.58 40.0148H143.14C143.902 40.0148 144.478 39.8414 144.867 39.4947C145.264 39.148 145.463 38.6575 145.463 38.0233C145.463 37.389 145.264 36.8985 144.867 36.5518C144.478 36.2051 143.902 36.0317 143.14 36.0317H140.58L141.116 35.3975V40.649Z" fill="#152F3F"/>
<path d="M148.879 43.8076V34.9281H150.07V43.8076H148.879Z" fill="#152F3F"/>
<path d="M153.042 43.8076V34.9281H154.019L159.533 42.222H159.021V34.9281H160.211V43.8076H159.235L153.721 36.5137H154.233V43.8076H153.042ZM156.115 47.1438L156.508 45.6977L156.615 46.1543C156.424 46.1543 156.274 46.0994 156.162 45.9894C156.059 45.8879 156.008 45.7526 156.008 45.5835C156.008 45.4144 156.063 45.2748 156.174 45.1649C156.286 45.055 156.432 45 156.615 45C156.806 45 156.952 45.055 157.056 45.1649C157.167 45.2833 157.222 45.4228 157.222 45.5835C157.222 45.6681 157.21 45.7653 157.187 45.8753C157.171 45.9852 157.131 46.1036 157.068 46.2304L156.71 47.1438H156.115Z" fill="#152F3F"/>
<path d="M161.921 43.8076L165.696 34.9281H166.875L170.662 43.8076H169.411L166.041 35.6385H166.518L163.147 43.8076H161.921ZM163.528 41.5877L163.85 40.5729H168.542L168.887 41.5877H163.528Z" fill="#152F3F"/>
<path d="M174.811 43.9091C174.176 43.9091 173.569 43.8076 172.989 43.6047C172.41 43.3932 171.953 43.1226 171.62 42.7928L172.06 41.8034C172.378 42.0994 172.783 42.3446 173.275 42.5391C173.767 42.7336 174.279 42.8309 174.811 42.8309C175.295 42.8309 175.688 42.7717 175.99 42.6533C176.292 42.5349 176.514 42.3742 176.657 42.1712C176.8 41.9598 176.871 41.723 176.871 41.4609C176.871 41.1564 176.776 40.9112 176.586 40.7252C176.403 40.5391 176.161 40.3911 175.859 40.2812C175.565 40.1628 175.24 40.0613 174.883 39.9767C174.525 39.8922 174.164 39.7949 173.799 39.685C173.442 39.5666 173.112 39.4186 172.81 39.241C172.517 39.0634 172.279 38.8266 172.096 38.5307C171.913 38.2262 171.822 37.8372 171.822 37.3636C171.822 36.907 171.933 36.4884 172.155 36.1078C172.386 35.7188 172.735 35.4101 173.203 35.1818C173.68 34.945 174.283 34.8266 175.014 34.8266C175.498 34.8266 175.978 34.8943 176.455 35.0296C176.931 35.1649 177.344 35.3594 177.693 35.6131L177.3 36.6279C176.943 36.3742 176.566 36.1924 176.169 36.0825C175.772 35.9641 175.387 35.9049 175.014 35.9049C174.545 35.9049 174.16 35.9683 173.858 36.0951C173.557 36.222 173.334 36.3911 173.192 36.6025C173.057 36.814 172.989 37.0507 172.989 37.3129C172.989 37.6258 173.08 37.8753 173.263 38.0613C173.454 38.2474 173.696 38.3953 173.989 38.5053C174.291 38.6152 174.621 38.7167 174.978 38.8097C175.335 38.8943 175.692 38.9915 176.05 39.1015C176.415 39.2114 176.744 39.3552 177.038 39.5328C177.34 39.7104 177.582 39.9471 177.765 40.2431C177.947 40.5391 178.038 40.9197 178.038 41.3848C178.038 41.833 177.923 42.2516 177.693 42.6406C177.463 43.0211 177.106 43.3298 176.621 43.5666C176.145 43.7949 175.542 43.9091 174.811 43.9091Z" fill="#152F3F"/>
<path d="M182.667 43.8076L186.442 34.9281H187.621L191.408 43.8076H190.158L186.787 35.6385H187.264L183.893 43.8076H182.667ZM184.275 41.5877L184.596 40.5729H189.288L189.634 41.5877H184.275ZM185.096 33.7611V33H188.979V33.7611H185.096Z" fill="#152F3F"/>
<path d="M193.128 43.8076V34.9281H196.379C197.109 34.9281 197.733 35.0507 198.249 35.296C198.765 35.5412 199.162 35.8964 199.44 36.3615C199.717 36.8266 199.856 37.3806 199.856 38.0233C199.856 38.666 199.717 39.2199 199.44 39.685C199.162 40.1416 198.765 40.4926 198.249 40.7378C197.733 40.9831 197.109 41.1057 196.379 41.1057H193.783L194.319 40.5222V43.8076H193.128ZM198.701 43.8076L196.581 40.5856H197.856L199.999 43.8076H198.701ZM194.319 40.649L193.783 40.0275H196.343C197.105 40.0275 197.681 39.8541 198.07 39.5074C198.467 39.1522 198.666 38.6575 198.666 38.0233C198.666 37.389 198.467 36.8985 198.07 36.5518C197.681 36.2051 197.105 36.0317 196.343 36.0317H193.783L194.319 35.3975V40.649Z" fill="#152F3F"/>
<path d="M204.686 43.9091C204.051 43.9091 203.444 43.8076 202.864 43.6047C202.285 43.3932 201.828 43.1226 201.495 42.7928L201.935 41.8034C202.253 42.0994 202.658 42.3446 203.15 42.5391C203.642 42.7336 204.154 42.8309 204.686 42.8309C205.171 42.8309 205.564 42.7717 205.865 42.6533C206.167 42.5349 206.389 42.3742 206.532 42.1712C206.675 41.9598 206.746 41.723 206.746 41.4609C206.746 41.1564 206.651 40.9112 206.461 40.7252C206.278 40.5391 206.036 40.3911 205.734 40.2812C205.44 40.1628 205.115 40.0613 204.758 39.9767C204.4 39.8922 204.039 39.7949 203.674 39.685C203.317 39.5666 202.987 39.4186 202.686 39.241C202.392 39.0634 202.154 38.8266 201.971 38.5307C201.788 38.2262 201.697 37.8372 201.697 37.3636C201.697 36.907 201.808 36.4884 202.031 36.1078C202.261 35.7188 202.61 35.4101 203.079 35.1818C203.555 34.945 204.158 34.8266 204.889 34.8266C205.373 34.8266 205.853 34.8943 206.33 35.0296C206.806 35.1649 207.219 35.3594 207.568 35.6131L207.175 36.6279C206.818 36.3742 206.441 36.1924 206.044 36.0825C205.647 35.9641 205.262 35.9049 204.889 35.9049C204.42 35.9049 204.035 35.9683 203.734 36.0951C203.432 36.222 203.21 36.3911 203.067 36.6025C202.932 36.814 202.864 37.0507 202.864 37.3129C202.864 37.6258 202.955 37.8753 203.138 38.0613C203.329 38.2474 203.571 38.3953 203.865 38.5053C204.166 38.6152 204.496 38.7167 204.853 38.8097C205.21 38.8943 205.567 38.9915 205.925 39.1015C206.29 39.2114 206.619 39.3552 206.913 39.5328C207.215 39.7104 207.457 39.9471 207.64 40.2431C207.822 40.5391 207.914 40.9197 207.914 41.3848C207.914 41.833 207.798 42.2516 207.568 42.6406C207.338 43.0211 206.981 43.3298 206.496 43.5666C206.02 43.7949 205.417 43.9091 204.686 43.9091Z" fill="#152F3F"/>
<path d="M211.669 43.8076V36.0317H208.811V34.9281H215.706V36.0317H212.848V43.8076H211.669Z" fill="#152F3F"/>
<path d="M215.798 43.8076L219.573 34.9281H220.752L224.539 43.8076H223.289L219.919 35.6385H220.395L217.025 43.8076H215.798ZM217.406 41.5877L217.728 40.5729H222.42L222.765 41.5877H217.406Z" fill="#152F3F"/>
<path d="M229.934 43.8076V34.9281H233.185C233.915 34.9281 234.539 35.0507 235.055 35.296C235.571 35.5412 235.968 35.8964 236.246 36.3615C236.523 36.8266 236.662 37.3806 236.662 38.0233C236.662 38.666 236.523 39.2199 236.246 39.685C235.968 40.1416 235.571 40.4968 235.055 40.7505C234.539 40.9958 233.915 41.1184 233.185 41.1184H230.589L231.125 40.5222V43.8076H229.934ZM231.125 40.649L230.589 40.0148H233.149C233.911 40.0148 234.487 39.8414 234.876 39.4947C235.273 39.148 235.471 38.6575 235.471 38.0233C235.471 37.389 235.273 36.8985 234.876 36.5518C234.487 36.2051 233.911 36.0317 233.149 36.0317H230.589L231.125 35.3975V40.649Z" fill="#152F3F"/>
<path d="M238.888 43.8076V34.9281H242.139C242.87 34.9281 243.493 35.0507 244.009 35.296C244.525 35.5412 244.922 35.8964 245.2 36.3615C245.478 36.8266 245.617 37.3806 245.617 38.0233C245.617 38.666 245.478 39.2199 245.2 39.685C244.922 40.1416 244.525 40.4926 244.009 40.7378C243.493 40.9831 242.87 41.1057 242.139 41.1057H239.543L240.079 40.5222V43.8076H238.888ZM244.462 43.8076L242.342 40.5856H243.616L245.76 43.8076H244.462ZM240.079 40.649L239.543 40.0275H242.104C242.866 40.0275 243.441 39.8541 243.831 39.5074C244.227 39.1522 244.426 38.6575 244.426 38.0233C244.426 37.389 244.227 36.8985 243.831 36.5518C243.441 36.2051 242.866 36.0317 242.104 36.0317H239.543L240.079 35.3975V40.649Z" fill="#152F3F"/>
<path d="M246.755 43.8076L250.53 34.9281H251.709L255.496 43.8076H254.246L250.875 35.6385H251.352L247.982 43.8076H246.755ZM248.363 41.5877L248.684 40.5729H253.376L253.722 41.5877H248.363Z" fill="#152F3F"/>
<path d="M258.264 41.6638L258.204 40.1163L262.932 34.9281H264.29L260.634 39.0381L259.967 39.8245L258.264 41.6638ZM257.216 43.8076V34.9281H258.407V43.8076H257.216ZM263.123 43.8076L259.705 39.5708L260.503 38.6321L264.516 43.8076H263.123Z" fill="#152F3F"/>
<path d="M268.507 43.9091C267.872 43.9091 267.264 43.8076 266.685 43.6047C266.105 43.3932 265.649 43.1226 265.315 42.7928L265.756 41.8034C266.073 42.0994 266.478 42.3446 266.971 42.5391C267.463 42.7336 267.975 42.8309 268.507 42.8309C268.991 42.8309 269.384 42.7717 269.686 42.6533C269.987 42.5349 270.21 42.3742 270.353 42.1712C270.496 41.9598 270.567 41.723 270.567 41.4609C270.567 41.1564 270.472 40.9112 270.281 40.7252C270.099 40.5391 269.856 40.3911 269.555 40.2812C269.261 40.1628 268.936 40.0613 268.578 39.9767C268.221 39.8922 267.86 39.7949 267.495 39.685C267.137 39.5666 266.808 39.4186 266.506 39.241C266.212 39.0634 265.974 38.8266 265.792 38.5307C265.609 38.2262 265.518 37.8372 265.518 37.3636C265.518 36.907 265.629 36.4884 265.851 36.1078C266.081 35.7188 266.431 35.4101 266.899 35.1818C267.375 34.945 267.979 34.8266 268.709 34.8266C269.194 34.8266 269.674 34.8943 270.15 35.0296C270.627 35.1649 271.039 35.3594 271.389 35.6131L270.996 36.6279C270.638 36.3742 270.261 36.1924 269.864 36.0825C269.467 35.9641 269.082 35.9049 268.709 35.9049C268.241 35.9049 267.856 35.9683 267.554 36.0951C267.252 36.222 267.03 36.3911 266.887 36.6025C266.752 36.814 266.685 37.0507 266.685 37.3129C266.685 37.6258 266.776 37.8753 266.959 38.0613C267.149 38.2474 267.391 38.3953 267.685 38.5053C267.987 38.6152 268.316 38.7167 268.674 38.8097C269.031 38.8943 269.388 38.9915 269.745 39.1015C270.111 39.2114 270.44 39.3552 270.734 39.5328C271.035 39.7104 271.278 39.9471 271.46 40.2431C271.643 40.5391 271.734 40.9197 271.734 41.3848C271.734 41.833 271.619 42.2516 271.389 42.6406C271.159 43.0211 270.801 43.3298 270.317 43.5666C269.841 43.7949 269.237 43.9091 268.507 43.9091Z" fill="#152F3F"/>
<path d="M275.034 38.759H279.321V39.8372H275.034V38.759ZM275.141 42.704H280V43.8076H273.95V34.9281H279.833V36.0317H275.141V42.704Z" fill="#152F3F"/>
<path d="M50.1208 59.7653C49.4857 59.7653 48.8942 59.6512 48.3464 59.4228C47.8065 59.1945 47.3381 58.8774 46.9412 58.4715C46.5442 58.0571 46.2346 57.5751 46.0123 57.0254C45.79 56.4757 45.6788 55.8753 45.6788 55.2241C45.6788 54.5729 45.79 53.9725 46.0123 53.4228C46.2346 52.8732 46.5442 52.3953 46.9412 51.9894C47.3381 51.5751 47.8065 51.2537 48.3464 51.0254C48.8863 50.797 49.4777 50.6829 50.1208 50.6829C50.756 50.6829 51.3395 50.797 51.8714 51.0254C52.4113 51.2452 52.8797 51.5624 53.2767 51.9767C53.6816 52.3827 53.9912 52.8605 54.2056 53.4101C54.4279 53.9598 54.539 54.5645 54.539 55.2241C54.539 55.8837 54.4279 56.4884 54.2056 57.0381C53.9912 57.5877 53.6816 58.0698 53.2767 58.4841C52.8797 58.8901 52.4113 59.2072 51.8714 59.4355C51.3395 59.6554 50.756 59.7653 50.1208 59.7653ZM50.1208 58.6364C50.5813 58.6364 51.0061 58.5518 51.3951 58.3827C51.792 58.2135 52.1334 57.9767 52.4192 57.6723C52.713 57.3594 52.9393 56.9958 53.0981 56.5814C53.2648 56.167 53.3481 55.7146 53.3481 55.2241C53.3481 54.7336 53.2648 54.2812 53.0981 53.8668C52.9393 53.4524 52.713 53.093 52.4192 52.7886C52.1334 52.4757 51.792 52.2347 51.3951 52.0655C51.0061 51.8964 50.5813 51.8118 50.1208 51.8118C49.6524 51.8118 49.2197 51.8964 48.8228 52.0655C48.4337 52.2347 48.0923 52.4757 47.7986 52.7886C47.5048 53.093 47.2746 53.4524 47.1079 53.8668C46.9491 54.2812 46.8697 54.7336 46.8697 55.2241C46.8697 55.7146 46.9491 56.167 47.1079 56.5814C47.2746 56.9958 47.5048 57.3594 47.7986 57.6723C48.0923 57.9767 48.4337 58.2135 48.8228 58.3827C49.2197 58.5518 49.6524 58.6364 50.1208 58.6364Z" fill="#152F3F"/>
<path d="M58.3746 59.6638V51.8879H55.5165V50.7844H62.4117V51.8879H59.5536V59.6638H58.3746Z" fill="#152F3F"/>
<path d="M67.8321 59.7653C67.1969 59.7653 66.6055 59.6512 66.0576 59.4228C65.5178 59.1945 65.0494 58.8774 64.6524 58.4715C64.2554 58.0571 63.9458 57.5751 63.7235 57.0254C63.5012 56.4757 63.39 55.8753 63.39 55.2241C63.39 54.5729 63.5012 53.9725 63.7235 53.4228C63.9458 52.8732 64.2554 52.3953 64.6524 51.9894C65.0494 51.5751 65.5178 51.2537 66.0576 51.0254C66.5975 50.797 67.189 50.6829 67.8321 50.6829C68.4672 50.6829 69.0507 50.797 69.5827 51.0254C70.1225 51.2452 70.591 51.5624 70.9879 51.9767C71.3928 52.3827 71.7025 52.8605 71.9168 53.4101C72.1391 53.9598 72.2503 54.5645 72.2503 55.2241C72.2503 55.8837 72.1391 56.4884 71.9168 57.0381C71.7025 57.5877 71.3928 58.0698 70.9879 58.4841C70.591 58.8901 70.1225 59.2072 69.5827 59.4355C69.0507 59.6554 68.4672 59.7653 67.8321 59.7653ZM67.8321 58.6364C68.2925 58.6364 68.7173 58.5518 69.1063 58.3827C69.5033 58.2135 69.8447 57.9767 70.1305 57.6723C70.4242 57.3594 70.6505 56.9958 70.8093 56.5814C70.976 56.167 71.0594 55.7146 71.0594 55.2241C71.0594 54.7336 70.976 54.2812 70.8093 53.8668C70.6505 53.4524 70.4242 53.093 70.1305 52.7886C69.8447 52.4757 69.5033 52.2347 69.1063 52.0655C68.7173 51.8964 68.2925 51.8118 67.8321 51.8118C67.3637 51.8118 66.931 51.8964 66.534 52.0655C66.145 52.2347 65.8036 52.4757 65.5098 52.7886C65.2161 53.093 64.9858 53.4524 64.8191 53.8668C64.6603 54.2812 64.5809 54.7336 64.5809 55.2241C64.5809 55.7146 64.6603 56.167 64.8191 56.5814C64.9858 56.9958 65.2161 57.3594 65.5098 57.6723C65.8036 57.9767 66.145 58.2135 66.534 58.3827C66.931 58.5518 67.3637 58.6364 67.8321 58.6364Z" fill="#152F3F"/>
<path d="M74.5468 59.6638V50.7844H77.798C78.5284 50.7844 79.1516 50.907 79.6677 51.1522C80.1837 51.3975 80.5807 51.7526 80.8586 52.2178C81.1364 52.6829 81.2754 53.2368 81.2754 53.8795C81.2754 54.5222 81.1364 55.0761 80.8586 55.5412C80.5807 55.9979 80.1837 56.3488 79.6677 56.5941C79.1516 56.8393 78.5284 56.9619 77.798 56.9619H75.2018L75.7377 56.3784V59.6638H74.5468ZM80.1202 59.6638L78.0004 56.4419H79.2747L81.4183 59.6638H80.1202ZM75.7377 56.5053L75.2018 55.8837H77.7622C78.5244 55.8837 79.1 55.7104 79.489 55.3636C79.886 55.0085 80.0845 54.5137 80.0845 53.8795C80.0845 53.2452 79.886 52.7548 79.489 52.408C79.1 52.0613 78.5244 51.8879 77.7622 51.8879H75.2018L75.7377 51.2537V56.5053Z" fill="#152F3F"/>
<path d="M83.6757 59.6638V50.7844H84.8666V59.6638H83.6757Z" fill="#152F3F"/>
<path d="M87.8388 59.6638V50.7844H88.8153L94.3291 58.0782H93.817V50.7844H95.0079V59.6638H94.0314L88.5176 52.37H89.0296V59.6638H87.8388Z" fill="#152F3F"/>
<path d="M101.743 59.7653C101.108 59.7653 100.516 59.6512 99.9683 59.4228C99.4284 59.1945 98.96 58.8774 98.563 58.4715C98.166 58.0571 97.8564 57.5751 97.6341 57.0254C97.4118 56.4757 97.3007 55.8753 97.3007 55.2241C97.3007 54.5729 97.4118 53.9725 97.6341 53.4228C97.8564 52.8732 98.166 52.3953 98.563 51.9894C98.96 51.5751 99.4284 51.2537 99.9683 51.0254C100.508 50.797 101.1 50.6829 101.743 50.6829C102.378 50.6829 102.961 50.797 103.493 51.0254C104.033 51.2452 104.502 51.5624 104.899 51.9767C105.303 52.3827 105.613 52.8605 105.827 53.4101C106.05 53.9598 106.161 54.5645 106.161 55.2241C106.161 55.8837 106.05 56.4884 105.827 57.0381C105.613 57.5877 105.303 58.0698 104.899 58.4841C104.502 58.8901 104.033 59.2072 103.493 59.4355C102.961 59.6554 102.378 59.7653 101.743 59.7653ZM101.743 58.6364C102.203 58.6364 102.628 58.5518 103.017 58.3827C103.414 58.2135 103.755 57.9767 104.041 57.6723C104.335 57.3594 104.561 56.9958 104.72 56.5814C104.887 56.167 104.97 55.7146 104.97 55.2241C104.97 54.7336 104.887 54.2812 104.72 53.8668C104.561 53.4524 104.335 53.093 104.041 52.7886C103.755 52.4757 103.414 52.2347 103.017 52.0655C102.628 51.8964 102.203 51.8118 101.743 51.8118C101.274 51.8118 100.842 51.8964 100.445 52.0655C100.056 52.2347 99.7142 52.4757 99.4204 52.7886C99.1267 53.093 98.8964 53.4524 98.7297 53.8668C98.5709 54.2812 98.4915 54.7336 98.4915 55.2241C98.4915 55.7146 98.5709 56.167 98.7297 56.5814C98.8964 56.9958 99.1267 57.3594 99.4204 57.6723C99.7142 57.9767 100.056 58.2135 100.445 58.3827C100.842 58.5518 101.274 58.6364 101.743 58.6364Z" fill="#152F3F"/>
<path d="M108.457 59.6638V50.7844H109.648V58.5603H114.162V59.6638H108.457Z" fill="#152F3F"/>
<path d="M114.742 59.6638L118.517 50.7844H119.696L123.483 59.6638H122.233L118.863 51.4947H119.339L115.969 59.6638H114.742ZM116.35 57.444L116.672 56.4292H121.364L121.709 57.444H116.35Z" fill="#152F3F"/>
<path d="M125.203 59.6638V50.7844H128.455C129.185 50.7844 129.808 50.907 130.324 51.1522C130.84 51.3975 131.237 51.7526 131.515 52.2178C131.793 52.6829 131.932 53.2368 131.932 53.8795C131.932 54.5222 131.793 55.0761 131.515 55.5412C131.237 55.9979 130.84 56.3488 130.324 56.5941C129.808 56.8393 129.185 56.9619 128.455 56.9619H125.858L126.394 56.3784V59.6638H125.203ZM130.777 59.6638L128.657 56.4419H129.931L132.075 59.6638H130.777ZM126.394 56.5053L125.858 55.8837H128.419C129.181 55.8837 129.757 55.7104 130.146 55.3636C130.543 55.0085 130.741 54.5137 130.741 53.8795C130.741 53.2452 130.543 52.7548 130.146 52.408C129.757 52.0613 129.181 51.8879 128.419 51.8879H125.858L126.394 51.2537V56.5053Z" fill="#152F3F"/>
<path d="M134.332 59.6638V50.7844H135.523V59.6638H134.332Z" fill="#152F3F"/>
<path d="M138.495 59.6638V50.7844H139.472L144.986 58.0782H144.474V50.7844H145.664V59.6638H144.688L139.174 52.37H139.686V59.6638H138.495Z" fill="#152F3F"/>
<path d="M152.399 59.7653C151.756 59.7653 151.165 59.6554 150.625 59.4355C150.085 59.2072 149.617 58.8901 149.22 58.4841C148.823 58.0698 148.513 57.5877 148.291 57.0381C148.068 56.4884 147.957 55.8837 147.957 55.2241C147.957 54.5645 148.068 53.9598 148.291 53.4101C148.513 52.8605 148.823 52.3827 149.22 51.9767C149.624 51.5624 150.097 51.2452 150.637 51.0254C151.177 50.797 151.772 50.6829 152.423 50.6829C153.082 50.6829 153.685 50.797 154.233 51.0254C154.781 51.2537 155.245 51.5962 155.627 52.0529L154.888 52.8393C154.547 52.4841 154.174 52.2262 153.769 52.0655C153.372 51.8964 152.939 51.8118 152.471 51.8118C151.994 51.8118 151.55 51.8964 151.137 52.0655C150.732 52.2347 150.379 52.4715 150.077 52.7759C149.783 53.0803 149.553 53.444 149.386 53.8668C149.228 54.2812 149.148 54.7336 149.148 55.2241C149.148 55.7061 149.228 56.1586 149.386 56.5814C149.553 56.9958 149.783 57.3594 150.077 57.6723C150.379 57.9767 150.732 58.2135 151.137 58.3827C151.542 58.5518 151.982 58.6364 152.459 58.6364C152.903 58.6364 153.328 58.5645 153.733 58.4207C154.146 58.2685 154.527 58.019 154.876 57.6723L155.555 58.6364C155.142 59.0085 154.658 59.2918 154.102 59.4863C153.554 59.6723 152.987 59.7653 152.399 59.7653ZM154.412 58.4715V55.1734H155.555V58.6364L154.412 58.4715Z" fill="#152F3F"/>
<path d="M162.075 59.7653C161.44 59.7653 160.848 59.6512 160.3 59.4228C159.76 59.1945 159.292 58.8774 158.895 58.4715C158.498 58.0571 158.189 57.5751 157.966 57.0254C157.744 56.4757 157.633 55.8753 157.633 55.2241C157.633 54.5729 157.744 53.9725 157.966 53.4228C158.189 52.8732 158.498 52.3953 158.895 51.9894C159.292 51.5751 159.76 51.2537 160.3 51.0254C160.84 50.797 161.432 50.6829 162.075 50.6829C162.71 50.6829 163.293 50.797 163.825 51.0254C164.365 51.2452 164.834 51.5624 165.231 51.9767C165.636 52.3827 165.945 52.8605 166.16 53.4101C166.382 53.9598 166.493 54.5645 166.493 55.2241C166.493 55.8837 166.382 56.4884 166.16 57.0381C165.945 57.5877 165.636 58.0698 165.231 58.4841C164.834 58.8901 164.365 59.2072 163.825 59.4355C163.293 59.6554 162.71 59.7653 162.075 59.7653ZM162.075 58.6364C162.535 58.6364 162.96 58.5518 163.349 58.3827C163.746 58.2135 164.087 57.9767 164.373 57.6723C164.667 57.3594 164.893 56.9958 165.052 56.5814C165.219 56.167 165.302 55.7146 165.302 55.2241C165.302 54.7336 165.219 54.2812 165.052 53.8668C164.893 53.4524 164.667 53.093 164.373 52.7886C164.087 52.4757 163.746 52.2347 163.349 52.0655C162.96 51.8964 162.535 51.8118 162.075 51.8118C161.606 51.8118 161.174 51.8964 160.777 52.0655C160.388 52.2347 160.046 52.4757 159.753 52.7886C159.459 53.093 159.229 53.4524 159.062 53.8668C158.903 54.2812 158.824 54.7336 158.824 55.2241C158.824 55.7146 158.903 56.167 159.062 56.5814C159.229 56.9958 159.459 57.3594 159.753 57.6723C160.046 57.9767 160.388 58.2135 160.777 58.3827C161.174 58.5518 161.606 58.6364 162.075 58.6364Z" fill="#152F3F"/>
<path d="M168.79 59.6638V50.7844H169.98V58.5603H174.494V59.6638H168.79Z" fill="#152F3F"/>
<path d="M179.949 59.7653C179.314 59.7653 178.722 59.6512 178.174 59.4228C177.635 59.1945 177.166 58.8774 176.769 58.4715C176.372 58.0571 176.063 57.5751 175.84 57.0254C175.618 56.4757 175.507 55.8753 175.507 55.2241C175.507 54.5729 175.618 53.9725 175.84 53.4228C176.063 52.8732 176.372 52.3953 176.769 51.9894C177.166 51.5751 177.635 51.2537 178.174 51.0254C178.714 50.797 179.306 50.6829 179.949 50.6829C180.584 50.6829 181.167 50.797 181.699 51.0254C182.239 51.2452 182.708 51.5624 183.105 51.9767C183.51 52.3827 183.819 52.8605 184.034 53.4101C184.256 53.9598 184.367 54.5645 184.367 55.2241C184.367 55.8837 184.256 56.4884 184.034 57.0381C183.819 57.5877 183.51 58.0698 183.105 58.4841C182.708 58.8901 182.239 59.2072 181.699 59.4355C181.167 59.6554 180.584 59.7653 179.949 59.7653ZM179.949 58.6364C180.409 58.6364 180.834 58.5518 181.223 58.3827C181.62 58.2135 181.961 57.9767 182.247 57.6723C182.541 57.3594 182.767 56.9958 182.926 56.5814C183.093 56.167 183.176 55.7146 183.176 55.2241C183.176 54.7336 183.093 54.2812 182.926 53.8668C182.767 53.4524 182.541 53.093 182.247 52.7886C181.961 52.4757 181.62 52.2347 181.223 52.0655C180.834 51.8964 180.409 51.8118 179.949 51.8118C179.48 51.8118 179.048 51.8964 178.651 52.0655C178.262 52.2347 177.92 52.4757 177.627 52.7886C177.333 53.093 177.103 53.4524 176.936 53.8668C176.777 54.2812 176.698 54.7336 176.698 55.2241C176.698 55.7146 176.777 56.167 176.936 56.5814C177.103 56.9958 177.333 57.3594 177.627 57.6723C177.92 57.9767 178.262 58.2135 178.651 58.3827C179.048 58.5518 179.48 58.6364 179.949 58.6364Z" fill="#152F3F"/>
<path d="M190.427 59.7653C189.784 59.7653 189.192 59.6554 188.652 59.4355C188.113 59.2072 187.644 58.8901 187.247 58.4841C186.85 58.0698 186.541 57.5877 186.318 57.0381C186.096 56.4884 185.985 55.8837 185.985 55.2241C185.985 54.5645 186.096 53.9598 186.318 53.4101C186.541 52.8605 186.85 52.3827 187.247 51.9767C187.652 51.5624 188.124 51.2452 188.664 51.0254C189.204 50.797 189.8 50.6829 190.451 50.6829C191.11 50.6829 191.713 50.797 192.261 51.0254C192.809 51.2537 193.273 51.5962 193.654 52.0529L192.916 52.8393C192.574 52.4841 192.201 52.2262 191.796 52.0655C191.399 51.8964 190.967 51.8118 190.498 51.8118C190.022 51.8118 189.577 51.8964 189.164 52.0655C188.76 52.2347 188.406 52.4715 188.105 52.7759C187.811 53.0803 187.581 53.444 187.414 53.8668C187.255 54.2812 187.176 54.7336 187.176 55.2241C187.176 55.7061 187.255 56.1586 187.414 56.5814C187.581 56.9958 187.811 57.3594 188.105 57.6723C188.406 57.9767 188.76 58.2135 189.164 58.3827C189.569 58.5518 190.01 58.6364 190.486 58.6364C190.931 58.6364 191.356 58.5645 191.761 58.4207C192.173 58.2685 192.555 58.019 192.904 57.6723L193.583 58.6364C193.17 59.0085 192.686 59.2918 192.13 59.4863C191.582 59.6723 191.014 59.7653 190.427 59.7653ZM192.439 58.4715V55.1734H193.583V58.6364L192.439 58.4715ZM189.736 63L190.129 61.5539L190.236 62.0106C190.046 62.0106 189.895 61.9556 189.784 61.8457C189.681 61.7442 189.629 61.6089 189.629 61.4397C189.629 61.2706 189.684 61.1311 189.796 61.0211C189.907 60.9112 190.054 60.8562 190.236 60.8562C190.427 60.8562 190.574 60.9112 190.677 61.0211C190.788 61.1395 190.844 61.2791 190.844 61.4397C190.844 61.5243 190.832 61.6216 190.808 61.7315C190.792 61.8414 190.752 61.9598 190.689 62.0867L190.332 63H189.736Z" fill="#152F3F"/>
<path d="M196.339 59.6638V50.7844H197.53V59.6638H196.339Z" fill="#152F3F"/>
<path d="M201.574 59.7653C201.082 59.7653 200.621 59.6554 200.192 59.4355C199.764 59.2156 199.414 58.8985 199.144 58.4841L199.835 57.6216C200.065 57.9598 200.323 58.222 200.609 58.408C200.903 58.5856 201.225 58.6744 201.574 58.6744C202.527 58.6744 203.003 58.074 203.003 56.8732V51.8879H199.99V50.7844H204.182V56.8097C204.182 57.7992 203.96 58.5391 203.515 59.0296C203.078 59.5201 202.431 59.7653 201.574 59.7653Z" fill="#152F3F"/>
<path d="M205.647 59.6638L209.422 50.7844H210.601L214.388 59.6638H213.138L209.768 51.4947H210.244L206.874 59.6638H205.647ZM207.255 57.444L207.577 56.4292H212.269L212.614 57.444H207.255ZM208.077 49.6173V48.8562H211.959V49.6173H208.077Z" fill="#152F3F"/>
<path d="M45 25.5577V3.44231H51.6461V20.5975H62.8571V25.5577H45Z" fill="#152F3F"/>
<path d="M76.9753 26C75.0956 26 73.3614 25.7157 71.7726 25.147C70.1838 24.5783 68.7964 23.7779 67.6104 22.7459C66.4468 21.6928 65.5405 20.4712 64.8915 19.081C64.2426 17.6909 63.9181 16.1639 63.9181 14.5C63.9181 12.8361 64.2426 11.3091 64.8915 9.91896C65.5405 8.52885 66.4468 7.31777 67.6104 6.28572C68.7964 5.2326 70.1838 4.4217 71.7726 3.85302C73.3614 3.28434 75.0956 3 76.9753 3C78.8774 3 80.6116 3.28434 82.1781 3.85302C83.7669 4.4217 85.1431 5.2326 86.3067 6.28572C87.4703 7.31777 88.3766 8.52885 89.0255 9.91896C89.6969 11.3091 90.0325 12.8361 90.0325 14.5C90.0325 16.1639 89.6969 17.7015 89.0255 19.1126C88.3766 20.5027 87.4703 21.7138 86.3067 22.7459C85.1431 23.7779 83.7669 24.5783 82.1781 25.147C80.6116 25.7157 78.8774 26 76.9753 26ZM76.9753 20.8187C77.8704 20.8187 78.6984 20.6712 79.4592 20.3764C80.2424 20.0815 80.9137 19.6603 81.4732 19.1126C82.055 18.544 82.5025 17.87 82.8158 17.0907C83.1515 16.3114 83.3193 15.4478 83.3193 14.5C83.3193 13.5311 83.1515 12.6676 82.8158 11.9093C82.5025 11.13 82.055 10.4666 81.4732 9.91896C80.9137 9.35027 80.2424 8.9185 79.4592 8.62363C78.6984 8.32876 77.8704 8.18132 76.9753 8.18132C76.0802 8.18132 75.2411 8.32876 74.4579 8.62363C73.697 8.9185 73.0257 9.35027 72.4439 9.91896C71.8845 10.4666 71.4369 11.13 71.1013 11.9093C70.788 12.6676 70.6313 13.5311 70.6313 14.5C70.6313 15.4478 70.788 16.3114 71.1013 17.0907C71.4369 17.87 71.8845 18.544 72.4439 19.1126C73.0257 19.6603 73.697 20.0815 74.4579 20.3764C75.2411 20.6712 76.0802 20.8187 76.9753 20.8187Z" fill="#152F3F"/>
<path d="M93.5134 25.5577V3.44231H104.255C106.403 3.44231 108.249 3.76877 109.793 4.4217C111.359 5.07463 112.568 6.02244 113.418 7.26511C114.268 8.48672 114.694 9.94002 114.694 11.625C114.694 13.2889 114.268 14.7317 113.418 15.9533C112.568 17.1538 111.359 18.0806 109.793 18.7335C108.249 19.3654 106.403 19.6813 104.255 19.6813H97.2057L100.159 17.0591V25.5577H93.5134ZM108.048 25.5577L102.207 17.5014H109.289L115.164 25.5577H108.048ZM100.159 17.7225L97.2057 14.8475H103.852C105.239 14.8475 106.269 14.5632 106.94 13.9945C107.634 13.4258 107.98 12.636 107.98 11.625C107.98 10.5929 107.634 9.79258 106.94 9.2239C106.269 8.65522 105.239 8.37088 103.852 8.37088H97.2057L100.159 5.49588V17.7225Z" fill="#152F3F"/>
<path d="M126.617 26C124.693 26 122.836 25.7788 121.045 25.3365C119.278 24.8732 117.834 24.2834 116.715 23.5673L118.897 18.9547C119.949 19.5865 121.157 20.1131 122.522 20.5343C123.91 20.9345 125.286 21.1346 126.651 21.1346C127.568 21.1346 128.307 21.0609 128.866 20.9135C129.426 20.745 129.829 20.5343 130.075 20.2816C130.343 20.0078 130.477 19.6919 130.477 19.3338C130.477 18.8283 130.231 18.4281 129.739 18.1332C129.247 17.8384 128.609 17.5962 127.826 17.4066C127.043 17.217 126.17 17.0275 125.208 16.8379C124.268 16.6484 123.317 16.4061 122.355 16.1113C121.415 15.8164 120.553 15.4373 119.77 14.9739C118.987 14.4895 118.349 13.8681 117.857 13.1099C117.364 12.3306 117.118 11.3512 117.118 10.1717C117.118 8.84478 117.499 7.64423 118.259 6.57006C119.043 5.49588 120.206 4.63233 121.75 3.9794C123.294 3.32647 125.219 3 127.524 3C129.068 3 130.578 3.1685 132.055 3.5055C133.554 3.82143 134.886 4.29533 136.049 4.9272L134.002 9.57143C132.883 9.00275 131.775 8.5815 130.679 8.30769C129.582 8.01282 128.519 7.86539 127.49 7.86539C126.573 7.86539 125.834 7.96017 125.275 8.14973C124.715 8.31822 124.313 8.54991 124.066 8.84478C123.82 9.13965 123.697 9.47665 123.697 9.85577C123.697 10.3402 123.932 10.7299 124.402 11.0247C124.894 11.2985 125.532 11.5302 126.315 11.7198C127.121 11.8883 127.994 12.0673 128.933 12.2569C129.896 12.4464 130.847 12.6886 131.787 12.9835C132.749 13.2573 133.622 13.6364 134.405 14.1209C135.188 14.5842 135.814 15.2056 136.284 15.9849C136.777 16.7431 137.023 17.7015 137.023 18.8599C137.023 20.1447 136.631 21.3347 135.848 22.4299C135.087 23.5041 133.935 24.3677 132.391 25.0206C130.869 25.6735 128.945 26 126.617 26Z" fill="#152F3F"/>
<path d="M143.132 25.842C142.058 25.842 141.151 25.505 140.413 24.831C139.674 24.1571 139.305 23.304 139.305 22.272C139.305 21.1978 139.674 20.3448 140.413 19.7129C141.151 19.06 142.058 18.7335 143.132 18.7335C144.206 18.7335 145.112 19.06 145.85 19.7129C146.589 20.3448 146.958 21.1978 146.958 22.272C146.958 23.304 146.589 24.1571 145.85 24.831C145.112 25.505 144.206 25.842 143.132 25.842Z" fill="#152F3F"/>
<path d="M150.254 25.5577V3.44231H156.901V20.5975H168.112V25.5577H150.254Z" fill="#152F3F"/>
<path d="M176.385 25.5577L166.349 3.44231H173.532L181.99 22.5879H177.761L186.421 3.44231H193L182.93 25.5577H176.385Z" fill="#152F3F"/>
<path fill-rule="evenodd" clip-rule="evenodd" d="M20.5911 0.861016C21.4618 5.01964 18.9787 12.2961 11.8342 26.5207C5.1425 39.844 3.93444 42.7289 3.60564 46.1662C3.35847 48.7514 3.47443 49.3496 4.43178 50.4363C5.91883 52.1241 8.20534 52.8234 8.23827 51.6002C8.32236 48.4772 12.1115 48.0863 16.8771 50.7099C19.2794 52.0324 21.1713 52.6149 23.7212 52.8176C27.2282 53.097 27.2543 53.0883 29.0271 51.0485C30.4839 49.3722 30.8206 48.5661 30.8728 46.6285C30.96 43.3893 29.7629 39.815 28.1119 38.3867C26.697 37.163 23.5809 36.8075 20.271 37.4935L18.6364 37.8321L20.1264 36.9945C20.9459 36.5334 22.9413 36.1448 24.5608 36.1303C26.897 36.1094 27.8588 36.3957 29.2183 37.5173C31.5668 39.4543 33.089 44.0166 32.6731 47.8732C32.055 53.6046 28.5261 56.4326 21.993 56.4326L17.9869 56.4326L17.8574 60.6435C17.7862 62.9592 17.5101 65.4962 17.2429 66.2797C16.8334 67.4843 16.7187 67.1271 16.5036 63.9814C16.3636 61.9335 15.9827 59.4377 15.657 58.4358C15.0684 56.6249 15.0365 56.6109 10.6384 56.2723C2.82293 55.6694 0.364518 53.3438 0.543772 46.7226C0.641985 43.0931 2.17454 39.5472 9.15125 26.8112C16.0807 14.1605 19.0934 7.3092 19.7504 2.70742C20.1888 -0.365079 20.2881 -0.583465 20.5911 0.861016Z" fill="#152F3F"/>
</svg>
