<svg width="40" height="40" viewBox="0 0 40 40" fill="none" xmlns="http://www.w3.org/2000/svg">
<circle cx="20" cy="20" r="20" fill="#3F3F3F"/>
<path fill-rule="evenodd" clip-rule="evenodd" d="M20.45 12.7059C20.45 13.3248 20.45 14.7059 20.45 15.6471C21.5792 15.6471 22.7084 15.6471 23.8375 15.6471C24.6933 15.6471 25.8618 15.8501 25.8618 16.7059C25.8618 17.5617 24.6933 17.7647 23.8375 17.7647C22.7084 17.7647 21.5792 17.7647 20.45 17.7647C20.45 18.549 20.45 19.3333 20.45 20.1176C22.0971 20.1176 23.7441 20.1176 25.3912 20.1176C25.7648 20.1176 26.0579 20.3223 26.2147 20.5882C27.1166 22.1176 28.0187 23.6471 28.9206 25.1765C30.013 25.2437 31.7704 24.8335 31.6815 25.9243C31.6601 26.1874 31.5241 26.4871 31.2736 26.8235C30.9725 27.0204 30.6669 27.1899 30.3566 27.332C28.7697 28.0589 27.1222 26.942 26.1777 25.4742C25.7009 24.7334 25.2035 24.0067 24.6853 23.2941C22.4108 23.2158 20.9805 23.2241 18.706 23.1458C16.8236 23.0588 16.4707 21.7647 16.4707 21.1765C16.4707 15.0895 16.4707 15.7647 16.4707 12.7059C16.4707 12.2046 16.962 12 17.4119 12C17.8618 12 19.0805 12 19.5295 12C19.9785 12 20.45 12.2353 20.45 12.7059C20.45 12.79 20.45 12.6069 20.45 12.7059Z" fill="white"/>
<path d="M10.1177 24.0114C10.1177 28.3682 13.702 31.9002 18.1234 31.9002C21.896 31.9002 24.8 29.3436 25.6471 25.8823L24.4598 24.1754C23.6362 27.2343 21.4747 30.0978 18.096 30.0978C14.7173 30.0978 11.9783 27.4115 11.9783 24.0978C11.9783 21.5937 13.5424 19.4479 15.7647 18.5488L15.7645 16.4706C12.4944 17.4627 10.1177 20.4635 10.1177 24.0114Z" fill="white"/>
<path d="M21.1766 9.17646C21.1766 10.476 20.1231 11.5294 18.8236 11.5294C17.5242 11.5294 16.4707 10.476 16.4707 9.17646C16.4707 7.87697 17.5242 6.82352 18.8236 6.82352C20.1231 6.82352 21.1766 7.87697 21.1766 9.17646Z" fill="white"/>
</svg>
