<svg width="190" height="208" viewBox="0 0 190 208" fill="none" xmlns="http://www.w3.org/2000/svg">
<path d="M90.2515 6.73335C87.7181 10.3334 84.9181 14.4667 84.1181 16.0667C81.7181 20.6 80.9181 34.6 82.5181 46.3334C83.3181 52.2 84.6515 63.1333 85.5848 70.6C87.1848 83.9333 88.2515 86.2 91.5848 82.8667C92.6515 81.8 93.3181 82.2 93.9848 84.2C94.3848 85.8 95.3181 87 95.8515 87C97.1848 87 100.518 80.8667 106.518 67.2667C109.451 60.3334 113.718 52.7334 115.985 50.2C118.118 47.6667 119.985 44.4667 119.985 43.1334C119.985 40.4667 127.585 33 132.785 30.7334C136.651 29 142.918 15.9334 142.385 11C141.451 3.26669 125.318 7.13336 115.985 17.1334C108.785 24.8667 105.185 33 99.5848 53.6667C97.0515 62.8667 94.6515 71.5333 94.2515 73C93.7181 74.4667 93.5848 71.1334 93.9848 65.6667C94.2515 59.9334 96.2515 49.5334 98.7848 41C101.451 31.5334 103.185 22.2 103.718 14.7334L104.251 3.00002L100.785 1.66669C95.4515 -0.333312 95.3181 -0.199979 90.2515 6.73335Z" fill="#112734"/>
<path d="M56.6515 14.0667C54.5181 15.8 54.3848 16.7334 55.8515 26.3334C57.0515 34.6 59.3181 40.8667 65.9848 55C70.7848 64.8667 75.3181 76.2 76.2515 80.0667C77.1848 83.8 78.6515 87 79.4515 87C85.0515 87 83.1848 65.2667 74.6515 34.0667C72.2515 25.1334 70.6515 21.9334 66.5181 17.6667C60.7848 11.8 60.2515 11.5334 56.6515 14.0667Z" fill="#112734"/>
<path d="M27.1848 34.0667C26.3848 36.3333 29.8515 46.0667 33.9848 53C38.1181 60.2 47.3181 68.8667 54.6515 72.7333C60.3848 75.6667 62.3848 78.0667 68.6515 88.4667L71.3181 93L71.7181 85.4C72.2515 75 68.7848 68.2 55.4515 53.9333C49.4515 47.5333 43.7181 41.1333 42.6515 39.6667C40.7848 37.1333 31.9848 32.3333 29.1848 32.3333C28.5181 32.3333 27.5848 33.1333 27.1848 34.0667Z" fill="#112734"/>
<path d="M136.651 37C128.651 39.8 120.385 49.8 112.251 66.4666C108.251 74.4666 103.585 83 101.718 85.2666L98.5181 89.6666H101.985C104.385 89.6666 107.851 87.4 113.185 82.3333C117.451 78.3333 121.585 75 122.518 75C125.451 75 138.251 63.6666 153.185 47.6666C161.051 39.2666 159.585 35 148.785 35C145.051 35.1333 139.585 35.9333 136.651 37Z" fill="#112734"/>
<path d="M153.718 59.5333C147.718 61.5333 137.451 68.4667 131.985 74.3333C130.118 76.3333 124.785 80.6 119.985 83.6667C103.585 94.3333 104.651 96.8667 122.118 88.7333C131.451 84.3333 133.851 83.8 143.985 83.6667C155.051 83.5333 155.585 83.4 168.651 76.2C179.718 70.2 182.118 68.3333 182.385 65.5333C182.651 62.7333 181.985 61.6667 178.251 59.8C172.651 57.2667 161.585 57.1333 153.718 59.5333Z" fill="#112734"/>
<path d="M3.58478 62.3333C2.25144 65.6666 6.51811 71.9333 12.9181 76.2C16.1181 78.3333 24.7848 81.9333 32.2514 84.3333C49.7181 89.9333 58.6514 93.8 61.8514 97.5333C64.9181 100.867 69.3181 101.267 69.3181 98.2C69.3181 94.0666 63.9848 87.2666 56.2514 81.6666C52.1181 78.4666 46.7848 74.2 44.5181 72.0667C39.0514 67 24.3848 61.6666 13.1848 60.7333C5.71811 60.0666 4.25144 60.3333 3.58478 62.3333Z" fill="#112734"/>
<path d="M145.318 89.1333C132.118 91.9333 112.785 99.1333 114.918 100.467C115.851 101.133 122.518 101.667 129.585 101.667C136.651 101.667 146.918 102.6 152.251 103.8C164.118 106.333 180.918 106.733 184.785 104.6C186.385 103.8 188.385 101.267 189.051 99.1333C190.118 95.9333 189.985 94.8666 188.118 93.1333C181.451 87.1333 162.785 85.4 145.318 89.1333Z" fill="#112734"/>
<path d="M12.9181 91.5333C9.3181 92.6 5.18477 94.4667 3.7181 95.9333C1.18477 98.6 1.18477 98.6 5.3181 102.067C7.58477 103.933 11.5848 106.2 14.3848 107C20.3848 108.6 62.6514 108.867 62.6514 107.133C62.6514 104.733 56.7848 98.7333 51.7181 96.2C45.5848 93.1333 30.9181 89.6667 23.9848 89.8C21.4514 89.8 16.3848 90.6 12.9181 91.5333Z" fill="#112734"/>
<path d="M80.5181 91.6666C80.1181 92.7333 80.1181 94.2 80.6515 95C82.1181 97.2666 85.3181 96.4666 85.3181 93.8C85.3181 90.7333 81.4515 89 80.5181 91.6666Z" fill="#112734"/>
<path d="M98.6515 97.4C98.6515 98.0667 99.4515 99.6667 100.518 101.133C102.385 103.533 102.518 103.533 103.451 101.133C103.985 99.6667 103.718 98.3333 102.518 97.5333C100.118 96.0667 98.6515 96.0667 98.6515 97.4Z" fill="#112734"/>
<path d="M72.9181 98.6C71.8515 99.6667 71.7181 104.333 72.7848 104.333C73.1848 104.333 74.6515 103.667 76.1181 102.867C78.2515 101.8 78.5181 101.133 77.1848 99.5333C75.4515 97.5333 74.2515 97.1333 72.9181 98.6Z" fill="#112734"/>
<path d="M89.3181 101.667C89.3181 103.4 90.2514 104.333 91.9848 104.333C93.7181 104.333 94.6515 103.4 94.6515 101.667C94.6515 99.9333 93.7181 99 91.9848 99C90.2514 99 89.3181 99.9333 89.3181 101.667Z" fill="#112734"/>
<path d="M81.3181 104.333C81.3181 107.267 82.2515 107.667 85.1848 105.8C87.3181 104.467 85.9848 101.667 83.1848 101.667C82.1181 101.667 81.3181 102.867 81.3181 104.333Z" fill="#112734"/>
<path d="M104.651 105.933C103.851 107.667 102.251 108.867 100.918 108.867C99.3181 108.733 98.6515 109.667 98.6515 111.8C98.6515 114.6 99.0515 114.867 101.051 113.8C102.385 113 104.785 112.733 106.118 113.133C110.118 114.2 112.651 108.067 109.451 105.133C106.385 102.333 106.251 102.467 104.651 105.933Z" fill="#112734"/>
<path d="M67.9848 109.267C67.9848 109.8 68.5181 111.133 69.1848 112.2C70.6515 114.467 75.1848 113.133 74.3848 110.6C73.7181 108.867 67.9848 107.533 67.9848 109.267Z" fill="#112734"/>
<path d="M88.7848 110.6C88.2515 111.8 88.5181 113.4 89.3181 114.2C91.0515 115.933 95.4515 111.933 94.1181 109.8C92.6515 107.667 89.7181 108.067 88.7848 110.6Z" fill="#112734"/>
<path d="M115.985 109.667C115.985 110.333 118.518 112.2 121.718 113.8C124.785 115.4 132.118 120.2 137.985 124.467C149.985 133.133 158.118 137.133 166.251 138.467C171.451 139.267 171.851 139 173.985 135.133C179.718 123.933 167.851 114.867 141.718 110.333C128.651 108.067 115.985 107.667 115.985 109.667Z" fill="#112734"/>
<path d="M77.8514 113C76.5181 116.2 78.5181 117.8 81.4514 116.2C83.5848 115.133 83.8514 114.467 82.5181 112.867C80.5181 110.467 78.7848 110.467 77.8514 113Z" fill="#112734"/>
<path d="M27.7181 113.667C17.1848 115.4 8.25146 119 3.98479 123C-1.21521 127.8 -1.34854 131.933 3.71813 133.133C5.71813 133.533 8.11813 134.067 9.05146 134.467C12.1181 135.4 24.5181 132.333 36.6515 127.667C43.3181 125 52.5181 122.2 57.1848 121.267L65.5848 119.533L62.2515 117.267C55.3181 112.733 41.7181 111.4 27.7181 113.667Z" fill="#112734"/>
<path d="M88.6515 119C88.2515 119.667 88.1181 120.867 88.5181 121.533C89.7181 123.267 94.6515 121.667 94.6515 119.533C94.6515 117.4 89.8515 117 88.6515 119Z" fill="#112734"/>
<path d="M97.3182 120.333C96.1182 122.467 96.2515 123.267 97.9848 123.8C100.385 124.733 103.985 122.2 103.985 119.533C103.985 116.733 98.9182 117.267 97.3182 120.333Z" fill="#112734"/>
<path d="M112.918 120.6C114.385 122.333 120.118 130.6 125.585 139C135.851 154.867 141.318 160.733 149.185 163.933C153.451 165.8 153.985 165.667 155.585 163.533C158.785 159.133 159.185 152.467 156.518 149.4C149.985 142.2 115.985 117.667 112.385 117.667C110.518 117.667 110.518 118.067 112.918 120.6Z" fill="#112734"/>
<path d="M80.9182 121.133C79.0515 123 79.9848 125.8 82.3848 125.4C83.5848 125.133 84.6515 124.067 84.6515 123.133C84.6515 121 82.2515 119.8 80.9182 121.133Z" fill="#112734"/>
<path d="M102.651 125C102.651 126.2 104.118 134.067 105.985 142.733C109.718 159.933 116.518 175.8 122.251 180.333C126.385 183.533 132.651 183.933 133.851 180.867C137.718 170.733 129.718 151.267 113.451 131.667C106.385 123.267 102.651 120.867 102.651 125Z" fill="#112734"/>
<path d="M48.9181 128.867C34.7848 133.933 21.8515 145.533 16.6515 158.067C13.8515 164.867 14.1181 166.6 18.6515 169C25.9848 172.867 28.7848 171.8 35.3181 162.6C49.0515 143.4 59.4515 131 63.0515 129.8C65.0515 129 66.6515 128.2 66.6515 127.8C66.6515 126.333 53.8515 127.133 48.9181 128.867Z" fill="#112734"/>
<path d="M92.3848 135.933C89.0514 146.6 89.0514 172.867 92.3848 182.467C95.7181 192.067 103.318 198.333 106.651 194.333C111.718 188.2 110.251 170.733 102.651 149.667C99.7181 141.4 97.3181 133.667 97.3181 132.333C97.3181 126.733 94.6514 128.733 92.3848 135.933Z" fill="#112734"/>
<path d="M71.4514 132.067C70.9181 133.8 63.9848 141.933 55.9848 150.2C48.1181 158.467 40.6515 167 39.4515 169.4C38.2515 171.667 37.3181 176.6 37.3181 180.333C37.3181 185.8 37.9848 187.8 40.6514 190.333C49.0514 198.867 54.9181 190.733 61.8514 161C63.0514 155.8 66.1181 148.333 68.7848 143.933C71.8514 138.867 73.3181 135.133 73.0515 132.6C72.6515 129.133 72.5181 129 71.4514 132.067Z" fill="#112734"/>
<path d="M82.6515 131.267C82.6515 132.067 78.7848 141.133 73.9848 151.4C61.0515 179 59.3181 188.467 65.4515 200.6C69.0515 207.667 72.6515 209.267 77.1848 206.067C83.0515 201.533 84.2515 194.467 83.4515 169C82.9181 152.2 83.0515 144.733 84.3848 140.333C86.2515 134.067 85.9848 129.667 83.8515 129.667C83.1848 129.667 82.6515 130.333 82.6515 131.267Z" fill="#112734"/>
</svg>
