<svg width="190" height="208" viewBox="0 0 190 208" fill="none" xmlns="http://www.w3.org/2000/svg">
<mask id="path-1-inside-1_392_2601" fill="white">
<path d="M90.2515 6.18343C87.7181 9.78343 84.9181 13.9168 84.1181 15.5168C81.7181 20.0501 80.9181 34.0501 82.5181 45.7834C83.3181 51.6501 84.6515 62.5834 85.5848 70.0501C87.1848 83.3834 88.2515 85.6501 91.5848 82.3168C92.6515 81.2501 93.3181 81.6501 93.9848 83.6501C94.3848 85.2501 95.3181 86.4501 95.8515 86.4501C97.1848 86.4501 100.518 80.3168 106.518 66.7168C109.451 59.7834 113.718 52.1834 115.985 49.6501C118.118 47.1168 119.985 43.9168 119.985 42.5834C119.985 39.9168 127.585 32.4501 132.785 30.1834C136.651 28.4501 142.918 15.3834 142.385 10.4501C141.451 2.71676 125.318 6.58343 115.985 16.5834C108.785 24.3168 105.185 32.4501 99.5848 53.1168C97.0515 62.3168 94.6515 70.9834 94.2515 72.4501C93.7181 73.9168 93.5848 70.5834 93.9848 65.1168C94.2515 59.3834 96.2515 48.9834 98.7848 40.4501C101.451 30.9834 103.185 21.6501 103.718 14.1834L104.251 2.45009L100.785 1.11676C95.4515 -0.883239 95.3181 -0.749906 90.2515 6.18343Z"/>
<path d="M56.6515 13.5168C54.5181 15.2501 54.3848 16.1834 55.8515 25.7834C57.0515 34.0501 59.3181 40.3168 65.9848 54.4501C70.7848 64.3168 75.3181 75.6501 76.2515 79.5168C77.1848 83.2501 78.6515 86.4501 79.4515 86.4501C85.0515 86.4501 83.1848 64.7168 74.6515 33.5168C72.2515 24.5834 70.6515 21.3834 66.5181 17.1168C60.7848 11.2501 60.2515 10.9834 56.6515 13.5168Z"/>
<path d="M27.1848 33.5168C26.3848 35.7834 29.8515 45.5168 33.9848 52.4501C38.1181 59.6501 47.3181 68.3168 54.6515 72.1834C60.3848 75.1168 62.3848 77.5168 68.6515 87.9168L71.3181 92.4501L71.7181 84.8501C72.2515 74.4501 68.7848 67.6501 55.4515 53.3834C49.4515 46.9834 43.7181 40.5834 42.6515 39.1168C40.7848 36.5834 31.9848 31.7834 29.1848 31.7834C28.5181 31.7834 27.5848 32.5834 27.1848 33.5168Z"/>
<path d="M136.651 36.45C128.651 39.25 120.385 49.25 112.251 65.9167C108.251 73.9167 103.585 82.45 101.718 84.7167L98.5181 89.1167H101.985C104.385 89.1167 107.851 86.85 113.185 81.7834C117.451 77.7834 121.585 74.4501 122.518 74.4501C125.451 74.4501 138.251 63.1167 153.185 47.1167C161.051 38.7167 159.585 34.45 148.785 34.45C145.051 34.5834 139.585 35.3834 136.651 36.45Z"/>
<path d="M153.718 58.9834C147.718 60.9834 137.451 67.9167 131.985 73.7834C130.118 75.7834 124.785 80.0501 119.985 83.1167C103.585 93.7834 104.651 96.3168 122.118 88.1834C131.451 83.7834 133.851 83.2501 143.985 83.1167C155.051 82.9834 155.585 82.8501 168.651 75.6501C179.718 69.6501 182.118 67.7834 182.385 64.9834C182.651 62.1834 181.985 61.1167 178.251 59.2501C172.651 56.7167 161.585 56.5834 153.718 58.9834Z"/>
<path d="M3.58478 61.7834C2.25144 65.1167 6.51811 71.3834 12.9181 75.6501C16.1181 77.7834 24.7848 81.3834 32.2514 83.7834C49.7181 89.3834 58.6514 93.2501 61.8514 96.9834C64.9181 100.317 69.3181 100.717 69.3181 97.6501C69.3181 93.5167 63.9848 86.7167 56.2514 81.1167C52.1181 77.9167 46.7848 73.6501 44.5181 71.5167C39.0514 66.4501 24.3848 61.1167 13.1848 60.1834C5.71811 59.5167 4.25144 59.7834 3.58478 61.7834Z"/>
<path d="M145.318 88.5834C132.118 91.3834 112.785 98.5834 114.918 99.9167C115.851 100.583 122.518 101.117 129.585 101.117C136.651 101.117 146.918 102.05 152.251 103.25C164.118 105.783 180.918 106.183 184.785 104.05C186.385 103.25 188.385 100.717 189.051 98.5834C190.118 95.3834 189.985 94.3167 188.118 92.5834C181.451 86.5834 162.785 84.8501 145.318 88.5834Z"/>
<path d="M12.9181 90.9834C9.3181 92.0501 5.18477 93.9167 3.7181 95.3834C1.18477 98.0501 1.18477 98.0501 5.3181 101.517C7.58477 103.383 11.5848 105.65 14.3848 106.45C20.3848 108.05 62.6514 108.317 62.6514 106.583C62.6514 104.183 56.7848 98.1834 51.7181 95.6501C45.5848 92.5834 30.9181 89.1167 23.9848 89.2501C21.4514 89.2501 16.3848 90.0501 12.9181 90.9834Z"/>
<path d="M80.5181 91.1167C80.1181 92.1834 80.1181 93.6501 80.6515 94.4501C82.1181 96.7167 85.3181 95.9167 85.3181 93.25C85.3181 90.1834 81.4515 88.45 80.5181 91.1167Z"/>
<path d="M98.6515 96.8501C98.6515 97.5167 99.4515 99.1167 100.518 100.583C102.385 102.983 102.518 102.983 103.451 100.583C103.985 99.1167 103.718 97.7834 102.518 96.9834C100.118 95.5167 98.6515 95.5167 98.6515 96.8501Z"/>
<path d="M72.9181 98.0501C71.8515 99.1167 71.7181 103.783 72.7848 103.783C73.1848 103.783 74.6515 103.117 76.1181 102.317C78.2515 101.25 78.5181 100.583 77.1848 98.9834C75.4515 96.9834 74.2515 96.5834 72.9181 98.0501Z"/>
<path d="M89.3181 101.117C89.3181 102.85 90.2514 103.783 91.9848 103.783C93.7181 103.783 94.6515 102.85 94.6515 101.117C94.6515 99.3834 93.7181 98.4501 91.9848 98.4501C90.2514 98.4501 89.3181 99.3834 89.3181 101.117Z"/>
<path d="M81.3181 103.783C81.3181 106.717 82.2515 107.117 85.1848 105.25C87.3181 103.917 85.9848 101.117 83.1848 101.117C82.1181 101.117 81.3181 102.317 81.3181 103.783Z"/>
<path d="M104.651 105.383C103.851 107.117 102.251 108.317 100.918 108.317C99.3181 108.183 98.6515 109.117 98.6515 111.25C98.6515 114.05 99.0515 114.317 101.051 113.25C102.385 112.45 104.785 112.183 106.118 112.583C110.118 113.65 112.651 107.517 109.451 104.583C106.385 101.783 106.251 101.917 104.651 105.383Z"/>
<path d="M67.9848 108.717C67.9848 109.25 68.5181 110.583 69.1848 111.65C70.6515 113.917 75.1848 112.583 74.3848 110.05C73.7181 108.317 67.9848 106.983 67.9848 108.717Z"/>
<path d="M88.7848 110.05C88.2515 111.25 88.5181 112.85 89.3181 113.65C91.0515 115.383 95.4515 111.383 94.1181 109.25C92.6515 107.117 89.7181 107.517 88.7848 110.05Z"/>
<path d="M115.985 109.117C115.985 109.783 118.518 111.65 121.718 113.25C124.785 114.85 132.118 119.65 137.985 123.917C149.985 132.583 158.118 136.583 166.251 137.917C171.451 138.717 171.851 138.45 173.985 134.583C179.718 123.383 167.851 114.317 141.718 109.783C128.651 107.517 115.985 107.117 115.985 109.117Z"/>
<path d="M77.8514 112.45C76.5181 115.65 78.5181 117.25 81.4514 115.65C83.5848 114.583 83.8514 113.917 82.5181 112.317C80.5181 109.917 78.7848 109.917 77.8514 112.45Z"/>
<path d="M27.7181 113.117C17.1848 114.85 8.25146 118.45 3.98479 122.45C-1.21521 127.25 -1.34854 131.383 3.71813 132.583C5.71813 132.983 8.11813 133.517 9.05146 133.917C12.1181 134.85 24.5181 131.783 36.6515 127.117C43.3181 124.45 52.5181 121.65 57.1848 120.717L65.5848 118.983L62.2515 116.717C55.3181 112.183 41.7181 110.85 27.7181 113.117Z"/>
<path d="M88.6515 118.45C88.2515 119.117 88.1181 120.317 88.5181 120.983C89.7181 122.717 94.6515 121.117 94.6515 118.983C94.6515 116.85 89.8515 116.45 88.6515 118.45Z"/>
<path d="M97.3182 119.783C96.1182 121.917 96.2515 122.717 97.9848 123.25C100.385 124.183 103.985 121.65 103.985 118.983C103.985 116.183 98.9182 116.717 97.3182 119.783Z"/>
<path d="M112.918 120.05C114.385 121.783 120.118 130.05 125.585 138.45C135.851 154.317 141.318 160.183 149.185 163.383C153.451 165.25 153.985 165.117 155.585 162.983C158.785 158.583 159.185 151.917 156.518 148.85C149.985 141.65 115.985 117.117 112.385 117.117C110.518 117.117 110.518 117.517 112.918 120.05Z"/>
<path d="M80.9182 120.583C79.0515 122.45 79.9848 125.25 82.3848 124.85C83.5848 124.583 84.6515 123.517 84.6515 122.583C84.6515 120.45 82.2515 119.25 80.9182 120.583Z"/>
<path d="M102.651 124.45C102.651 125.65 104.118 133.517 105.985 142.183C109.718 159.383 116.518 175.25 122.251 179.783C126.385 182.983 132.651 183.383 133.851 180.317C137.718 170.183 129.718 150.717 113.451 131.117C106.385 122.717 102.651 120.317 102.651 124.45Z"/>
<path d="M48.9181 128.317C34.7848 133.383 21.8515 144.983 16.6515 157.517C13.8515 164.317 14.1181 166.05 18.6515 168.45C25.9848 172.317 28.7848 171.25 35.3181 162.05C49.0515 142.85 59.4515 130.45 63.0515 129.25C65.0515 128.45 66.6515 127.65 66.6515 127.25C66.6515 125.783 53.8515 126.583 48.9181 128.317Z"/>
<path d="M92.3848 135.383C89.0514 146.05 89.0514 172.317 92.3848 181.917C95.7181 191.517 103.318 197.783 106.651 193.783C111.718 187.65 110.251 170.183 102.651 149.117C99.7181 140.85 97.3181 133.117 97.3181 131.783C97.3181 126.183 94.6514 128.183 92.3848 135.383Z"/>
<path d="M71.4514 131.517C70.9181 133.25 63.9848 141.383 55.9848 149.65C48.1181 157.917 40.6515 166.45 39.4515 168.85C38.2515 171.117 37.3181 176.05 37.3181 179.783C37.3181 185.25 37.9848 187.25 40.6514 189.783C49.0514 198.317 54.9181 190.183 61.8514 160.45C63.0514 155.25 66.1181 147.783 68.7848 143.383C71.8514 138.317 73.3181 134.583 73.0515 132.05C72.6515 128.583 72.5181 128.45 71.4514 131.517Z"/>
<path d="M82.6515 130.717C82.6515 131.517 78.7848 140.583 73.9848 150.85C61.0515 178.45 59.3181 187.917 65.4515 200.05C69.0515 207.117 72.6515 208.717 77.1848 205.517C83.0515 200.983 84.2515 193.917 83.4515 168.45C82.9181 151.65 83.0515 144.183 84.3848 139.783C86.2515 133.517 85.9848 129.117 83.8515 129.117C83.1848 129.117 82.6515 129.783 82.6515 130.717Z"/>
</mask>
<path d="M90.2515 6.18343C87.7181 9.78343 84.9181 13.9168 84.1181 15.5168C81.7181 20.0501 80.9181 34.0501 82.5181 45.7834C83.3181 51.6501 84.6515 62.5834 85.5848 70.0501C87.1848 83.3834 88.2515 85.6501 91.5848 82.3168C92.6515 81.2501 93.3181 81.6501 93.9848 83.6501C94.3848 85.2501 95.3181 86.4501 95.8515 86.4501C97.1848 86.4501 100.518 80.3168 106.518 66.7168C109.451 59.7834 113.718 52.1834 115.985 49.6501C118.118 47.1168 119.985 43.9168 119.985 42.5834C119.985 39.9168 127.585 32.4501 132.785 30.1834C136.651 28.4501 142.918 15.3834 142.385 10.4501C141.451 2.71676 125.318 6.58343 115.985 16.5834C108.785 24.3168 105.185 32.4501 99.5848 53.1168C97.0515 62.3168 94.6515 70.9834 94.2515 72.4501C93.7181 73.9168 93.5848 70.5834 93.9848 65.1168C94.2515 59.3834 96.2515 48.9834 98.7848 40.4501C101.451 30.9834 103.185 21.6501 103.718 14.1834L104.251 2.45009L100.785 1.11676C95.4515 -0.883239 95.3181 -0.749906 90.2515 6.18343Z" fill="white"/>
<path d="M56.6515 13.5168C54.5181 15.2501 54.3848 16.1834 55.8515 25.7834C57.0515 34.0501 59.3181 40.3168 65.9848 54.4501C70.7848 64.3168 75.3181 75.6501 76.2515 79.5168C77.1848 83.2501 78.6515 86.4501 79.4515 86.4501C85.0515 86.4501 83.1848 64.7168 74.6515 33.5168C72.2515 24.5834 70.6515 21.3834 66.5181 17.1168C60.7848 11.2501 60.2515 10.9834 56.6515 13.5168Z" fill="white"/>
<path d="M27.1848 33.5168C26.3848 35.7834 29.8515 45.5168 33.9848 52.4501C38.1181 59.6501 47.3181 68.3168 54.6515 72.1834C60.3848 75.1168 62.3848 77.5168 68.6515 87.9168L71.3181 92.4501L71.7181 84.8501C72.2515 74.4501 68.7848 67.6501 55.4515 53.3834C49.4515 46.9834 43.7181 40.5834 42.6515 39.1168C40.7848 36.5834 31.9848 31.7834 29.1848 31.7834C28.5181 31.7834 27.5848 32.5834 27.1848 33.5168Z" fill="white"/>
<path d="M136.651 36.45C128.651 39.25 120.385 49.25 112.251 65.9167C108.251 73.9167 103.585 82.45 101.718 84.7167L98.5181 89.1167H101.985C104.385 89.1167 107.851 86.85 113.185 81.7834C117.451 77.7834 121.585 74.4501 122.518 74.4501C125.451 74.4501 138.251 63.1167 153.185 47.1167C161.051 38.7167 159.585 34.45 148.785 34.45C145.051 34.5834 139.585 35.3834 136.651 36.45Z" fill="white"/>
<path d="M153.718 58.9834C147.718 60.9834 137.451 67.9167 131.985 73.7834C130.118 75.7834 124.785 80.0501 119.985 83.1167C103.585 93.7834 104.651 96.3168 122.118 88.1834C131.451 83.7834 133.851 83.2501 143.985 83.1167C155.051 82.9834 155.585 82.8501 168.651 75.6501C179.718 69.6501 182.118 67.7834 182.385 64.9834C182.651 62.1834 181.985 61.1167 178.251 59.2501C172.651 56.7167 161.585 56.5834 153.718 58.9834Z" fill="white"/>
<path d="M3.58478 61.7834C2.25144 65.1167 6.51811 71.3834 12.9181 75.6501C16.1181 77.7834 24.7848 81.3834 32.2514 83.7834C49.7181 89.3834 58.6514 93.2501 61.8514 96.9834C64.9181 100.317 69.3181 100.717 69.3181 97.6501C69.3181 93.5167 63.9848 86.7167 56.2514 81.1167C52.1181 77.9167 46.7848 73.6501 44.5181 71.5167C39.0514 66.4501 24.3848 61.1167 13.1848 60.1834C5.71811 59.5167 4.25144 59.7834 3.58478 61.7834Z" fill="white"/>
<path d="M145.318 88.5834C132.118 91.3834 112.785 98.5834 114.918 99.9167C115.851 100.583 122.518 101.117 129.585 101.117C136.651 101.117 146.918 102.05 152.251 103.25C164.118 105.783 180.918 106.183 184.785 104.05C186.385 103.25 188.385 100.717 189.051 98.5834C190.118 95.3834 189.985 94.3167 188.118 92.5834C181.451 86.5834 162.785 84.8501 145.318 88.5834Z" fill="white"/>
<path d="M12.9181 90.9834C9.3181 92.0501 5.18477 93.9167 3.7181 95.3834C1.18477 98.0501 1.18477 98.0501 5.3181 101.517C7.58477 103.383 11.5848 105.65 14.3848 106.45C20.3848 108.05 62.6514 108.317 62.6514 106.583C62.6514 104.183 56.7848 98.1834 51.7181 95.6501C45.5848 92.5834 30.9181 89.1167 23.9848 89.2501C21.4514 89.2501 16.3848 90.0501 12.9181 90.9834Z" fill="white"/>
<path d="M80.5181 91.1167C80.1181 92.1834 80.1181 93.6501 80.6515 94.4501C82.1181 96.7167 85.3181 95.9167 85.3181 93.25C85.3181 90.1834 81.4515 88.45 80.5181 91.1167Z" fill="white"/>
<path d="M98.6515 96.8501C98.6515 97.5167 99.4515 99.1167 100.518 100.583C102.385 102.983 102.518 102.983 103.451 100.583C103.985 99.1167 103.718 97.7834 102.518 96.9834C100.118 95.5167 98.6515 95.5167 98.6515 96.8501Z" fill="white"/>
<path d="M72.9181 98.0501C71.8515 99.1167 71.7181 103.783 72.7848 103.783C73.1848 103.783 74.6515 103.117 76.1181 102.317C78.2515 101.25 78.5181 100.583 77.1848 98.9834C75.4515 96.9834 74.2515 96.5834 72.9181 98.0501Z" fill="white"/>
<path d="M89.3181 101.117C89.3181 102.85 90.2514 103.783 91.9848 103.783C93.7181 103.783 94.6515 102.85 94.6515 101.117C94.6515 99.3834 93.7181 98.4501 91.9848 98.4501C90.2514 98.4501 89.3181 99.3834 89.3181 101.117Z" fill="white"/>
<path d="M81.3181 103.783C81.3181 106.717 82.2515 107.117 85.1848 105.25C87.3181 103.917 85.9848 101.117 83.1848 101.117C82.1181 101.117 81.3181 102.317 81.3181 103.783Z" fill="white"/>
<path d="M104.651 105.383C103.851 107.117 102.251 108.317 100.918 108.317C99.3181 108.183 98.6515 109.117 98.6515 111.25C98.6515 114.05 99.0515 114.317 101.051 113.25C102.385 112.45 104.785 112.183 106.118 112.583C110.118 113.65 112.651 107.517 109.451 104.583C106.385 101.783 106.251 101.917 104.651 105.383Z" fill="white"/>
<path d="M67.9848 108.717C67.9848 109.25 68.5181 110.583 69.1848 111.65C70.6515 113.917 75.1848 112.583 74.3848 110.05C73.7181 108.317 67.9848 106.983 67.9848 108.717Z" fill="white"/>
<path d="M88.7848 110.05C88.2515 111.25 88.5181 112.85 89.3181 113.65C91.0515 115.383 95.4515 111.383 94.1181 109.25C92.6515 107.117 89.7181 107.517 88.7848 110.05Z" fill="white"/>
<path d="M115.985 109.117C115.985 109.783 118.518 111.65 121.718 113.25C124.785 114.85 132.118 119.65 137.985 123.917C149.985 132.583 158.118 136.583 166.251 137.917C171.451 138.717 171.851 138.45 173.985 134.583C179.718 123.383 167.851 114.317 141.718 109.783C128.651 107.517 115.985 107.117 115.985 109.117Z" fill="white"/>
<path d="M77.8514 112.45C76.5181 115.65 78.5181 117.25 81.4514 115.65C83.5848 114.583 83.8514 113.917 82.5181 112.317C80.5181 109.917 78.7848 109.917 77.8514 112.45Z" fill="white"/>
<path d="M27.7181 113.117C17.1848 114.85 8.25146 118.45 3.98479 122.45C-1.21521 127.25 -1.34854 131.383 3.71813 132.583C5.71813 132.983 8.11813 133.517 9.05146 133.917C12.1181 134.85 24.5181 131.783 36.6515 127.117C43.3181 124.45 52.5181 121.65 57.1848 120.717L65.5848 118.983L62.2515 116.717C55.3181 112.183 41.7181 110.85 27.7181 113.117Z" fill="white"/>
<path d="M88.6515 118.45C88.2515 119.117 88.1181 120.317 88.5181 120.983C89.7181 122.717 94.6515 121.117 94.6515 118.983C94.6515 116.85 89.8515 116.45 88.6515 118.45Z" fill="white"/>
<path d="M97.3182 119.783C96.1182 121.917 96.2515 122.717 97.9848 123.25C100.385 124.183 103.985 121.65 103.985 118.983C103.985 116.183 98.9182 116.717 97.3182 119.783Z" fill="white"/>
<path d="M112.918 120.05C114.385 121.783 120.118 130.05 125.585 138.45C135.851 154.317 141.318 160.183 149.185 163.383C153.451 165.25 153.985 165.117 155.585 162.983C158.785 158.583 159.185 151.917 156.518 148.85C149.985 141.65 115.985 117.117 112.385 117.117C110.518 117.117 110.518 117.517 112.918 120.05Z" fill="white"/>
<path d="M80.9182 120.583C79.0515 122.45 79.9848 125.25 82.3848 124.85C83.5848 124.583 84.6515 123.517 84.6515 122.583C84.6515 120.45 82.2515 119.25 80.9182 120.583Z" fill="white"/>
<path d="M102.651 124.45C102.651 125.65 104.118 133.517 105.985 142.183C109.718 159.383 116.518 175.25 122.251 179.783C126.385 182.983 132.651 183.383 133.851 180.317C137.718 170.183 129.718 150.717 113.451 131.117C106.385 122.717 102.651 120.317 102.651 124.45Z" fill="white"/>
<path d="M48.9181 128.317C34.7848 133.383 21.8515 144.983 16.6515 157.517C13.8515 164.317 14.1181 166.05 18.6515 168.45C25.9848 172.317 28.7848 171.25 35.3181 162.05C49.0515 142.85 59.4515 130.45 63.0515 129.25C65.0515 128.45 66.6515 127.65 66.6515 127.25C66.6515 125.783 53.8515 126.583 48.9181 128.317Z" fill="white"/>
<path d="M92.3848 135.383C89.0514 146.05 89.0514 172.317 92.3848 181.917C95.7181 191.517 103.318 197.783 106.651 193.783C111.718 187.65 110.251 170.183 102.651 149.117C99.7181 140.85 97.3181 133.117 97.3181 131.783C97.3181 126.183 94.6514 128.183 92.3848 135.383Z" fill="white"/>
<path d="M71.4514 131.517C70.9181 133.25 63.9848 141.383 55.9848 149.65C48.1181 157.917 40.6515 166.45 39.4515 168.85C38.2515 171.117 37.3181 176.05 37.3181 179.783C37.3181 185.25 37.9848 187.25 40.6514 189.783C49.0514 198.317 54.9181 190.183 61.8514 160.45C63.0514 155.25 66.1181 147.783 68.7848 143.383C71.8514 138.317 73.3181 134.583 73.0515 132.05C72.6515 128.583 72.5181 128.45 71.4514 131.517Z" fill="white"/>
<path d="M82.6515 130.717C82.6515 131.517 78.7848 140.583 73.9848 150.85C61.0515 178.45 59.3181 187.917 65.4515 200.05C69.0515 207.117 72.6515 208.717 77.1848 205.517C83.0515 200.983 84.2515 193.917 83.4515 168.45C82.9181 151.65 83.0515 144.183 84.3848 139.783C86.2515 133.517 85.9848 129.117 83.8515 129.117C83.1848 129.117 82.6515 129.783 82.6515 130.717Z" fill="white"/>
<path d="M90.2515 6.18343C87.7181 9.78343 84.9181 13.9168 84.1181 15.5168C81.7181 20.0501 80.9181 34.0501 82.5181 45.7834C83.3181 51.6501 84.6515 62.5834 85.5848 70.0501C87.1848 83.3834 88.2515 85.6501 91.5848 82.3168C92.6515 81.2501 93.3181 81.6501 93.9848 83.6501C94.3848 85.2501 95.3181 86.4501 95.8515 86.4501C97.1848 86.4501 100.518 80.3168 106.518 66.7168C109.451 59.7834 113.718 52.1834 115.985 49.6501C118.118 47.1168 119.985 43.9168 119.985 42.5834C119.985 39.9168 127.585 32.4501 132.785 30.1834C136.651 28.4501 142.918 15.3834 142.385 10.4501C141.451 2.71676 125.318 6.58343 115.985 16.5834C108.785 24.3168 105.185 32.4501 99.5848 53.1168C97.0515 62.3168 94.6515 70.9834 94.2515 72.4501C93.7181 73.9168 93.5848 70.5834 93.9848 65.1168C94.2515 59.3834 96.2515 48.9834 98.7848 40.4501C101.451 30.9834 103.185 21.6501 103.718 14.1834L104.251 2.45009L100.785 1.11676C95.4515 -0.883239 95.3181 -0.749906 90.2515 6.18343Z" stroke="#152F3F" stroke-width="2" mask="url(#path-1-inside-1_392_2601)"/>
<path d="M56.6515 13.5168C54.5181 15.2501 54.3848 16.1834 55.8515 25.7834C57.0515 34.0501 59.3181 40.3168 65.9848 54.4501C70.7848 64.3168 75.3181 75.6501 76.2515 79.5168C77.1848 83.2501 78.6515 86.4501 79.4515 86.4501C85.0515 86.4501 83.1848 64.7168 74.6515 33.5168C72.2515 24.5834 70.6515 21.3834 66.5181 17.1168C60.7848 11.2501 60.2515 10.9834 56.6515 13.5168Z" stroke="#152F3F" stroke-width="2" mask="url(#path-1-inside-1_392_2601)"/>
<path d="M27.1848 33.5168C26.3848 35.7834 29.8515 45.5168 33.9848 52.4501C38.1181 59.6501 47.3181 68.3168 54.6515 72.1834C60.3848 75.1168 62.3848 77.5168 68.6515 87.9168L71.3181 92.4501L71.7181 84.8501C72.2515 74.4501 68.7848 67.6501 55.4515 53.3834C49.4515 46.9834 43.7181 40.5834 42.6515 39.1168C40.7848 36.5834 31.9848 31.7834 29.1848 31.7834C28.5181 31.7834 27.5848 32.5834 27.1848 33.5168Z" stroke="#152F3F" stroke-width="2" mask="url(#path-1-inside-1_392_2601)"/>
<path d="M136.651 36.45C128.651 39.25 120.385 49.25 112.251 65.9167C108.251 73.9167 103.585 82.45 101.718 84.7167L98.5181 89.1167H101.985C104.385 89.1167 107.851 86.85 113.185 81.7834C117.451 77.7834 121.585 74.4501 122.518 74.4501C125.451 74.4501 138.251 63.1167 153.185 47.1167C161.051 38.7167 159.585 34.45 148.785 34.45C145.051 34.5834 139.585 35.3834 136.651 36.45Z" stroke="#152F3F" stroke-width="2" mask="url(#path-1-inside-1_392_2601)"/>
<path d="M153.718 58.9834C147.718 60.9834 137.451 67.9167 131.985 73.7834C130.118 75.7834 124.785 80.0501 119.985 83.1167C103.585 93.7834 104.651 96.3168 122.118 88.1834C131.451 83.7834 133.851 83.2501 143.985 83.1167C155.051 82.9834 155.585 82.8501 168.651 75.6501C179.718 69.6501 182.118 67.7834 182.385 64.9834C182.651 62.1834 181.985 61.1167 178.251 59.2501C172.651 56.7167 161.585 56.5834 153.718 58.9834Z" stroke="#152F3F" stroke-width="2" mask="url(#path-1-inside-1_392_2601)"/>
<path d="M3.58478 61.7834C2.25144 65.1167 6.51811 71.3834 12.9181 75.6501C16.1181 77.7834 24.7848 81.3834 32.2514 83.7834C49.7181 89.3834 58.6514 93.2501 61.8514 96.9834C64.9181 100.317 69.3181 100.717 69.3181 97.6501C69.3181 93.5167 63.9848 86.7167 56.2514 81.1167C52.1181 77.9167 46.7848 73.6501 44.5181 71.5167C39.0514 66.4501 24.3848 61.1167 13.1848 60.1834C5.71811 59.5167 4.25144 59.7834 3.58478 61.7834Z" stroke="#152F3F" stroke-width="2" mask="url(#path-1-inside-1_392_2601)"/>
<path d="M145.318 88.5834C132.118 91.3834 112.785 98.5834 114.918 99.9167C115.851 100.583 122.518 101.117 129.585 101.117C136.651 101.117 146.918 102.05 152.251 103.25C164.118 105.783 180.918 106.183 184.785 104.05C186.385 103.25 188.385 100.717 189.051 98.5834C190.118 95.3834 189.985 94.3167 188.118 92.5834C181.451 86.5834 162.785 84.8501 145.318 88.5834Z" stroke="#152F3F" stroke-width="2" mask="url(#path-1-inside-1_392_2601)"/>
<path d="M12.9181 90.9834C9.3181 92.0501 5.18477 93.9167 3.7181 95.3834C1.18477 98.0501 1.18477 98.0501 5.3181 101.517C7.58477 103.383 11.5848 105.65 14.3848 106.45C20.3848 108.05 62.6514 108.317 62.6514 106.583C62.6514 104.183 56.7848 98.1834 51.7181 95.6501C45.5848 92.5834 30.9181 89.1167 23.9848 89.2501C21.4514 89.2501 16.3848 90.0501 12.9181 90.9834Z" stroke="#152F3F" stroke-width="2" mask="url(#path-1-inside-1_392_2601)"/>
<path d="M80.5181 91.1167C80.1181 92.1834 80.1181 93.6501 80.6515 94.4501C82.1181 96.7167 85.3181 95.9167 85.3181 93.25C85.3181 90.1834 81.4515 88.45 80.5181 91.1167Z" stroke="#152F3F" stroke-width="2" mask="url(#path-1-inside-1_392_2601)"/>
<path d="M98.6515 96.8501C98.6515 97.5167 99.4515 99.1167 100.518 100.583C102.385 102.983 102.518 102.983 103.451 100.583C103.985 99.1167 103.718 97.7834 102.518 96.9834C100.118 95.5167 98.6515 95.5167 98.6515 96.8501Z" stroke="#152F3F" stroke-width="2" mask="url(#path-1-inside-1_392_2601)"/>
<path d="M72.9181 98.0501C71.8515 99.1167 71.7181 103.783 72.7848 103.783C73.1848 103.783 74.6515 103.117 76.1181 102.317C78.2515 101.25 78.5181 100.583 77.1848 98.9834C75.4515 96.9834 74.2515 96.5834 72.9181 98.0501Z" stroke="#152F3F" stroke-width="2" mask="url(#path-1-inside-1_392_2601)"/>
<path d="M89.3181 101.117C89.3181 102.85 90.2514 103.783 91.9848 103.783C93.7181 103.783 94.6515 102.85 94.6515 101.117C94.6515 99.3834 93.7181 98.4501 91.9848 98.4501C90.2514 98.4501 89.3181 99.3834 89.3181 101.117Z" stroke="#152F3F" stroke-width="2" mask="url(#path-1-inside-1_392_2601)"/>
<path d="M81.3181 103.783C81.3181 106.717 82.2515 107.117 85.1848 105.25C87.3181 103.917 85.9848 101.117 83.1848 101.117C82.1181 101.117 81.3181 102.317 81.3181 103.783Z" stroke="#152F3F" stroke-width="2" mask="url(#path-1-inside-1_392_2601)"/>
<path d="M104.651 105.383C103.851 107.117 102.251 108.317 100.918 108.317C99.3181 108.183 98.6515 109.117 98.6515 111.25C98.6515 114.05 99.0515 114.317 101.051 113.25C102.385 112.45 104.785 112.183 106.118 112.583C110.118 113.65 112.651 107.517 109.451 104.583C106.385 101.783 106.251 101.917 104.651 105.383Z" stroke="#152F3F" stroke-width="2" mask="url(#path-1-inside-1_392_2601)"/>
<path d="M67.9848 108.717C67.9848 109.25 68.5181 110.583 69.1848 111.65C70.6515 113.917 75.1848 112.583 74.3848 110.05C73.7181 108.317 67.9848 106.983 67.9848 108.717Z" stroke="#152F3F" stroke-width="2" mask="url(#path-1-inside-1_392_2601)"/>
<path d="M88.7848 110.05C88.2515 111.25 88.5181 112.85 89.3181 113.65C91.0515 115.383 95.4515 111.383 94.1181 109.25C92.6515 107.117 89.7181 107.517 88.7848 110.05Z" stroke="#152F3F" stroke-width="2" mask="url(#path-1-inside-1_392_2601)"/>
<path d="M115.985 109.117C115.985 109.783 118.518 111.65 121.718 113.25C124.785 114.85 132.118 119.65 137.985 123.917C149.985 132.583 158.118 136.583 166.251 137.917C171.451 138.717 171.851 138.45 173.985 134.583C179.718 123.383 167.851 114.317 141.718 109.783C128.651 107.517 115.985 107.117 115.985 109.117Z" stroke="#152F3F" stroke-width="2" mask="url(#path-1-inside-1_392_2601)"/>
<path d="M77.8514 112.45C76.5181 115.65 78.5181 117.25 81.4514 115.65C83.5848 114.583 83.8514 113.917 82.5181 112.317C80.5181 109.917 78.7848 109.917 77.8514 112.45Z" stroke="#152F3F" stroke-width="2" mask="url(#path-1-inside-1_392_2601)"/>
<path d="M27.7181 113.117C17.1848 114.85 8.25146 118.45 3.98479 122.45C-1.21521 127.25 -1.34854 131.383 3.71813 132.583C5.71813 132.983 8.11813 133.517 9.05146 133.917C12.1181 134.85 24.5181 131.783 36.6515 127.117C43.3181 124.45 52.5181 121.65 57.1848 120.717L65.5848 118.983L62.2515 116.717C55.3181 112.183 41.7181 110.85 27.7181 113.117Z" stroke="#152F3F" stroke-width="2" mask="url(#path-1-inside-1_392_2601)"/>
<path d="M88.6515 118.45C88.2515 119.117 88.1181 120.317 88.5181 120.983C89.7181 122.717 94.6515 121.117 94.6515 118.983C94.6515 116.85 89.8515 116.45 88.6515 118.45Z" stroke="#152F3F" stroke-width="2" mask="url(#path-1-inside-1_392_2601)"/>
<path d="M97.3182 119.783C96.1182 121.917 96.2515 122.717 97.9848 123.25C100.385 124.183 103.985 121.65 103.985 118.983C103.985 116.183 98.9182 116.717 97.3182 119.783Z" stroke="#152F3F" stroke-width="2" mask="url(#path-1-inside-1_392_2601)"/>
<path d="M112.918 120.05C114.385 121.783 120.118 130.05 125.585 138.45C135.851 154.317 141.318 160.183 149.185 163.383C153.451 165.25 153.985 165.117 155.585 162.983C158.785 158.583 159.185 151.917 156.518 148.85C149.985 141.65 115.985 117.117 112.385 117.117C110.518 117.117 110.518 117.517 112.918 120.05Z" stroke="#152F3F" stroke-width="2" mask="url(#path-1-inside-1_392_2601)"/>
<path d="M80.9182 120.583C79.0515 122.45 79.9848 125.25 82.3848 124.85C83.5848 124.583 84.6515 123.517 84.6515 122.583C84.6515 120.45 82.2515 119.25 80.9182 120.583Z" stroke="#152F3F" stroke-width="2" mask="url(#path-1-inside-1_392_2601)"/>
<path d="M102.651 124.45C102.651 125.65 104.118 133.517 105.985 142.183C109.718 159.383 116.518 175.25 122.251 179.783C126.385 182.983 132.651 183.383 133.851 180.317C137.718 170.183 129.718 150.717 113.451 131.117C106.385 122.717 102.651 120.317 102.651 124.45Z" stroke="#152F3F" stroke-width="2" mask="url(#path-1-inside-1_392_2601)"/>
<path d="M48.9181 128.317C34.7848 133.383 21.8515 144.983 16.6515 157.517C13.8515 164.317 14.1181 166.05 18.6515 168.45C25.9848 172.317 28.7848 171.25 35.3181 162.05C49.0515 142.85 59.4515 130.45 63.0515 129.25C65.0515 128.45 66.6515 127.65 66.6515 127.25C66.6515 125.783 53.8515 126.583 48.9181 128.317Z" stroke="#152F3F" stroke-width="2" mask="url(#path-1-inside-1_392_2601)"/>
<path d="M92.3848 135.383C89.0514 146.05 89.0514 172.317 92.3848 181.917C95.7181 191.517 103.318 197.783 106.651 193.783C111.718 187.65 110.251 170.183 102.651 149.117C99.7181 140.85 97.3181 133.117 97.3181 131.783C97.3181 126.183 94.6514 128.183 92.3848 135.383Z" stroke="#152F3F" stroke-width="2" mask="url(#path-1-inside-1_392_2601)"/>
<path d="M71.4514 131.517C70.9181 133.25 63.9848 141.383 55.9848 149.65C48.1181 157.917 40.6515 166.45 39.4515 168.85C38.2515 171.117 37.3181 176.05 37.3181 179.783C37.3181 185.25 37.9848 187.25 40.6514 189.783C49.0514 198.317 54.9181 190.183 61.8514 160.45C63.0514 155.25 66.1181 147.783 68.7848 143.383C71.8514 138.317 73.3181 134.583 73.0515 132.05C72.6515 128.583 72.5181 128.45 71.4514 131.517Z" stroke="#152F3F" stroke-width="2" mask="url(#path-1-inside-1_392_2601)"/>
<path d="M82.6515 130.717C82.6515 131.517 78.7848 140.583 73.9848 150.85C61.0515 178.45 59.3181 187.917 65.4515 200.05C69.0515 207.117 72.6515 208.717 77.1848 205.517C83.0515 200.983 84.2515 193.917 83.4515 168.45C82.9181 151.65 83.0515 144.183 84.3848 139.783C86.2515 133.517 85.9848 129.117 83.8515 129.117C83.1848 129.117 82.6515 129.783 82.6515 130.717Z" stroke="#152F3F" stroke-width="2" mask="url(#path-1-inside-1_392_2601)"/>
</svg>
