<?xml version="1.0" standalone="no"?>
<!DOCTYPE svg PUBLIC "-//W3C//DTD SVG 1.1//EN" "http://www.w3.org/Graphics/SVG/1.1/DTD/svg11.dtd" >
<svg xmlns="http://www.w3.org/2000/svg" xmlns:xlink="http://www.w3.org/1999/xlink" version="1.1">
<metadata>
Created by FontForge 20200427 at Thu Nov 29 00:02:47 2018
 By www
Copyright (c) 2015 by Noel Leu. All rights reserved.
</metadata>
<defs>
<font id="GTWalsheim-Light" horiz-adv-x="640" >
  <font-face 
    font-family="GT Walsheim Light"
    font-weight="300"
    font-stretch="normal"
    units-per-em="1000"
    panose-1="0 0 4 0 0 0 0 0 0 0"
    ascent="765"
    descent="-235"
    x-height="455"
    cap-height="700"
    bbox="-503 -231 1122 900"
    underline-thickness="50"
    underline-position="-100"
    unicode-range="U+000D-FB02"
  />
<missing-glyph horiz-adv-x="800" 
d="M400 -17q-109 0 -193.5 52.5t-127.5 135.5t-43 179t43 179t127.5 135.5t193.5 52.5t193.5 -52.5t127.5 -135.5t43 -179t-43 -179t-127.5 -135.5t-193.5 -52.5zM400 6q140 0 239.5 100.5t99.5 243.5q0 138 -98 241.5t-241 103.5t-241.5 -103t-98.5 -242q0 -143 99 -243.5
t241 -100.5zM243 457q-17 0 -29.5 13t-12.5 30q0 18 12.5 30.5t29.5 12.5q18 0 30.5 -12.5t12.5 -30.5q0 -17 -12.5 -30t-30.5 -13zM540 457q-17 0 -29.5 13t-12.5 30q0 18 12.5 30.5t29.5 12.5q18 0 30.5 -12.5t12.5 -30.5q0 -17 -12.5 -30t-30.5 -13zM219 259l179 268
l-110 -243h178v-25h-247zM132 207q0 38 26 52l23 13q8 4 11 13.5t3.5 16.5t0.5 27h17q0 -57 -20 -69l-22 -13q-23 -13 -23 -40h-16zM616 157l-16 4q5 17 3 26t-16 15l-41 20q-55 27 -31 98l15 -5q-20 -61 27 -82l40 -19q20 -9 22.5 -26.5t-3.5 -30.5zM366 66
q-102 0 -198 162q82 -49 116 -60t72 -11q148 0 220 37q1 0 3 2q-22 -49 -88 -89.5t-125 -40.5zM366 92q31 0 71.5 16.5t62.5 30t32 21.5q-9 -2 -40.5 -9.5t-45 -10t-39 -5.5t-49.5 -3q-30 0 -69.5 11.5t-63.5 30.5q26 -42 69 -62t72 -20z" />
    <glyph glyph-name="fi" unicode="fi" horiz-adv-x="565" 
d="M123 547q0 49 13.5 82.5t36 49t43 21.5t43.5 6q41 0 67 -12v-56q-32 10 -52 10q-18 0 -31 -3t-27 -12.5t-21.5 -30t-7.5 -52.5v-95h139v-55h-139v-400h-64v400h-100v55h100v92zM453 666q26 0 43 -17t17 -43q0 -25 -17 -42t-43 -17t-42.5 17t-16.5 42q0 26 16.5 43
t42.5 17zM421 0v455h64v-455h-64z" />
    <glyph glyph-name="fl" unicode="fl" horiz-adv-x="565" 
d="M123 547q0 49 13.5 82.5t36 49t43 21.5t43.5 6q41 0 67 -12v-56q-32 10 -52 10q-18 0 -31 -3t-27 -12.5t-21.5 -30t-7.5 -52.5v-95h139v-55h-139v-400h-64v400h-100v55h100v92zM421 700h64v-700h-64v700z" />
    <glyph glyph-name="f_f" unicode="ff" horiz-adv-x="707" 
d="M123 547q0 49 13.5 82.5t36 49t43 21.5t43.5 6q41 0 67 -12v-56q-32 10 -52 10q-18 0 -31 -3t-27 -12.5t-21.5 -30t-7.5 -52.5v-95h139v-55h-139v-400h-64v400h-100v55h100v92zM640 648q-18 0 -31 -3t-27 -12.5t-21.5 -30t-7.5 -52.5v-95h139v-55h-139v-400h-64v400h-100
v55h100v92q0 49 13.5 82.5t36 49t43 21.5t43.5 6q41 0 67 -12v-56q-32 10 -52 10z" />
    <glyph glyph-name="f_f_i" unicode="ffi" horiz-adv-x="931" 
d="M123 547q0 49 13.5 82.5t36 49t43 21.5t43.5 6q41 0 67 -12v-56q-32 10 -52 10q-18 0 -31 -3t-27 -12.5t-21.5 -30t-7.5 -52.5v-95h139v-55h-139v-400h-64v400h-100v55h100v92zM489 547q0 49 13.5 82.5t36 49t43 21.5t43.5 6q41 0 67 -12v-56q-32 10 -52 10q-18 0 -31 -3
t-27 -12.5t-21.5 -30t-7.5 -52.5v-95h139v-55h-139v-400h-64v400h-100v55h100v92zM819 666q26 0 43 -17t17 -43q0 -25 -17 -42t-43 -17t-42.5 17t-16.5 42q0 26 16.5 43t42.5 17zM787 0v455h64v-455h-64z" />
    <glyph glyph-name="f_f_l" unicode="ffl" horiz-adv-x="931" 
d="M123 547q0 49 13.5 82.5t36 49t43 21.5t43.5 6q41 0 67 -12v-56q-32 10 -52 10q-18 0 -31 -3t-27 -12.5t-21.5 -30t-7.5 -52.5v-95h139v-55h-139v-400h-64v400h-100v55h100v92zM489 547q0 49 13.5 82.5t36 49t43 21.5t43.5 6q41 0 67 -12v-56q-32 10 -52 10q-18 0 -31 -3
t-27 -12.5t-21.5 -30t-7.5 -52.5v-95h139v-55h-139v-400h-64v400h-100v55h100v92zM787 700h64v-700h-64v700z" />
    <glyph glyph-name=".notdef" horiz-adv-x="800" 
d="M400 -17q-109 0 -193.5 52.5t-127.5 135.5t-43 179t43 179t127.5 135.5t193.5 52.5t193.5 -52.5t127.5 -135.5t43 -179t-43 -179t-127.5 -135.5t-193.5 -52.5zM400 6q140 0 239.5 100.5t99.5 243.5q0 138 -98 241.5t-241 103.5t-241.5 -103t-98.5 -242q0 -143 99 -243.5
t241 -100.5zM243 457q-17 0 -29.5 13t-12.5 30q0 18 12.5 30.5t29.5 12.5q18 0 30.5 -12.5t12.5 -30.5q0 -17 -12.5 -30t-30.5 -13zM540 457q-17 0 -29.5 13t-12.5 30q0 18 12.5 30.5t29.5 12.5q18 0 30.5 -12.5t12.5 -30.5q0 -17 -12.5 -30t-30.5 -13zM219 259l179 268
l-110 -243h178v-25h-247zM132 207q0 38 26 52l23 13q8 4 11 13.5t3.5 16.5t0.5 27h17q0 -57 -20 -69l-22 -13q-23 -13 -23 -40h-16zM616 157l-16 4q5 17 3 26t-16 15l-41 20q-55 27 -31 98l15 -5q-20 -61 27 -82l40 -19q20 -9 22.5 -26.5t-3.5 -30.5zM366 66
q-102 0 -198 162q82 -49 116 -60t72 -11q148 0 220 37q1 0 3 2q-22 -49 -88 -89.5t-125 -40.5zM366 92q31 0 71.5 16.5t62.5 30t32 21.5q-9 -2 -40.5 -9.5t-45 -10t-39 -5.5t-49.5 -3q-30 0 -69.5 11.5t-63.5 30.5q26 -42 69 -62t72 -20z" />
    <glyph glyph-name=".null" horiz-adv-x="0" 
 />
    <glyph glyph-name="nonmarkingreturn" horiz-adv-x="333" 
 />
    <glyph glyph-name="CR" unicode="&#xd;" horiz-adv-x="255" 
 />
    <glyph glyph-name="space" unicode=" " horiz-adv-x="255" 
 />
    <glyph glyph-name="exclam" unicode="!" horiz-adv-x="254" 
d="M95 198v502h64v-502h-64zM126 -6q-25 0 -42.5 17.5t-17.5 43.5t17.5 44t42.5 18q26 0 44 -18t18 -44t-18 -43.5t-44 -17.5z" />
    <glyph glyph-name="quotedbl" unicode="&#x22;" horiz-adv-x="388" 
d="M175 635q0 -12 -2 -20l-37 -178h-36l-38 178q-2 16 -2 20q0 24 16.5 40.5t40.5 16.5q25 0 41.5 -16.5t16.5 -40.5zM328 635q0 -12 -2 -20l-37 -178h-36l-38 178q-2 8 -2 20q0 24 16.5 40.5t40.5 16.5q25 0 41.5 -16.5t16.5 -40.5z" />
    <glyph glyph-name="numbersign" unicode="#" horiz-adv-x="542" 
d="M97 0l30 214h-102v52h109l23 168h-102v52h110l29 214h54l-29 -214h151l29 214h54l-29 -214h93v-52h-101l-23 -168h94v-52h-101l-30 -214h-54l30 214h-151l-30 -214h-54zM188 266h151l23 168h-151z" />
    <glyph glyph-name="dollar" unicode="$" horiz-adv-x="556" 
d="M511 174q0 -82 -53.5 -132t-145.5 -56v-86h-50v86q-105 7 -163.5 67.5t-58.5 159.5h67q0 -76 48 -122t132 -46q74 0 115.5 33.5t41.5 94.5q0 95 -113 125l-119 28q-150 38 -150 180q0 73 54 126.5t146 57.5v90h50v-92q85 -9 134.5 -62.5t50.5 -139.5h-68q-2 69 -42 107.5
t-112 38.5q-70 0 -107.5 -34.5t-37.5 -88.5q0 -99 123 -129l122 -31q136 -35 136 -175z" />
    <glyph glyph-name="percent" unicode="%" horiz-adv-x="764" 
d="M166 -11l-45 25l472 682l44 -25zM194 349q-79 0 -126.5 49.5t-47.5 120.5t47.5 120.5t126.5 49.5t126 -49.5t47 -120.5t-47 -120.5t-126 -49.5zM194 400q54 0 85 34.5t31 84.5t-31 84.5t-85 34.5t-85 -34.5t-31 -84.5t31 -84.5t85 -34.5zM570 -5q-79 0 -126.5 49.5
t-47.5 120.5t47.5 120.5t126.5 49.5t126 -49.5t47 -120.5t-47 -120.5t-126 -49.5zM570 46q54 0 85 34.5t31 84.5t-31 84.5t-85 34.5t-85 -34.5t-31 -84.5t31 -84.5t85 -34.5z" />
    <glyph glyph-name="ampersand" unicode="&#x26;" horiz-adv-x="592" 
d="M584 291v-60h-65q-3 -113 -65 -178.5t-171 -65.5q-104 0 -168.5 56.5t-64.5 146.5q0 67 41 115t105 59q-62 14 -97 56.5t-35 104.5q0 85 60.5 136.5t161.5 51.5q97 0 158 -52.5t61 -144.5h-69q0 62 -40 100t-110 38q-69 0 -111 -35t-42 -94q0 -60 37.5 -95.5t109.5 -35.5
h27v-62h-27q-79 0 -120 -39t-41 -104q0 -62 44.5 -102t119.5 -40q79 0 122 49.5t45 134.5h-87v60h221z" />
    <glyph glyph-name="quotesingle" unicode="'" horiz-adv-x="235" 
d="M175 635q0 -12 -2 -20l-37 -178h-36l-38 178q-2 16 -2 20q0 24 16.5 40.5t40.5 16.5q25 0 41.5 -16.5t16.5 -40.5z" />
    <glyph glyph-name="parenleft" unicode="(" horiz-adv-x="310" 
d="M281 -191q-216 189 -216 462q0 274 216 463l39 -37q-95 -91 -143 -193.5t-48 -232.5t48 -232t143 -193z" />
    <glyph glyph-name="parenright" unicode=")" horiz-adv-x="310" 
d="M30 -191l-40 37q95 90 143 192.5t48 232.5q0 131 -48 233t-143 193l40 37q215 -188 215 -463q0 -274 -215 -462z" />
    <glyph glyph-name="asterisk" unicode="*" horiz-adv-x="429" 
d="M123 358l-43 30l103 132l-153 44l16 48l150 -57l-7 162h52l-7 -162l149 57l16 -48l-153 -44l103 -132l-43 -30l-91 139z" />
    <glyph glyph-name="plus" unicode="+" horiz-adv-x="504" 
d="M221 118v167h-166v58h166v169h62v-169h166v-58h-166v-167h-62z" />
    <glyph glyph-name="comma" unicode="," horiz-adv-x="292" 
d="M112 -118q-16 0 -29 3v34q20 -2 30 -2q47 0 57 44q7 17 4 49q-13 -14 -36 -14q-25 0 -41.5 16t-16.5 42t17 43t44 17q34 0 58.5 -28.5t24.5 -78.5q0 -57 -30 -91t-82 -34z" />
    <glyph glyph-name="hyphen" unicode="-" horiz-adv-x="412" 
d="M55 231v58h301v-58h-301z" />
    <glyph glyph-name="period" unicode="." horiz-adv-x="283" 
d="M141 -6q-25 0 -43 18t-18 43q0 26 18 44t43 18t43.5 -18.5t18.5 -43.5t-18 -43t-44 -18z" />
    <glyph glyph-name="slash" unicode="/" horiz-adv-x="426" 
d="M68 -60l-53 22l343 795l53 -22z" />
    <glyph glyph-name="zero" unicode="0" horiz-adv-x="607" 
d="M303 -10q-124 0 -188.5 89.5t-64.5 261.5t64.5 261.5t188.5 89.5t189 -89.5t65 -261.5t-65 -261.5t-189 -89.5zM303 49q190 0 190 292q0 291 -190 291q-189 0 -189 -291q0 -292 189 -292z" />
    <glyph glyph-name="one" unicode="1" horiz-adv-x="361" 
d="M176 0v506h-138v58q85 0 114 24.5t29 91.5h62v-680h-67z" />
    <glyph glyph-name="two" unicode="2" horiz-adv-x="558" 
d="M55 0q0 114 38.5 181t132.5 113l109 54q101 50 101 155q0 57 -38 92.5t-99 35.5q-74 0 -116.5 -46t-42.5 -125h-69q0 105 62 167.5t166 62.5q95 0 151.5 -50t56.5 -134q0 -136 -132 -203l-109 -55q-70 -35 -99 -76.5t-34 -110.5h377v-61h-455z" />
    <glyph glyph-name="three" unicode="3" horiz-adv-x="553" 
d="M277 -10q-108 0 -171 56.5t-63 154.5h68q0 -71 44.5 -112t121.5 -41q72 0 115.5 37.5t43.5 99.5q0 65 -42.5 101.5t-117.5 36.5h-53v59h53q69 0 107.5 33.5t38.5 93.5q0 56 -40 90t-105 34q-70 0 -112 -37t-42 -100h-66q0 88 60 141t159 53q97 0 155.5 -49.5t58.5 -130.5
q0 -62 -34 -102.5t-99 -54.5q62 -5 104 -53t42 -115q0 -88 -62.5 -141.5t-163.5 -53.5z" />
    <glyph glyph-name="four" unicode="4" horiz-adv-x="567" 
d="M530 291v-61h-115v-231h-67v231h-278v450h67v-389h211v211h67v-211h115z" />
    <glyph glyph-name="five" unicode="5" horiz-adv-x="569" 
d="M291 -10q-97 0 -158.5 50t-66.5 131h68q3 -55 46 -88t112 -33q77 0 122 48t45 131q0 81 -41.5 127t-114.5 46q-63 0 -100 -22.5t-59 -71.5h-64v372h401v-61h-340v-242q51 81 170 81q98 0 155.5 -61t57.5 -166q0 -108 -64 -174.5t-169 -66.5z" />
    <glyph glyph-name="six" unicode="6" horiz-adv-x="563" 
d="M280 468q106 0 170.5 -69t64.5 -171t-64.5 -171t-170.5 -69t-170 69t-64 171q0 92 52 156l199 296h81l-151 -217q28 5 53 5zM280 47q78 0 124.5 51.5t46.5 129.5t-46.5 129.5t-124.5 51.5t-124 -51.5t-46 -129.5t46 -129.5t124 -51.5z" />
    <glyph glyph-name="seven" unicode="7" horiz-adv-x="499" 
d="M63 0l334 618h-352v62h454l-362 -680h-74z" />
    <glyph glyph-name="eight" unicode="8" horiz-adv-x="567" 
d="M283 -10q-106 0 -169.5 52.5t-63.5 140.5q0 65 35.5 109.5t97.5 58.5q-56 14 -89.5 57.5t-33.5 102.5q0 81 61.5 130t161.5 49t162 -49t62 -130q0 -59 -34 -102.5t-90 -57.5q62 -14 98 -58.5t36 -109.5q0 -88 -64 -140.5t-170 -52.5zM283 379q71 0 113 34.5t42 92.5
q0 59 -42.5 94t-112.5 35t-112 -35.5t-42 -93.5t42.5 -92.5t111.5 -34.5zM283 48q75 0 120.5 38t45.5 100q0 64 -45 101.5t-121 37.5q-74 0 -119.5 -38t-45.5 -101q0 -62 45.5 -100t119.5 -38z" />
    <glyph glyph-name="nine" unicode="9" horiz-adv-x="543" 
d="M497 452q0 -91 -51 -156l-201 -296h-80l151 217q-28 -5 -54 -5q-106 0 -170 69t-64 171q0 103 64 171.5t170 68.5t170.5 -69t64.5 -171zM92 452q0 -78 46 -129.5t124 -51.5t124.5 51.5t46.5 129.5t-46.5 129.5t-124.5 51.5t-124 -51.5t-46 -129.5z" />
    <glyph glyph-name="colon" unicode=":" horiz-adv-x="283" 
d="M141 342q-25 0 -43 18t-18 44q0 25 18 43t43 18t43.5 -18t18.5 -43q0 -26 -18.5 -44t-43.5 -18zM141 -6q-25 0 -43 18t-18 43q0 26 18 44t43 18t43.5 -18.5t18.5 -43.5t-18 -43t-44 -18z" />
    <glyph glyph-name="semicolon" unicode=";" horiz-adv-x="292" 
d="M141 342q-25 0 -43 18t-18 43t18 43t43 18q26 0 44 -18t18 -43t-18 -43t-44 -18zM112 -118q-16 0 -29 3v34q20 -2 30 -2q47 0 57 44q7 17 4 49q-13 -14 -36 -14q-25 0 -41.5 16t-16.5 42t17 43t44 17q34 0 58.5 -28.5t24.5 -78.5q0 -57 -30 -91t-82 -34z" />
    <glyph glyph-name="less" unicode="&#x3c;" horiz-adv-x="501" 
d="M446 124l-391 171v48l391 171v-62l-301 -133l301 -133v-62z" />
    <glyph glyph-name="equal" unicode="=" horiz-adv-x="534" 
d="M55 373v58h424v-58h-424zM55 196v58h424v-58h-424z" />
    <glyph glyph-name="greater" unicode="&#x3e;" horiz-adv-x="501" 
d="M55 124v62l301 133l-301 133v62l391 -171v-48z" />
    <glyph glyph-name="question" unicode="?" horiz-adv-x="475" 
d="M182 198v20q0 51 14.5 81.5t52.5 57.5l54 37q73 51 73 135q0 57 -37.5 92.5t-104.5 35.5q-71 0 -112.5 -43.5t-41.5 -119.5h-67q0 103 60.5 163t163.5 60q99 0 153.5 -52t54.5 -134q0 -103 -98 -176l-49 -35q-29 -21 -40.5 -42.5t-11.5 -60.5v-19h-64zM214 -6
q-26 0 -43.5 17.5t-17.5 43.5t17.5 44t43.5 18q25 0 43 -18t18 -44q0 -25 -17.5 -43t-43.5 -18z" />
    <glyph glyph-name="at" unicode="@" horiz-adv-x="894" 
d="M456 -196q-193 0 -304.5 112.5t-111.5 295.5q0 186 113.5 296.5t303.5 110.5q181 0 289 -105t108 -309q0 -112 -37.5 -178t-113.5 -66q-61 0 -90 33.5t-36 106.5q-19 -42 -60 -68.5t-98 -26.5q-88 0 -144 60t-56 144q0 86 56.5 146.5t144.5 60.5q55 0 96.5 -26t60.5 -69
v86h55v-282q0 -68 20 -93.5t55 -25.5q43 0 68.5 51t25.5 144q0 186 -92 277.5t-253 91.5q-167 0 -265 -97.5t-98 -262.5q0 -162 96.5 -260t267.5 -98q124 0 218 61l22 -44q-105 -66 -241 -66zM425 56q67 0 109.5 45t42.5 110t-42.5 110.5t-109.5 45.5t-109 -45.5t-42 -110.5
t42 -110t109 -45z" />
    <glyph glyph-name="A" unicode="A" horiz-adv-x="577" 
d="M484 0l-41 126h-310l-40 -126h-73l238 700h61l238 -700h-73zM153 187h271l-136 422z" />
    <glyph glyph-name="B" unicode="B" horiz-adv-x="579" 
d="M391 355q59 -9 98.5 -53.5t39.5 -114.5q0 -87 -57 -137t-154 -50h-233v700h227q97 0 153.5 -48t56.5 -133q0 -68 -35 -110t-96 -54zM309 640h-157v-257h170q59 0 96 35t37 94q0 60 -39 94t-107 34zM317 60q67 0 106 35t39 98q0 58 -37 94t-94 36h-179v-263h165z" />
    <glyph glyph-name="C" unicode="C" horiz-adv-x="774" 
d="M401 -15q-165 0 -263 104t-98 261t98 261t263 104q135 0 221 -65t109 -170h-73q-23 80 -88.5 127t-168.5 47q-134 0 -212.5 -86t-78.5 -218t78.5 -218t212.5 -86q103 0 168.5 47t88.5 127h73q-23 -105 -109 -170t-221 -65z" />
    <glyph glyph-name="D" unicode="D" horiz-adv-x="687" 
d="M85 0v700h209q84 0 153.5 -29.5t113 -78.5t67.5 -111.5t24 -130.5t-24 -130.5t-67.5 -111.5t-113 -78.5t-153.5 -29.5h-209zM152 61h137q139 0 217 85.5t78 203.5t-78 203.5t-217 85.5h-137v-578z" />
    <glyph glyph-name="E" unicode="E" horiz-adv-x="547" 
d="M85 0v700h391v-61h-324v-261h324v-61h-324v-256h324v-61h-391z" />
    <glyph glyph-name="F" unicode="F" horiz-adv-x="534" 
d="M85 0v700h391v-61h-324v-284h324v-61h-324v-294h-67z" />
    <glyph glyph-name="G" unicode="G" horiz-adv-x="824" 
d="M801 328v-61h-77q-20 -131 -103.5 -206.5t-222.5 -75.5q-165 0 -261.5 103.5t-96.5 259.5q1 157 96.5 262t261.5 105q116 0 198 -57.5t101 -148.5h-73q-20 66 -80 105.5t-146 39.5q-136 0 -212 -86t-76 -220q0 -130 77.5 -216t210.5 -86q110 0 174 58t82 163h-204v61h351
z" />
    <glyph glyph-name="H" unicode="H" horiz-adv-x="666" 
d="M85 0v700h67v-322h362v322h67v-700h-67v317h-362v-317h-67z" />
    <glyph glyph-name="I" unicode="I" horiz-adv-x="237" 
d="M85 0v700h67v-700h-67z" />
    <glyph glyph-name="J" unicode="J" horiz-adv-x="537" 
d="M252 -15q-101 0 -164 61.5t-63 169.5h67q0 -80 44.5 -125t115.5 -45q70 0 111 47t41 128v479h67v-479q0 -110 -59.5 -173t-159.5 -63z" />
    <glyph glyph-name="K" unicode="K" horiz-adv-x="584" 
d="M567 700l-349 -348l349 -352h-89l-326 336v-336h-67v700h67v-336l327 336h88z" />
    <glyph glyph-name="L" unicode="L" horiz-adv-x="510" 
d="M85 0v700h67v-636h315v-64h-382z" />
    <glyph glyph-name="M" unicode="M" horiz-adv-x="814" 
d="M85 0v700h65l257 -606l257 606h65v-700h-65v558l-230 -558h-54l-230 561v-561h-65z" />
    <glyph glyph-name="N" unicode="N" horiz-adv-x="661" 
d="M85 0v700h72l354 -589v589h64v-700h-72l-353 589v-589h-65z" />
    <glyph glyph-name="O" unicode="O" horiz-adv-x="800" 
d="M400 -15q-163 0 -261.5 106.5t-98.5 258.5t98.5 258.5t261.5 106.5t261.5 -106.5t98.5 -258.5t-98.5 -258.5t-261.5 -106.5zM400 46q132 0 211 88.5t79 215.5t-79 215.5t-211 88.5t-211 -88.5t-79 -215.5t79 -215.5t211 -88.5z" />
    <glyph glyph-name="P" unicode="P" horiz-adv-x="577" 
d="M329 700q100 0 165 -67t65 -171t-65 -171.5t-165 -67.5h-177v-223h-67v700h244zM325 284q73 0 120 50.5t47 127.5t-47 127t-120 50h-173v-355h173z" />
    <glyph glyph-name="Q" unicode="Q" horiz-adv-x="800" 
d="M760 350q0 -131 -75.5 -231t-205.5 -126l83 -108l-59 -29l-99 129h-4q-163 0 -261.5 106.5t-98.5 258.5t98.5 258.5t261.5 106.5t261.5 -106.5t98.5 -258.5zM400 46q132 0 211 88.5t79 215.5t-79 215.5t-211 88.5t-211 -88.5t-79 -215.5t79 -215.5t211 -88.5z" />
    <glyph glyph-name="R" unicode="R" horiz-adv-x="604" 
d="M559 462q0 -83 -43 -144t-114 -84l148 -234h-77l-140 223h-4h-177v-223h-67v700h244q100 0 165 -67t65 -171zM152 639v-355h173q73 0 120 50.5t47 127.5t-47 127t-120 50h-173z" />
    <glyph glyph-name="S" unicode="S" horiz-adv-x="561" 
d="M290 -15q-116 0 -183 62t-67 170h67q0 -79 49.5 -125.5t133.5 -46.5q76 0 117.5 35t41.5 98q0 100 -121 134l-118 36q-149 41 -149 182q0 83 60.5 134t157.5 51q102 0 162 -56.5t60 -153.5h-67q0 72 -41.5 111.5t-115.5 39.5q-68 0 -108 -33.5t-40 -88.5
q0 -52 31.5 -84.5t98.5 -51.5l114 -34q143 -42 143 -185q0 -89 -61 -141.5t-165 -52.5z" />
    <glyph glyph-name="T" unicode="T" horiz-adv-x="510" 
d="M221 0v636h-213v64h495v-64h-215v-636h-67z" />
    <glyph glyph-name="U" unicode="U" horiz-adv-x="630" 
d="M315 -15q-115 0 -182.5 63.5t-67.5 179.5v472h67v-469q0 -89 49 -137t134 -48t134 48t49 137v469h67v-472q0 -116 -67.5 -179.5t-182.5 -63.5z" />
    <glyph glyph-name="V" unicode="V" horiz-adv-x="556" 
d="M246 0l-243 700h72l203 -597l203 597h72l-242 -700h-65z" />
    <glyph glyph-name="W" unicode="W" horiz-adv-x="943" 
d="M242 0l-237 700h71l193 -591l176 591h53l175 -591l194 591h71l-237 -700h-52l-178 585l-177 -585h-52z" />
    <glyph glyph-name="X" unicode="X" horiz-adv-x="592" 
d="M25 0l233 350l-233 350h76l195 -295l195 295h76l-233 -350l233 -350h-76l-195 294l-195 -294h-76z" />
    <glyph glyph-name="Y" unicode="Y" horiz-adv-x="542" 
d="M478 700h74l-357 -700h-74l141 277l-267 423h78l224 -354z" />
    <glyph glyph-name="Z" unicode="Z" horiz-adv-x="565" 
d="M25 0l387 639h-355v61h468l-384 -639h388v-61h-504z" />
    <glyph glyph-name="bracketleft" unicode="[" horiz-adv-x="284" 
d="M85 -193v926h192v-54h-133v-819h133v-53h-192z" />
    <glyph glyph-name="backslash" unicode="\" horiz-adv-x="426" 
d="M358 -60l-343 795l53 22l343 -795z" />
    <glyph glyph-name="bracketright" unicode="]" horiz-adv-x="284" 
d="M199 -193h-192v53h133v819h-133v54h192v-926z" />
    <glyph glyph-name="asciicircum" unicode="^" horiz-adv-x="538" 
d="M50 303l193 402h48l197 -402h-73l-147 322l-147 -322h-71z" />
    <glyph glyph-name="underscore" unicode="_" horiz-adv-x="510" 
d="M0 -215v47h510v-47h-510z" />
    <glyph glyph-name="grave" unicode="`" horiz-adv-x="600" 
d="M197 511l-163 142l38 39l163 -143z" />
    <glyph glyph-name="a" unicode="a" horiz-adv-x="590" 
d="M268 -12q-105 0 -166.5 67.5t-61.5 171.5t62.5 172t166.5 68q62 0 109 -30t69 -81v99h63v-455h-63v98q-22 -49 -70.5 -79.5t-108.5 -30.5zM275 46q80 0 127.5 52.5t47.5 128.5q0 77 -47 129.5t-128 52.5q-77 0 -124 -51.5t-47 -130.5t47 -130t124 -51z" />
    <glyph glyph-name="b" unicode="b" horiz-adv-x="590" 
d="M327 467q98 0 160.5 -67t62.5 -173q0 -104 -64 -171.5t-163 -67.5q-60 0 -108 30t-71 80v-98h-64v700h64v-344q22 52 71.5 81.5t111.5 29.5zM316 46q74 0 122 51t48 130t-48 130.5t-122 51.5q-77 0 -126 -51t-49 -131q0 -79 49.5 -130t125.5 -51z" />
    <glyph glyph-name="c" unicode="c" horiz-adv-x="516" 
d="M266 -12q-103 0 -164.5 66t-61.5 173t61.5 173t164.5 66q89 0 145 -44.5t65 -120.5h-65q-9 52 -46.5 79.5t-98.5 27.5q-75 0 -118.5 -49t-43.5 -132t43.5 -132t118.5 -49q60 0 98 27.5t47 77.5h65q-9 -74 -65 -118.5t-145 -44.5z" />
    <glyph glyph-name="d" unicode="d" horiz-adv-x="590" 
d="M447 700h63v-700h-63v98q-22 -49 -70.5 -79.5t-108.5 -30.5q-105 0 -166.5 67.5t-61.5 171.5t62.5 172t166.5 68q62 0 109 -30t69 -81v344zM275 46q80 0 127.5 52.5t47.5 128.5q0 77 -47 129.5t-128 52.5q-77 0 -124 -51.5t-47 -130.5t47 -130t124 -51z" />
    <glyph glyph-name="e" unicode="e" horiz-adv-x="515" 
d="M475 256q0 -11 -2 -43h-368q0 -77 43 -122.5t117 -45.5q51 0 87.5 22t51.5 61h65q-14 -62 -70 -101t-134 -39q-103 0 -164 65.5t-61 174.5q0 108 61 173.5t160 65.5q95 0 154.5 -59t59.5 -152zM105 264h307q-1 68 -41 109.5t-110 41.5q-67 0 -109 -41.5t-47 -109.5z" />
    <glyph glyph-name="f" unicode="f" horiz-adv-x="341" 
d="M274 648q-18 0 -31 -3t-27 -12.5t-21.5 -30t-7.5 -52.5v-95h139v-55h-139v-400h-64v400h-100v55h100v92q0 49 13.5 82.5t36 49t43 21.5t43.5 6q41 0 67 -12v-56q-32 10 -52 10z" />
    <glyph glyph-name="g" unicode="g" horiz-adv-x="590" 
d="M446 455h64v-452q0 -125 -77 -185q-55 -45 -157 -45q-104 0 -163 46q-60 46 -62 117h66q4 -47 45.5 -77.5t113.5 -30.5q170 0 170 171v99q-22 -51 -70.5 -80.5t-107.5 -29.5q-101 0 -164.5 68t-63.5 171t64.5 171.5t164.5 68.5q61 0 108 -29.5t69 -81.5v99zM275 46
q77 0 126 52t49 129q0 78 -48.5 130t-126.5 52q-75 0 -123 -51.5t-48 -130.5q0 -78 48 -129.5t123 -51.5z" />
    <glyph glyph-name="h" unicode="h" horiz-adv-x="565" 
d="M317 467q86 0 129.5 -49.5t43.5 -143.5v-274h-64v249q0 162 -130 162q-73 0 -111 -48.5t-38 -130.5v-232h-64v700h64v-349q16 53 60 84.5t110 31.5z" />
    <glyph glyph-name="i" unicode="i" horiz-adv-x="224" 
d="M112 547q-26 0 -42.5 17t-16.5 42q0 26 16.5 43t42.5 17t43 -17t17 -43q0 -25 -17 -42t-43 -17zM80 0v455h64v-455h-64z" />
    <glyph glyph-name="j" unicode="j" horiz-adv-x="227" 
d="M115 547q-26 0 -42.5 17t-16.5 42q0 26 16.5 43t42.5 17t43 -17t17 -43q0 -25 -17 -42t-43 -17zM34 -221q-40 0 -63 11v60q24 -10 52 -10q60 0 60 77v538h64v-554q0 -58 -29.5 -90t-83.5 -32z" />
    <glyph glyph-name="k" unicode="k" horiz-adv-x="492" 
d="M462 455l-246 -222l246 -233h-87l-231 220v-220h-64v700h64v-461l234 216h84z" />
    <glyph glyph-name="l" unicode="l" horiz-adv-x="224" 
d="M80 0v700h64v-700h-64z" />
    <glyph glyph-name="m" unicode="m" horiz-adv-x="831" 
d="M80 0v455h64v-102q13 48 50 81t96 33t98 -29t51 -85q14 49 55.5 81.5t98.5 32.5q80 0 121.5 -46t41.5 -133v-288h-63v275q0 70 -30.5 103t-83.5 33q-61 0 -95 -47t-34 -131v-233h-64v262q0 149 -114 149q-62 0 -95 -48.5t-33 -129.5v-233h-64z" />
    <glyph glyph-name="n" unicode="n" horiz-adv-x="563" 
d="M80 0v455h64v-104q17 53 60.5 84.5t110.5 31.5q86 0 129.5 -49.5t43.5 -143.5v-274h-64v249q0 162 -130 162q-73 0 -111.5 -48.5t-38.5 -130.5v-232h-64z" />
    <glyph glyph-name="o" unicode="o" horiz-adv-x="549" 
d="M274 -12q-106 0 -170 69t-64 171t64.5 170.5t169.5 68.5q106 0 170.5 -68.5t64.5 -170.5t-64.5 -171t-170.5 -69zM274 47q78 0 124.5 51.5t46.5 129.5t-46.5 129.5t-124.5 51.5t-124 -51.5t-46 -130.5q0 -77 46 -128.5t124 -51.5z" />
    <glyph glyph-name="p" unicode="p" horiz-adv-x="590" 
d="M327 467q98 0 160.5 -67t62.5 -173q0 -104 -64 -171.5t-163 -67.5q-60 0 -108 30t-71 80v-313h-64v670h64v-99q22 52 71.5 81.5t111.5 29.5zM316 46q74 0 122 51t48 130t-48 130.5t-122 51.5q-77 0 -126 -51t-49 -131q0 -79 49.5 -130t125.5 -51z" />
    <glyph glyph-name="q" unicode="q" horiz-adv-x="590" 
d="M447 455h63v-670h-63v313q-22 -49 -70.5 -79.5t-108.5 -30.5q-105 0 -166.5 67.5t-61.5 171.5t62.5 172t166.5 68q62 0 109 -30t69 -81v99zM275 46q80 0 127.5 52.5t47.5 128.5q0 77 -47 129.5t-128 52.5q-77 0 -124 -51.5t-47 -130.5t47 -130t124 -51z" />
    <glyph glyph-name="r" unicode="r" horiz-adv-x="355" 
d="M80 0v455h64v-120q15 64 55.5 96.5t91.5 32.5q28 0 41 -4v-59q-21 3 -43 3q-73 0 -109 -61.5t-36 -145.5v-197h-64z" />
    <glyph glyph-name="s" unicode="s" horiz-adv-x="442" 
d="M226 -12q-84 0 -135 41.5t-51 103.5h64q0 -39 33.5 -65.5t91.5 -26.5q47 0 75 20.5t28 57.5q0 29 -17 47t-60 29l-95 24q-106 27 -106 122q0 57 46.5 91.5t119.5 34.5q79 0 124.5 -35.5t45.5 -96.5h-63q-1 38 -30.5 59.5t-80.5 21.5q-43 0 -71 -19t-28 -54q0 -54 77 -73
l96 -26q107 -27 107 -122q0 -64 -46 -99t-125 -35z" />
    <glyph glyph-name="t" unicode="t" horiz-adv-x="346" 
d="M255 53q39 0 61 6v-57q-27 -8 -74 -8q-26 0 -45.5 4.5t-41 19t-33 47.5t-11.5 83v252h-89v55h89v152h63v-152h126v-55h-126v-239q0 -65 20.5 -86.5t60.5 -21.5z" />
    <glyph glyph-name="u" unicode="u" horiz-adv-x="563" 
d="M253 -12q-81 0 -129.5 49.5t-48.5 143.5v274h64v-260q0 -150 131 -150q73 0 110.5 51t37.5 118v241h64v-455h-64v103q-17 -50 -60.5 -82.5t-104.5 -32.5z" />
    <glyph glyph-name="v" unicode="v" horiz-adv-x="473" 
d="M210 0l-205 455h69l162 -369l163 369h69l-205 -455h-53z" />
    <glyph glyph-name="w" unicode="w" horiz-adv-x="726" 
d="M179 0l-169 455h70l125 -364l123 364h69l123 -364l126 364h70l-169 -455h-56l-129 376l-128 -376h-55z" />
    <glyph glyph-name="x" unicode="x" horiz-adv-x="470" 
d="M23 0l174 228l-173 227h79l131 -179l133 179h79l-174 -227l175 -228h-79l-134 182l-133 -182h-78z" />
    <glyph glyph-name="y" unicode="y" horiz-adv-x="567" 
d="M423 455h64v-470q0 -111 -64 -166q-54 -46 -144 -46q-98 0 -153 46q-50 43 -51 117h65q4 -108 138 -108q145 0 145 161v112q-20 -50 -64 -81t-106 -31q-178 0 -178 202v264h64v-252q0 -77 30 -116.5t104 -39.5q72 0 111 52.5t39 122.5v233z" />
    <glyph glyph-name="z" unicode="z" horiz-adv-x="436" 
d="M20 0l288 400h-270v55h381l-289 -400h282v-55h-392z" />
    <glyph glyph-name="braceleft" unicode="{" horiz-adv-x="309" 
d="M249 -194q-52 0 -92 36.5t-40 102.5v204q0 44 -31 69t-61 25v54q30 0 61 25t31 69v204q0 66 40 102.5t92 36.5h53v-53h-45q-38 0 -59.5 -27t-21.5 -70v-201q0 -50 -27 -77t-61 -36q34 -9 61 -36t27 -77v-201q0 -43 21.5 -70t59.5 -27h45v-53h-53z" />
    <glyph glyph-name="bar" unicode="|" horiz-adv-x="222" 
d="M85 -193v926h52v-926h-52z" />
    <glyph glyph-name="braceright" unicode="}" horiz-adv-x="309" 
d="M60 -194h-52v53h44q39 0 60 27t21 70v201q0 51 27 77.5t62 35.5q-35 9 -62 35.5t-27 77.5v201q0 43 -21 70t-60 27h-44v53h52q52 0 92 -36.5t40 -102.5v-204q0 -44 31 -69t61 -25v-54q-30 0 -61 -25t-31 -69v-204q0 -66 -40 -102.5t-92 -36.5z" />
    <glyph glyph-name="asciitilde" unicode="~" horiz-adv-x="539" 
d="M378 219q-33 0 -112 35q-68 33 -116 33q-51 0 -100 -52v60q42 50 103 50q41 0 118 -32q7 -3 23 -9.5t24.5 -10t21 -8t22 -6.5t17.5 -2q54 0 110 54v-59q-48 -53 -111 -53z" />
    <glyph glyph-name="uni00A0" unicode="&#xa0;" horiz-adv-x="255" 
 />
    <glyph glyph-name="exclamdown" unicode="&#xa1;" horiz-adv-x="254" 
d="M126 491q26 0 44 -17.5t18 -43.5t-18 -44t-44 -18q-25 0 -42.5 18t-17.5 44t17.5 43.5t42.5 17.5zM95 287h64v-502h-64v502z" />
    <glyph glyph-name="cent" unicode="&#xa2;" horiz-adv-x="516" 
d="M266 158q60 0 98 27.5t47 77.5h65q-8 -69 -57 -112t-127 -50v-101h-51v101q-92 8 -146.5 73.5t-54.5 165.5q0 99 54.5 164t146.5 73v103h51v-103q78 -7 127 -50.5t57 -113.5h-65q-9 52 -46.5 79.5t-98.5 27.5q-75 0 -118.5 -48.5t-43.5 -131.5t43.5 -132.5t118.5 -49.5z
" />
    <glyph glyph-name="sterling" unicode="&#xa3;" horiz-adv-x="514" 
d="M172 242q0 -124 -57 -181h358v-61h-433v47q65 61 65 183v115h-67v50h67v81q0 107 54 161.5t148 54.5q92 0 144.5 -51.5t52.5 -138.5h-68q0 63 -33.5 98.5t-96.5 35.5q-69 0 -101.5 -41t-32.5 -125v-75h186v-50h-186v-103z" />
    <glyph glyph-name="currency" unicode="&#xa4;" horiz-adv-x="582" 
d="M76 116l-41 41l71 71q-46 60 -46 142t46 142l-70 71l40 41l71 -71q60 49 144 49t145 -48l70 70l41 -41l-70 -70q48 -60 48 -143t-48 -143l69 -70l-40 -41l-70 70q-60 -47 -145 -47q-83 0 -144 48zM291 197q76 0 123 50t47 123t-47 123.5t-123 50.5q-74 0 -120.5 -50.5
t-46.5 -123.5q0 -72 46.5 -122.5t120.5 -50.5z" />
    <glyph glyph-name="yen" unicode="&#xa5;" horiz-adv-x="538" 
d="M523 680l-218 -407h155v-46h-157v-87h157v-47h-157v-93h-68v93h-158v47h158v87h-158v46h156l-218 407h76l178 -352l178 352h76z" />
    <glyph glyph-name="brokenbar" unicode="&#xa6;" horiz-adv-x="222" 
d="M85 322v411h52v-411h-52zM85 -193v429h52v-429h-52z" />
    <glyph glyph-name="section" unicode="&#xa7;" horiz-adv-x="541" 
d="M487 234q0 -95 -103 -140q93 -53 93 -153q0 -80 -57 -123t-153 -43q-105 0 -160 49.5t-55 130.5h69q0 -57 36.5 -90t110.5 -33q64 0 101 27.5t37 79.5t-36.5 85t-88 50.5t-103.5 36t-88.5 55.5t-36.5 94q0 96 104 138q-93 53 -93 151q0 78 57 123t151 45q106 0 161.5 -50
t55.5 -132h-71q0 57 -36.5 91t-108.5 34q-64 0 -101 -28t-37 -81q0 -51 36.5 -84t88 -50.5t103 -35.5t88 -54.5t36.5 -92.5zM322 122q99 34 99 108q0 21 -9 38t-21 28t-35.5 22.5t-41 18t-49 17t-47.5 16.5q-98 -32 -98 -106q0 -21 9 -38t21 -28.5t35.5 -23t40.5 -18
t48.5 -17.5t47.5 -17z" />
    <glyph glyph-name="dieresis" unicode="&#xa8;" horiz-adv-x="600" 
d="M126 547q-23 0 -39.5 16.5t-16.5 39.5q0 25 16.5 41.5t39.5 16.5q25 0 41.5 -16.5t16.5 -41.5q0 -23 -16.5 -39.5t-41.5 -16.5zM323 547q-23 0 -39.5 16.5t-16.5 39.5q0 25 16.5 41.5t39.5 16.5q25 0 41.5 -16.5t16.5 -41.5q0 -23 -16.5 -39.5t-41.5 -16.5z" />
    <glyph glyph-name="copyright" unicode="&#xa9;" horiz-adv-x="799" 
d="M400 -17q-163 0 -261.5 105t-98.5 262t98.5 262t261.5 105t261 -105t98 -262t-98 -262t-261 -105zM400 30q138 0 221.5 92t83.5 228t-83.5 228t-221.5 92q-139 0 -222.5 -92t-83.5 -228t83.5 -228t222.5 -92zM403 139q-96 0 -152.5 61.5t-56.5 149.5t56.5 149.5
t152.5 61.5q76 0 124 -37.5t58 -98.5h-48q-9 42 -44.5 68t-89.5 26q-75 0 -119 -49t-44 -120t44 -120t119 -49q54 0 89.5 26t44.5 67h48q-10 -60 -58 -97.5t-124 -37.5z" />
    <glyph glyph-name="ordfeminine" unicode="&#xaa;" horiz-adv-x="366" 
d="M161 394q-61 0 -98.5 39.5t-37.5 98.5q0 60 38 100t99 40q38 0 66 -17.5t41 -46.5v56h53v-263h-53v55q-13 -28 -41.5 -45t-66.5 -17zM174 438q44 0 70.5 27.5t26.5 66.5q0 40 -26.5 67.5t-70.5 27.5q-43 0 -69.5 -27.5t-26.5 -67.5q0 -39 27 -66.5t69 -27.5z" />
    <glyph glyph-name="guillemotleft" unicode="&#xab;" horiz-adv-x="481" 
d="M212 73l-204 188l204 188l38 -38l-163 -150l163 -150zM425 73l-205 188l205 188l38 -38l-163 -150l163 -150z" />
    <glyph glyph-name="logicalnot" unicode="&#xac;" horiz-adv-x="504" 
d="M385 208v146h-330v58h394v-204h-64z" />
    <glyph glyph-name="uni00AD" unicode="&#xad;" horiz-adv-x="412" 
d="M55 231v58h301v-58h-301z" />
    <glyph glyph-name="registered" unicode="&#xae;" horiz-adv-x="590" 
d="M295 197q-116 0 -185.5 74t-69.5 186q0 111 69.5 185.5t185.5 74.5t185.5 -74.5t69.5 -185.5q0 -112 -69.5 -186t-185.5 -74zM295 230q99 0 158 65t59 162q0 96 -59 161t-158 65q-98 0 -157 -65t-59 -161q0 -97 59 -162t157 -65zM206 320v282h104q41 0 67 -27.5t26 -66.5
q0 -31 -18 -55.5t-48 -32.5l64 -100h-38l-61 96h-63v-96h-33zM240 446h68q27 0 44 18t17 44q0 27 -17 45.5t-44 18.5h-68v-126z" />
    <glyph glyph-name="macron" unicode="&#xaf;" horiz-adv-x="600" 
d="M77 554v53h317v-53h-317z" />
    <glyph glyph-name="degree" unicode="&#xb0;" horiz-adv-x="361" 
d="M181 392q-65 0 -108 43.5t-43 106.5t43 106.5t108 43.5q64 0 106.5 -43.5t42.5 -106.5t-42.5 -106.5t-106.5 -43.5zM181 442q43 0 70 29t27 71t-27 70.5t-70 28.5q-45 0 -72 -28.5t-27 -70.5t27 -71t72 -29z" />
    <glyph glyph-name="plusminus" unicode="&#xb1;" horiz-adv-x="504" 
d="M220 271v117h-165v59h165v118h64v-118h165v-59h-165v-117h-64zM55 154v57h394v-57h-394z" />
    <glyph glyph-name="two.sups" unicode="&#xb2;" horiz-adv-x="373" 
d="M39 400q0 69 23.5 108.5t81.5 67.5l67 32q58 26 58 82q0 30 -20.5 48t-54.5 18q-41 0 -64.5 -23.5t-23.5 -65.5h-57q0 61 39.5 97.5t104.5 36.5q62 0 98 -29.5t36 -79.5q0 -79 -80 -117l-66 -32q-38 -18 -54.5 -39.5t-19.5 -56.5h220v-47h-288z" />
    <glyph glyph-name="three.sups" unicode="&#xb3;" horiz-adv-x="381" 
d="M189 393q-69 0 -107.5 33t-38.5 92h57q0 -37 24 -58.5t66 -21.5q40 0 63.5 19.5t23.5 52.5q0 34 -23 53t-65 19h-37v44h37q39 0 60.5 17.5t21.5 49.5q0 29 -22 47t-58 18q-38 0 -61 -19.5t-23 -51.5h-57q0 51 38.5 82.5t103.5 31.5q62 0 99 -28.5t37 -76.5q0 -75 -83 -92
q39 -3 64 -30.5t25 -66.5q0 -51 -39.5 -82.5t-105.5 -31.5z" />
    <glyph glyph-name="acute" unicode="&#xb4;" horiz-adv-x="600" 
d="M136 511l-37 38l163 143l37 -39z" />
    <glyph glyph-name="uni00B5" unicode="&#xb5;" horiz-adv-x="568" 
d="M423 455h64v-455h-64v103q-17 -50 -60.5 -82.5t-104.5 -32.5q-78 0 -114 53v-256h-64v670h64v-260q0 -150 131 -150q73 0 110.5 51t37.5 118v241z" />
    <glyph glyph-name="paragraph" unicode="&#xb6;" horiz-adv-x="655" 
d="M266 -148v477q-97 0 -156.5 48.5t-59.5 142.5q0 50 18 87.5t44 58t62.5 32.5t65 15.5t59.5 3.5h306v-55h-53v-810h-61v809h-164v-809h-61z" />
    <glyph glyph-name="periodcentered" unicode="&#xb7;" horiz-adv-x="283" 
d="M141 251q-25 0 -43 18t-18 43q0 26 18 44t43 18t43.5 -18t18.5 -44q0 -25 -18.5 -43t-43.5 -18z" />
    <glyph glyph-name="cedilla" unicode="&#xb8;" horiz-adv-x="600" 
d="M139 -215q-35 0 -57.5 19.5t-24.5 50.5h38q1 -17 13.5 -27t31.5 -10q22 0 35 14t13 39q0 24 -12 38t-35 14q-29 0 -44 -24h-33v101h38v-67q15 20 50 20q32 0 54 -22.5t22 -59.5q0 -38 -23.5 -62t-65.5 -24z" />
    <glyph glyph-name="one.sups" unicode="&#xb9;" horiz-adv-x="266" 
d="M125 400v282h-90v43q56 0 76 15t20 54h48v-394h-54z" />
    <glyph glyph-name="ordmasculine" unicode="&#xba;" horiz-adv-x="347" 
d="M173 394q-67 0 -107 39.5t-40 99.5t40 99.5t107 39.5q68 0 108.5 -39.5t40.5 -99.5t-40.5 -99.5t-108.5 -39.5zM173 439q44 0 70 27t26 67t-26 67t-70 27q-43 0 -69.5 -27t-26.5 -67t26.5 -67t69.5 -27z" />
    <glyph glyph-name="guillemotright" unicode="&#xbb;" horiz-adv-x="481" 
d="M55 73l-37 38l163 150l-163 150l37 38l205 -188zM268 73l-38 38l164 150l-164 150l38 38l205 -188z" />
    <glyph glyph-name="onequarter" unicode="&#xbc;" horiz-adv-x="787" 
d="M548 696l44 -28l-472 -682l-44 28zM125 286v282h-90v43q56 0 76 15t20 54h48v-394h-54zM752 176v-49h-64v-128h-55v128h-171v267h55v-218h116v116h55v-116h64z" />
    <glyph glyph-name="onehalf" unicode="&#xbd;" horiz-adv-x="766" 
d="M120 -14l-44 28l472 682l44 -28zM125 286v282h-90v43q56 0 76 15t20 54h48v-394h-54zM432 0q0 69 23.5 108.5t81.5 67.5l67 32q58 26 58 82q0 30 -20.5 48t-54.5 18q-41 0 -64.5 -23.5t-23.5 -65.5h-57q0 61 39.5 97.5t104.5 36.5q62 0 98 -29.5t36 -79.5q0 -79 -80 -117
l-66 -32q-38 -18 -54.5 -39.5t-19.5 -56.5h220v-47h-288z" />
    <glyph glyph-name="threequarters" unicode="&#xbe;" horiz-adv-x="884" 
d="M645 696l44 -28l-472 -682l-44 28zM334 393q0 -51 -39.5 -82.5t-105.5 -31.5q-69 0 -107.5 33t-38.5 92h57q0 -37 24 -58.5t66 -21.5q40 0 63.5 19.5t23.5 52.5q0 34 -23 53t-65 19h-37v44h37q39 0 60.5 17.5t21.5 49.5q0 29 -22 47t-58 18q-38 0 -61 -19.5t-23 -51.5
h-57q0 51 38.5 82.5t103.5 31.5q62 0 99 -28.5t37 -76.5q0 -75 -83 -92q39 -3 64 -30.5t25 -66.5zM848 176v-49h-64v-128h-55v128h-171v267h55v-218h116v116h55v-116h64z" />
    <glyph glyph-name="questiondown" unicode="&#xbf;" horiz-adv-x="475" 
d="M262 503q25 0 42.5 -18t17.5 -44q0 -25 -17.5 -43t-42.5 -18q-26 0 -44 18t-18 43q0 26 18 44t44 18zM293 299v-20q0 -51 -14.5 -81.5t-52.5 -57.5l-54 -38q-73 -51 -73 -134q0 -57 37.5 -92.5t104.5 -35.5q71 0 112.5 43.5t41.5 119.5h67q0 -104 -60 -163.5t-164 -59.5
q-99 0 -153.5 52t-54.5 134q0 103 98 176l49 35q29 21 40.5 42.5t11.5 60.5v19h64z" />
    <glyph glyph-name="Agrave" unicode="&#xc0;" horiz-adv-x="577" 
d="M412 776l-24 -46l-228 116l24 45zM484 0l-41 126h-310l-40 -126h-73l238 700h61l238 -700h-73zM153 187h271l-136 422z" />
    <glyph glyph-name="Aacute" unicode="&#xc1;" horiz-adv-x="577" 
d="M417 846l-228 -116l-24 46l228 115zM484 0l-41 126h-310l-40 -126h-73l238 700h61l238 -700h-73zM153 187h271l-136 422z" />
    <glyph glyph-name="Acircumflex" unicode="&#xc2;" horiz-adv-x="577" 
d="M287 823l-95 -85l-34 32l129 113l129 -113l-34 -32zM484 0l-41 126h-310l-40 -126h-73l238 700h61l238 -700h-73zM153 187h271l-136 422z" />
    <glyph glyph-name="Atilde" unicode="&#xc3;" horiz-adv-x="577" 
d="M211 811q-43 0 -76 -49l-29 27q43 73 103 73q30 0 81.5 -30.5t73.5 -30.5q46 0 78 49l30 -28q-40 -70 -104 -72q-34 -2 -84.5 29.5t-72.5 31.5zM484 0l-41 126h-310l-40 -126h-73l238 700h61l238 -700h-73zM153 187h271l-136 422z" />
    <glyph glyph-name="Adieresis" unicode="&#xc4;" horiz-adv-x="577" 
d="M171 757q-24 0 -40.5 16.5t-16.5 39.5q0 25 16.5 41.5t40.5 16.5t41 -16.5t17 -41.5q0 -23 -17 -39.5t-41 -16.5zM405 757q-24 0 -40.5 16.5t-16.5 39.5q0 25 16.5 41.5t40.5 16.5t41 -16.5t17 -41.5q0 -23 -17 -39.5t-41 -16.5zM484 0l-41 126h-310l-40 -126h-73
l238 700h61l238 -700h-73zM153 187h271l-136 422z" />
    <glyph glyph-name="Aring" unicode="&#xc5;" horiz-adv-x="577" 
d="M484 0l-41 126h-310l-40 -126h-73l228 671q-35 13 -56.5 43t-21.5 67q0 49 34.5 83t84.5 34t85.5 -34.5t35.5 -82.5q0 -38 -22.5 -68t-58.5 -42l228 -671h-73zM214 781q0 -31 22 -53t53 -22q32 0 54 21.5t22 53.5t-21.5 54t-54.5 22q-31 0 -53 -22t-22 -54zM153 187h271
l-136 422z" />
    <glyph glyph-name="AE" unicode="&#xc6;" horiz-adv-x="818" 
d="M748 639h-284v-261h284v-61h-284v-256h284v-61h-351v128h-246l-63 -128h-73l353 700h380v-61zM180 187h217v443z" />
    <glyph glyph-name="Ccedilla" unicode="&#xc7;" horiz-adv-x="774" 
d="M401 46q103 0 168.5 47t88.5 127h73q-23 -102 -104 -166t-208 -69v-52q15 20 50 20q32 0 54 -22.5t22 -59.5q0 -38 -23.5 -62t-65.5 -24q-35 0 -57.5 19.5t-24.5 50.5h38q1 -17 13.5 -27t31.5 -10q22 0 35 14t13 39q0 24 -12 38t-35 14q-29 0 -44 -24h-33v86
q-156 7 -248.5 110t-92.5 255q0 157 98 261t263 104q135 0 221 -65t109 -170h-73q-23 80 -88.5 127t-168.5 47q-134 0 -212.5 -86t-78.5 -218t78.5 -218t212.5 -86z" />
    <glyph glyph-name="Egrave" unicode="&#xc8;" horiz-adv-x="547" 
d="M387 730l-228 116l24 45l228 -115zM85 0v700h391v-61h-324v-261h324v-61h-324v-256h324v-61h-391z" />
    <glyph glyph-name="Eacute" unicode="&#xc9;" horiz-adv-x="547" 
d="M187 730l-24 46l228 115l24 -45zM85 0v700h391v-61h-324v-261h324v-61h-324v-256h324v-61h-391z" />
    <glyph glyph-name="Ecircumflex" unicode="&#xca;" horiz-adv-x="547" 
d="M286 883l129 -113l-34 -32l-95 85l-95 -85l-34 32zM85 0v700h391v-61h-324v-261h324v-61h-324v-256h324v-61h-391z" />
    <glyph glyph-name="Edieresis" unicode="&#xcb;" horiz-adv-x="547" 
d="M170 757q-24 0 -40.5 16.5t-16.5 39.5q0 25 16.5 41.5t40.5 16.5t41 -16.5t17 -41.5q0 -23 -17 -39.5t-41 -16.5zM404 757q-24 0 -40.5 16.5t-16.5 39.5q0 25 16.5 41.5t40.5 16.5t41 -16.5t17 -41.5q0 -23 -17 -39.5t-41 -16.5zM85 0v700h391v-61h-324v-261h324v-61
h-324v-256h324v-61h-391z" />
    <glyph glyph-name="Igrave" unicode="&#xcc;" horiz-adv-x="237" 
d="M175 745l-143 85l30 45l142 -85zM85 0v700h67v-700h-67z" />
    <glyph glyph-name="Iacute" unicode="&#xcd;" horiz-adv-x="237" 
d="M58 744l-29 44l150 92l30 -44zM85 0v700h67v-700h-67z" />
    <glyph glyph-name="Icircumflex" unicode="&#xce;" horiz-adv-x="237" 
d="M192 748l-74 66l-73 -66l-32 35l105 91l106 -91zM85 0v700h67v-700h-67z" />
    <glyph glyph-name="Idieresis" unicode="&#xcf;" horiz-adv-x="237" 
d="M55 759q-23 0 -38.5 15t-15.5 39t15.5 39t38.5 15t38.5 -15t15.5 -39t-15.5 -39t-38.5 -15zM181 759q-23 0 -38.5 15t-15.5 39t15.5 39t38.5 15q24 0 39.5 -15t15.5 -39t-15.5 -39t-39.5 -15zM85 0v700h67v-700h-67z" />
    <glyph glyph-name="Eth" unicode="&#xd0;" horiz-adv-x="687" 
d="M294 700q84 0 153.5 -29.5t113 -78.5t67.5 -111.5t24 -130.5t-24 -130.5t-67.5 -111.5t-113 -78.5t-153.5 -29.5h-209v324h-80v58h80v318h209zM289 61q139 0 217 85.5t78 203.5t-78 203.5t-217 85.5h-137v-257h144v-58h-144v-263h137z" />
    <glyph glyph-name="Ntilde" unicode="&#xd1;" horiz-adv-x="661" 
d="M410 750q-34 -2 -84.5 29.5t-72.5 31.5q-43 0 -76 -49l-29 27q43 73 103 73q30 0 81.5 -30.5t73.5 -30.5q46 0 78 49l30 -28q-40 -70 -104 -72zM85 0v700h72l354 -589v589h64v-700h-72l-353 589v-589h-65z" />
    <glyph glyph-name="Ograve" unicode="&#xd2;" horiz-adv-x="800" 
d="M499 730l-228 116l24 45l228 -115zM400 -15q-163 0 -261.5 106.5t-98.5 258.5t98.5 258.5t261.5 106.5t261.5 -106.5t98.5 -258.5t-98.5 -258.5t-261.5 -106.5zM400 46q132 0 211 88.5t79 215.5t-79 215.5t-211 88.5t-211 -88.5t-79 -215.5t79 -215.5t211 -88.5z" />
    <glyph glyph-name="Oacute" unicode="&#xd3;" horiz-adv-x="800" 
d="M300 730l-24 46l228 115l24 -45zM400 -15q-163 0 -261.5 106.5t-98.5 258.5t98.5 258.5t261.5 106.5t261.5 -106.5t98.5 -258.5t-98.5 -258.5t-261.5 -106.5zM400 46q132 0 211 88.5t79 215.5t-79 215.5t-211 88.5t-211 -88.5t-79 -215.5t79 -215.5t211 -88.5z" />
    <glyph glyph-name="Ocircumflex" unicode="&#xd4;" horiz-adv-x="800" 
d="M398 883l129 -113l-34 -32l-95 85l-95 -85l-34 32zM400 -15q-163 0 -261.5 106.5t-98.5 258.5t98.5 258.5t261.5 106.5t261.5 -106.5t98.5 -258.5t-98.5 -258.5t-261.5 -106.5zM400 46q132 0 211 88.5t79 215.5t-79 215.5t-211 88.5t-211 -88.5t-79 -215.5t79 -215.5
t211 -88.5z" />
    <glyph glyph-name="Otilde" unicode="&#xd5;" horiz-adv-x="800" 
d="M479 750q-34 -2 -84.5 29.5t-72.5 31.5q-43 0 -76 -49l-29 27q43 73 103 73q30 0 81.5 -30.5t73.5 -30.5q46 0 78 49l30 -28q-40 -70 -104 -72zM400 -15q-163 0 -261.5 106.5t-98.5 258.5t98.5 258.5t261.5 106.5t261.5 -106.5t98.5 -258.5t-98.5 -258.5t-261.5 -106.5z
M400 46q132 0 211 88.5t79 215.5t-79 215.5t-211 88.5t-211 -88.5t-79 -215.5t79 -215.5t211 -88.5z" />
    <glyph glyph-name="Odieresis" unicode="&#xd6;" horiz-adv-x="800" 
d="M283 757q-24 0 -40.5 16.5t-16.5 39.5q0 25 16.5 41.5t40.5 16.5t41 -16.5t17 -41.5q0 -23 -17 -39.5t-41 -16.5zM517 757q-24 0 -40.5 16.5t-16.5 39.5q0 25 16.5 41.5t40.5 16.5t41 -16.5t17 -41.5q0 -23 -17 -39.5t-41 -16.5zM400 -15q-163 0 -261.5 106.5
t-98.5 258.5t98.5 258.5t261.5 106.5t261.5 -106.5t98.5 -258.5t-98.5 -258.5t-261.5 -106.5zM400 46q132 0 211 88.5t79 215.5t-79 215.5t-211 88.5t-211 -88.5t-79 -215.5t79 -215.5t211 -88.5z" />
    <glyph glyph-name="multiply" unicode="&#xd7;" horiz-adv-x="477" 
d="M422 458l-142 -144l142 -142l-41 -41l-143 142l-141 -141l-42 40l143 142l-143 143l41 41l142 -142l143 142z" />
    <glyph glyph-name="Oslash" unicode="&#xd8;" horiz-adv-x="800" 
d="M566 678q92 -44 143 -132.5t51 -195.5q0 -152 -98.5 -258.5t-261.5 -106.5q-63 0 -122 19l-34 -79l-47 21l33 77q-90 46 -140 133.5t-50 193.5q0 152 98.5 258.5t261.5 106.5q64 0 120 -18l32 75l46 -20zM110 350q0 -86 38 -158t107 -110l240 558q-45 14 -95 14
q-132 0 -211 -88.5t-79 -215.5zM400 46q132 0 211 88.5t79 215.5q0 87 -39 159.5t-110 110.5l-239 -559q45 -15 98 -15z" />
    <glyph glyph-name="Ugrave" unicode="&#xd9;" horiz-adv-x="630" 
d="M414 730l-228 116l24 45l228 -115zM315 -15q-115 0 -182.5 63.5t-67.5 179.5v472h67v-469q0 -89 49 -137t134 -48t134 48t49 137v469h67v-472q0 -116 -67.5 -179.5t-182.5 -63.5z" />
    <glyph glyph-name="Uacute" unicode="&#xda;" horiz-adv-x="630" 
d="M215 730l-24 46l228 115l24 -45zM315 -15q-115 0 -182.5 63.5t-67.5 179.5v472h67v-469q0 -89 49 -137t134 -48t134 48t49 137v469h67v-472q0 -116 -67.5 -179.5t-182.5 -63.5z" />
    <glyph glyph-name="Ucircumflex" unicode="&#xdb;" horiz-adv-x="630" 
d="M313 883l129 -113l-34 -32l-95 85l-95 -85l-34 32zM315 -15q-115 0 -182.5 63.5t-67.5 179.5v472h67v-469q0 -89 49 -137t134 -48t134 48t49 137v469h67v-472q0 -116 -67.5 -179.5t-182.5 -63.5z" />
    <glyph glyph-name="Udieresis" unicode="&#xdc;" horiz-adv-x="630" 
d="M197 757q-24 0 -40.5 16.5t-16.5 39.5q0 25 16.5 41.5t40.5 16.5t41 -16.5t17 -41.5q0 -23 -17 -39.5t-41 -16.5zM431 757q-24 0 -40.5 16.5t-16.5 39.5q0 25 16.5 41.5t40.5 16.5t41 -16.5t17 -41.5q0 -23 -17 -39.5t-41 -16.5zM315 -15q-115 0 -182.5 63.5t-67.5 179.5
v472h67v-469q0 -89 49 -137t134 -48t134 48t49 137v469h67v-472q0 -116 -67.5 -179.5t-182.5 -63.5z" />
    <glyph glyph-name="Yacute" unicode="&#xdd;" horiz-adv-x="542" 
d="M412 846l-228 -116l-24 46l228 115zM478 700h74l-357 -700h-74l141 277l-267 423h78l224 -354z" />
    <glyph glyph-name="Thorn" unicode="&#xde;" horiz-adv-x="577" 
d="M329 582q104 0 167.5 -67.5t63.5 -164.5t-63.5 -164t-167.5 -67h-177v-119h-67v700h67v-118h177zM326 180q75 0 121 49.5t46 120.5q0 72 -46 121.5t-121 49.5h-174v-341h174z" />
    <glyph glyph-name="germandbls" unicode="&#xdf;" horiz-adv-x="564" 
d="M295 -13q-51 0 -90 13v58q36 -12 85 -12q72 0 116 38t44 104q0 59 -42.5 102.5t-120.5 43.5h-58v58h51q74 0 113.5 37t39.5 96t-38.5 95.5t-106.5 36.5q-69 0 -107.5 -44t-38.5 -111v-502h-64v502q0 93 56.5 153t153.5 60q99 0 154 -50.5t55 -134.5q0 -65 -39.5 -111
t-103.5 -54q72 -7 116 -60.5t44 -124.5q0 -90 -61.5 -141.5t-157.5 -51.5z" />
    <glyph glyph-name="agrave" unicode="&#xe0;" horiz-adv-x="590" 
d="M312 511l-163 142l38 39l163 -143zM268 -12q-105 0 -166.5 67.5t-61.5 171.5t62.5 172t166.5 68q62 0 109 -30t69 -81v99h63v-455h-63v98q-22 -49 -70.5 -79.5t-108.5 -30.5zM275 46q80 0 127.5 52.5t47.5 128.5q0 77 -47 129.5t-128 52.5q-77 0 -124 -51.5t-47 -130.5
t47 -130t124 -51z" />
    <glyph glyph-name="aacute" unicode="&#xe1;" horiz-adv-x="590" 
d="M245 511l-37 38l163 143l37 -39zM268 -12q-105 0 -166.5 67.5t-61.5 171.5t62.5 172t166.5 68q62 0 109 -30t69 -81v99h63v-455h-63v98q-22 -49 -70.5 -79.5t-108.5 -30.5zM275 46q80 0 127.5 52.5t47.5 128.5q0 77 -47 129.5t-128 52.5q-77 0 -124 -51.5t-47 -130.5
t47 -130t124 -51z" />
    <glyph glyph-name="acircumflex" unicode="&#xe2;" horiz-adv-x="590" 
d="M278 693l154 -147l-39 -38l-115 113l-114 -113l-40 38zM268 -12q-105 0 -166.5 67.5t-61.5 171.5t62.5 172t166.5 68q62 0 109 -30t69 -81v99h63v-455h-63v98q-22 -49 -70.5 -79.5t-108.5 -30.5zM275 46q80 0 127.5 52.5t47.5 128.5q0 77 -47 129.5t-128 52.5
q-77 0 -124 -51.5t-47 -130.5t47 -130t124 -51z" />
    <glyph glyph-name="atilde" unicode="&#xe3;" horiz-adv-x="590" 
d="M351 541q-27 0 -75 29t-70 29q-40 0 -72 -46l-27 34q38 66 97 66q27 0 75 -29t70 -29q40 0 72 46l27 -34q-39 -66 -97 -66zM268 -12q-105 0 -166.5 67.5t-61.5 171.5t62.5 172t166.5 68q62 0 109 -30t69 -81v99h63v-455h-63v98q-22 -49 -70.5 -79.5t-108.5 -30.5zM275 46
q80 0 127.5 52.5t47.5 128.5q0 77 -47 129.5t-128 52.5q-77 0 -124 -51.5t-47 -130.5t47 -130t124 -51z" />
    <glyph glyph-name="adieresis" unicode="&#xe4;" horiz-adv-x="590" 
d="M179 547q-23 0 -39.5 16.5t-16.5 39.5q0 25 16.5 41.5t39.5 16.5q25 0 41.5 -16.5t16.5 -41.5q0 -23 -16.5 -39.5t-41.5 -16.5zM376 547q-23 0 -39.5 16.5t-16.5 39.5q0 25 16.5 41.5t39.5 16.5q25 0 41.5 -16.5t16.5 -41.5q0 -23 -16.5 -39.5t-41.5 -16.5zM268 -12
q-105 0 -166.5 67.5t-61.5 171.5t62.5 172t166.5 68q62 0 109 -30t69 -81v99h63v-455h-63v98q-22 -49 -70.5 -79.5t-108.5 -30.5zM275 46q80 0 127.5 52.5t47.5 128.5q0 77 -47 129.5t-128 52.5q-77 0 -124 -51.5t-47 -130.5t47 -130t124 -51z" />
    <glyph glyph-name="aring" unicode="&#xe5;" horiz-adv-x="590" 
d="M278 495q-46 0 -77.5 30.5t-31.5 77.5t31.5 77.5t77.5 30.5t77.5 -30.5t31.5 -77.5t-31.5 -77.5t-77.5 -30.5zM278 531q30 0 49.5 20t19.5 52q0 31 -20 51.5t-49 20.5t-49 -20.5t-20 -51.5q0 -32 19.5 -52t49.5 -20zM268 -12q-105 0 -166.5 67.5t-61.5 171.5t62.5 172
t166.5 68q62 0 109 -30t69 -81v99h63v-455h-63v98q-22 -49 -70.5 -79.5t-108.5 -30.5zM275 46q80 0 127.5 52.5t47.5 128.5q0 77 -47 129.5t-128 52.5q-77 0 -124 -51.5t-47 -130.5t47 -130t124 -51z" />
    <glyph glyph-name="ae" unicode="&#xe6;" horiz-adv-x="879" 
d="M839 255q0 -9 -2 -43h-370q1 -77 45.5 -122.5t118.5 -45.5q50 0 86 23t51 64h65q-14 -65 -69.5 -104.5t-132.5 -39.5q-66 0 -117.5 30.5t-79.5 85.5q-57 -115 -211 -115q-79 0 -128.5 35.5t-49.5 94.5q0 73 53 109q53 35 185 35h125v38q0 52 -35.5 83t-105.5 31
q-64 0 -101 -28.5t-40 -80.5h-64q4 74 60 118t146 44q139 0 182 -90q61 89 177 89q93 0 152.5 -59.5t59.5 -151.5zM468 262h307q0 68 -40.5 110.5t-107.5 42.5q-70 0 -113.5 -41.5t-45.5 -111.5zM408 188v12q0 2 -0.5 6t-0.5 6h-152q-144 0 -144 -89q0 -41 34 -62t95 -21
q71 0 119.5 39.5t48.5 108.5z" />
    <glyph glyph-name="ccedilla" unicode="&#xe7;" horiz-adv-x="516" 
d="M266 46q60 0 98 27.5t47 77.5h65q-8 -70 -59.5 -114.5t-133.5 -48.5v-55q15 20 50 20q32 0 54 -22.5t22 -59.5q0 -38 -23.5 -62t-65.5 -24q-35 0 -57.5 19.5t-24.5 50.5h38q1 -17 13.5 -27t31.5 -10q22 0 35 14t13 39q0 24 -12 38t-35 14q-29 0 -44 -24h-33v90
q-94 7 -149.5 72t-55.5 166q0 107 61.5 173t164.5 66q89 0 145 -44.5t65 -120.5h-65q-9 52 -46.5 79.5t-98.5 27.5q-75 0 -118.5 -49t-43.5 -132t43.5 -132t118.5 -49z" />
    <glyph glyph-name="egrave" unicode="&#xe8;" horiz-adv-x="515" 
d="M333 549l-38 -38l-163 142l38 39zM475 256q0 -11 -2 -43h-368q0 -77 43 -122.5t117 -45.5q51 0 87.5 22t51.5 61h65q-14 -62 -70 -101t-134 -39q-103 0 -164 65.5t-61 174.5q0 108 61 173.5t160 65.5q95 0 154.5 -59t59.5 -152zM105 264h307q-1 68 -41 109.5t-110 41.5
q-67 0 -109 -41.5t-47 -109.5z" />
    <glyph glyph-name="eacute" unicode="&#xe9;" horiz-adv-x="515" 
d="M390 653l-163 -142l-37 38l163 143zM475 256q0 -11 -2 -43h-368q0 -77 43 -122.5t117 -45.5q51 0 87.5 22t51.5 61h65q-14 -62 -70 -101t-134 -39q-103 0 -164 65.5t-61 174.5q0 108 61 173.5t160 65.5q95 0 154.5 -59t59.5 -152zM105 264h307q-1 68 -41 109.5t-110 41.5
q-67 0 -109 -41.5t-47 -109.5z" />
    <glyph glyph-name="ecircumflex" unicode="&#xea;" horiz-adv-x="515" 
d="M261 621l-114 -113l-40 38l154 147l154 -147l-39 -38zM475 256q0 -11 -2 -43h-368q0 -77 43 -122.5t117 -45.5q51 0 87.5 22t51.5 61h65q-14 -62 -70 -101t-134 -39q-103 0 -164 65.5t-61 174.5q0 108 61 173.5t160 65.5q95 0 154.5 -59t59.5 -152zM105 264h307
q-1 68 -41 109.5t-110 41.5q-67 0 -109 -41.5t-47 -109.5z" />
    <glyph glyph-name="edieresis" unicode="&#xeb;" horiz-adv-x="515" 
d="M161 547q-23 0 -39.5 16.5t-16.5 39.5q0 25 16.5 41.5t39.5 16.5q25 0 41.5 -16.5t16.5 -41.5q0 -23 -16.5 -39.5t-41.5 -16.5zM358 547q-23 0 -39.5 16.5t-16.5 39.5q0 25 16.5 41.5t39.5 16.5q25 0 41.5 -16.5t16.5 -41.5q0 -23 -16.5 -39.5t-41.5 -16.5zM475 256
q0 -11 -2 -43h-368q0 -77 43 -122.5t117 -45.5q51 0 87.5 22t51.5 61h65q-14 -62 -70 -101t-134 -39q-103 0 -164 65.5t-61 174.5q0 108 61 173.5t160 65.5q95 0 154.5 -59t59.5 -152zM105 264h307q-1 68 -41 109.5t-110 41.5q-67 0 -109 -41.5t-47 -109.5z" />
    <glyph glyph-name="igrave" unicode="&#xec;" horiz-adv-x="224" 
d="M146 511l-163 142l38 39l163 -143zM80 0v455h64v-455h-64z" />
    <glyph glyph-name="iacute" unicode="&#xed;" horiz-adv-x="224" 
d="M79 511l-37 38l163 143l37 -39zM80 0v455h64v-455h-64z" />
    <glyph glyph-name="icircumflex" unicode="&#xee;" horiz-adv-x="224" 
d="M112 693l154 -147l-39 -38l-115 113l-114 -113l-40 38zM80 0v455h64v-455h-64z" />
    <glyph glyph-name="idieresis" unicode="&#xef;" horiz-adv-x="224" 
d="M49 552q-21 0 -35.5 14.5t-14.5 35.5q0 22 14.5 36.5t35.5 14.5q22 0 36.5 -14.5t14.5 -36.5q0 -21 -14.5 -35.5t-36.5 -14.5zM174 552q-21 0 -35.5 14.5t-14.5 35.5q0 22 14.5 36.5t35.5 14.5q22 0 36.5 -14.5t14.5 -36.5q0 -21 -14.5 -35.5t-36.5 -14.5zM80 0v455h64
v-455h-64z" />
    <glyph glyph-name="eth" unicode="&#xf0;" horiz-adv-x="549" 
d="M465 374q44 -63 44 -146q0 -102 -64.5 -171t-170.5 -69t-170 69t-64 171q0 105 66 172t172 67q29 0 51 -7l-65 96l-93 -51l-20 37l90 49l-73 109h80l51 -77l89 48l21 -36l-86 -47zM274 47q78 0 124.5 51.5t46.5 129.5t-46.5 129.5t-124.5 51.5t-124 -51.5t-46 -130.5
q0 -77 46 -128.5t124 -51.5z" />
    <glyph glyph-name="ntilde" unicode="&#xf1;" horiz-adv-x="563" 
d="M354 540q-27 0 -75 29t-70 29q-40 0 -72 -46l-27 34q38 66 97 66q27 0 75 -29t70 -29q40 0 72 46l27 -34q-39 -66 -97 -66zM80 0v455h64v-104q17 53 60.5 84.5t110.5 31.5q86 0 129.5 -49.5t43.5 -143.5v-274h-64v249q0 162 -130 162q-73 0 -111.5 -48.5t-38.5 -130.5
v-232h-64z" />
    <glyph glyph-name="ograve" unicode="&#xf2;" horiz-adv-x="549" 
d="M309 510l-163 142l38 39l163 -143zM274 -12q-106 0 -170 69t-64 171t64.5 170.5t169.5 68.5q106 0 170.5 -68.5t64.5 -170.5t-64.5 -171t-170.5 -69zM274 47q78 0 124.5 51.5t46.5 129.5t-46.5 129.5t-124.5 51.5t-124 -51.5t-46 -130.5q0 -77 46 -128.5t124 -51.5z" />
    <glyph glyph-name="oacute" unicode="&#xf3;" horiz-adv-x="549" 
d="M241 510l-37 38l163 143l37 -39zM274 -12q-106 0 -170 69t-64 171t64.5 170.5t169.5 68.5q106 0 170.5 -68.5t64.5 -170.5t-64.5 -171t-170.5 -69zM274 47q78 0 124.5 51.5t46.5 129.5t-46.5 129.5t-124.5 51.5t-124 -51.5t-46 -130.5q0 -77 46 -128.5t124 -51.5z" />
    <glyph glyph-name="ocircumflex" unicode="&#xf4;" horiz-adv-x="549" 
d="M275 692l154 -147l-39 -38l-115 113l-114 -113l-40 38zM274 -12q-106 0 -170 69t-64 171t64.5 170.5t169.5 68.5q106 0 170.5 -68.5t64.5 -170.5t-64.5 -171t-170.5 -69zM274 47q78 0 124.5 51.5t46.5 129.5t-46.5 129.5t-124.5 51.5t-124 -51.5t-46 -130.5
q0 -77 46 -128.5t124 -51.5z" />
    <glyph glyph-name="otilde" unicode="&#xf5;" horiz-adv-x="549" 
d="M348 540q-27 0 -75 29t-70 29q-40 0 -72 -46l-27 34q38 66 97 66q27 0 75 -29t70 -29q40 0 72 46l27 -34q-39 -66 -97 -66zM274 -12q-106 0 -170 69t-64 171t64.5 170.5t169.5 68.5q106 0 170.5 -68.5t64.5 -170.5t-64.5 -171t-170.5 -69zM274 47q78 0 124.5 51.5
t46.5 129.5t-46.5 129.5t-124.5 51.5t-124 -51.5t-46 -130.5q0 -77 46 -128.5t124 -51.5z" />
    <glyph glyph-name="odieresis" unicode="&#xf6;" horiz-adv-x="549" 
d="M175 546q-23 0 -39.5 16.5t-16.5 39.5q0 25 16.5 41.5t39.5 16.5q25 0 41.5 -16.5t16.5 -41.5q0 -23 -16.5 -39.5t-41.5 -16.5zM372 546q-23 0 -39.5 16.5t-16.5 39.5q0 25 16.5 41.5t39.5 16.5q25 0 41.5 -16.5t16.5 -41.5q0 -23 -16.5 -39.5t-41.5 -16.5zM274 -12
q-106 0 -170 69t-64 171t64.5 170.5t169.5 68.5q106 0 170.5 -68.5t64.5 -170.5t-64.5 -171t-170.5 -69zM274 47q78 0 124.5 51.5t46.5 129.5t-46.5 129.5t-124.5 51.5t-124 -51.5t-46 -130.5q0 -77 46 -128.5t124 -51.5z" />
    <glyph glyph-name="divide" unicode="&#xf7;" horiz-adv-x="504" 
d="M252 402q-25 0 -42 16.5t-17 41.5t17 42.5t42 17.5t42.5 -17.5t17.5 -42.5t-17.5 -41.5t-42.5 -16.5zM55 283v58h394v-58h-394zM252 109q-25 0 -42 17t-17 42t17 42t42 17t42.5 -17t17.5 -42t-17.5 -42t-42.5 -17z" />
    <glyph glyph-name="oslash" unicode="&#xf8;" horiz-adv-x="549" 
d="M395 437q54 -31 84 -86t30 -123q0 -102 -64.5 -171t-170.5 -69q-38 0 -69 9l-28 -64l-39 17l27 62q-59 29 -92 86.5t-33 129.5q0 102 64.5 170.5t169.5 68.5q46 0 82 -13l23 54l39 -17zM104 227q0 -52 22.5 -94.5t62.5 -64.5l143 332q-26 9 -58 9q-78 0 -124 -51.5
t-46 -130.5zM274 47q78 0 124.5 51.5t46.5 129.5q0 104 -74 153l-142 -329q23 -5 45 -5z" />
    <glyph glyph-name="ugrave" unicode="&#xf9;" horiz-adv-x="563" 
d="M317 510l-163 142l38 39l163 -143zM253 -12q-81 0 -129.5 49.5t-48.5 143.5v274h64v-260q0 -150 131 -150q73 0 110.5 51t37.5 118v241h64v-455h-64v103q-17 -50 -60.5 -82.5t-104.5 -32.5z" />
    <glyph glyph-name="uacute" unicode="&#xfa;" horiz-adv-x="563" 
d="M250 510l-37 38l163 143l37 -39zM253 -12q-81 0 -129.5 49.5t-48.5 143.5v274h64v-260q0 -150 131 -150q73 0 110.5 51t37.5 118v241h64v-455h-64v103q-17 -50 -60.5 -82.5t-104.5 -32.5z" />
    <glyph glyph-name="ucircumflex" unicode="&#xfb;" horiz-adv-x="563" 
d="M283 692l154 -147l-39 -38l-115 113l-114 -113l-40 38zM253 -12q-81 0 -129.5 49.5t-48.5 143.5v274h64v-260q0 -150 131 -150q73 0 110.5 51t37.5 118v241h64v-455h-64v103q-17 -50 -60.5 -82.5t-104.5 -32.5z" />
    <glyph glyph-name="udieresis" unicode="&#xfc;" horiz-adv-x="563" 
d="M184 546q-23 0 -39.5 16.5t-16.5 39.5q0 25 16.5 41.5t39.5 16.5q25 0 41.5 -16.5t16.5 -41.5q0 -23 -16.5 -39.5t-41.5 -16.5zM381 546q-23 0 -39.5 16.5t-16.5 39.5q0 25 16.5 41.5t39.5 16.5q25 0 41.5 -16.5t16.5 -41.5q0 -23 -16.5 -39.5t-41.5 -16.5zM253 -12
q-81 0 -129.5 49.5t-48.5 143.5v274h64v-260q0 -150 131 -150q73 0 110.5 51t37.5 118v241h64v-455h-64v103q-17 -50 -60.5 -82.5t-104.5 -32.5z" />
    <glyph glyph-name="yacute" unicode="&#xfd;" horiz-adv-x="567" 
d="M246 510l-37 38l163 143l37 -39zM423 455h64v-470q0 -111 -64 -166q-54 -46 -144 -46q-98 0 -153 46q-50 43 -51 117h65q4 -108 138 -108q145 0 145 161v112q-20 -50 -64 -81t-106 -31q-178 0 -178 202v264h64v-252q0 -77 30 -116.5t104 -39.5q72 0 111 52.5t39 122.5
v233z" />
    <glyph glyph-name="thorn" unicode="&#xfe;" horiz-adv-x="590" 
d="M80 -215v915h64v-344q22 52 71.5 81.5t111.5 29.5q98 0 160.5 -67t62.5 -173q0 -104 -64 -171.5t-163 -67.5q-60 0 -108 30t-71 80v-313h-64zM316 46q74 0 122 51t48 130t-48 130.5t-122 51.5q-77 0 -126 -51t-49 -131q0 -79 49.5 -130t125.5 -51z" />
    <glyph glyph-name="ydieresis" unicode="&#xff;" horiz-adv-x="567" 
d="M180 546q-23 0 -39.5 16.5t-16.5 39.5q0 25 16.5 41.5t39.5 16.5q25 0 41.5 -16.5t16.5 -41.5q0 -23 -16.5 -39.5t-41.5 -16.5zM377 546q-23 0 -39.5 16.5t-16.5 39.5q0 25 16.5 41.5t39.5 16.5q25 0 41.5 -16.5t16.5 -41.5q0 -23 -16.5 -39.5t-41.5 -16.5zM423 455h64
v-470q0 -111 -64 -166q-54 -46 -144 -46q-98 0 -153 46q-50 43 -51 117h65q4 -108 138 -108q145 0 145 161v112q-20 -50 -64 -81t-106 -31q-178 0 -178 202v264h64v-252q0 -77 30 -116.5t104 -39.5q72 0 111 52.5t39 122.5v233z" />
    <glyph glyph-name="Amacron" unicode="&#x100;" horiz-adv-x="577" 
d="M466 824v-52h-354v52h354zM484 0l-41 126h-310l-40 -126h-73l238 700h61l238 -700h-73zM153 187h271l-136 422z" />
    <glyph glyph-name="amacron" unicode="&#x101;" horiz-adv-x="590" 
d="M119 554v53h317v-53h-317zM268 -12q-105 0 -166.5 67.5t-61.5 171.5t62.5 172t166.5 68q62 0 109 -30t69 -81v99h63v-455h-63v98q-22 -49 -70.5 -79.5t-108.5 -30.5zM275 46q80 0 127.5 52.5t47.5 128.5q0 77 -47 129.5t-128 52.5q-77 0 -124 -51.5t-47 -130.5t47 -130
t124 -51z" />
    <glyph glyph-name="Abreve" unicode="&#x102;" horiz-adv-x="577" 
d="M289 736q-65 0 -111 35.5t-51 92.5h55q5 -39 35 -59.5t72 -20.5t72.5 20.5t35.5 59.5h54q-5 -57 -51 -92.5t-111 -35.5zM484 0l-41 126h-310l-40 -126h-73l238 700h61l238 -700h-73zM153 187h271l-136 422z" />
    <glyph glyph-name="abreve" unicode="&#x103;" horiz-adv-x="590" 
d="M278 509q-70 0 -116 38.5t-51 106.5h56q4 -46 34.5 -71t76.5 -25t76.5 25t34.5 71h55q-5 -68 -50.5 -106.5t-115.5 -38.5zM268 -12q-105 0 -166.5 67.5t-61.5 171.5t62.5 172t166.5 68q62 0 109 -30t69 -81v99h63v-455h-63v98q-22 -49 -70.5 -79.5t-108.5 -30.5zM275 46
q80 0 127.5 52.5t47.5 128.5q0 77 -47 129.5t-128 52.5q-77 0 -124 -51.5t-47 -130.5t47 -130t124 -51z" />
    <glyph glyph-name="Aogonek" unicode="&#x104;" horiz-adv-x="577" 
d="M527 -162q27 0 62 14l-1 -49q-39 -15 -78 -15q-51 0 -79.5 26.5t-28.5 67.5q0 72 91 118h-9l-41 126h-310l-40 -126h-73l238 700h61l238 -700q-48 -14 -71.5 -41t-23.5 -58q0 -28 17.5 -45.5t47.5 -17.5zM153 187h271l-136 422z" />
    <glyph glyph-name="aogonek" unicode="&#x105;" horiz-adv-x="590" 
d="M481 -162q27 0 62 14l-1 -49q-39 -15 -78 -15q-51 0 -79.5 26.5t-28.5 67.5q0 72 91 118v98q-22 -49 -70.5 -79.5t-108.5 -30.5q-105 0 -166.5 67.5t-61.5 171.5t62.5 172t166.5 68q62 0 109 -30t69 -81v99h63v-455h1q-48 -14 -71.5 -41t-23.5 -58q0 -28 17.5 -45.5
t47.5 -17.5zM275 46q80 0 127.5 52.5t47.5 128.5q0 77 -47 129.5t-128 52.5q-77 0 -124 -51.5t-47 -130.5t47 -130t124 -51z" />
    <glyph glyph-name="Cacute" unicode="&#x106;" horiz-adv-x="774" 
d="M300 730l-24 46l228 115l24 -45zM401 -15q-165 0 -263 104t-98 261t98 261t263 104q135 0 221 -65t109 -170h-73q-23 80 -88.5 127t-168.5 47q-134 0 -212.5 -86t-78.5 -218t78.5 -218t212.5 -86q103 0 168.5 47t88.5 127h73q-23 -105 -109 -170t-221 -65z" />
    <glyph glyph-name="cacute" unicode="&#x107;" horiz-adv-x="516" 
d="M231 511l-37 38l163 143l37 -39zM266 -12q-103 0 -164.5 66t-61.5 173t61.5 173t164.5 66q89 0 145 -44.5t65 -120.5h-65q-9 52 -46.5 79.5t-98.5 27.5q-75 0 -118.5 -49t-43.5 -132t43.5 -132t118.5 -49q60 0 98 27.5t47 77.5h65q-9 -74 -65 -118.5t-145 -44.5z" />
    <glyph glyph-name="Ccircumflex" unicode="&#x108;" horiz-adv-x="774" 
d="M399 883l129 -113l-34 -32l-95 85l-95 -85l-34 32zM401 -15q-165 0 -263 104t-98 261t98 261t263 104q135 0 221 -65t109 -170h-73q-23 80 -88.5 127t-168.5 47q-134 0 -212.5 -86t-78.5 -218t78.5 -218t212.5 -86q103 0 168.5 47t88.5 127h73q-23 -105 -109 -170
t-221 -65z" />
    <glyph glyph-name="ccircumflex" unicode="&#x109;" horiz-adv-x="516" 
d="M265 693l154 -147l-39 -38l-115 113l-114 -113l-40 38zM266 -12q-103 0 -164.5 66t-61.5 173t61.5 173t164.5 66q89 0 145 -44.5t65 -120.5h-65q-9 52 -46.5 79.5t-98.5 27.5q-75 0 -118.5 -49t-43.5 -132t43.5 -132t118.5 -49q60 0 98 27.5t47 77.5h65
q-9 -74 -65 -118.5t-145 -44.5z" />
    <glyph glyph-name="Cdotaccent" unicode="&#x10a;" horiz-adv-x="774" 
d="M400 755q-25 0 -41 16.5t-16 40.5t16.5 41t40.5 17q25 0 41.5 -17t16.5 -41t-16.5 -40.5t-41.5 -16.5zM401 -15q-165 0 -263 104t-98 261t98 261t263 104q135 0 221 -65t109 -170h-73q-23 80 -88.5 127t-168.5 47q-134 0 -212.5 -86t-78.5 -218t78.5 -218t212.5 -86
q103 0 168.5 47t88.5 127h73q-23 -105 -109 -170t-221 -65z" />
    <glyph glyph-name="cdotaccent" unicode="&#x10b;" horiz-adv-x="516" 
d="M264 547q-26 0 -42.5 17t-16.5 42q0 26 16.5 43t42.5 17t43 -17t17 -43q0 -25 -17 -42t-43 -17zM266 -12q-103 0 -164.5 66t-61.5 173t61.5 173t164.5 66q89 0 145 -44.5t65 -120.5h-65q-9 52 -46.5 79.5t-98.5 27.5q-75 0 -118.5 -49t-43.5 -132t43.5 -132t118.5 -49
q60 0 98 27.5t47 77.5h65q-9 -74 -65 -118.5t-145 -44.5z" />
    <glyph glyph-name="Ccaron" unicode="&#x10c;" horiz-adv-x="774" 
d="M400 737l-130 113l35 32l95 -85l94 85l35 -32zM401 -15q-165 0 -263 104t-98 261t98 261t263 104q135 0 221 -65t109 -170h-73q-23 80 -88.5 127t-168.5 47q-134 0 -212.5 -86t-78.5 -218t78.5 -218t212.5 -86q103 0 168.5 47t88.5 127h73q-23 -105 -109 -170t-221 -65z
" />
    <glyph glyph-name="ccaron" unicode="&#x10d;" horiz-adv-x="516" 
d="M264 508l-154 147l40 38l114 -113l115 113l39 -38zM266 -12q-103 0 -164.5 66t-61.5 173t61.5 173t164.5 66q89 0 145 -44.5t65 -120.5h-65q-9 52 -46.5 79.5t-98.5 27.5q-75 0 -118.5 -49t-43.5 -132t43.5 -132t118.5 -49q60 0 98 27.5t47 77.5h65q-9 -74 -65 -118.5
t-145 -44.5z" />
    <glyph glyph-name="Dcaron" unicode="&#x10e;" horiz-adv-x="687" 
d="M323 737l-130 113l35 32l95 -85l94 85l35 -32zM85 0v700h209q84 0 153.5 -29.5t113 -78.5t67.5 -111.5t24 -130.5t-24 -130.5t-67.5 -111.5t-113 -78.5t-153.5 -29.5h-209zM152 61h137q139 0 217 85.5t78 203.5t-78 203.5t-217 85.5h-137v-578z" />
    <glyph glyph-name="dcaron" unicode="&#x10f;" horiz-adv-x="707" 
d="M603 504q-12 0 -17 1v33q6 -1 16 -1q45 0 53 41q5 23 -1 44q-13 -16 -38 -16q-21 0 -35 15t-14 37q0 23 15.5 38.5t40.5 15.5q34 0 55.5 -27.5t21.5 -72.5q0 -50 -26.5 -79t-70.5 -29zM447 700h63v-700h-63v98q-22 -49 -70.5 -79.5t-108.5 -30.5q-105 0 -166.5 67.5
t-61.5 171.5t62.5 172t166.5 68q62 0 109 -30t69 -81v344zM275 46q80 0 127.5 52.5t47.5 128.5q0 77 -47 129.5t-128 52.5q-77 0 -124 -51.5t-47 -130.5t47 -130t124 -51z" />
    <glyph glyph-name="Dcroat" unicode="&#x110;" horiz-adv-x="687" 
d="M294 700q84 0 153.5 -29.5t113 -78.5t67.5 -111.5t24 -130.5t-24 -130.5t-67.5 -111.5t-113 -78.5t-153.5 -29.5h-209v324h-80v58h80v318h209zM289 61q139 0 217 85.5t78 203.5t-78 203.5t-217 85.5h-137v-257h144v-58h-144v-263h137z" />
    <glyph glyph-name="dcroat" unicode="&#x111;" horiz-adv-x="585" 
d="M568 588v-46h-58v-542h-63v98q-22 -49 -70.5 -79.5t-108.5 -30.5q-105 0 -166.5 67.5t-61.5 171.5t62.5 172t166.5 68q62 0 109 -30t69 -81v186h-177v46h177v112h63v-112h58zM275 46q80 0 127.5 52.5t47.5 128.5q0 77 -47 129.5t-128 52.5q-77 0 -124 -51.5t-47 -130.5
t47 -130t124 -51z" />
    <glyph glyph-name="Emacron" unicode="&#x112;" horiz-adv-x="547" 
d="M111 772v52h354v-52h-354zM85 0v700h391v-61h-324v-261h324v-61h-324v-256h324v-61h-391z" />
    <glyph glyph-name="emacron" unicode="&#x113;" horiz-adv-x="515" 
d="M419 607v-53h-317v53h317zM475 256q0 -11 -2 -43h-368q0 -77 43 -122.5t117 -45.5q51 0 87.5 22t51.5 61h65q-14 -62 -70 -101t-134 -39q-103 0 -164 65.5t-61 174.5q0 108 61 173.5t160 65.5q95 0 154.5 -59t59.5 -152zM105 264h307q-1 68 -41 109.5t-110 41.5
q-67 0 -109 -41.5t-47 -109.5z" />
    <glyph glyph-name="Ebreve" unicode="&#x114;" horiz-adv-x="547" 
d="M288 736q-65 0 -111 35.5t-51 92.5h55q5 -39 35 -59.5t72 -20.5t72.5 20.5t35.5 59.5h54q-5 -57 -51 -92.5t-111 -35.5zM85 0v700h391v-61h-324v-261h324v-61h-324v-256h324v-61h-391z" />
    <glyph glyph-name="ebreve" unicode="&#x115;" horiz-adv-x="515" 
d="M261 509q-70 0 -116 38.5t-51 106.5h56q4 -46 34.5 -71t76.5 -25t76.5 25t34.5 71h55q-5 -68 -50.5 -106.5t-115.5 -38.5zM475 256q0 -11 -2 -43h-368q0 -77 43 -122.5t117 -45.5q51 0 87.5 22t51.5 61h65q-14 -62 -70 -101t-134 -39q-103 0 -164 65.5t-61 174.5
q0 108 61 173.5t160 65.5q95 0 154.5 -59t59.5 -152zM105 264h307q-1 68 -41 109.5t-110 41.5q-67 0 -109 -41.5t-47 -109.5z" />
    <glyph glyph-name="Edotaccent" unicode="&#x116;" horiz-adv-x="547" 
d="M287 755q-25 0 -41 16.5t-16 40.5t16.5 41t40.5 17q25 0 41.5 -17t16.5 -41t-16.5 -40.5t-41.5 -16.5zM85 0v700h391v-61h-324v-261h324v-61h-324v-256h324v-61h-391z" />
    <glyph glyph-name="edotaccent" unicode="&#x117;" horiz-adv-x="515" 
d="M260 547q-26 0 -42.5 17t-16.5 42q0 26 16.5 43t42.5 17t43 -17t17 -43q0 -25 -17 -42t-43 -17zM475 256q0 -11 -2 -43h-368q0 -77 43 -122.5t117 -45.5q51 0 87.5 22t51.5 61h65q-14 -62 -70 -101t-134 -39q-103 0 -164 65.5t-61 174.5q0 108 61 173.5t160 65.5
q95 0 154.5 -59t59.5 -152zM105 264h307q-1 68 -41 109.5t-110 41.5q-67 0 -109 -41.5t-47 -109.5z" />
    <glyph glyph-name="Eogonek" unicode="&#x118;" horiz-adv-x="547" 
d="M447 -162q27 0 62 14l-1 -49q-39 -15 -78 -15q-51 0 -79.5 26.5t-28.5 67.5q0 72 91 118h-328v700h391v-61h-324v-261h324v-61h-324v-256h324v-61h1q-48 -14 -71.5 -41t-23.5 -58q0 -28 17.5 -45.5t47.5 -17.5z" />
    <glyph glyph-name="eogonek" unicode="&#x119;" horiz-adv-x="515" 
d="M475 256q0 -11 -2 -43h-368q0 -77 43 -122.5t117 -45.5q51 0 87.5 22t51.5 61h65q-10 -48 -46.5 -83t-90.5 -49q-43 -15 -63.5 -40.5t-20.5 -54.5q0 -28 17.5 -45.5t47.5 -17.5q27 0 62 14l-1 -49q-39 -15 -78 -15q-51 0 -79.5 26.5t-28.5 67.5q0 62 70 106
q-100 2 -159 67.5t-59 172.5q0 108 61 173.5t160 65.5q95 0 154.5 -59t59.5 -152zM105 264h307q-1 68 -41 109.5t-110 41.5q-67 0 -109 -41.5t-47 -109.5z" />
    <glyph glyph-name="Ecaron" unicode="&#x11a;" horiz-adv-x="547" 
d="M288 737l-130 113l35 32l95 -85l94 85l35 -32zM85 0v700h391v-61h-324v-261h324v-61h-324v-256h324v-61h-391z" />
    <glyph glyph-name="ecaron" unicode="&#x11b;" horiz-adv-x="515" 
d="M414 655l-154 -147l-154 147l40 38l114 -113l115 113zM475 256q0 -11 -2 -43h-368q0 -77 43 -122.5t117 -45.5q51 0 87.5 22t51.5 61h65q-14 -62 -70 -101t-134 -39q-103 0 -164 65.5t-61 174.5q0 108 61 173.5t160 65.5q95 0 154.5 -59t59.5 -152zM105 264h307
q-1 68 -41 109.5t-110 41.5q-67 0 -109 -41.5t-47 -109.5z" />
    <glyph glyph-name="Gcircumflex" unicode="&#x11c;" horiz-adv-x="824" 
d="M398 823l-95 -85l-34 32l129 113l129 -113l-34 -32zM801 328v-61h-77q-20 -131 -103.5 -206.5t-222.5 -75.5q-165 0 -261.5 103.5t-96.5 259.5q1 157 96.5 262t261.5 105q116 0 198 -57.5t101 -148.5h-73q-20 66 -80 105.5t-146 39.5q-136 0 -212 -86t-76 -220
q0 -130 77.5 -216t210.5 -86q110 0 174 58t82 163h-204v61h351z" />
    <glyph glyph-name="gcircumflex" unicode="&#x11d;" horiz-adv-x="590" 
d="M279 693l154 -147l-39 -38l-115 113l-114 -113l-40 38zM446 455h64v-452q0 -125 -77 -185q-55 -45 -157 -45q-104 0 -163 46q-60 46 -62 117h66q4 -47 45.5 -77.5t113.5 -30.5q170 0 170 171v99q-22 -51 -70.5 -80.5t-107.5 -29.5q-101 0 -164.5 68t-63.5 171t64.5 171.5
t164.5 68.5q61 0 108 -29.5t69 -81.5v99zM275 46q77 0 126 52t49 129q0 78 -48.5 130t-126.5 52q-75 0 -123 -51.5t-48 -130.5q0 -78 48 -129.5t123 -51.5z" />
    <glyph glyph-name="Gbreve" unicode="&#x11e;" horiz-adv-x="824" 
d="M400 736q-65 0 -111 35.5t-51 92.5h55q5 -39 35 -59.5t72 -20.5t72.5 20.5t35.5 59.5h54q-5 -57 -51 -92.5t-111 -35.5zM801 328v-61h-77q-20 -131 -103.5 -206.5t-222.5 -75.5q-165 0 -261.5 103.5t-96.5 259.5q1 157 96.5 262t261.5 105q116 0 198 -57.5t101 -148.5
h-73q-20 66 -80 105.5t-146 39.5q-136 0 -212 -86t-76 -220q0 -130 77.5 -216t210.5 -86q110 0 174 58t82 163h-204v61h351z" />
    <glyph glyph-name="gbreve" unicode="&#x11f;" horiz-adv-x="590" 
d="M279 509q-70 0 -116 38.5t-51 106.5h56q4 -46 34.5 -71t76.5 -25t76.5 25t34.5 71h55q-5 -68 -50.5 -106.5t-115.5 -38.5zM446 455h64v-452q0 -125 -77 -185q-55 -45 -157 -45q-104 0 -163 46q-60 46 -62 117h66q4 -47 45.5 -77.5t113.5 -30.5q170 0 170 171v99
q-22 -51 -70.5 -80.5t-107.5 -29.5q-101 0 -164.5 68t-63.5 171t64.5 171.5t164.5 68.5q61 0 108 -29.5t69 -81.5v99zM275 46q77 0 126 52t49 129q0 78 -48.5 130t-126.5 52q-75 0 -123 -51.5t-48 -130.5q0 -78 48 -129.5t123 -51.5z" />
    <glyph glyph-name="Gdotaccent" unicode="&#x120;" horiz-adv-x="824" 
d="M399 755q-25 0 -41 16.5t-16 40.5t16.5 41t40.5 17q25 0 41.5 -17t16.5 -41t-16.5 -40.5t-41.5 -16.5zM801 328v-61h-77q-20 -131 -103.5 -206.5t-222.5 -75.5q-165 0 -261.5 103.5t-96.5 259.5q1 157 96.5 262t261.5 105q116 0 198 -57.5t101 -148.5h-73
q-20 66 -80 105.5t-146 39.5q-136 0 -212 -86t-76 -220q0 -130 77.5 -216t210.5 -86q110 0 174 58t82 163h-204v61h351z" />
    <glyph glyph-name="gdotaccent" unicode="&#x121;" horiz-adv-x="590" 
d="M279 547q-26 0 -42.5 17t-16.5 42q0 26 16.5 43t42.5 17t43 -17t17 -43q0 -25 -17 -42t-43 -17zM446 455h64v-452q0 -125 -77 -185q-55 -45 -157 -45q-104 0 -163 46q-60 46 -62 117h66q4 -47 45.5 -77.5t113.5 -30.5q170 0 170 171v99q-22 -51 -70.5 -80.5t-107.5 -29.5
q-101 0 -164.5 68t-63.5 171t64.5 171.5t164.5 68.5q61 0 108 -29.5t69 -81.5v99zM275 46q77 0 126 52t49 129q0 78 -48.5 130t-126.5 52q-75 0 -123 -51.5t-48 -130.5q0 -78 48 -129.5t123 -51.5z" />
    <glyph glyph-name="uni0122" unicode="&#x122;" horiz-adv-x="824" 
d="M801 328v-61h-77q-20 -131 -103.5 -206.5t-222.5 -75.5q-165 0 -261.5 103.5t-96.5 259.5q1 157 96.5 262t261.5 105q116 0 198 -57.5t101 -148.5h-73q-20 66 -80 105.5t-146 39.5q-136 0 -212 -86t-76 -220q0 -130 77.5 -216t210.5 -86q110 0 174 58t82 163h-204v61h351
zM397 -30q28 0 45 -20t17 -53q0 -100 -100 -100v26q51 0 60 40q7 14 3 29q-6 -13 -25 -13q-21 0 -34.5 12.5t-13.5 32.5q0 19 14 32.5t34 13.5z" />
    <glyph glyph-name="uni0123" unicode="&#x123;" horiz-adv-x="590" 
d="M314 691v-27q-52 0 -60 -34q-8 -17 -6 -32q8 15 28 15q19 0 32 -13.5t13 -32.5q0 -20 -14 -34t-35 -14q-27 0 -44 22.5t-17 56.5q0 44 27 68.5t76 24.5zM446 455h64v-452q0 -125 -77 -185q-55 -45 -157 -45q-104 0 -163 46q-60 46 -62 117h66q4 -47 45.5 -77.5
t113.5 -30.5q170 0 170 171v99q-22 -51 -70.5 -80.5t-107.5 -29.5q-101 0 -164.5 68t-63.5 171t64.5 171.5t164.5 68.5q61 0 108 -29.5t69 -81.5v99zM275 46q77 0 126 52t49 129q0 78 -48.5 130t-126.5 52q-75 0 -123 -51.5t-48 -130.5q0 -78 48 -129.5t123 -51.5z" />
    <glyph glyph-name="Hcircumflex" unicode="&#x124;" horiz-adv-x="666" 
d="M332 883l129 -113l-34 -32l-95 85l-95 -85l-34 32zM85 0v700h67v-322h362v322h67v-700h-67v317h-362v-317h-67z" />
    <glyph glyph-name="hcircumflex" unicode="&#x125;" horiz-adv-x="565" 
d="M188 748l-74 66l-73 -66l-32 35l105 91l106 -91zM317 467q86 0 129.5 -49.5t43.5 -143.5v-274h-64v249q0 162 -130 162q-73 0 -111 -48.5t-38 -130.5v-232h-64v700h64v-349q16 53 60 84.5t110 31.5z" />
    <glyph glyph-name="Hbar" unicode="&#x126;" horiz-adv-x="666" 
d="M616 557v-46h-35v-511h-67v317h-362v-317h-67v511h-35v46h35v143h67v-143h362v143h67v-143h35zM514 378v133h-362v-133h362z" />
    <glyph glyph-name="hbar" unicode="&#x127;" horiz-adv-x="565" 
d="M317 467q86 0 129.5 -49.5t43.5 -143.5v-274h-64v249q0 162 -130 162q-73 0 -111 -48.5t-38 -130.5v-232h-64v542h-60v46h60v112h64v-112h174v-46h-174v-191q16 53 60 84.5t110 31.5z" />
    <glyph glyph-name="Itilde" unicode="&#x128;" horiz-adv-x="237" 
d="M158 764q-21 0 -43 19.5t-33 19.5q-22 0 -38 -33l-21 28q19 51 60 51q21 0 43 -19.5t34 -19.5q21 0 35 30l21 -27q-18 -49 -58 -49zM85 0v700h67v-700h-67z" />
    <glyph glyph-name="itilde" unicode="&#x129;" horiz-adv-x="224" 
d="M148 532q-21 0 -42.5 23t-34.5 23q-12 0 -20 -6.5t-18 -28.5l-20 32q21 59 61 59q22 0 46 -23.5t36 -23.5q21 0 33 30l20 -31q-15 -54 -61 -54zM80 0v455h64v-455h-64z" />
    <glyph glyph-name="Imacron" unicode="&#x12a;" horiz-adv-x="237" 
d="M32 772v47h173v-47h-173zM85 0v700h67v-700h-67z" />
    <glyph glyph-name="imacron" unicode="&#x12b;" horiz-adv-x="224" 
d="M18 554v53h188v-53h-188zM80 0v455h64v-455h-64z" />
    <glyph glyph-name="Ibreve" unicode="&#x12c;" horiz-adv-x="237" 
d="M118 741q-45 0 -75.5 28t-31.5 90h51q1 -34 17 -52t39 -18t39 18t17 52h52q-1 -62 -32 -90t-76 -28zM85 0v700h67v-700h-67z" />
    <glyph glyph-name="ibreve" unicode="&#x12d;" horiz-adv-x="224" 
d="M112 518q-46 0 -74 29t-29 92h47q3 -77 56 -77q51 0 56 77h46q-1 -63 -29 -92t-73 -29zM80 0v455h64v-455h-64z" />
    <glyph glyph-name="Iogonek" unicode="&#x12e;" horiz-adv-x="237" 
d="M123 -162q27 0 62 14l-1 -49q-39 -15 -78 -15q-51 0 -79.5 26.5t-28.5 67.5q0 72 91 118h-4v700h67v-700h1q-48 -14 -71.5 -41t-23.5 -58q0 -28 17.5 -45.5t47.5 -17.5z" />
    <glyph glyph-name="iogonek" unicode="&#x12f;" horiz-adv-x="224" 
d="M112 547q-26 0 -42.5 17t-16.5 42q0 26 16.5 43t42.5 17t43 -17t17 -43q0 -25 -17 -42t-43 -17zM114 -162q27 0 62 14l-1 -49q-39 -15 -78 -15q-51 0 -79.5 26.5t-28.5 67.5q0 72 91 118v455h64v-455q-48 -14 -71.5 -41t-23.5 -58q0 -28 17.5 -45.5t47.5 -17.5z" />
    <glyph glyph-name="Idotaccent" unicode="&#x130;" horiz-adv-x="237" 
d="M118 755q-25 0 -41 16.5t-16 40.5t16.5 41t40.5 17q25 0 41.5 -17t16.5 -41t-16.5 -40.5t-41.5 -16.5zM85 0v700h67v-700h-67z" />
    <glyph glyph-name="dotlessi" unicode="&#x131;" horiz-adv-x="224" 
d="M80 0v455h64v-455h-64z" />
    <glyph glyph-name="IJ" unicode="&#x132;" horiz-adv-x="774" 
d="M85 0v700h67v-700h-67zM489 -15q-101 0 -164 61.5t-63 169.5h67q0 -80 44.5 -125t115.5 -45q70 0 111 47t41 128v479h67v-479q0 -110 -59.5 -173t-159.5 -63z" />
    <glyph glyph-name="ij" unicode="&#x133;" horiz-adv-x="451" 
d="M112 547q-26 0 -42.5 17t-16.5 42q0 26 16.5 43t42.5 17t43 -17t17 -43q0 -25 -17 -42t-43 -17zM339 547q-26 0 -42.5 17t-16.5 42q0 26 16.5 43t42.5 17t43 -17t17 -43q0 -25 -17 -42t-43 -17zM80 0v455h64v-455h-64zM258 -221q-40 0 -63 11v60q24 -10 52 -10
q60 0 60 77v538h64v-554q0 -58 -29.5 -90t-83.5 -32z" />
    <glyph glyph-name="Jcircumflex" unicode="&#x134;" horiz-adv-x="537" 
d="M511 748l-74 66l-73 -66l-32 35l105 91l106 -91zM252 -15q-101 0 -164 61.5t-63 169.5h67q0 -80 44.5 -125t115.5 -45q70 0 111 47t41 128v479h67v-479q0 -110 -59.5 -173t-159.5 -63z" />
    <glyph glyph-name="jcircumflex" unicode="&#x135;" horiz-adv-x="227" 
d="M116 693l154 -147l-39 -38l-115 113l-114 -113l-40 38zM34 -221q-40 0 -63 11v60q24 -10 52 -10q60 0 60 77v538h64v-554q0 -58 -29.5 -90t-83.5 -32z" />
    <glyph glyph-name="uni0136" unicode="&#x136;" horiz-adv-x="584" 
d="M567 700l-349 -348l349 -352h-89l-326 336v-336h-67v700h67v-336l327 336h88zM284 -30q28 0 45 -20t17 -53q0 -100 -100 -100v26q51 0 60 40q7 14 3 29q-7 -13 -25 -13q-21 0 -34.5 12.5t-13.5 32.5q0 19 14 32.5t34 13.5z" />
    <glyph glyph-name="uni0137" unicode="&#x137;" horiz-adv-x="492" 
d="M462 455l-246 -222l246 -233h-87l-231 220v-220h-64v700h64v-461l234 216h84zM253 -30q28 0 45 -20t17 -53q0 -100 -100 -100v26q51 0 60 40q7 14 3 29q-6 -13 -25 -13q-21 0 -34.5 12.5t-13.5 32.5q0 19 14 32.5t34 13.5z" />
    <glyph glyph-name="kgreenlandic" unicode="&#x138;" horiz-adv-x="492" 
d="M462 455l-246 -222l246 -233h-87l-231 220v-220h-64v455h64v-216l234 216h84z" />
    <glyph glyph-name="Lacute" unicode="&#x139;" horiz-adv-x="510" 
d="M83 744l-29 44l150 92l30 -44zM85 0v700h67v-636h315v-64h-382z" />
    <glyph glyph-name="lacute" unicode="&#x13a;" horiz-adv-x="224" 
d="M51 744l-29 44l150 92l30 -44zM80 0v700h64v-700h-64z" />
    <glyph glyph-name="uni013B" unicode="&#x13b;" horiz-adv-x="510" 
d="M85 0v700h67v-636h315v-64h-382zM246 -203v26q51 0 60 40q7 14 3 29q-7 -13 -25 -13q-21 0 -34.5 12.5t-13.5 32.5q0 19 14 32.5t34 13.5q28 0 45 -20t17 -53q0 -100 -100 -100z" />
    <glyph glyph-name="uni013C" unicode="&#x13c;" horiz-adv-x="224" 
d="M80 0v700h64v-700h-64zM71 -203v26q51 0 60 40q7 14 3 29q-6 -13 -25 -13q-21 0 -34.5 12.5t-13.5 32.5q0 19 14 32.5t34 13.5q28 0 45 -20t17 -53q0 -100 -100 -100z" />
    <glyph glyph-name="Lcaron" unicode="&#x13d;" horiz-adv-x="510" 
d="M262 504q-12 0 -17 1v33q6 -1 16 -1q45 0 53 41q5 21 -2 44q-11 -16 -37 -16q-21 0 -35 15t-14 37q0 23 15.5 38.5t40.5 15.5q33 0 54.5 -27.5t21.5 -72.5q0 -51 -26 -79.5t-70 -28.5zM85 0v700h67v-636h315v-64h-382z" />
    <glyph glyph-name="lcaron" unicode="&#x13e;" horiz-adv-x="354" 
d="M250 504q-12 0 -17 1v33q6 -1 16 -1q45 0 53 41q5 23 -1 44q-13 -16 -38 -16q-21 0 -35 15t-14 37q0 23 15.5 38.5t40.5 15.5q34 0 55.5 -27.5t21.5 -72.5q0 -50 -26.5 -79t-70.5 -29zM80 0v700h64v-700h-64z" />
    <glyph glyph-name="Ldot" unicode="&#x13f;" horiz-adv-x="510" 
d="M85 0v700h67v-636h315v-64h-382zM333 324q-25 0 -43 18t-18 43q0 26 18 44t43 18t43.5 -18.5t18.5 -43.5t-18.5 -43t-43.5 -18z" />
    <glyph glyph-name="ldot" unicode="&#x140;" horiz-adv-x="338" 
d="M80 0v700h64v-700h-64zM268 289q-25 0 -43 18t-18 43q0 26 18 44t43 18q26 0 44 -18t18 -44q0 -25 -18 -43t-44 -18z" />
    <glyph glyph-name="Lslash" unicode="&#x141;" horiz-adv-x="496" 
d="M152 64h315v-64h-382v282l-65 -31v57l65 31v361h67v-329l159 75v-56l-159 -76v-250z" />
    <glyph glyph-name="lslash" unicode="&#x142;" horiz-adv-x="224" 
d="M218 448v-52l-77 -42v-354h-64v319l-70 -38v53l70 38v328h64v-294z" />
    <glyph glyph-name="Nacute" unicode="&#x143;" horiz-adv-x="661" 
d="M230 730l-24 46l228 115l24 -45zM85 0v700h72l354 -589v589h64v-700h-72l-353 589v-589h-65z" />
    <glyph glyph-name="nacute" unicode="&#x144;" horiz-adv-x="563" 
d="M237 510l-37 39l162 143l38 -39zM80 0v455h64v-104q17 53 60.5 84.5t110.5 31.5q86 0 129.5 -49.5t43.5 -143.5v-274h-64v249q0 162 -130 162q-73 0 -111.5 -48.5t-38.5 -130.5v-232h-64z" />
    <glyph glyph-name="uni0145" unicode="&#x145;" horiz-adv-x="661" 
d="M85 0v700h72l354 -589v589h64v-700h-72l-353 589v-589h-65zM290 -203v26q51 0 60 40q7 14 3 29q-7 -13 -25 -13q-21 0 -34.5 12.5t-13.5 32.5q0 19 14 32.5t34 13.5q28 0 45 -20t17 -53q0 -100 -100 -100z" />
    <glyph glyph-name="uni0146" unicode="&#x146;" horiz-adv-x="563" 
d="M80 0v455h64v-104q17 53 60.5 84.5t110.5 31.5q86 0 129.5 -49.5t43.5 -143.5v-274h-64v249q0 162 -130 162q-73 0 -111.5 -48.5t-38.5 -130.5v-232h-64zM239 -203v26q51 0 60 40q7 14 3 29q-6 -13 -25 -13q-21 0 -34.5 12.5t-13.5 32.5q0 19 14 32.5t34 13.5
q28 0 45 -20t17 -53q0 -100 -100 -100z" />
    <glyph glyph-name="Ncaron" unicode="&#x147;" horiz-adv-x="661" 
d="M331 737l-130 113l35 32l95 -85l94 85l35 -32zM85 0v700h72l354 -589v589h64v-700h-72l-353 589v-589h-65z" />
    <glyph glyph-name="ncaron" unicode="&#x148;" horiz-adv-x="563" 
d="M280 507l-154 147l40 38l114 -113l115 113l39 -38zM80 0v455h64v-104q17 53 60.5 84.5t110.5 31.5q86 0 129.5 -49.5t43.5 -143.5v-274h-64v249q0 162 -130 162q-73 0 -111.5 -48.5t-38.5 -130.5v-232h-64z" />
    <glyph glyph-name="napostrophe" unicode="&#x149;" horiz-adv-x="580" 
d="M53 504q-12 0 -17 1v33q6 -1 16 -1q44 0 54 41q4 24 -2 44q-13 -16 -38 -16q-21 0 -34.5 14.5t-13.5 37.5t15 38.5t40 15.5q34 0 55.5 -27.5t21.5 -72.5q0 -50 -26.5 -79t-70.5 -29zM98 0v455h64v-104q16 53 60 84.5t110 31.5q86 0 129.5 -49.5t43.5 -143.5v-274h-64v249
q0 162 -130 162q-73 0 -111 -48.5t-38 -130.5v-232h-64z" />
    <glyph glyph-name="Eng" unicode="&#x14a;" horiz-adv-x="661" 
d="M449 -221q-42 0 -65 11v63q21 -10 56 -10q68 0 68 87v70l-358 589v-589h-65v700h72l354 -587v587h64v-789q0 -63 -33 -97.5t-93 -34.5z" />
    <glyph glyph-name="eng" unicode="&#x14b;" horiz-adv-x="563" 
d="M315 467q86 0 129.5 -49.5t43.5 -143.5v-373q0 -58 -30 -90t-83 -32q-40 0 -63 11v60q24 -10 52 -10q29 0 44.5 20t15.5 57v332q0 162 -130 162q-73 0 -111.5 -48.5t-38.5 -130.5v-232h-64v455h64v-104q17 53 60.5 84.5t110.5 31.5z" />
    <glyph glyph-name="Omacron" unicode="&#x14c;" horiz-adv-x="800" 
d="M223 772v52h354v-52h-354zM400 -15q-163 0 -261.5 106.5t-98.5 258.5t98.5 258.5t261.5 106.5t261.5 -106.5t98.5 -258.5t-98.5 -258.5t-261.5 -106.5zM400 46q132 0 211 88.5t79 215.5t-79 215.5t-211 88.5t-211 -88.5t-79 -215.5t79 -215.5t211 -88.5z" />
    <glyph glyph-name="omacron" unicode="&#x14d;" horiz-adv-x="549" 
d="M116 553v53h317v-53h-317zM274 -12q-106 0 -170 69t-64 171t64.5 170.5t169.5 68.5q106 0 170.5 -68.5t64.5 -170.5t-64.5 -171t-170.5 -69zM274 47q78 0 124.5 51.5t46.5 129.5t-46.5 129.5t-124.5 51.5t-124 -51.5t-46 -130.5q0 -77 46 -128.5t124 -51.5z" />
    <glyph glyph-name="Obreve" unicode="&#x14e;" horiz-adv-x="800" 
d="M400 736q-65 0 -111 35.5t-51 92.5h55q5 -39 35 -59.5t72 -20.5t72.5 20.5t35.5 59.5h54q-5 -57 -51 -92.5t-111 -35.5zM400 -15q-163 0 -261.5 106.5t-98.5 258.5t98.5 258.5t261.5 106.5t261.5 -106.5t98.5 -258.5t-98.5 -258.5t-261.5 -106.5zM400 46q132 0 211 88.5
t79 215.5t-79 215.5t-211 88.5t-211 -88.5t-79 -215.5t79 -215.5t211 -88.5z" />
    <glyph glyph-name="obreve" unicode="&#x14f;" horiz-adv-x="549" 
d="M275 508q-70 0 -116 38.5t-51 106.5h56q4 -46 34.5 -71t76.5 -25t76.5 25t34.5 71h55q-5 -68 -50.5 -106.5t-115.5 -38.5zM274 -12q-106 0 -170 69t-64 171t64.5 170.5t169.5 68.5q106 0 170.5 -68.5t64.5 -170.5t-64.5 -171t-170.5 -69zM274 47q78 0 124.5 51.5
t46.5 129.5t-46.5 129.5t-124.5 51.5t-124 -51.5t-46 -130.5q0 -77 46 -128.5t124 -51.5z" />
    <glyph glyph-name="Ohungarumlaut" unicode="&#x150;" horiz-adv-x="800" 
d="M306 736l-38 17l129 131l58 -23zM490 735l-38 18l129 131l57 -24zM400 -15q-163 0 -261.5 106.5t-98.5 258.5t98.5 258.5t261.5 106.5t261.5 -106.5t98.5 -258.5t-98.5 -258.5t-261.5 -106.5zM400 46q132 0 211 88.5t79 215.5t-79 215.5t-211 88.5t-211 -88.5t-79 -215.5
t79 -215.5t211 -88.5z" />
    <glyph glyph-name="ohungarumlaut" unicode="&#x151;" horiz-adv-x="549" 
d="M172 502l-34 18l125 166l56 -28zM357 501l-34 19l125 166l56 -28zM274 -12q-106 0 -170 69t-64 171t64.5 170.5t169.5 68.5q106 0 170.5 -68.5t64.5 -170.5t-64.5 -171t-170.5 -69zM274 47q78 0 124.5 51.5t46.5 129.5t-46.5 129.5t-124.5 51.5t-124 -51.5t-46 -130.5
q0 -77 46 -128.5t124 -51.5z" />
    <glyph glyph-name="OE" unicode="&#x152;" horiz-adv-x="864" 
d="M794 639h-289v-261h289v-61h-289v-256h289v-61h-424q-149 0 -239.5 102.5t-90.5 247.5t90.5 247.5t239.5 102.5h424v-61zM370 61h67v578h-67q-119 0 -189.5 -84t-70.5 -205t70.5 -205t189.5 -84z" />
    <glyph glyph-name="oe" unicode="&#x153;" horiz-adv-x="920" 
d="M880 256q0 -11 -2 -43h-369q0 -77 43.5 -122.5t117.5 -45.5q51 0 87.5 22t51.5 61h65q-14 -62 -70 -101t-134 -39q-136 0 -195 109q-30 -51 -82 -80t-119 -29q-106 0 -170 69t-64 171t64.5 170.5t169.5 68.5q67 0 119 -29t82 -80q57 109 191 109q95 0 154.5 -59
t59.5 -152zM509 264h307q0 68 -40.5 109.5t-109.5 41.5q-68 0 -110 -41.5t-47 -109.5zM274 47q78 0 124.5 51.5t46.5 129.5t-46.5 129.5t-124.5 51.5t-124 -51.5t-46 -130.5q0 -77 46 -128.5t124 -51.5z" />
    <glyph glyph-name="Racute" unicode="&#x154;" horiz-adv-x="604" 
d="M428 846l-228 -116l-24 46l228 115zM559 462q0 -83 -43 -144t-114 -84l148 -234h-77l-140 223h-4h-177v-223h-67v700h244q100 0 165 -67t65 -171zM152 639v-355h173q73 0 120 50.5t47 127.5t-47 127t-120 50h-173z" />
    <glyph glyph-name="racute" unicode="&#x155;" horiz-adv-x="355" 
d="M146 510l-37 38l163 143l37 -39zM80 0v455h64v-120q15 64 55.5 96.5t91.5 32.5q28 0 41 -4v-59q-21 3 -43 3q-73 0 -109 -61.5t-36 -145.5v-197h-64z" />
    <glyph glyph-name="uni0156" unicode="&#x156;" horiz-adv-x="604" 
d="M559 462q0 -83 -43 -144t-114 -84l148 -234h-77l-140 223h-4h-177v-223h-67v700h244q100 0 165 -67t65 -171zM152 639v-355h173q73 0 120 50.5t47 127.5t-47 127t-120 50h-173zM297 -30q28 0 45 -20t17 -53q0 -100 -100 -100v26q51 0 60 40q7 14 3 29q-6 -13 -25 -13
q-21 0 -34.5 12.5t-13.5 32.5q0 19 14 32.5t34 13.5z" />
    <glyph glyph-name="uni0157" unicode="&#x157;" horiz-adv-x="355" 
d="M80 0v455h64v-120q15 64 55.5 96.5t91.5 32.5q28 0 41 -4v-59q-21 3 -43 3q-73 0 -109 -61.5t-36 -145.5v-197h-64zM75 -203v26q51 0 60 40q7 14 3 29q-6 -13 -25 -13q-21 0 -34.5 12.5t-13.5 32.5q0 19 14 32.5t34 13.5q28 0 45 -20t17 -53q0 -100 -100 -100z" />
    <glyph glyph-name="Rcaron" unicode="&#x158;" horiz-adv-x="604" 
d="M429 850l-129 -113l-130 113l35 32l95 -85l94 85zM559 462q0 -83 -43 -144t-114 -84l148 -234h-77l-140 223h-4h-177v-223h-67v700h244q100 0 165 -67t65 -171zM152 639v-355h173q73 0 120 50.5t47 127.5t-47 127t-120 50h-173z" />
    <glyph glyph-name="rcaron" unicode="&#x159;" horiz-adv-x="355" 
d="M179 507l-154 147l40 38l114 -113l115 113l39 -38zM80 0v455h64v-120q15 64 55.5 96.5t91.5 32.5q28 0 41 -4v-59q-21 3 -43 3q-73 0 -109 -61.5t-36 -145.5v-197h-64z" />
    <glyph glyph-name="Sacute" unicode="&#x15a;" horiz-adv-x="561" 
d="M180 730l-24 46l228 115l24 -45zM290 -15q-116 0 -183 62t-67 170h67q0 -79 49.5 -125.5t133.5 -46.5q76 0 117.5 35t41.5 98q0 100 -121 134l-118 36q-149 41 -149 182q0 83 60.5 134t157.5 51q102 0 162 -56.5t60 -153.5h-67q0 72 -41.5 111.5t-115.5 39.5
q-68 0 -108 -33.5t-40 -88.5q0 -52 31.5 -84.5t98.5 -51.5l114 -34q143 -42 143 -185q0 -89 -61 -141.5t-165 -52.5z" />
    <glyph glyph-name="sacute" unicode="&#x15b;" horiz-adv-x="442" 
d="M184 510l-37 38l163 143l37 -39zM226 -12q-84 0 -135 41.5t-51 103.5h64q0 -39 33.5 -65.5t91.5 -26.5q47 0 75 20.5t28 57.5q0 29 -17 47t-60 29l-95 24q-106 27 -106 122q0 57 46.5 91.5t119.5 34.5q79 0 124.5 -35.5t45.5 -96.5h-63q-1 38 -30.5 59.5t-80.5 21.5
q-43 0 -71 -19t-28 -54q0 -54 77 -73l96 -26q107 -27 107 -122q0 -64 -46 -99t-125 -35z" />
    <glyph glyph-name="Scircumflex" unicode="&#x15c;" horiz-adv-x="561" 
d="M279 883l129 -113l-34 -32l-95 85l-95 -85l-34 32zM290 -15q-116 0 -183 62t-67 170h67q0 -79 49.5 -125.5t133.5 -46.5q76 0 117.5 35t41.5 98q0 100 -121 134l-118 36q-149 41 -149 182q0 83 60.5 134t157.5 51q102 0 162 -56.5t60 -153.5h-67q0 72 -41.5 111.5
t-115.5 39.5q-68 0 -108 -33.5t-40 -88.5q0 -52 31.5 -84.5t98.5 -51.5l114 -34q143 -42 143 -185q0 -89 -61 -141.5t-165 -52.5z" />
    <glyph glyph-name="scircumflex" unicode="&#x15d;" horiz-adv-x="442" 
d="M218 692l154 -147l-39 -38l-115 113l-114 -113l-40 38zM226 -12q-84 0 -135 41.5t-51 103.5h64q0 -39 33.5 -65.5t91.5 -26.5q47 0 75 20.5t28 57.5q0 29 -17 47t-60 29l-95 24q-106 27 -106 122q0 57 46.5 91.5t119.5 34.5q79 0 124.5 -35.5t45.5 -96.5h-63
q-1 38 -30.5 59.5t-80.5 21.5q-43 0 -71 -19t-28 -54q0 -54 77 -73l96 -26q107 -27 107 -122q0 -64 -46 -99t-125 -35z" />
    <glyph glyph-name="Scedilla" unicode="&#x15e;" horiz-adv-x="561" 
d="M516 179q0 -85 -56.5 -137t-154.5 -57v-52q15 20 50 20q32 0 54 -22.5t22 -59.5q0 -38 -23.5 -62t-65.5 -24q-35 0 -57.5 19.5t-24.5 50.5h38q1 -17 13.5 -27t31.5 -10q22 0 35 14t13 39q0 24 -12 38t-35 14q-29 0 -44 -24h-33v87q-106 6 -166.5 67.5t-60.5 163.5h67
q0 -79 49.5 -125.5t133.5 -46.5q76 0 117.5 35t41.5 98q0 100 -121 134l-118 36q-149 41 -149 182q0 83 60.5 134t157.5 51q102 0 162 -56.5t60 -153.5h-67q0 72 -41.5 111.5t-115.5 39.5q-68 0 -108 -33.5t-40 -88.5q0 -52 31.5 -84.5t98.5 -51.5l114 -34q143 -42 143 -185
z" />
    <glyph glyph-name="scedilla" unicode="&#x15f;" horiz-adv-x="442" 
d="M397 122q0 -62 -43.5 -97t-117.5 -37v-55q15 20 50 20q32 0 54 -22.5t22 -59.5q0 -38 -23.5 -62t-65.5 -24q-35 0 -57.5 19.5t-24.5 50.5h38q1 -17 13.5 -27t31.5 -10q22 0 35 14t13 39q0 24 -12 38t-35 14q-29 0 -44 -24h-33v90q-72 7 -115 47.5t-43 96.5h64
q0 -39 33.5 -65.5t91.5 -26.5q47 0 75 20.5t28 57.5q0 29 -17 47t-60 29l-95 24q-106 27 -106 122q0 57 46.5 91.5t119.5 34.5q79 0 124.5 -35.5t45.5 -96.5h-63q-1 38 -30.5 59.5t-80.5 21.5q-43 0 -71 -19t-28 -54q0 -54 77 -73l96 -26q107 -27 107 -122z" />
    <glyph glyph-name="Scaron" unicode="&#x160;" horiz-adv-x="561" 
d="M281 737l-130 113l35 32l95 -85l94 85l35 -32zM290 -15q-116 0 -183 62t-67 170h67q0 -79 49.5 -125.5t133.5 -46.5q76 0 117.5 35t41.5 98q0 100 -121 134l-118 36q-149 41 -149 182q0 83 60.5 134t157.5 51q102 0 162 -56.5t60 -153.5h-67q0 72 -41.5 111.5
t-115.5 39.5q-68 0 -108 -33.5t-40 -88.5q0 -52 31.5 -84.5t98.5 -51.5l114 -34q143 -42 143 -185q0 -89 -61 -141.5t-165 -52.5z" />
    <glyph glyph-name="scaron" unicode="&#x161;" horiz-adv-x="442" 
d="M217 507l-154 147l40 38l114 -113l115 113l39 -38zM226 -12q-84 0 -135 41.5t-51 103.5h64q0 -39 33.5 -65.5t91.5 -26.5q47 0 75 20.5t28 57.5q0 29 -17 47t-60 29l-95 24q-106 27 -106 122q0 57 46.5 91.5t119.5 34.5q79 0 124.5 -35.5t45.5 -96.5h-63
q-1 38 -30.5 59.5t-80.5 21.5q-43 0 -71 -19t-28 -54q0 -54 77 -73l96 -26q107 -27 107 -122q0 -64 -46 -99t-125 -35z" />
    <glyph glyph-name="uni0162" unicode="&#x162;" horiz-adv-x="510" 
d="M288 0h-15v-67q15 20 50 20q32 0 54 -22.5t22 -59.5q0 -38 -23.5 -62t-65.5 -24q-35 0 -57.5 19.5t-24.5 50.5h38q1 -17 13.5 -27t31.5 -10q22 0 35 14t13 39q0 24 -12 38t-35 14q-29 0 -44 -24h-33v101h-14v636h-213v64h495v-64h-215v-636z" />
    <glyph glyph-name="uni0163" unicode="&#x163;" horiz-adv-x="346" 
d="M297 -47q32 0 54 -22.5t22 -59.5q0 -38 -23.5 -62t-65.5 -24q-35 0 -57.5 19.5t-24.5 50.5h38q1 -17 13.5 -27t31.5 -10q22 0 35 14t13 39q0 24 -12 38t-35 14q-29 0 -44 -24h-33v97q-98 14 -98 152v252h-89v55h89v152h63v-152h126v-55h-126v-239q0 -65 20.5 -86.5
t60.5 -21.5q39 0 61 6v-57q-26 -8 -69 -8v-61q15 20 50 20z" />
    <glyph glyph-name="Tcaron" unicode="&#x164;" horiz-adv-x="510" 
d="M255 737l-130 113l35 32l95 -85l94 85l35 -32zM221 0v636h-213v64h495v-64h-215v-636h-67z" />
    <glyph glyph-name="tcaron" unicode="&#x165;" horiz-adv-x="368" 
d="M280 711q32 0 52.5 -26t20.5 -69q0 -48 -25 -75.5t-67 -27.5q-12 0 -17 1v32q6 -1 16 -1q42 0 50 38q5 23 -1 43q-11 -16 -36 -16q-20 0 -33 14t-13 36t14.5 36.5t38.5 14.5zM174 161q0 -65 20.5 -86.5t60.5 -21.5q39 0 61 6v-57q-27 -8 -74 -8q-26 0 -45.5 4.5t-41 19
t-33 47.5t-11.5 83v252h-89v55h89v152h63v-152h126v-55h-126v-239z" />
    <glyph glyph-name="Tbar" unicode="&#x166;" horiz-adv-x="510" 
d="M503 636h-215v-165h149v-51h-149v-420h-67v420h-147v51h147v165h-213v64h495v-64z" />
    <glyph glyph-name="tbar" unicode="&#x167;" horiz-adv-x="348" 
d="M257 53q39 0 61 6v-57q-26 -8 -74 -8q-26 0 -45 4.5t-40.5 19t-33.5 47.5t-12 83v73h-91v46h91v133h-88v55h88v152h64v-152h126v-55h-126v-133h128v-46h-128v-60q0 -65 20.5 -86.5t59.5 -21.5z" />
    <glyph glyph-name="Utilde" unicode="&#x168;" horiz-adv-x="630" 
d="M394 750q-34 -2 -84.5 29.5t-72.5 31.5q-43 0 -76 -49l-29 27q43 73 103 73q30 0 81.5 -30.5t73.5 -30.5q46 0 78 49l30 -28q-40 -70 -104 -72zM315 -15q-115 0 -182.5 63.5t-67.5 179.5v472h67v-469q0 -89 49 -137t134 -48t134 48t49 137v469h67v-472
q0 -116 -67.5 -179.5t-182.5 -63.5z" />
    <glyph glyph-name="utilde" unicode="&#x169;" horiz-adv-x="563" 
d="M357 540q-27 0 -75 29t-70 29q-40 0 -72 -46l-27 34q38 66 97 66q27 0 75 -29t70 -29q40 0 72 46l27 -34q-39 -66 -97 -66zM253 -12q-81 0 -129.5 49.5t-48.5 143.5v274h64v-260q0 -150 131 -150q73 0 110.5 51t37.5 118v241h64v-455h-64v103q-17 -50 -60.5 -82.5
t-104.5 -32.5z" />
    <glyph glyph-name="Umacron" unicode="&#x16a;" horiz-adv-x="630" 
d="M138 772v52h354v-52h-354zM315 -15q-115 0 -182.5 63.5t-67.5 179.5v472h67v-469q0 -89 49 -137t134 -48t134 48t49 137v469h67v-472q0 -116 -67.5 -179.5t-182.5 -63.5z" />
    <glyph glyph-name="umacron" unicode="&#x16b;" horiz-adv-x="563" 
d="M124 553v53h317v-53h-317zM253 -12q-81 0 -129.5 49.5t-48.5 143.5v274h64v-260q0 -150 131 -150q73 0 110.5 51t37.5 118v241h64v-455h-64v103q-17 -50 -60.5 -82.5t-104.5 -32.5z" />
    <glyph glyph-name="Ubreve" unicode="&#x16c;" horiz-adv-x="630" 
d="M315 736q-65 0 -111 35.5t-51 92.5h55q5 -39 35 -59.5t72 -20.5t72.5 20.5t35.5 59.5h54q-5 -57 -51 -92.5t-111 -35.5zM315 -15q-115 0 -182.5 63.5t-67.5 179.5v472h67v-469q0 -89 49 -137t134 -48t134 48t49 137v469h67v-472q0 -116 -67.5 -179.5t-182.5 -63.5z" />
    <glyph glyph-name="ubreve" unicode="&#x16d;" horiz-adv-x="563" 
d="M283 508q-70 0 -116 38.5t-51 106.5h56q4 -46 34.5 -71t76.5 -25t76.5 25t34.5 71h55q-5 -68 -50.5 -106.5t-115.5 -38.5zM253 -12q-81 0 -129.5 49.5t-48.5 143.5v274h64v-260q0 -150 131 -150q73 0 110.5 51t37.5 118v241h64v-455h-64v103q-17 -50 -60.5 -82.5
t-104.5 -32.5z" />
    <glyph glyph-name="Uring" unicode="&#x16e;" horiz-adv-x="630" 
d="M315 665q-50 0 -85 34.5t-35 82.5q0 49 35 83.5t85 34.5t85 -34.5t35 -83.5q0 -48 -35 -82.5t-85 -34.5zM315 706q32 0 54 22t22 54t-22 54t-54 22t-54 -22t-22 -54t22 -54t54 -22zM315 -15q-115 0 -182.5 63.5t-67.5 179.5v472h67v-469q0 -89 49 -137t134 -48t134 48
t49 137v469h67v-472q0 -116 -67.5 -179.5t-182.5 -63.5z" />
    <glyph glyph-name="uring" unicode="&#x16f;" horiz-adv-x="563" 
d="M283 494q-46 0 -77.5 30.5t-31.5 77.5t31.5 77.5t77.5 30.5t77.5 -30.5t31.5 -77.5t-31.5 -77.5t-77.5 -30.5zM283 530q30 0 49.5 20t19.5 52q0 31 -20 51.5t-49 20.5t-49 -20.5t-20 -51.5q0 -32 19.5 -52t49.5 -20zM253 -12q-81 0 -129.5 49.5t-48.5 143.5v274h64v-260
q0 -150 131 -150q73 0 110.5 51t37.5 118v241h64v-455h-64v103q-17 -50 -60.5 -82.5t-104.5 -32.5z" />
    <glyph glyph-name="Uhungarumlaut" unicode="&#x170;" horiz-adv-x="630" 
d="M221 736l-38 17l129 131l58 -23zM405 735l-38 18l129 131l57 -24zM315 -15q-115 0 -182.5 63.5t-67.5 179.5v472h67v-469q0 -89 49 -137t134 -48t134 48t49 137v469h67v-472q0 -116 -67.5 -179.5t-182.5 -63.5z" />
    <glyph glyph-name="uhungarumlaut" unicode="&#x171;" horiz-adv-x="563" 
d="M180 502l-34 18l125 166l56 -28zM365 501l-34 19l125 166l56 -28zM253 -12q-81 0 -129.5 49.5t-48.5 143.5v274h64v-260q0 -150 131 -150q73 0 110.5 51t37.5 118v241h64v-455h-64v103q-17 -50 -60.5 -82.5t-104.5 -32.5z" />
    <glyph glyph-name="Uogonek" unicode="&#x172;" horiz-adv-x="630" 
d="M498 700h67v-472q0 -92 -43.5 -151.5t-120.5 -80.5q-41 -15 -61.5 -41t-20.5 -54t17.5 -45.5t47.5 -17.5q27 0 62 14l-1 -49q-39 -15 -78 -15q-51 0 -79.5 26.5t-28.5 67.5q0 60 65 103h-9q-115 0 -182.5 63.5t-67.5 179.5v472h67v-469q0 -89 49 -137t134 -48t134 48
t49 137v469z" />
    <glyph glyph-name="uogonek" unicode="&#x173;" horiz-adv-x="563" 
d="M453 -162q27 0 62 14l-1 -49q-39 -15 -78 -15q-51 0 -79.5 26.5t-28.5 67.5q0 72 91 118h-1v103q-17 -50 -60.5 -82.5t-104.5 -32.5q-81 0 -129.5 49.5t-48.5 143.5v274h64v-260q0 -150 131 -150q73 0 110.5 51t37.5 118v241h64v-455h1q-48 -14 -71.5 -41t-23.5 -58
q0 -28 17.5 -45.5t47.5 -17.5z" />
    <glyph glyph-name="Wcircumflex" unicode="&#x174;" horiz-adv-x="943" 
d="M470 883l129 -113l-34 -32l-95 85l-95 -85l-34 32zM242 0l-237 700h71l193 -591l176 591h53l175 -591l194 591h71l-237 -700h-52l-178 585l-177 -585h-52z" />
    <glyph glyph-name="wcircumflex" unicode="&#x175;" horiz-adv-x="726" 
d="M363 693l154 -147l-39 -38l-115 113l-114 -113l-40 38zM179 0l-169 455h70l125 -364l123 364h69l123 -364l126 364h70l-169 -455h-56l-129 376l-128 -376h-55z" />
    <glyph glyph-name="Ycircumflex" unicode="&#x176;" horiz-adv-x="542" 
d="M282 823l-95 -85l-34 32l129 113l129 -113l-34 -32zM478 700h74l-357 -700h-74l141 277l-267 423h78l224 -354z" />
    <glyph glyph-name="ycircumflex" unicode="&#x177;" horiz-adv-x="567" 
d="M279 692l154 -147l-39 -38l-115 113l-114 -113l-40 38zM423 455h64v-470q0 -111 -64 -166q-54 -46 -144 -46q-98 0 -153 46q-50 43 -51 117h65q4 -108 138 -108q145 0 145 161v112q-20 -50 -64 -81t-106 -31q-178 0 -178 202v264h64v-252q0 -77 30 -116.5t104 -39.5
q72 0 111 52.5t39 122.5v233z" />
    <glyph glyph-name="Ydieresis" unicode="&#x178;" horiz-adv-x="542" 
d="M166 757q-24 0 -40.5 16.5t-16.5 39.5q0 25 16.5 41.5t40.5 16.5t41 -16.5t17 -41.5q0 -23 -17 -39.5t-41 -16.5zM400 757q-24 0 -40.5 16.5t-16.5 39.5q0 25 16.5 41.5t40.5 16.5t41 -16.5t17 -41.5q0 -23 -17 -39.5t-41 -16.5zM478 700h74l-357 -700h-74l141 277
l-267 423h78l224 -354z" />
    <glyph glyph-name="Zacute" unicode="&#x179;" horiz-adv-x="565" 
d="M187 730l-24 46l228 115l24 -45zM25 0l387 639h-355v61h468l-384 -639h388v-61h-504z" />
    <glyph glyph-name="zacute" unicode="&#x17a;" horiz-adv-x="436" 
d="M183 511l-37 38l163 143l37 -39zM20 0l288 400h-270v55h381l-289 -400h282v-55h-392z" />
    <glyph glyph-name="Zdotaccent" unicode="&#x17b;" horiz-adv-x="565" 
d="M286 755q-25 0 -41 16.5t-16 40.5t16.5 41t40.5 17q25 0 41.5 -17t16.5 -41t-16.5 -40.5t-41.5 -16.5zM25 0l387 639h-355v61h468l-384 -639h388v-61h-504z" />
    <glyph glyph-name="zdotaccent" unicode="&#x17c;" horiz-adv-x="436" 
d="M216 547q-26 0 -42.5 17t-16.5 42q0 26 16.5 43t42.5 17t43 -17t17 -43q0 -25 -17 -42t-43 -17zM20 0l288 400h-270v55h381l-289 -400h282v-55h-392z" />
    <glyph glyph-name="Zcaron" unicode="&#x17d;" horiz-adv-x="565" 
d="M287 737l-130 113l35 32l95 -85l94 85l35 -32zM25 0l387 639h-355v61h468l-384 -639h388v-61h-504z" />
    <glyph glyph-name="zcaron" unicode="&#x17e;" horiz-adv-x="436" 
d="M216 508l-154 147l40 38l114 -113l115 113l39 -38zM20 0l288 400h-270v55h381l-289 -400h282v-55h-392z" />
    <glyph glyph-name="florin" unicode="&#x192;" horiz-adv-x="428" 
d="M374 632q-41 0 -66.5 -22.5t-36.5 -83.5l-15 -84h138l-10 -55h-138l-80 -450q-28 -160 -159 -160q-40 0 -69 12l9 56q21 -9 53 -9q41 0 66.5 21.5t35.5 78.5l80 451h-101l10 55h101l15 85q16 89 58.5 126t106.5 37q40 0 65 -11l-9 -56q-21 9 -54 9z" />
    <glyph glyph-name="AEacute" unicode="&#x1fc;" horiz-adv-x="818" 
d="M697 846l-228 -116l-24 46l228 115zM748 639h-284v-261h284v-61h-284v-256h284v-61h-351v128h-246l-63 -128h-73l353 700h380v-61zM180 187h217v443z" />
    <glyph glyph-name="aeacute" unicode="&#x1fd;" horiz-adv-x="879" 
d="M576 653l-163 -142l-37 38l163 143zM839 255q0 -9 -2 -43h-370q1 -77 45.5 -122.5t118.5 -45.5q50 0 86 23t51 64h65q-14 -65 -69.5 -104.5t-132.5 -39.5q-66 0 -117.5 30.5t-79.5 85.5q-57 -115 -211 -115q-79 0 -128.5 35.5t-49.5 94.5q0 73 53 109q53 35 185 35h125
v38q0 52 -35.5 83t-105.5 31q-64 0 -101 -28.5t-40 -80.5h-64q4 74 60 118t146 44q139 0 182 -90q61 89 177 89q93 0 152.5 -59.5t59.5 -151.5zM468 262h307q0 68 -40.5 110.5t-107.5 42.5q-70 0 -113.5 -41.5t-45.5 -111.5zM408 188v12q0 2 -0.5 6t-0.5 6h-152
q-144 0 -144 -89q0 -41 34 -62t95 -21q71 0 119.5 39.5t48.5 108.5z" />
    <glyph glyph-name="Oslashacute" unicode="&#x1fe;" horiz-adv-x="800" 
d="M530 846l-228 -116l-24 46l228 115zM566 678q92 -44 143 -132.5t51 -195.5q0 -152 -98.5 -258.5t-261.5 -106.5q-63 0 -122 19l-34 -79l-47 21l33 77q-90 46 -140 133.5t-50 193.5q0 152 98.5 258.5t261.5 106.5q64 0 120 -18l32 75l46 -20zM110 350q0 -86 38 -158
t107 -110l240 558q-45 14 -95 14q-132 0 -211 -88.5t-79 -215.5zM400 46q132 0 211 88.5t79 215.5q0 87 -39 159.5t-110 110.5l-239 -559q45 -15 98 -15z" />
    <glyph glyph-name="oslashacute" unicode="&#x1ff;" horiz-adv-x="549" 
d="M403 640l-163 -142l-37 38l163 143zM395 437q54 -31 84 -86t30 -123q0 -102 -64.5 -171t-170.5 -69q-38 0 -69 9l-28 -64l-39 17l27 62q-59 29 -92 86.5t-33 129.5q0 102 64.5 170.5t169.5 68.5q46 0 82 -13l23 54l39 -17zM104 227q0 -52 22.5 -94.5t62.5 -64.5l143 332
q-26 9 -58 9q-78 0 -124 -51.5t-46 -130.5zM274 47q78 0 124.5 51.5t46.5 129.5q0 104 -74 153l-142 -329q23 -5 45 -5z" />
    <glyph glyph-name="uni0218" unicode="&#x218;" horiz-adv-x="561" 
d="M290 -15q-116 0 -183 62t-67 170h67q0 -79 49.5 -125.5t133.5 -46.5q76 0 117.5 35t41.5 98q0 100 -121 134l-118 36q-149 41 -149 182q0 83 60.5 134t157.5 51q102 0 162 -56.5t60 -153.5h-67q0 72 -41.5 111.5t-115.5 39.5q-68 0 -108 -33.5t-40 -88.5
q0 -52 31.5 -84.5t98.5 -51.5l114 -34q143 -42 143 -185q0 -89 -61 -141.5t-165 -52.5zM245 -203v26q51 0 60 40q7 14 3 29q-6 -13 -25 -13q-21 0 -34.5 12.5t-13.5 32.5q0 19 14 32.5t34 13.5q28 0 45 -20t17 -53q0 -100 -100 -100z" />
    <glyph glyph-name="uni0219" unicode="&#x219;" horiz-adv-x="442" 
d="M226 -12q-84 0 -135 41.5t-51 103.5h64q0 -39 33.5 -65.5t91.5 -26.5q47 0 75 20.5t28 57.5q0 29 -17 47t-60 29l-95 24q-106 27 -106 122q0 57 46.5 91.5t119.5 34.5q79 0 124.5 -35.5t45.5 -96.5h-63q-1 38 -30.5 59.5t-80.5 21.5q-43 0 -71 -19t-28 -54q0 -54 77 -73
l96 -26q107 -27 107 -122q0 -64 -46 -99t-125 -35zM177 -203v26q51 0 60 40q7 14 3 29q-6 -13 -25 -13q-21 0 -34.5 12.5t-13.5 32.5q0 19 14 32.5t34 13.5q28 0 45 -20t17 -53q0 -100 -100 -100z" />
    <glyph glyph-name="uni021A" unicode="&#x21a;" horiz-adv-x="510" 
d="M221 0v636h-213v64h495v-64h-215v-636h-67zM214 -203v26q51 0 60 40q7 14 3 29q-7 -13 -25 -13q-21 0 -34.5 12.5t-13.5 32.5q0 19 14 32.5t34 13.5q28 0 45 -20t17 -53q0 -100 -100 -100z" />
    <glyph glyph-name="uni021B" unicode="&#x21b;" horiz-adv-x="346" 
d="M255 53q39 0 61 6v-57q-27 -8 -74 -8q-26 0 -45.5 4.5t-41 19t-33 47.5t-11.5 83v252h-89v55h89v152h63v-152h126v-55h-126v-239q0 -65 20.5 -86.5t60.5 -21.5zM225 -30q28 0 45 -20t17 -53q0 -100 -100 -100v26q51 0 60 40q7 14 3 29q-6 -13 -25 -13q-21 0 -34.5 12.5
t-13.5 32.5q0 19 14 32.5t34 13.5z" />
    <glyph glyph-name="uni0237" unicode="&#x237;" horiz-adv-x="227" 
d="M34 -221q-40 0 -63 11v60q24 -10 52 -10q60 0 60 77v538h64v-554q0 -58 -29.5 -90t-83.5 -32z" />
    <glyph glyph-name="uni02BC" unicode="&#x2bc;" horiz-adv-x="268" 
d="M129 741q32 0 55.5 -28t23.5 -75q0 -54 -29 -87t-78 -33q-20 0 -28 2v34q10 -2 26 -2q45 0 57 43q6 18 4 46q-11 -14 -35 -14q-23 0 -39 15.5t-16 40.5t16.5 41.5t42.5 16.5z" />
    <glyph glyph-name="circumflex" unicode="&#x2c6;" horiz-adv-x="600" 
d="M197 693l154 -147l-39 -38l-115 113l-114 -113l-40 38z" />
    <glyph glyph-name="caron" unicode="&#x2c7;" horiz-adv-x="600" 
d="M197 508l-154 147l40 38l114 -113l115 113l39 -38z" />
    <glyph glyph-name="breve" unicode="&#x2d8;" horiz-adv-x="600" 
d="M237 509q-70 0 -116 38.5t-51 106.5h56q4 -46 34.5 -71t76.5 -25t76.5 25t34.5 71h55q-5 -68 -50.5 -106.5t-115.5 -38.5z" />
    <glyph glyph-name="dotaccent" unicode="&#x2d9;" horiz-adv-x="600" 
d="M300 547q-26 0 -43 17t-17 42q0 26 17 43t43 17t43 -17t17 -43q0 -25 -17 -42t-43 -17z" />
    <glyph glyph-name="ring" unicode="&#x2da;" horiz-adv-x="600" 
d="M161 495q-46 0 -77.5 30.5t-31.5 77.5t31.5 77.5t77.5 30.5t77.5 -30.5t31.5 -77.5t-31.5 -77.5t-77.5 -30.5zM161 531q30 0 49.5 20t19.5 52q0 31 -20 51.5t-49 20.5t-49 -20.5t-20 -51.5q0 -32 19.5 -52t49.5 -20z" />
    <glyph glyph-name="ogonek" unicode="&#x2db;" horiz-adv-x="600" 
d="M138 -212q-51 0 -79.5 26.5t-28.5 67.5q0 72 91 118h64q-48 -14 -71.5 -41t-23.5 -58q0 -28 17.5 -45.5t47.5 -17.5q27 0 62 14l-1 -49q-39 -15 -78 -15z" />
    <glyph glyph-name="tilde" unicode="&#x2dc;" horiz-adv-x="600" 
d="M288 541q-27 0 -75 29t-70 29q-40 0 -72 -46l-27 34q38 66 97 66q27 0 75 -29t70 -29q40 0 72 46l27 -34q-39 -66 -97 -66z" />
    <glyph glyph-name="hungarumlaut" unicode="&#x2dd;" horiz-adv-x="600" 
d="M88 503l-34 18l125 166l56 -28zM273 502l-34 19l125 166l56 -28z" />
    <glyph glyph-name="gravecomb" unicode="&#x300;" horiz-adv-x="0" 
d="M-136 511l-163 142l38 39l163 -143z" />
    <glyph glyph-name="acutecomb" unicode="&#x301;" horiz-adv-x="0" 
d="M-197 511l-37 38l163 143l37 -39z" />
    <glyph glyph-name="uni0302" unicode="&#x302;" horiz-adv-x="0" 
d="M-198 693l154 -147l-39 -38l-115 113l-114 -113l-40 38z" />
    <glyph glyph-name="tildecomb" unicode="&#x303;" horiz-adv-x="0" 
d="M-134 541q-27 0 -75 29t-70 29q-40 0 -72 -46l-27 34q38 66 97 66q27 0 75 -29t70 -29q40 0 72 46l27 -34q-39 -66 -97 -66z" />
    <glyph glyph-name="uni0304" unicode="&#x304;" horiz-adv-x="0" 
d="M-394 554v53h317v-53h-317z" />
    <glyph glyph-name="uni0306" unicode="&#x306;" horiz-adv-x="0" 
d="M-237 509q-70 0 -116 38.5t-51 106.5h56q4 -46 34.5 -71t76.5 -25t76.5 25t34.5 71h55q-5 -68 -50.5 -106.5t-115.5 -38.5z" />
    <glyph glyph-name="uni0307" unicode="&#x307;" horiz-adv-x="0" 
d="M-102 547q-26 0 -42.5 17t-16.5 42q0 26 16.5 43t42.5 17t43 -17t17 -43q0 -25 -17 -42t-43 -17z" />
    <glyph glyph-name="uni0308" unicode="&#x308;" horiz-adv-x="0" 
d="M-324 547q-23 0 -39.5 16.5t-16.5 39.5q0 25 16.5 41.5t39.5 16.5q25 0 41.5 -16.5t16.5 -41.5q0 -23 -16.5 -39.5t-41.5 -16.5zM-127 547q-23 0 -39.5 16.5t-16.5 39.5q0 25 16.5 41.5t39.5 16.5q25 0 41.5 -16.5t16.5 -41.5q0 -23 -16.5 -39.5t-41.5 -16.5z" />
    <glyph glyph-name="uni030A" unicode="&#x30a;" horiz-adv-x="0" 
d="M-160 495q-46 0 -77.5 30.5t-31.5 77.5t31.5 77.5t77.5 30.5t77.5 -30.5t31.5 -77.5t-31.5 -77.5t-77.5 -30.5zM-160 531q30 0 49.5 20t19.5 52q0 31 -20 51.5t-49 20.5t-49 -20.5t-20 -51.5q0 -32 19.5 -52t49.5 -20z" />
    <glyph glyph-name="uni030B" unicode="&#x30b;" horiz-adv-x="0" 
d="M-355 503l-34 18l125 166l56 -28zM-170 502l-34 19l125 166l56 -28z" />
    <glyph glyph-name="uni030C" unicode="&#x30c;" horiz-adv-x="0" 
d="M-198 508l-154 147l40 38l114 -113l115 113l39 -38z" />
    <glyph glyph-name="uni0312" unicode="&#x312;" horiz-adv-x="0" 
d="M-400 691v-27q-52 0 -60 -34q-8 -17 -6 -32q8 15 28 15q19 0 32 -13.5t13 -32.5q0 -20 -14 -34t-35 -14q-27 0 -44 22.5t-17 56.5q0 44 27 68.5t76 24.5z" />
    <glyph glyph-name="uni0326" unicode="&#x326;" horiz-adv-x="0" 
d="M-140 -203v26q51 0 60 40q7 14 3 29q-7 -13 -25 -13q-21 0 -34.5 12.5t-13.5 32.5q0 19 14 32.5t34 13.5q28 0 45 -20t17 -53q0 -100 -100 -100z" />
    <glyph glyph-name="uni0327" unicode="&#x327;" horiz-adv-x="0" 
d="M-126 -215q-35 0 -57.5 19.5t-24.5 50.5h38q1 -17 13.5 -27t31.5 -10q22 0 35 14t13 39q0 24 -12 38t-35 14q-29 0 -44 -24h-33v101h38v-67q15 20 50 20q32 0 54 -22.5t22 -59.5q0 -38 -23.5 -62t-65.5 -24z" />
    <glyph glyph-name="uni0328" unicode="&#x328;" horiz-adv-x="0" 
d="M-128 -212q-51 0 -79.5 26.5t-28.5 67.5q0 72 91 118h64q-48 -14 -71.5 -41t-23.5 -58q0 -28 17.5 -45.5t47.5 -17.5q27 0 62 14l-1 -49q-39 -15 -78 -15z" />
    <glyph glyph-name="uni0394" unicode="&#x394;" horiz-adv-x="573" 
d="M20 0l241 700h51l241 -700h-533zM113 61h347l-174 532z" />
    <glyph glyph-name="uni03A9" unicode="&#x3a9;" horiz-adv-x="707" 
d="M63 0v61h200v38q-100 29 -161.5 112t-61.5 187q0 134 85.5 224.5t228.5 90.5q142 0 227.5 -90.5t85.5 -224.5q0 -104 -61.5 -187t-161.5 -112v-38h200v-61h-255v138q97 18 154 92t57 171q0 108 -65.5 179t-180.5 71t-181 -71t-66 -179q0 -97 57 -171t154 -92v-138h-255z
" />
    <glyph glyph-name="uni03BC" unicode="&#x3bc;" horiz-adv-x="568" 
d="M423 455h64v-455h-64v103q-17 -50 -60.5 -82.5t-104.5 -32.5q-78 0 -114 53v-256h-64v670h64v-260q0 -150 131 -150q73 0 110.5 51t37.5 118v241z" />
    <glyph glyph-name="pi" unicode="&#x3c0;" horiz-adv-x="601" 
d="M135 0v384h-55v58h441v-58h-55v-384h-64v384h-203v-384h-64z" />
    <glyph glyph-name="uni0E3F" unicode="&#xe3f;" horiz-adv-x="579" 
d="M391 345q60 -9 99 -52.5t39 -110.5q0 -84 -57 -133t-154 -49h-8v-98h-50v98h-175v681h175v99h50v-99h2q97 0 153.5 -46.5t56.5 -129.5q0 -67 -35.5 -109t-95.5 -51zM309 622h-157v-249h170q59 0 96 34t37 91q0 58 -39 91t-107 33zM317 60q67 0 106 34t39 94
q0 56 -37.5 91t-93.5 35h-179v-254h165z" />
    <glyph glyph-name="Wgrave" unicode="&#x1e80;" horiz-adv-x="943" 
d="M571 730l-228 116l24 45l228 -115zM242 0l-237 700h71l193 -591l176 591h53l175 -591l194 591h71l-237 -700h-52l-178 585l-177 -585h-52z" />
    <glyph glyph-name="wgrave" unicode="&#x1e81;" horiz-adv-x="726" 
d="M397 511l-163 142l38 39l163 -143zM179 0l-169 455h70l125 -364l123 364h69l123 -364l126 364h70l-169 -455h-56l-129 376l-128 -376h-55z" />
    <glyph glyph-name="Wacute" unicode="&#x1e82;" horiz-adv-x="943" 
d="M372 730l-24 46l228 115l24 -45zM242 0l-237 700h71l193 -591l176 591h53l175 -591l194 591h71l-237 -700h-52l-178 585l-177 -585h-52z" />
    <glyph glyph-name="wacute" unicode="&#x1e83;" horiz-adv-x="726" 
d="M330 511l-37 38l163 143l37 -39zM179 0l-169 455h70l125 -364l123 364h69l123 -364l126 364h70l-169 -455h-56l-129 376l-128 -376h-55z" />
    <glyph glyph-name="Wdieresis" unicode="&#x1e84;" horiz-adv-x="943" 
d="M354 757q-24 0 -40.5 16.5t-16.5 39.5q0 25 16.5 41.5t40.5 16.5t41 -16.5t17 -41.5q0 -23 -17 -39.5t-41 -16.5zM588 757q-24 0 -40.5 16.5t-16.5 39.5q0 25 16.5 41.5t40.5 16.5t41 -16.5t17 -41.5q0 -23 -17 -39.5t-41 -16.5zM242 0l-237 700h71l193 -591l176 591h53
l175 -591l194 591h71l-237 -700h-52l-178 585l-177 -585h-52z" />
    <glyph glyph-name="wdieresis" unicode="&#x1e85;" horiz-adv-x="726" 
d="M263 547q-23 0 -39.5 16.5t-16.5 39.5q0 25 16.5 41.5t39.5 16.5q25 0 41.5 -16.5t16.5 -41.5q0 -23 -16.5 -39.5t-41.5 -16.5zM460 547q-23 0 -39.5 16.5t-16.5 39.5q0 25 16.5 41.5t39.5 16.5q25 0 41.5 -16.5t16.5 -41.5q0 -23 -16.5 -39.5t-41.5 -16.5zM179 0
l-169 455h70l125 -364l123 364h69l123 -364l126 364h70l-169 -455h-56l-129 376l-128 -376h-55z" />
    <glyph glyph-name="Ygrave" unicode="&#x1ef2;" horiz-adv-x="542" 
d="M407 776l-24 -46l-228 116l24 45zM478 700h74l-357 -700h-74l141 277l-267 423h78l224 -354z" />
    <glyph glyph-name="ygrave" unicode="&#x1ef3;" horiz-adv-x="567" 
d="M313 510l-163 142l38 39l163 -143zM423 455h64v-470q0 -111 -64 -166q-54 -46 -144 -46q-98 0 -153 46q-50 43 -51 117h65q4 -108 138 -108q145 0 145 161v112q-20 -50 -64 -81t-106 -31q-178 0 -178 202v264h64v-252q0 -77 30 -116.5t104 -39.5q72 0 111 52.5t39 122.5
v233z" />
    <glyph glyph-name="uni2002" unicode="&#x2002;" horiz-adv-x="500" 
 />
    <glyph glyph-name="uni2003" unicode="&#x2003;" horiz-adv-x="1000" 
 />
    <glyph glyph-name="uni2004" unicode="&#x2004;" horiz-adv-x="333" 
 />
    <glyph glyph-name="uni2005" unicode="&#x2005;" horiz-adv-x="250" 
 />
    <glyph glyph-name="uni2009" unicode="&#x2009;" horiz-adv-x="135" 
 />
    <glyph glyph-name="uni200A" unicode="&#x200a;" horiz-adv-x="75" 
 />
    <glyph glyph-name="endash" unicode="&#x2013;" horiz-adv-x="594" 
d="M55 238v53h484v-53h-484z" />
    <glyph glyph-name="emdash" unicode="&#x2014;" horiz-adv-x="778" 
d="M55 243v53h668v-53h-668z" />
    <glyph glyph-name="quoteleft" unicode="&#x2018;" horiz-adv-x="268" 
d="M149 515q-32 0 -55.5 27.5t-23.5 75.5q0 54 29 87t79 33q16 0 27 -3v-33q-9 2 -26 2q-46 0 -56 -43q-8 -20 -4 -47q11 14 34 14q24 0 39.5 -15t15.5 -40t-16 -41.5t-43 -16.5z" />
    <glyph glyph-name="quoteright" unicode="&#x2019;" horiz-adv-x="268" 
d="M119 718q32 0 55.5 -28t23.5 -75q0 -54 -29 -87t-79 -33q-19 0 -27 2v34q10 -2 26 -2q46 0 56 43q7 18 5 46q-11 -14 -35 -14t-39.5 15.5t-15.5 40.5t16 41.5t43 16.5z" />
    <glyph glyph-name="quotesinglbase" unicode="&#x201a;" horiz-adv-x="268" 
d="M119 107q32 0 55.5 -27.5t23.5 -75.5q0 -54 -29 -87t-79 -33q-15 0 -27 3v33q10 -2 26 -2q46 0 56 43q7 18 5 47q-11 -14 -35 -14t-39.5 15t-15.5 40t16 41.5t43 16.5z" />
    <glyph glyph-name="quotedblleft" unicode="&#x201c;" horiz-adv-x="436" 
d="M149 515q-32 0 -55.5 27.5t-23.5 75.5q0 54 29 87t79 33q16 0 27 -3v-33q-9 2 -26 2q-46 0 -56 -43q-8 -20 -4 -47q11 14 34 14q24 0 39.5 -15t15.5 -40t-16 -41.5t-43 -16.5zM317 515q-32 0 -55.5 27.5t-23.5 75.5q0 54 29 87t79 33q16 0 27 -3v-33q-9 2 -26 2
q-46 0 -56 -43q-7 -18 -5 -47q11 14 35 14t39.5 -15t15.5 -40t-16 -41.5t-43 -16.5z" />
    <glyph glyph-name="quotedblright" unicode="&#x201d;" horiz-adv-x="436" 
d="M119 718q32 0 55.5 -28t23.5 -75q0 -54 -29 -87t-79 -33q-19 0 -27 2v34q10 -2 26 -2q46 0 56 43q7 18 5 46q-11 -14 -35 -14t-39.5 15.5t-15.5 40.5t16 41.5t43 16.5zM287 718q32 0 55.5 -28t23.5 -75q0 -54 -29 -87t-79 -33q-20 0 -27 2v34q9 -2 26 -2q46 0 56 43
q7 18 5 46q-11 -14 -35 -14t-39.5 15.5t-15.5 40.5t16 41.5t43 16.5z" />
    <glyph glyph-name="quotedblbase" unicode="&#x201e;" horiz-adv-x="436" 
d="M119 107q32 0 55.5 -27.5t23.5 -75.5q0 -54 -29 -87t-79 -33q-15 0 -27 3v33q10 -2 26 -2q46 0 56 43q7 18 5 47q-11 -14 -35 -14t-39.5 15t-15.5 40t16 41.5t43 16.5zM287 107q32 0 55.5 -27.5t23.5 -75.5q0 -54 -29 -87t-79 -33q-17 0 -27 3v33q9 -2 26 -2q46 0 56 43
q7 18 5 47q-11 -14 -35 -14t-39.5 15t-15.5 40t16 41.5t43 16.5z" />
    <glyph glyph-name="dagger" unicode="&#x2020;" horiz-adv-x="429" 
d="M182 -182v570h-132v58h132v271h64v-271h133v-58h-133v-570h-64z" />
    <glyph glyph-name="daggerdbl" unicode="&#x2021;" horiz-adv-x="429" 
d="M182 -182v201h-132v56h132v315h-132v56h132v271h64v-271h133v-56h-133v-315h133v-56h-133v-201h-64z" />
    <glyph glyph-name="bullet" unicode="&#x2022;" horiz-adv-x="363" 
d="M181 196q-48 0 -82 34t-34 82q0 49 34 83t82 34q49 0 83 -34t34 -83q0 -48 -34 -82t-83 -34z" />
    <glyph glyph-name="ellipsis" unicode="&#x2026;" horiz-adv-x="751" 
d="M141 -10q-25 0 -43 18t-18 43q0 26 18 44t43 18t43.5 -18.5t18.5 -43.5t-18 -43t-44 -18zM374 -10q-25 0 -42.5 17.5t-17.5 43.5t17.5 44t42.5 18q26 0 44 -18t18 -44t-18 -43.5t-44 -17.5zM609 -10q-25 0 -43 18t-18 43q0 26 18 44t43 18q26 0 44 -18t18 -44t-18 -43.5
t-44 -17.5z" />
    <glyph glyph-name="perthousand" unicode="&#x2030;" horiz-adv-x="1143" 
d="M166 -11l-45 25l472 682l44 -25zM194 349q-79 0 -126.5 49.5t-47.5 120.5t47.5 120.5t126.5 49.5t126 -49.5t47 -120.5t-47 -120.5t-126 -49.5zM194 400q54 0 85 34.5t31 84.5t-31 84.5t-85 34.5t-85 -34.5t-31 -84.5t31 -84.5t85 -34.5zM570 -5q-79 0 -126.5 49.5
t-47.5 120.5t47.5 120.5t126.5 49.5t126 -49.5t47 -120.5t-47 -120.5t-126 -49.5zM949 -5q-79 0 -126.5 49.5t-47.5 120.5t47.5 120.5t126.5 49.5t126 -49.5t47 -120.5t-47 -120.5t-126 -49.5zM570 46q54 0 85 34.5t31 84.5t-31 84.5t-85 34.5t-85 -34.5t-31 -84.5t31 -84.5
t85 -34.5zM949 46q54 0 85 34.5t31 84.5t-31 84.5t-85 34.5t-85 -34.5t-31 -84.5t31 -84.5t85 -34.5z" />
    <glyph glyph-name="guilsinglleft" unicode="&#x2039;" horiz-adv-x="268" 
d="M212 73l-204 188l204 188l38 -38l-163 -150l163 -150z" />
    <glyph glyph-name="guilsinglright" unicode="&#x203a;" horiz-adv-x="268" 
d="M55 73l-37 38l163 150l-163 150l37 38l205 -188z" />
    <glyph glyph-name="fraction" unicode="&#x2044;" horiz-adv-x="146" 
d="M-141 -14l-44 28l472 682l44 -28z" />
    <glyph glyph-name="uni20A9" unicode="&#x20a9;" horiz-adv-x="770" 
d="M752 396h-87l-20 -94h107v-51h-118l-53 -251h-65l-131 576l-132 -576h-64l-53 251h-118v51h107l-20 94h-87v51h76l-49 233h68l111 -579l133 579h55l134 -579l110 579h69l-49 -233h76v-51z" />
    <glyph glyph-name="Euro" unicode="&#x20ac;" horiz-adv-x="588" 
d="M320 49q66 0 104 39t49 105h65q-14 -91 -69 -147t-149 -56q-201 0 -231 256h-66l12 47h50q-1 16 -1 48q0 31 1 46h-60l12 47h52q28 258 231 258q94 0 149 -56t69 -147h-65q-11 66 -49 104.5t-104 38.5q-146 0 -166 -198h223l-12 -47h-215q-1 -15 -1 -46q0 -32 1 -48h225
l-13 -47h-208q11 -94 49.5 -145.5t116.5 -51.5z" />
    <glyph glyph-name="uni20AE" unicode="&#x20ae;" horiz-adv-x="510" 
d="M503 619h-215v-170l131 62v-53l-131 -63v-81l131 62v-54l-131 -62v-260h-67v228l-132 -63v54l132 63v81l-132 -63v54l132 63v202h-213v61h495v-61z" />
    <glyph glyph-name="uni20B4" unicode="&#x20b4;" horiz-adv-x="567" 
d="M357 342l-96 -42h266l-13 -40h-333q-53 -36 -53 -95q0 -56 38 -87t107 -31q77 0 121 36.5t44 98.5h62q0 -88 -60.5 -141.5t-167.5 -53.5q-96 0 -152 46.5t-56 128.5q0 58 28 98h-52l12 40h81q25 18 52 29l123 52h-268l12 39h327q42 35 42 102q0 51 -35.5 81t-97.5 30
q-69 0 -108 -31.5t-39 -89.5h-62q0 83 57 131.5t151 48.5q90 0 143.5 -44.5t53.5 -122.5q0 -62 -28 -105h71l-13 -39h-92q-26 -22 -65 -39z" />
    <glyph glyph-name="uni20B8" unicode="&#x20b8;" horiz-adv-x="510" 
d="M8 619v61h495v-61h-495zM221 0v469h-213v62h495v-62h-215v-469h-67z" />
    <glyph glyph-name="uni20B9" unicode="&#x20b9;" horiz-adv-x="513" 
d="M360 633q77 -60 86 -168h79l-13 -47h-66q-6 -74 -47.5 -128.5t-107.5 -75.5l147 -214h-77l-139 203h-5h-151v61h148q66 0 111.5 43t53.5 111h-314v47h314q-8 68 -53.5 111t-111.5 43h-149v61h460l-13 -47h-152z" />
    <glyph glyph-name="uni20BA" unicode="&#x20ba;" horiz-adv-x="457" 
d="M382 263h65q0 -263 -304 -263h-65v224l-51 -25v53l51 25v84l-51 -25v53l51 25v266h67v-233l173 86v-53l-173 -86v-84l173 86v-53l-173 -86v-196q124 0 180.5 51t56.5 151z" />
    <glyph glyph-name="uni20BD" unicode="&#x20bd;" horiz-adv-x="579" 
d="M331 203h-166v-69h176v-46h-176v-88h-68v88h-100v46h100v69h-100v61h100v416h234q100 0 165.5 -67t65.5 -171t-65 -171.5t-166 -67.5zM165 619v-355h163q72 0 119.5 50.5t47.5 127.5q0 76 -47.5 126.5t-119.5 50.5h-163z" />
    <glyph glyph-name="uni20BF" unicode="&#x20bf;" horiz-adv-x="579" 
d="M529 182q0 -76 -46.5 -123.5t-128.5 -56.5v-100h-50v98h-72v-98h-51v98h-96v681h96v99h51v-99h72v99h50v-102q79 -9 123.5 -54.5t44.5 -118.5q0 -67 -35.5 -109t-95.5 -51q60 -9 99 -52.5t39 -110.5zM309 622h-157v-249h170q59 0 96 34t37 91q0 58 -39 91t-107 33z
M317 60q67 0 106 34t39 94q0 56 -37.5 91t-93.5 35h-179v-254h165z" />
    <glyph glyph-name="uni2113" unicode="&#x2113;" horiz-adv-x="390" 
d="M249 -10q-19 0 -34.5 2t-39 12t-39.5 27.5t-27.5 52t-11.5 82.5v12l-64 -55l-30 49l94 75v260q0 105 31 157.5t105 52.5q64 0 99 -45t35 -126q0 -78 -52.5 -153.5t-160.5 -171.5v-57q0 -41 9.5 -66.5t27.5 -36t31.5 -13t33.5 -2.5q50 0 83 29l9 -50q-39 -35 -99 -35z
M154 294q84 79 120 137t36 117q0 116 -75 116q-81 0 -81 -147v-223z" />
    <glyph glyph-name="uni2116" unicode="&#x2116;" horiz-adv-x="1106" 
d="M85 0v700h72l354 -589v589h64v-700h-72l-353 589v-589h-65zM827 103q-86 0 -139 54.5t-53 133.5q0 80 53 135t139 55q87 0 140.5 -55t53.5 -135q0 -79 -53.5 -133.5t-140.5 -54.5zM827 160q58 0 94 38t36 93q0 56 -36 94.5t-94 38.5q-56 0 -92 -39t-36 -94t36 -93t92 -38
zM635 0v58h386v-58h-386z" />
    <glyph glyph-name="trademark" unicode="&#x2122;" horiz-adv-x="827" 
d="M112 293v361h-104v46h258v-46h-104v-361h-50zM345 293v407h77l121 -323l122 323h77v-407h-49v341l-127 -341h-45l-127 341v-341h-49z" />
    <glyph glyph-name="uni2126" unicode="&#x2126;" horiz-adv-x="707" 
d="M63 0v61h200v38q-100 29 -161.5 112t-61.5 187q0 134 85.5 224.5t228.5 90.5q142 0 227.5 -90.5t85.5 -224.5q0 -104 -61.5 -187t-161.5 -112v-38h200v-61h-255v138q97 18 154 92t57 171q0 108 -65.5 179t-180.5 71t-181 -71t-66 -179q0 -97 57 -171t154 -92v-138h-255z
" />
    <glyph glyph-name="estimated" unicode="&#x212e;" horiz-adv-x="517" 
d="M268 -12q-109 0 -168.5 69.5t-59.5 170.5q0 105 60 172t165 67q89 0 150 -59.5t61 -146.5q0 -16 -1 -28h-343v-175q56 -49 136 -49q67 0 114.5 32.5t63.5 80.5h22q-15 -57 -68.5 -95.5t-131.5 -38.5zM132 255h254v148q-51 43 -121 43q-80 0 -133 -47v-144z" />
    <glyph glyph-name="uni2153" unicode="&#x2153;" horiz-adv-x="759" 
d="M120 -14l-44 28l472 682l44 -28zM125 286v282h-90v43q56 0 76 15t20 54h48v-394h-54zM567 -7q-69 0 -107.5 33t-38.5 92h57q0 -37 24 -58.5t66 -21.5q40 0 63.5 19.5t23.5 52.5q0 34 -23 53t-65 19h-37v44h37q39 0 60.5 17.5t21.5 49.5q0 29 -22 47t-58 18
q-38 0 -61 -19.5t-23 -51.5h-57q0 51 38.5 82.5t103.5 31.5q62 0 99 -28.5t37 -76.5q0 -75 -83 -92q39 -3 64 -30.5t25 -66.5q0 -51 -39.5 -82.5t-105.5 -31.5z" />
    <glyph glyph-name="uni2154" unicode="&#x2154;" horiz-adv-x="871" 
d="M232 -14l-44 28l472 682l44 -28zM39 286q0 69 23.5 108.5t81.5 67.5l67 32q58 26 58 82q0 30 -20.5 48t-54.5 18q-41 0 -64.5 -23.5t-23.5 -65.5h-57q0 61 39.5 97.5t104.5 36.5q62 0 98 -29.5t36 -79.5q0 -79 -80 -117l-66 -32q-38 -18 -54.5 -39.5t-19.5 -56.5h220v-47
h-288zM679 -7q-69 0 -107.5 33t-38.5 92h57q0 -37 24 -58.5t66 -21.5q40 0 63.5 19.5t23.5 52.5q0 34 -23 53t-65 19h-37v44h37q39 0 60.5 17.5t21.5 49.5q0 29 -22 47t-58 18q-38 0 -61 -19.5t-23 -51.5h-57q0 51 38.5 82.5t103.5 31.5q62 0 99 -28.5t37 -76.5
q0 -75 -83 -92q39 -3 64 -30.5t25 -66.5q0 -51 -39.5 -82.5t-105.5 -31.5z" />
    <glyph glyph-name="arrowleft" unicode="&#x2190;" horiz-adv-x="720" 
d="M249 134l-239 216l239 216l37 -40l-168 -149h592v-54h-591l167 -149z" />
    <glyph glyph-name="arrowup" unicode="&#x2191;" horiz-adv-x="482" 
d="M214 0v591l-149 -167l-40 37l216 239l216 -239l-40 -37l-149 168v-592h-54z" />
    <glyph glyph-name="arrowright" unicode="&#x2192;" horiz-adv-x="720" 
d="M471 133l-37 40l168 150h-592v54h591l-167 149l37 39l239 -216z" />
    <glyph glyph-name="arrowdown" unicode="&#x2193;" horiz-adv-x="482" 
d="M241 0l-216 239l40 37l149 -168v592h54v-591l149 167l40 -37z" />
    <glyph glyph-name="uni2196" unicode="&#x2196;" horiz-adv-x="554" 
d="M495 83l-418 418l13 -223l-55 -3l-15 322l321 -16l-2 -54l-224 13l419 -418z" />
    <glyph glyph-name="uni2197" unicode="&#x2197;" horiz-adv-x="554" 
d="M59 83l-39 39l418 418l-223 -13l-3 54l322 16l-16 -322l-54 3l13 224z" />
    <glyph glyph-name="uni2198" unicode="&#x2198;" horiz-adv-x="554" 
d="M534 103l-322 16l3 54l224 -13l-419 418l39 39l418 -418l-13 223l54 3z" />
    <glyph glyph-name="uni2199" unicode="&#x2199;" horiz-adv-x="554" 
d="M20 103l15 322l55 -3l-13 -224l418 419l39 -39l-418 -418l223 13l2 -54z" />
    <glyph glyph-name="partialdiff" unicode="&#x2202;" horiz-adv-x="569" 
d="M273 715q121 0 183.5 -89t62.5 -287q0 -178 -56.5 -266t-181.5 -88q-114 0 -172.5 63.5t-58.5 158.5q0 100 61 165.5t161 65.5q119 0 183 -92q-1 167 -45 238t-136 71q-75 0 -114.5 -43.5t-39.5 -111.5h-67q0 93 58 154t162 61zM278 45q89 0 129 57.5t46 176.5
q-27 51 -74.5 75t-99.5 24q-79 0 -122.5 -48.5t-43.5 -122.5q0 -71 41 -116.5t124 -45.5z" />
    <glyph glyph-name="emptyset" unicode="&#x2205;" 
d="M549 519l-56 -56q49 -60 49 -146q0 -99 -62.5 -160.5t-159.5 -61.5q-86 0 -146 49l-56 -56l-27 27l56 56q-49 60 -49 146q0 99 62.5 160.5t159.5 61.5q86 0 146 -49l56 56zM142 317q0 -68 36 -115l258 258q-48 37 -115 37q-79 0 -129 -49t-50 -131zM499 317q0 69 -36 116
l-258 -258q46 -38 116 -38q78 0 128 49.5t50 130.5z" />
    <glyph glyph-name="uni2206" unicode="&#x2206;" horiz-adv-x="573" 
d="M20 0l241 700h51l241 -700h-533zM113 61h347l-174 532z" />
    <glyph glyph-name="product" unicode="&#x220f;" horiz-adv-x="681" 
d="M105 -215v948h-55v61h581v-61h-55v-948h-67v948h-337v-948h-67z" />
    <glyph glyph-name="summation" unicode="&#x2211;" horiz-adv-x="620" 
d="M50 -215v61l358 443l-358 444v61h520v-63h-435l357 -442l-357 -441h435v-63h-520z" />
    <glyph glyph-name="minus" unicode="&#x2212;" horiz-adv-x="504" 
d="M55 285v58h394v-58h-394z" />
    <glyph glyph-name="radical" unicode="&#x221a;" horiz-adv-x="780" 
d="M316 -215l-145 408h-121v58h167l124 -358l318 901h71l-364 -1009h-50z" />
    <glyph glyph-name="infinity" unicode="&#x221e;" horiz-adv-x="879" 
d="M249 88q-94 0 -146.5 59t-52.5 142t52.5 142t146.5 59q54 0 105 -33.5t85 -99.5q34 65 85 99t106 34q93 0 146 -58t53 -143t-53 -143t-146 -58q-55 0 -106 33.5t-85 99.5q-34 -67 -84.5 -100t-105.5 -33zM249 146q46 0 89.5 36t67.5 107q-24 70 -67.5 106.5t-89.5 36.5
q-65 0 -101.5 -41.5t-36.5 -101.5t36.5 -101.5t101.5 -41.5zM630 146q65 0 101 41.5t36 101.5t-36 101.5t-101 41.5q-47 0 -90.5 -36.5t-66.5 -106.5q23 -71 66.5 -107t90.5 -36z" />
    <glyph glyph-name="integral" unicode="&#x222b;" horiz-adv-x="378" 
d="M123 -220q-46 0 -73 12v57q28 -11 51 -11q56 0 56 76v750q0 65 27.5 97.5t70.5 32.5q46 0 73 -12v-56q-27 11 -50 11q-57 0 -57 -76v-751q0 -64 -27.5 -97t-70.5 -33z" />
    <glyph glyph-name="approxequal" unicode="&#x2248;" horiz-adv-x="536" 
d="M371 333q-38 0 -104.5 34t-108.5 34q-53 0 -103 -52v60q43 50 105 50q38 0 110.5 -34t100.5 -34q51 0 108 54v-59q-49 -53 -108 -53zM372 171q-38 0 -104.5 34t-108.5 34q-54 0 -102 -52v60q41 50 103 50q38 0 111 -34t101 -34q51 0 109 54v-59q-49 -53 -109 -53z" />
    <glyph glyph-name="notequal" unicode="&#x2260;" horiz-adv-x="534" 
d="M479 373h-156l-57 -119h213v-58h-240l-54 -114h-55l54 114h-129v58h157l56 119h-213v58h241l54 114h54l-54 -114h129v-58z" />
    <glyph glyph-name="lessequal" unicode="&#x2264;" horiz-adv-x="504" 
d="M447 224l-390 121v48l390 120v-62l-291 -82l291 -83v-62zM449 96h-394v58h394v-58z" />
    <glyph glyph-name="greaterequal" unicode="&#x2265;" horiz-adv-x="504" 
d="M57 224v62l291 83l-291 82v62l390 -120v-48zM55 96v58h394v-58h-394z" />
    <glyph glyph-name="uni2460" unicode="&#x2460;" horiz-adv-x="799" 
d="M400 -17q-163 0 -261.5 105t-98.5 262t98.5 262t261.5 105t261 -105t98 -262t-98 -262t-261 -105zM400 30q138 0 221.5 92t83.5 228t-83.5 228t-221.5 92q-139 0 -222.5 -92t-83.5 -228t83.5 -228t222.5 -92zM387 171v256h-83v39q52 0 70 14t18 49h44v-358h-49z" />
    <glyph glyph-name="uni2461" unicode="&#x2461;" horiz-adv-x="799" 
d="M400 -17q-163 0 -261.5 105t-98.5 262t98.5 262t261.5 105t261 -105t98 -262t-98 -262t-261 -105zM400 30q138 0 221.5 92t83.5 228t-83.5 228t-221.5 92q-139 0 -222.5 -92t-83.5 -228t83.5 -228t222.5 -92zM259 173q0 63 21.5 99t73.5 61l61 30q53 23 53 74
q0 27 -19 43.5t-49 16.5q-38 0 -59 -21.5t-21 -59.5h-52q0 55 36 88.5t95 33.5q56 0 89 -26.5t33 -72.5q0 -72 -73 -107l-60 -28q-34 -17 -49.5 -36.5t-17.5 -50.5h200v-44h-262z" />
    <glyph glyph-name="uni2462" unicode="&#x2462;" horiz-adv-x="799" 
d="M400 -17q-163 0 -261.5 105t-98.5 262t98.5 262t261.5 105t261 -105t98 -262t-98 -262t-261 -105zM400 30q138 0 221.5 92t83.5 228t-83.5 228t-221.5 92q-139 0 -222.5 -92t-83.5 -228t83.5 -228t222.5 -92zM400 165q-63 0 -98 30t-35 83h52q0 -34 22 -53.5t60 -19.5
q36 0 57 18t21 48q0 31 -20.5 48t-58.5 17h-34v40h34q35 0 54.5 16t19.5 45q0 27 -20 43.5t-52 16.5q-35 0 -56 -18t-21 -48h-52q0 48 35 76.5t95 28.5q56 0 90 -26.5t34 -69.5q0 -68 -76 -83q35 -4 58 -28.5t23 -59.5q0 -47 -36 -75.5t-96 -28.5z" />
    <glyph glyph-name="uni2463" unicode="&#x2463;" horiz-adv-x="799" 
d="M400 717q163 0 261 -105t98 -262t-98 -262t-261 -105t-261.5 105t-98.5 262t98.5 262t261.5 105zM400 30q138 0 221.5 92t83.5 228t-83.5 228t-221.5 92q-139 0 -222.5 -92t-83.5 -228t83.5 -228t222.5 -92zM486 437v-106h58v-44h-58v-116h-51v116h-156v243h51v-199h105
v106h51z" />
    <glyph glyph-name="uni2464" unicode="&#x2464;" horiz-adv-x="799" 
d="M400 -17q-163 0 -261.5 105t-98.5 262t98.5 262t261.5 105t261 -105t98 -262t-98 -262t-261 -105zM400 30q138 0 221.5 92t83.5 228t-83.5 228t-221.5 92q-139 0 -222.5 -92t-83.5 -228t83.5 -228t222.5 -92zM397 162q-58 0 -93 26.5t-37 73.5h50q2 -27 23.5 -42.5
t56.5 -15.5q39 0 62 23t23 63q0 38 -21.5 60t-58.5 22q-58 0 -80 -44h-46v198h233v-40h-187v-115q27 40 92 40q54 0 86 -32.5t32 -87.5q0 -59 -36.5 -94t-98.5 -35z" />
    <glyph glyph-name="uni2465" unicode="&#x2465;" horiz-adv-x="799" 
d="M400 717q163 0 261 -105t98 -262t-98 -262t-261 -105t-261.5 105t-98.5 262t98.5 262t261.5 105zM400 30q138 0 221.5 92t83.5 228t-83.5 228t-221.5 92q-139 0 -222.5 -92t-83.5 -228t83.5 -228t222.5 -92zM395 428q61 0 98 -37t37 -93t-37 -93t-98 -37q-60 0 -97 37
t-37 93q0 46 25 80l110 156h59l-78 -107q6 1 18 1zM395 210q39 0 62 25t23 63t-23 63t-62 25t-62 -25t-23 -63t23 -63t62 -25z" />
    <glyph glyph-name="uni2466" unicode="&#x2466;" horiz-adv-x="799" 
d="M400 -17q-163 0 -261.5 105t-98.5 262t98.5 262t261.5 105t261 -105t98 -262t-98 -262t-261 -105zM400 30q138 0 221.5 92t83.5 228t-83.5 228t-221.5 92q-139 0 -222.5 -92t-83.5 -228t83.5 -228t222.5 -92zM299 170l177 315h-188v43h263l-194 -358h-58z" />
    <glyph glyph-name="uni2467" unicode="&#x2467;" horiz-adv-x="799" 
d="M400 -17q-163 0 -261.5 105t-98.5 262t98.5 262t261.5 105t261 -105t98 -262t-98 -262t-261 -105zM400 30q138 0 221.5 92t83.5 228t-83.5 228t-221.5 92q-139 0 -222.5 -92t-83.5 -228t83.5 -228t222.5 -92zM399 165q-61 0 -97.5 27t-36.5 74q0 35 20 59t57 31
q-33 7 -52 30t-19 54q0 43 35.5 69.5t92.5 26.5q58 0 93 -26.5t35 -69.5q0 -31 -18.5 -54t-51.5 -30q37 -7 57 -31t20 -59q0 -47 -37 -74t-98 -27zM399 375q36 0 57.5 17t21.5 44q0 29 -22 46.5t-57 17.5t-56.5 -17.5t-21.5 -46.5q0 -27 21.5 -44t56.5 -17zM399 202
q38 0 61 19t23 50q0 30 -23 48t-61 18t-60.5 -18t-22.5 -48q0 -31 23 -50t60 -19z" />
    <glyph glyph-name="uni2468" unicode="&#x2468;" horiz-adv-x="799" 
d="M400 717q163 0 261 -105t98 -262t-98 -262t-261 -105t-261.5 105t-98.5 262t98.5 262t261.5 105zM400 30q138 0 221.5 92t83.5 228t-83.5 228t-221.5 92q-139 0 -222.5 -92t-83.5 -228t83.5 -228t222.5 -92zM405 532q60 0 97 -37t37 -92q0 -44 -23 -76h1l-113 -160h-59
l79 107q-6 -1 -19 -1q-61 0 -98 37t-37 93q0 55 37 92t98 37zM320 403q0 -38 23 -63t62 -25t62 25t23 63t-23 62.5t-62 24.5t-62 -24.5t-23 -62.5z" />
    <glyph glyph-name="uni24EA" unicode="&#x24ea;" horiz-adv-x="799" 
d="M400 -17q-163 0 -261.5 105t-98.5 262t98.5 262t261.5 105t261 -105t98 -262t-98 -262t-261 -105zM400 30q138 0 221.5 92t83.5 228t-83.5 228t-221.5 92q-139 0 -222.5 -92t-83.5 -228t83.5 -228t222.5 -92zM399 165q-71 0 -108.5 47.5t-37.5 138.5q0 90 37.5 137.5
t108.5 47.5t108.5 -47t37.5 -138t-37.5 -138.5t-108.5 -47.5zM399 208q94 0 94 143q0 142 -94 142q-93 0 -93 -142q0 -143 93 -143z" />
    <glyph glyph-name="uni24FF" unicode="&#x24ff;" horiz-adv-x="799" 
d="M400 -17q-163 0 -261.5 105t-98.5 262t98.5 262t261.5 105t261 -105t98 -262t-98 -262t-261 -105zM399 165q71 0 108.5 47.5t37.5 138.5t-37.5 138t-108.5 47t-108.5 -47.5t-37.5 -137.5q0 -91 37.5 -138.5t108.5 -47.5zM399 208q-93 0 -93 143q0 142 93 142
q94 0 94 -142q0 -143 -94 -143z" />
    <glyph glyph-name="lozenge" unicode="&#x25ca;" horiz-adv-x="555" 
d="M249 0l-199 396l199 398h58l198 -398l-198 -396h-58zM277 69l161 327l-160 328l-161 -328z" />
    <glyph glyph-name="circle" unicode="&#x25cb;" horiz-adv-x="799" 
d="M400 -17q-163 0 -261.5 105t-98.5 262t98.5 262t261.5 105t261 -105t98 -262t-98 -262t-261 -105zM400 30q138 0 221.5 92t83.5 228t-83.5 228t-221.5 92q-139 0 -222.5 -92t-83.5 -228t83.5 -228t222.5 -92z" />
    <glyph glyph-name="uni25CF" unicode="&#x25cf;" horiz-adv-x="799" 
d="M400 -17q-163 0 -261.5 105t-98.5 262t98.5 262t261.5 105t261 -105t98 -262t-98 -262t-261 -105z" />
    <glyph glyph-name="uni2776" unicode="&#x2776;" horiz-adv-x="799" 
d="M400 -17q-163 0 -261.5 105t-98.5 262t98.5 262t261.5 105t261 -105t98 -262t-98 -262t-261 -105zM390 171h50v358h-44q0 -35 -18.5 -49t-69.5 -14v-39h82v-256z" />
    <glyph glyph-name="uni2777" unicode="&#x2777;" horiz-adv-x="799" 
d="M400 -17q-163 0 -261.5 105t-98.5 262t98.5 262t261.5 105t261 -105t98 -262t-98 -262t-261 -105zM259 173h262v44h-200q2 31 17.5 50.5t49.5 36.5l60 28q73 35 73 107q0 46 -33 72.5t-89 26.5q-59 0 -95 -33.5t-36 -88.5h52q0 38 21 59.5t59 21.5q30 0 49 -16.5
t19 -43.5q0 -51 -53 -74l-61 -30q-52 -25 -73.5 -61t-21.5 -99z" />
    <glyph glyph-name="uni2778" unicode="&#x2778;" horiz-adv-x="799" 
d="M400 -17q-163 0 -261.5 105t-98.5 262t98.5 262t261.5 105t261 -105t98 -262t-98 -262t-261 -105zM400 165q60 0 96 28.5t36 75.5q0 35 -23 59.5t-58 28.5q76 15 76 83q0 43 -34 69.5t-90 26.5q-60 0 -95 -28.5t-35 -76.5h52q0 30 21 48t56 18q32 0 52 -16.5t20 -43.5
q0 -29 -19.5 -45t-54.5 -16h-34v-40h34q38 0 58.5 -17t20.5 -48q0 -30 -21 -48t-57 -18q-38 0 -60 19.5t-22 53.5h-52q0 -53 35 -83t98 -30z" />
    <glyph glyph-name="uni2779" unicode="&#x2779;" horiz-adv-x="799" 
d="M400 -17q-163 0 -261.5 105t-98.5 262t98.5 262t261.5 105t261 -105t98 -262t-98 -262t-261 -105zM423 171h50v116h58v44h-58v106h-50v-106h-106v199h-49v-243h155v-116z" />
    <glyph glyph-name="uni277A" unicode="&#x277a;" horiz-adv-x="799" 
d="M400 -17q-163 0 -261.5 105t-98.5 262t98.5 262t261.5 105t261 -105t98 -262t-98 -262t-261 -105zM397 162q62 0 98.5 35t36.5 94q0 55 -32 87.5t-86 32.5q-65 0 -92 -40v115h187v40h-233v-198h46q22 44 80 44q37 0 58.5 -22t21.5 -60q0 -40 -23 -63t-62 -23
q-35 0 -56.5 15.5t-23.5 42.5h-50q2 -47 37 -73.5t93 -26.5z" />
    <glyph glyph-name="uni277B" unicode="&#x277b;" horiz-adv-x="799" 
d="M400 -17q-163 0 -261.5 105t-98.5 262t98.5 262t261.5 105t261 -105t98 -262t-98 -262t-261 -105zM397 169q60 0 97 36.5t37 91.5t-35.5 92.5t-93.5 38.5q-16 0 -28 -6l83 111h-59l-103 -146q-32 -45 -32 -90q0 -55 37 -91.5t97 -36.5zM397 210q-39 0 -62.5 25t-23.5 62
q0 39 23 64t63 25q39 0 62 -25.5t23 -63.5q0 -37 -23 -62t-62 -25z" />
    <glyph glyph-name="uni277C" unicode="&#x277c;" horiz-adv-x="799" 
d="M400 -17q-163 0 -261.5 105t-98.5 262t98.5 262t261.5 105t261 -105t98 -262t-98 -262t-261 -105zM299 170h58l194 358h-263v-43h188z" />
    <glyph glyph-name="uni277D" unicode="&#x277d;" horiz-adv-x="799" 
d="M400 -17q-163 0 -261.5 105t-98.5 262t98.5 262t261.5 105t261 -105t98 -262t-98 -262t-261 -105zM399 165q61 0 97.5 27t36.5 74q0 35 -20 59t-57 31q33 7 52 30t19 54q0 43 -35.5 69.5t-92.5 26.5q-58 0 -93 -26.5t-35 -69.5q0 -31 19 -54t52 -30q-37 -7 -57.5 -31
t-20.5 -59q0 -47 37 -74t98 -27zM399 375q-35 0 -56.5 17t-21.5 44q0 29 21.5 46.5t56.5 17.5t56.5 -17.5t21.5 -46.5q0 -27 -21.5 -44t-56.5 -17zM399 202q-38 0 -60.5 19t-22.5 50q0 30 22.5 48t60.5 18t60.5 -18t22.5 -48q0 -31 -23 -50t-60 -19z" />
    <glyph glyph-name="uni277E" unicode="&#x277e;" horiz-adv-x="799" 
d="M400 -17q-163 0 -261.5 105t-98.5 262t98.5 262t261.5 105t261 -105t98 -262t-98 -262t-261 -105zM339 167h59l110 155q25 34 25 81q0 55 -37 92t-97 37t-97 -37t-37 -92t35.5 -92t93.5 -38q16 0 28 6zM399 315q-39 0 -62 25t-23 63t23 62.5t62 24.5q40 0 63 -24.5
t23 -62.5t-23.5 -63t-62.5 -25z" />
    <glyph glyph-name="uniF8FF" unicode="&#xf8ff;" horiz-adv-x="800" 
d="M400 -17q-109 0 -193.5 52.5t-127.5 135.5t-43 179t43 179t127.5 135.5t193.5 52.5t193.5 -52.5t127.5 -135.5t43 -179t-43 -179t-127.5 -135.5t-193.5 -52.5zM400 6q140 0 239.5 100.5t99.5 243.5q0 138 -98 241.5t-241 103.5t-241.5 -103t-98.5 -242q0 -143 99 -243.5
t241 -100.5zM243 457q-17 0 -29.5 13t-12.5 30q0 18 12.5 30.5t29.5 12.5q18 0 30.5 -12.5t12.5 -30.5q0 -17 -12.5 -30t-30.5 -13zM540 457q-17 0 -29.5 13t-12.5 30q0 18 12.5 30.5t29.5 12.5q18 0 30.5 -12.5t12.5 -30.5q0 -17 -12.5 -30t-30.5 -13zM219 259l179 268
l-110 -243h178v-25h-247zM132 207q0 38 26 52l23 13q8 4 11 13.5t3.5 16.5t0.5 27h17q0 -57 -20 -69l-22 -13q-23 -13 -23 -40h-16zM616 157l-16 4q5 17 3 26t-16 15l-41 20q-55 27 -31 98l15 -5q-20 -61 27 -82l40 -19q20 -9 22.5 -26.5t-3.5 -30.5zM366 66
q-102 0 -198 162q82 -49 116 -60t72 -11q148 0 220 37q1 0 3 2q-22 -49 -88 -89.5t-125 -40.5zM366 92q31 0 71.5 16.5t62.5 30t32 21.5q-9 -2 -40.5 -9.5t-45 -10t-39 -5.5t-49.5 -3q-30 0 -69.5 11.5t-63.5 30.5q26 -42 69 -62t72 -20z" />
    <glyph glyph-name="dollar.tf" 
d="M555 174q0 -82 -53.5 -132t-145.5 -56v-86h-50v86q-105 7 -163.5 67.5t-58.5 159.5h67q0 -76 48 -122t132 -46q74 0 115.5 33.5t41.5 94.5q0 95 -113 125l-119 28q-150 38 -150 180q0 73 54 126.5t146 57.5v90h50v-92q85 -9 134.5 -62.5t50.5 -139.5h-68q-2 69 -42 107.5
t-112 38.5q-70 0 -107.5 -34.5t-37.5 -88.5q0 -99 123 -129l122 -31q136 -35 136 -175z" />
    <glyph glyph-name="cent.tf" 
d="M328 158q59 0 97 27.5t48 77.5h64q-8 -69 -57 -112t-127 -50v-101h-50v101q-92 8 -146.5 73.5t-54.5 165.5q0 99 54.5 164t146.5 73v103h50v-103q79 -7 127.5 -50.5t56.5 -113.5h-64q-10 52 -47.5 79.5t-97.5 27.5q-75 0 -118.5 -48.5t-43.5 -131.5t43.5 -132.5
t118.5 -49.5z" />
    <glyph glyph-name="sterling.tf" 
d="M221 242q0 -124 -57 -181h358v-61h-433v47q65 61 65 183v115h-67v50h67v81q0 107 54 161.5t148 54.5q92 0 144 -51t52 -139h-67q0 63 -33.5 98.5t-96.5 35.5q-69 0 -101.5 -41t-32.5 -125v-75h186v-50h-186v-103z" />
    <glyph glyph-name="florin.tf" 
d="M507 632q-41 0 -67 -22.5t-36 -83.5l-15 -84h138l-10 -55h-138l-80 -450q-28 -160 -159 -160q-39 0 -70 12l9 56q22 -9 54 -9q40 0 66 21.5t36 78.5l80 451h-101l10 55h101l15 85q28 163 165 163q40 0 64 -11l-9 -56q-21 9 -53 9z" />
    <glyph glyph-name="yen.tf" 
d="M574 680l-218 -407h155v-46h-157v-87h157v-47h-157v-93h-68v93h-157v47h157v87h-157v46h155l-218 407h76l178 -352l178 352h76z" />
    <glyph glyph-name="Euro.tf" 
d="M360 49q66 0 104 39t48 105h66q-14 -91 -69.5 -147t-148.5 -56q-201 0 -231 256h-67l13 47h50q-1 16 -1 48q0 31 1 46h-60l12 47h52q28 258 231 258q93 0 148.5 -56t69.5 -147h-66q-11 66 -48.5 104.5t-103.5 38.5q-146 0 -166 -198h223l-12 -47h-215q-1 -15 -1 -46
q0 -32 1 -48h224l-12 -47h-208q11 -94 49.5 -145.5t116.5 -51.5z" />
    <glyph glyph-name="uni20A9.tf" 
d="M624 396h-60l-16 -94h76v-51h-85l-45 -251h-67l-106 578l-106 -578h-67l-45 251h-87v51h78l-16 94h-62v51h52l-41 233h68l90 -578l106 578h60l106 -578l90 578h68l-41 -233h50v-51z" />
    <glyph glyph-name="uni20B4.tf" 
d="M462 381q-26 -22 -65 -39l-96 -42h256v-40h-336q-53 -36 -53 -95q0 -56 38 -87t107 -31q77 0 121 36.5t44 98.5h62q0 -88 -60.5 -141.5t-167.5 -53.5q-96 0 -152 46.5t-56 128.5q0 58 28 98h-58v40h99q25 18 52 29l123 52h-274v39h345q42 35 42 102q0 51 -35.5 81
t-97.5 30q-69 0 -108 -31.5t-39 -89.5h-62q0 83 57 131.5t151 48.5q90 0 143.5 -44.5t53.5 -122.5q0 -62 -28 -105h61v-39h-95z" />
    <glyph glyph-name="uni20B8.tf" 
d="M72 619v61h495v-61h-495zM286 0v469h-214v62h495v-62h-214v-469h-67z" />
    <glyph glyph-name="uni20AE.tf" 
d="M567 619h-214v-170l131 62v-53l-131 -63v-81l131 62v-54l-131 -62v-260h-67v228l-132 -63v54l132 63v81l-132 -63v54l132 63v202h-214v61h495v-61z" />
    <glyph glyph-name="perthousand.tf" 
d="M348 687l22 -10l-278 -692l-22 10zM242 515q0 -74 -31.5 -122t-86.5 -48q-54 0 -85.5 48t-31.5 122t31.5 122t85.5 48t86 -48.5t32 -121.5zM52 515q0 -55 19.5 -89.5t52.5 -34.5q34 0 53 34.5t19 89.5t-19 89t-53 34q-33 0 -52.5 -34.5t-19.5 -88.5zM516 336
q54 0 85.5 -48t31.5 -122q0 -73 -31.5 -121.5t-85.5 -48.5q-64 0 -95 64q-33 -64 -96 -64q-54 0 -86 48.5t-32 121.5q0 74 31.5 122t86.5 48q63 0 96 -64q31 64 95 64zM325 43q34 0 53.5 34.5t19.5 88.5q0 55 -19.5 89.5t-53.5 34.5q-33 0 -52 -34.5t-19 -89.5t19 -89
t52 -34zM516 43q33 0 52.5 34.5t19.5 88.5q0 55 -19.5 89.5t-52.5 34.5q-34 0 -53 -34.5t-19 -89.5t19 -89t53 -34z" />
    <glyph glyph-name="zero.zero" horiz-adv-x="607" 
d="M303 692q124 0 189 -89.5t65 -261.5t-65 -261.5t-189 -89.5t-188.5 89.5t-64.5 261.5t64.5 261.5t188.5 89.5zM114 341q0 -168 64 -241l217 509q-40 23 -92 23q-189 0 -189 -291zM303 49q190 0 190 292q0 169 -65 240l-217 -508q39 -24 92 -24z" />
    <glyph glyph-name="zero.tf.zero" 
d="M320 690q106 0 174.5 -69.5t68.5 -171.5v-225q0 -100 -68.5 -168.5t-174.5 -68.5t-174.5 68.5t-68.5 168.5v225q0 102 68.5 171.5t174.5 69.5zM144 224q0 -72 46 -121l217 505q-40 21 -87 21q-78 0 -127 -52t-49 -128v-225zM496 224v225q0 77 -49 128l-217 -506
q41 -22 90 -22q77 0 126.5 50.5t49.5 124.5z" />
    <glyph glyph-name="zero.tf" 
d="M320 -13q-106 0 -174.5 68.5t-68.5 168.5v225q0 102 68.5 171.5t174.5 69.5t174.5 -69.5t68.5 -171.5v-225q0 -100 -68.5 -168.5t-174.5 -68.5zM320 49q77 0 126.5 50.5t49.5 124.5v225q0 76 -49 128t-127 52t-127 -52t-49 -128v-225q0 -74 49.5 -124.5t126.5 -50.5z" />
    <glyph glyph-name="one.tf" 
d="M358 61h207v-61h-490v61h217v445h-183v58h19q88 0 127.5 26t43.5 90h59v-619z" />
    <glyph glyph-name="two.tf" 
d="M64 0q0 114 43.5 181t149.5 113l124 54q116 49 116 155q0 57 -44.5 93t-114.5 36q-85 0 -135 -46t-50 -126h-71q0 105 70 168t186 63q106 0 169 -50t63 -135q0 -139 -148 -206l-124 -55q-81 -36 -115 -76t-38 -108h434v-61h-515z" />
    <glyph glyph-name="three.tf" 
d="M323 -10q-120 0 -189.5 56.5t-69.5 154.5h71q0 -71 50.5 -112t137.5 -41q82 0 132 37.5t50 99.5q0 65 -48 101.5t-133 36.5h-60v59h60q78 0 122 33.5t44 93.5q0 56 -46 90.5t-120 34.5q-80 0 -128 -37.5t-48 -100.5h-68q0 88 66.5 141.5t176.5 53.5q107 0 172.5 -49.5
t65.5 -131.5q0 -62 -39 -102.5t-112 -54.5q70 -5 117.5 -53t47.5 -115q0 -88 -69.5 -141.5t-182.5 -53.5z" />
    <glyph glyph-name="four.tf" 
d="M575 291v-61h-150v-231h-69v231h-291v450h69v-389h222v211h69v-211h150z" />
    <glyph glyph-name="five.tf" 
d="M312 -10q-105 0 -172.5 49t-72.5 132h69q4 -55 52.5 -88t123.5 -33q90 0 140.5 47.5t50.5 130.5q0 81 -48 126.5t-134 45.5q-126 0 -172 -92h-67v372h466v-61h-402v-242q52 81 187 81q111 0 175 -61.5t64 -166.5q0 -110 -70 -175t-190 -65z" />
    <glyph glyph-name="six.tf" 
d="M321 468q115 0 185.5 -68t70.5 -173q0 -104 -71 -171.5t-186 -67.5q-116 0 -186.5 67.5t-70.5 171.5q0 82 45 143l230 310h83l-167 -219q29 7 67 7zM320 47q85 0 138 51t53 130t-53 130t-138 51t-138 -51t-53 -130t53 -130t138 -51z" />
    <glyph glyph-name="seven.tf" 
d="M107 0l370 618h-413v62h521l-402 -680h-76z" />
    <glyph glyph-name="eight.tf" 
d="M320 -10q-113 0 -182 52.5t-69 140.5q0 65 40 110t111 58q-66 14 -103 57t-37 103q0 81 66 130t174 49t174 -49t66 -130q0 -60 -37.5 -103t-103.5 -57q71 -13 111.5 -58t40.5 -110q0 -88 -69 -140.5t-182 -52.5zM320 379q78 0 124 34.5t46 92.5q0 59 -46.5 94t-123.5 35
t-123.5 -35t-46.5 -94q0 -58 46.5 -92.5t123.5 -34.5zM320 48q82 0 131.5 38t49.5 100q0 64 -49 101.5t-132 37.5q-81 0 -131 -38t-50 -101q0 -62 49.5 -100t131.5 -38z" />
    <glyph glyph-name="nine.tf" 
d="M577 453q0 -82 -45 -143l-230 -310h-83l167 219q-29 -7 -67 -7q-115 0 -185.5 68t-70.5 173q0 104 71 171.5t186 67.5q116 0 186.5 -67.5t70.5 -171.5zM129 452q0 -79 53 -130t138 -51t138 51t53 130t-53 130t-138 51t-138 -51t-53 -130z" />
    <glyph glyph-name="uni00A40301" horiz-adv-x="537" 
d="M338 730l-24 46l228 115l24 -45zM252 -15q-101 0 -164 61.5t-63 169.5h67q0 -80 44.5 -125t115.5 -45q70 0 111 47t41 128v479h67v-479q0 -110 -59.5 -173t-159.5 -63z" />
    <glyph glyph-name="Y.ss02" horiz-adv-x="573" 
d="M252 0v281l-254 419h78l210 -354l211 354h78l-254 -419v-281h-69z" />
    <glyph glyph-name="Yacute.ss02" horiz-adv-x="573" 
d="M186 730l-24 46l228 115l24 -45zM252 0v281l-254 419h78l210 -354l211 354h78l-254 -419v-281h-69z" />
    <glyph glyph-name="Ycircumflex.ss02" horiz-adv-x="573" 
d="M284 883l129 -113l-34 -32l-95 85l-95 -85l-34 32zM252 0v281l-254 419h78l210 -354l211 354h78l-254 -419v-281h-69z" />
    <glyph glyph-name="Ydieresis.ss02" horiz-adv-x="573" 
d="M169 757q-24 0 -40.5 16.5t-16.5 39.5q0 25 16.5 41.5t40.5 16.5t41 -16.5t17 -41.5q0 -23 -17 -39.5t-41 -16.5zM403 757q-24 0 -40.5 16.5t-16.5 39.5q0 25 16.5 41.5t40.5 16.5t41 -16.5t17 -41.5q0 -23 -17 -39.5t-41 -16.5zM252 0v281l-254 419h78l210 -354l211 354
h78l-254 -419v-281h-69z" />
    <glyph glyph-name="Ygrave.ss02" horiz-adv-x="573" 
d="M385 730l-228 116l24 45l228 -115zM252 0v281l-254 419h78l210 -354l211 354h78l-254 -419v-281h-69z" />
    <glyph glyph-name="Adieresis.ss05" horiz-adv-x="577" 
d="M335 845l-87 -111h-55l87 111h55zM370 734h-55l87 111h55zM484 0l-41 126h-310l-40 -126h-73l238 700h61l238 -700h-73zM153 187h271l-136 422z" />
    <glyph glyph-name="Edieresis.ss05" horiz-adv-x="547" 
d="M247 734h-55l87 111h55zM369 734h-55l87 111h55zM85 0v700h391v-61h-324v-261h324v-61h-324v-256h324v-61h-391z" />
    <glyph glyph-name="Odieresis.ss05" horiz-adv-x="800" 
d="M360 734h-55l87 111h55zM482 734h-55l87 111h55zM400 -15q-163 0 -261.5 106.5t-98.5 258.5t98.5 258.5t261.5 106.5t261.5 -106.5t98.5 -258.5t-98.5 -258.5t-261.5 -106.5zM400 46q132 0 211 88.5t79 215.5t-79 215.5t-211 88.5t-211 -88.5t-79 -215.5t79 -215.5
t211 -88.5z" />
    <glyph glyph-name="Udieresis.ss05" horiz-adv-x="630" 
d="M274 734h-55l87 111h55zM396 734h-55l87 111h55zM315 -15q-115 0 -182.5 63.5t-67.5 179.5v472h67v-469q0 -89 49 -137t134 -48t134 48t49 137v469h67v-472q0 -116 -67.5 -179.5t-182.5 -63.5z" />
    <glyph glyph-name="uni006A0301" horiz-adv-x="227" 
d="M72 511l-37 38l163 143l37 -39zM34 -221q-40 0 -63 11v60q24 -10 52 -10q60 0 60 77v538h64v-554q0 -58 -29.5 -90t-83.5 -32z" />
    <glyph glyph-name="a.ss03" horiz-adv-x="524" 
d="M210 -11q-77 0 -121 36t-44 99q0 70 52 105q47 34 174 41l114 7v26q0 54 -33 82.5t-94 28.5q-58 0 -93.5 -23.5t-39.5 -63.5h-63q4 63 55.5 101.5t143.5 38.5q188 0 188 -179v-288h-65v84q-43 -95 -174 -95zM225 42q75 0 117.5 41t42.5 111v34l-149 -10q-127 -9 -127 -91
q0 -41 30.5 -63t85.5 -22z" />
    <glyph glyph-name="aacute.ss03" horiz-adv-x="524" 
d="M217 511l-37 38l162 143l38 -39zM210 -11q-77 0 -121 36t-44 99q0 70 52 105q47 34 174 41l114 7v26q0 54 -33 82.5t-94 28.5q-58 0 -93.5 -23.5t-39.5 -63.5h-63q4 63 55.5 101.5t143.5 38.5q188 0 188 -179v-288h-65v84q-43 -95 -174 -95zM225 42q75 0 117.5 41
t42.5 111v34l-149 -10q-127 -9 -127 -91q0 -41 30.5 -63t85.5 -22z" />
    <glyph glyph-name="abreve.ss03" horiz-adv-x="524" 
d="M260 509q-70 0 -116 38.5t-51 106.5h56q4 -46 34.5 -71t76.5 -25t76.5 25t34.5 71h55q-5 -68 -50.5 -106.5t-115.5 -38.5zM210 -11q-77 0 -121 36t-44 99q0 70 52 105q47 34 174 41l114 7v26q0 54 -33 82.5t-94 28.5q-58 0 -93.5 -23.5t-39.5 -63.5h-63q4 63 55.5 101.5
t143.5 38.5q188 0 188 -179v-288h-65v84q-43 -95 -174 -95zM225 42q75 0 117.5 41t42.5 111v34l-149 -10q-127 -9 -127 -91q0 -41 30.5 -63t85.5 -22z" />
    <glyph glyph-name="acircumflex.ss03" horiz-adv-x="524" 
d="M260 693l154 -147l-39 -38l-115 113l-114 -113l-40 38zM210 -11q-77 0 -121 36t-44 99q0 70 52 105q47 34 174 41l114 7v26q0 54 -33 82.5t-94 28.5q-58 0 -93.5 -23.5t-39.5 -63.5h-63q4 63 55.5 101.5t143.5 38.5q188 0 188 -179v-288h-65v84q-43 -95 -174 -95zM225 42
q75 0 117.5 41t42.5 111v34l-149 -10q-127 -9 -127 -91q0 -41 30.5 -63t85.5 -22z" />
    <glyph glyph-name="adieresis.ss03" horiz-adv-x="524" 
d="M160 547q-23 0 -39.5 16.5t-16.5 39.5q0 25 16.5 41.5t39.5 16.5q25 0 41.5 -16.5t16.5 -41.5q0 -23 -16.5 -39.5t-41.5 -16.5zM357 547q-23 0 -39.5 16.5t-16.5 39.5q0 25 16.5 41.5t39.5 16.5q25 0 41.5 -16.5t16.5 -41.5q0 -23 -16.5 -39.5t-41.5 -16.5zM210 -11
q-77 0 -121 36t-44 99q0 70 52 105q47 34 174 41l114 7v26q0 54 -33 82.5t-94 28.5q-58 0 -93.5 -23.5t-39.5 -63.5h-63q4 63 55.5 101.5t143.5 38.5q188 0 188 -179v-288h-65v84q-43 -95 -174 -95zM225 42q75 0 117.5 41t42.5 111v34l-149 -10q-127 -9 -127 -91
q0 -41 30.5 -63t85.5 -22z" />
    <glyph glyph-name="agrave.ss03" horiz-adv-x="524" 
d="M294 511l-163 142l38 39l163 -143zM210 -11q-77 0 -121 36t-44 99q0 70 52 105q47 34 174 41l114 7v26q0 54 -33 82.5t-94 28.5q-58 0 -93.5 -23.5t-39.5 -63.5h-63q4 63 55.5 101.5t143.5 38.5q188 0 188 -179v-288h-65v84q-43 -95 -174 -95zM225 42q75 0 117.5 41
t42.5 111v34l-149 -10q-127 -9 -127 -91q0 -41 30.5 -63t85.5 -22z" />
    <glyph glyph-name="amacron.ss03" horiz-adv-x="524" 
d="M101 554v53h317v-53h-317zM210 -11q-77 0 -121 36t-44 99q0 70 52 105q47 34 174 41l114 7v26q0 54 -33 82.5t-94 28.5q-58 0 -93.5 -23.5t-39.5 -63.5h-63q4 63 55.5 101.5t143.5 38.5q188 0 188 -179v-288h-65v84q-43 -95 -174 -95zM225 42q75 0 117.5 41t42.5 111v34
l-149 -10q-127 -9 -127 -91q0 -41 30.5 -63t85.5 -22z" />
    <glyph glyph-name="aogonek.ss03" horiz-adv-x="524" 
d="M420 -162q27 0 62 14l-1 -49q-39 -15 -78 -15q-51 0 -79.5 26.5t-28.5 67.5q0 72 91 118h-2v84q-43 -95 -174 -95q-77 0 -121 36t-44 99q0 70 52 105q47 34 174 41l114 7v26q0 54 -33 82.5t-94 28.5q-58 0 -93.5 -23.5t-39.5 -63.5h-63q4 63 55.5 101.5t143.5 38.5
q188 0 188 -179v-288h1q-48 -14 -71.5 -41t-23.5 -58q0 -28 17.5 -45.5t47.5 -17.5zM385 194v34l-149 -10q-127 -9 -127 -91q0 -41 30.5 -63t85.5 -22q75 0 117.5 41t42.5 111z" />
    <glyph glyph-name="aring.ss03" horiz-adv-x="524" 
d="M260 495q-46 0 -77.5 30.5t-31.5 77.5t31.5 77.5t77.5 30.5t77.5 -30.5t31.5 -77.5t-31.5 -77.5t-77.5 -30.5zM260 531q30 0 49.5 20t19.5 52q0 31 -20 51.5t-49 20.5t-49 -20.5t-20 -51.5q0 -32 19.5 -52t49.5 -20zM210 -11q-77 0 -121 36t-44 99q0 70 52 105
q47 34 174 41l114 7v26q0 54 -33 82.5t-94 28.5q-58 0 -93.5 -23.5t-39.5 -63.5h-63q4 63 55.5 101.5t143.5 38.5q188 0 188 -179v-288h-65v84q-43 -95 -174 -95zM225 42q75 0 117.5 41t42.5 111v34l-149 -10q-127 -9 -127 -91q0 -41 30.5 -63t85.5 -22z" />
    <glyph glyph-name="atilde.ss03" horiz-adv-x="524" 
d="M333 541q-27 0 -75 29t-70 29q-40 0 -72 -46l-27 34q38 66 97 66q27 0 75 -29t70 -29q40 0 72 46l27 -34q-39 -66 -97 -66zM210 -11q-77 0 -121 36t-44 99q0 70 52 105q47 34 174 41l114 7v26q0 54 -33 82.5t-94 28.5q-58 0 -93.5 -23.5t-39.5 -63.5h-63q4 63 55.5 101.5
t143.5 38.5q188 0 188 -179v-288h-65v84q-43 -95 -174 -95zM225 42q75 0 117.5 41t42.5 111v34l-149 -10q-127 -9 -127 -91q0 -41 30.5 -63t85.5 -22z" />
    <glyph glyph-name="y.ss04" horiz-adv-x="477" 
d="M71 -227q-29 0 -55 9v62q26 -10 55 -10q79 0 112 90l25 60l-196 471h67l165 -399l151 399h69l-219 -547q-30 -75 -72 -105t-102 -30z" />
    <glyph glyph-name="yacute.ss04" horiz-adv-x="477" 
d="M195 511l-37 38l163 143l37 -39zM71 -227q-29 0 -55 9v62q26 -10 55 -10q79 0 112 90l25 60l-196 471h67l165 -399l151 399h69l-219 -547q-30 -75 -72 -105t-102 -30z" />
    <glyph glyph-name="ycircumflex.ss04" horiz-adv-x="477" 
d="M239 693l154 -147l-39 -38l-115 113l-114 -113l-40 38zM71 -227q-29 0 -55 9v62q26 -10 55 -10q79 0 112 90l25 60l-196 471h67l165 -399l151 399h69l-219 -547q-30 -75 -72 -105t-102 -30z" />
    <glyph glyph-name="ydieresis.ss04" horiz-adv-x="477" 
d="M139 547q-23 0 -39.5 16.5t-16.5 39.5q0 25 16.5 41.5t39.5 16.5q25 0 41.5 -16.5t16.5 -41.5q0 -23 -16.5 -39.5t-41.5 -16.5zM336 547q-23 0 -39.5 16.5t-16.5 39.5q0 25 16.5 41.5t39.5 16.5q25 0 41.5 -16.5t16.5 -41.5q0 -23 -16.5 -39.5t-41.5 -16.5zM71 -227
q-29 0 -55 9v62q26 -10 55 -10q79 0 112 90l25 60l-196 471h67l165 -399l151 399h69l-219 -547q-30 -75 -72 -105t-102 -30z" />
    <glyph glyph-name="ygrave.ss04" horiz-adv-x="477" 
d="M273 511l-163 142l38 39l163 -143zM71 -227q-29 0 -55 9v62q26 -10 55 -10q79 0 112 90l25 60l-196 471h67l165 -399l151 399h69l-219 -547q-30 -75 -72 -105t-102 -30z" />
    <glyph glyph-name="a.sups" horiz-adv-x="366" 
d="M161 394q-61 0 -98.5 39.5t-37.5 98.5q0 60 38 100t99 40q38 0 66 -17.5t41 -46.5v56h53v-263h-53v55q-13 -28 -41.5 -45t-66.5 -17zM174 438q44 0 70.5 27.5t26.5 66.5q0 40 -26.5 67.5t-70.5 27.5q-43 0 -69.5 -27.5t-26.5 -67.5q0 -39 27 -66.5t69 -27.5z" />
    <glyph glyph-name="b.sups" horiz-adv-x="366" 
d="M206 672q59 0 97 -39.5t38 -100.5t-38.5 -99.5t-97.5 -38.5q-37 0 -66 17t-43 45v-55h-53v393h53v-186q14 30 43.5 47t66.5 17zM193 438q41 0 67.5 27t26.5 67q0 41 -26.5 68t-67.5 27q-43 0 -71 -27t-28 -68t28 -67.5t71 -26.5z" />
    <glyph glyph-name="c.sups" horiz-adv-x="330" 
d="M169 394q-66 0 -105 38t-39 100q0 63 39 101t105 38q57 0 93.5 -29t43.5 -77h-54q-11 61 -84 61q-42 0 -66.5 -25.5t-24.5 -68.5q0 -42 24.5 -67.5t66.5 -25.5q73 0 84 61h54q-7 -49 -43.5 -77.5t-93.5 -28.5z" />
    <glyph glyph-name="d.sups" horiz-adv-x="366" 
d="M269 794h53v-393h-53v55q-13 -28 -41.5 -45t-66.5 -17q-61 0 -98.5 39.5t-37.5 98.5q0 60 38 100t99 40q38 0 66 -17.5t41 -46.5v186zM175 438q43 0 70 27.5t27 66.5q0 40 -27 67.5t-70 27.5t-69.5 -27.5t-26.5 -67.5q0 -39 27 -66.5t69 -27.5z" />
    <glyph glyph-name="e.sups" horiz-adv-x="329" 
d="M303 522h-226v-1q0 -40 25 -63t66 -23q64 0 80 42h52q-7 -37 -43.5 -60t-88.5 -23q-66 0 -105 37.5t-39 101.5q0 63 39 101t103 38q62 0 100 -34.5t38 -88.5q0 -16 -1 -27zM166 636q-38 0 -62.5 -22.5t-26.5 -58.5h175q0 36 -23 58.5t-63 22.5z" />
    <glyph glyph-name="f.sups" horiz-adv-x="223" 
d="M176 756q-51 0 -51 -54v-39h84v-40h-84v-222h-53v222h-57v40h57v38q0 49 26 73t66 24q24 0 45 -7v-40q-17 5 -33 5z" />
    <glyph glyph-name="g.sups" horiz-adv-x="366" 
d="M269 664h53v-255q0 -68 -45 -105q-35 -29 -103 -29q-59 0 -99 26q-43 29 -43 74h53q2 -26 25.5 -42.5t63.5 -16.5q95 0 95 88v55q-13 -28 -42 -45t-65 -17q-61 0 -99 38.5t-38 97.5q0 60 38.5 99t98.5 39q37 0 65.5 -17t41.5 -46v56zM175 439q42 0 69.5 27t27.5 67
t-27 67.5t-70 27.5q-42 0 -68.5 -27t-26.5 -68t26.5 -67.5t68.5 -26.5z" />
    <glyph glyph-name="h.sups" horiz-adv-x="346" 
d="M200 671q52 0 80 -29t28 -83v-158h-54v142q0 83 -73 83q-42 0 -64 -25.5t-22 -69.5v-130h-53v393h53v-188q22 65 105 65z" />
    <glyph glyph-name="i.sups" horiz-adv-x="191" 
d="M92 711q-18 0 -29 11t-11 27q0 17 11 28t29 11t29.5 -11t11.5 -28q0 -16 -11.5 -27t-29.5 -11zM65 401v263h54v-263h-54z" />
    <glyph glyph-name="j.sups" horiz-adv-x="161" 
d="M80 711q-18 0 -29 11t-11 27q0 17 11 28t29 11t29.5 -11t11.5 -28q0 -16 -11.5 -27t-29.5 -11zM24 279q-24 0 -44 7v43q14 -5 34 -5q39 0 39 41v299h53v-306q0 -79 -82 -79z" />
    <glyph glyph-name="k.sups" horiz-adv-x="296" 
d="M290 664l-140 -128l140 -135h-68l-129 125v-125h-53v393h53v-253l131 123h66z" />
    <glyph glyph-name="l.sups" horiz-adv-x="161" 
d="M54 401v393h55v-393h-55z" />
    <glyph glyph-name="m.sups" horiz-adv-x="493" 
d="M40 401v263h52v-57q8 27 30.5 45.5t58.5 18.5q74 0 89 -66q9 29 34.5 47.5t59.5 18.5q98 0 98 -105v-165h-54v155q0 70 -61 70q-34 0 -52 -24.5t-18 -68.5v-132h-54v147q0 78 -62 78q-34 0 -51.5 -25t-17.5 -68v-132h-52z" />
    <glyph glyph-name="n.sups" horiz-adv-x="344" 
d="M42 401v263h52v-58q9 30 36.5 47.5t68.5 17.5q107 0 107 -112v-158h-53v142q0 83 -73 83q-43 0 -64.5 -25.5t-21.5 -69.5v-130h-52z" />
    <glyph glyph-name="o.sups" horiz-adv-x="347" 
d="M173 394q-67 0 -107 39.5t-40 99.5t40 99.5t107 39.5q68 0 108.5 -39.5t40.5 -99.5t-40.5 -99.5t-108.5 -39.5zM173 439q44 0 70 27t26 67t-26 67t-70 27q-43 0 -69.5 -27t-26.5 -67t26.5 -67t69.5 -27z" />
    <glyph glyph-name="p.sups" horiz-adv-x="366" 
d="M206 671q59 0 97 -39t38 -100t-38.5 -99.5t-97.5 -38.5q-37 0 -66 17t-43 45v-174h-53v382h53v-56q31 63 110 63zM193 438q41 0 67 26.5t26 67.5t-26.5 68t-66.5 27q-43 0 -71 -27t-28 -68t28 -67.5t71 -26.5z" />
    <glyph glyph-name="q.sups" horiz-adv-x="366" 
d="M269 664h54v-382h-54v174q-13 -28 -41.5 -45t-66.5 -17q-61 0 -98.5 39.5t-37.5 98.5t38 99t99 40q78 0 107 -63v56zM175 438q43 0 70 27.5t27 66.5q0 40 -27 67.5t-70 27.5q-42 0 -68.5 -27.5t-26.5 -67.5t26 -67t69 -27z" />
    <glyph glyph-name="r.sups" horiz-adv-x="223" 
d="M44 401v263h54v-69q9 36 35.5 55.5t61.5 19.5q6 0 24 -3v-49q-18 2 -28 2q-48 0 -70.5 -32t-22.5 -81v-106h-54z" />
    <glyph glyph-name="s.sups" horiz-adv-x="278" 
d="M141 394q-56 0 -89.5 24.5t-33.5 63.5h54q0 -23 18.5 -37.5t50.5 -14.5q58 0 58 41q0 26 -37 36l-65 17q-70 18 -70 72q0 35 31 55.5t81 20.5q51 0 81 -21.5t30 -59.5h-53q0 21 -16 33.5t-44 12.5q-25 0 -40.5 -10t-15.5 -28q0 -26 43 -37l60 -16q70 -17 70 -71
q0 -37 -30.5 -59t-82.5 -22z" />
    <glyph glyph-name="t.sups" horiz-adv-x="225" 
d="M167 441q25 0 38 4v-43q-17 -4 -53 -4q-18 0 -31 3t-27.5 11.5t-22 28t-7.5 48.5v132h-54v43h54v86h53v-86h79v-43h-79v-122q0 -34 13 -46t37 -12z" />
    <glyph glyph-name="u.sups" horiz-adv-x="345" 
d="M146 394q-51 0 -80 29.5t-29 82.5v158h54v-147q0 -77 73 -77q42 0 63.5 26t21.5 62v136h52v-263h-52v58q-10 -28 -37.5 -46.5t-65.5 -18.5z" />
    <glyph glyph-name="v.sups" horiz-adv-x="303" 
d="M127 401l-125 263h58l91 -200l92 200h58l-126 -263h-48z" />
    <glyph glyph-name="w.sups" horiz-adv-x="437" 
d="M102 401l-100 263h55l69 -199l69 199h47l68 -199l71 199h55l-100 -263h-49l-69 198l-69 -198h-47z" />
    <glyph glyph-name="x.sups" horiz-adv-x="294" 
d="M7 401l108 131l-107 132h62l76 -96l76 96h64l-108 -132l110 -131h-65l-77 97l-77 -97h-62z" />
    <glyph glyph-name="y.sups" horiz-adv-x="347" 
d="M251 664h53v-266q0 -63 -41 -96q-35 -28 -93 -28q-60 0 -99 28q-34 25 -34 68h54q0 -56 79 -56q81 0 81 81v66q-11 -28 -38 -46t-65 -18q-111 0 -111 116v151h53v-142q0 -81 75 -81q41 0 63.5 27t22.5 64v132z" />
    <glyph glyph-name="z.sups" horiz-adv-x="275" 
d="M11 401l170 218h-160v45h245l-171 -219h166v-44h-250z" />
    <glyph glyph-name="zero.case" horiz-adv-x="607" 
d="M303 -10q-124 0 -188.5 92.5t-64.5 270.5t64.5 271t188.5 93q125 0 189.5 -93t64.5 -271t-65 -270.5t-189 -92.5zM303 49q190 0 190 304q0 303 -190 303q-189 0 -189 -303q0 -304 189 -304z" />
    <glyph glyph-name="one.case" horiz-adv-x="356" 
d="M172 0v522h-139v59q85 0 114 25t29 94h62v-700h-66z" />
    <glyph glyph-name="two.case" horiz-adv-x="558" 
d="M55 0q0 119 38.5 187.5t132.5 116.5l109 56q101 51 101 161q0 60 -38 97t-99 37q-74 0 -116.5 -48t-42.5 -130h-69q0 109 62 173.5t166 64.5q95 0 151.5 -52t56.5 -139q0 -138 -132 -209l-109 -57q-70 -37 -99 -80.5t-34 -115.5h377v-62h-455z" />
    <glyph glyph-name="three.case" horiz-adv-x="553" 
d="M277 -10q-108 0 -171 58t-63 159h68q0 -73 44.5 -116t121.5 -43q72 0 115.5 39.5t43.5 103.5q0 67 -42.5 105.5t-117.5 38.5h-53v60h53q69 0 107.5 35t38.5 98q0 58 -40 93.5t-105 35.5q-70 0 -112 -38.5t-42 -104.5h-66q0 91 60 146t159 55q97 0 155.5 -51.5
t58.5 -135.5q0 -64 -34 -106t-99 -56q62 -5 104 -55t42 -120q0 -90 -62.5 -145.5t-163.5 -55.5z" />
    <glyph glyph-name="four.case" horiz-adv-x="567" 
d="M530 299v-62h-115v-238h-67v238h-278v463h67v-401h211v218h67v-218h115z" />
    <glyph glyph-name="five.case" horiz-adv-x="569" 
d="M291 -10q-98 0 -159 50.5t-66 135.5h68q3 -58 46 -92t112 -34q77 0 122 50t45 136q0 83 -41.5 130t-114.5 47q-63 0 -100 -23t-59 -73h-64v383h401v-62h-340v-251q51 84 170 84q99 0 156 -62.5t57 -170.5q0 -113 -63.5 -180.5t-169.5 -67.5z" />
    <glyph glyph-name="six.case" horiz-adv-x="563" 
d="M280 481q106 0 170.5 -71t64.5 -176t-64.5 -175.5t-170.5 -70.5q-105 0 -169.5 70.5t-64.5 175.5q0 93 52 162l199 304h81l-150 -224q27 5 52 5zM280 47q78 0 124.5 53.5t46.5 133.5q0 81 -46.5 134.5t-124.5 53.5t-124 -53.5t-46 -134.5q0 -80 46 -133.5t124 -53.5z" />
    <glyph glyph-name="seven.case" horiz-adv-x="489" 
d="M63 0l334 637h-352v63h454l-362 -700h-74z" />
    <glyph glyph-name="eight.case" horiz-adv-x="567" 
d="M283 -10q-106 0 -169.5 54t-63.5 145q0 68 36.5 114.5t101.5 60.5q-60 14 -94 58.5t-34 107.5q0 83 61.5 134t161.5 51t162 -51t62 -134q0 -62 -34.5 -107t-94.5 -59q65 -14 102 -60.5t37 -114.5q0 -91 -64 -145t-170 -54zM283 392q71 0 113 36t42 96q0 61 -42 98
t-113 37q-70 0 -112 -37t-42 -98q0 -60 42.5 -96t111.5 -36zM283 48q75 0 120.5 39.5t45.5 104.5q0 67 -45 106t-121 39q-74 0 -119.5 -39.5t-45.5 -105.5q0 -65 45.5 -104.5t119.5 -39.5z" />
    <glyph glyph-name="nine.case" horiz-adv-x="543" 
d="M165 0l160 239q-29 -19 -63 -19q-106 0 -170 71.5t-64 177.5t64 177t170 71t170.5 -71t64.5 -177q0 -87 -55 -170l-197 -299h-80zM262 280q78 0 124.5 53.5t46.5 135.5q0 81 -46.5 134.5t-124.5 53.5t-124 -53.5t-46 -134.5q0 -82 46 -135.5t124 -53.5z" />
    <glyph glyph-name="zero.case.zero" horiz-adv-x="607" 
d="M303 717q125 0 189.5 -93t64.5 -271t-65 -270.5t-189 -92.5t-188.5 92.5t-64.5 270.5t64.5 271t188.5 93zM114 353q0 -177 65 -251l220 527q-41 27 -96 27q-189 0 -189 -303zM303 49q190 0 190 304q0 171 -62 247l-220 -526q38 -25 92 -25z" />
    <glyph glyph-name="zero.tf.case" 
d="M320 -13q-106 0 -174.5 70.5t-68.5 174.5v234q0 106 68.5 177.5t174.5 71.5t174.5 -71.5t68.5 -177.5v-234q0 -104 -68.5 -174.5t-174.5 -70.5zM320 49q77 0 126.5 53t49.5 130v234q0 79 -49 133t-127 54t-127 -54t-49 -133v-234q0 -77 49.5 -130t126.5 -53z" />
    <glyph glyph-name="one.tf.case" 
d="M358 62h207v-62h-490v62h217v460h-183v59h19q88 0 127.5 26.5t43.5 92.5h59v-638z" />
    <glyph glyph-name="two.tf.case" 
d="M64 0q0 119 43.5 187.5t149.5 116.5l124 56q116 51 116 161q0 60 -44 97.5t-115 37.5q-85 0 -135 -48t-50 -131h-71q0 109 70 174t186 65q106 0 169 -52t63 -140q0 -145 -148 -213l-124 -57q-81 -37 -115 -79t-38 -113h434v-62h-515z" />
    <glyph glyph-name="three.tf.case" 
d="M323 -10q-120 0 -189.5 58t-69.5 159h71q0 -73 51 -116t137 -43q82 0 132 39.5t50 103.5q0 67 -48 105.5t-133 38.5h-60v60h60q78 0 122 35t44 98q0 58 -46 94t-120 36q-80 0 -128 -39t-48 -105h-68q0 92 66.5 147t176.5 55q107 0 172.5 -51.5t65.5 -136.5
q0 -64 -39 -106t-112 -56q70 -5 117.5 -55t47.5 -120q0 -91 -69.5 -146t-182.5 -55z" />
    <glyph glyph-name="four.tf.case" 
d="M575 299v-62h-150v-238h-69v238h-291v463h69v-401h222v218h69v-218h150z" />
    <glyph glyph-name="five.tf.case" 
d="M312 -10q-105 0 -172.5 50.5t-72.5 135.5h69q4 -58 52.5 -92t123.5 -34q90 0 140.5 49.5t50.5 135.5q0 84 -48 131t-134 47q-126 0 -172 -96h-67v383h466v-62h-402v-251q52 84 187 84q111 0 175 -63t64 -171q0 -114 -70 -180.5t-190 -66.5z" />
    <glyph glyph-name="six.tf.case" 
d="M321 481q115 0 185.5 -69.5t70.5 -177.5t-70.5 -177t-186.5 -69t-186.5 69t-70.5 176q0 91 52 157l223 310h83l-167 -226q29 7 67 7zM320 47q85 0 138 53t53 134q0 82 -53 135t-138 53t-138 -53t-53 -135q0 -81 53 -134t138 -53z" />
    <glyph glyph-name="seven.tf.case" 
d="M107 0l370 637h-413v63h521l-402 -700h-76z" />
    <glyph glyph-name="eight.tf.case" 
d="M320 -10q-114 0 -182.5 54t-68.5 145q0 68 40 114.5t111 60.5q-66 14 -103 58.5t-37 107.5q0 83 66.5 134t173.5 51t173.5 -51t66.5 -134q0 -63 -37.5 -107.5t-103.5 -58.5q71 -14 111.5 -60.5t40.5 -114.5q0 -91 -68.5 -145t-182.5 -54zM320 392q78 0 124 36t46 96
q0 61 -46.5 98t-123.5 37t-123.5 -37t-46.5 -98q0 -60 46.5 -96t123.5 -36zM320 48q82 0 131.5 39.5t49.5 104.5q0 67 -49 106t-132 39q-82 0 -131.5 -39.5t-49.5 -105.5q0 -65 49.5 -104.5t131.5 -39.5z" />
    <glyph glyph-name="nine.tf.case" 
d="M577 470q0 -94 -53 -159l-222 -311h-83l166 227q-29 -7 -66 -7q-115 0 -185.5 70t-70.5 179t70.5 178.5t186.5 69.5t186.5 -69.5t70.5 -177.5zM129 469q0 -83 53 -136t138 -53t138 53t53 136q0 82 -53 135t-138 53t-138 -53t-53 -135z" />
    <glyph glyph-name="zero.tf.case.zero" 
d="M320 715q106 0 174.5 -71.5t68.5 -177.5v-234q0 -104 -68.5 -174.5t-174.5 -70.5t-174.5 70.5t-68.5 174.5v234q0 106 68.5 177.5t174.5 71.5zM144 232q0 -75 47 -127l221 523q-41 25 -92 25q-78 0 -127 -54t-49 -133v-234zM496 232v234q0 77 -46 129l-220 -523
q43 -23 90 -23q77 0 126.5 53t49.5 130z" />
    <glyph glyph-name="zero.subs" horiz-adv-x="412" 
d="M206 -82q-78 0 -119 52.5t-41 152.5t41 152t119 52t119 -52t41 -152t-41 -152.5t-119 -52.5zM206 -34q104 0 104 157q0 156 -104 156q-103 0 -103 -156q0 -157 103 -157z" />
    <glyph glyph-name="one.subs" horiz-adv-x="266" 
d="M125 -75v282h-90v43q56 0 76 15.5t20 53.5h48v-394h-54z" />
    <glyph glyph-name="two.subs" horiz-adv-x="373" 
d="M39 -75q0 69 23.5 108.5t81.5 67.5l67 32q58 26 58 82q0 30 -20.5 48t-54.5 18q-41 0 -64.5 -23.5t-23.5 -65.5h-57q0 61 39.5 98t104.5 37q61 0 97.5 -30t36.5 -80q0 -79 -80 -117l-66 -32q-38 -18 -54.5 -39.5t-19.5 -56.5h220v-47h-288z" />
    <glyph glyph-name="three.subs" horiz-adv-x="381" 
d="M189 -82q-69 0 -107.5 33t-38.5 92h57q0 -37 24 -58.5t66 -21.5q40 0 63.5 19.5t23.5 52.5q0 34 -23 53t-65 19h-37v44h37q39 0 60.5 17.5t21.5 49.5q0 29 -22 47t-58 18q-38 0 -61 -19.5t-23 -51.5h-57q0 51 38.5 83t103.5 32q62 0 99 -29t37 -77q0 -74 -83 -91
q39 -4 64 -31t25 -66q0 -52 -39.5 -83.5t-105.5 -31.5z" />
    <glyph glyph-name="four.subs" horiz-adv-x="384" 
d="M349 101v-49h-64v-127h-55v127h-171v267h55v-218h116v117h55v-117h64z" />
    <glyph glyph-name="five.subs" horiz-adv-x="390" 
d="M198 -82q-63 0 -101.5 29.5t-40.5 80.5h55q1 -29 25.5 -46.5t62.5 -17.5q43 0 68.5 25.5t25.5 70.5q0 42 -24 65.5t-65 23.5q-65 0 -88 -48h-51v218h256v-44h-205v-127q31 44 101 44q59 0 94.5 -35t35.5 -96q0 -65 -40.5 -104t-108.5 -39z" />
    <glyph glyph-name="six.subs" horiz-adv-x="387" 
d="M193 202q67 0 107.5 -40.5t40.5 -101.5t-40.5 -102t-107.5 -41q-66 0 -107 41t-41 102q0 57 34 94l115 165h65l-87 -118q7 1 21 1zM193 -37q43 0 68 27.5t25 69.5t-25 69t-68 27t-68.5 -27t-25.5 -69t25.5 -69.5t68.5 -27.5z" />
    <glyph glyph-name="seven.subs" horiz-adv-x="343" 
d="M54 -75l195 346h-206v48h289l-214 -394h-64z" />
    <glyph glyph-name="eight.subs" horiz-adv-x="389" 
d="M194 -82q-67 0 -107 30t-40 82q0 38 22 64.5t63 33.5q-37 9 -57.5 34t-20.5 59q0 48 38.5 77t101.5 29t102 -29t39 -77q0 -34 -21 -59t-57 -34q41 -7 63 -33.5t22 -64.5q0 -52 -40.5 -82t-107.5 -30zM194 149q40 0 63.5 18.5t23.5 49.5t-24 50.5t-63 19.5
q-38 0 -62 -19.5t-24 -50.5t24 -49.5t62 -18.5zM194 -41q42 0 67 21t25 54q0 34 -25 54t-67 20q-41 0 -66 -20t-25 -54q0 -33 25 -54t66 -21z" />
    <glyph glyph-name="nine.subs" horiz-adv-x="387" 
d="M342 185q0 -56 -33 -95l-116 -165h-65l87 118q-7 -1 -21 -1q-67 0 -107.5 40.5t-40.5 102.5q0 61 40.5 101.5t107.5 40.5q66 0 107 -40.5t41 -101.5zM101 185q0 -42 25 -69.5t68 -27.5t68.5 27.5t25.5 69.5q0 41 -25.5 68.5t-68.5 27.5t-68 -27.5t-25 -68.5z" />
    <glyph glyph-name="zero.dnom" horiz-adv-x="412" 
d="M206 -7q-78 0 -119 52.5t-41 152.5t41 152t119 52t119 -52t41 -152t-41 -152.5t-119 -52.5zM206 41q104 0 104 157q0 156 -104 156q-103 0 -103 -156q0 -157 103 -157z" />
    <glyph glyph-name="one.dnom" horiz-adv-x="266" 
d="M125 0v282h-90v43q56 0 76 15t20 54h48v-394h-54z" />
    <glyph glyph-name="two.dnom" horiz-adv-x="373" 
d="M39 0q0 69 23.5 108.5t81.5 67.5l67 32q58 26 58 82q0 30 -20.5 48t-54.5 18q-41 0 -64.5 -23.5t-23.5 -65.5h-57q0 61 39.5 97.5t104.5 36.5q62 0 98 -29.5t36 -79.5q0 -79 -80 -117l-66 -32q-38 -18 -54.5 -39.5t-19.5 -56.5h220v-47h-288z" />
    <glyph glyph-name="three.dnom" horiz-adv-x="381" 
d="M189 -7q-69 0 -107.5 33t-38.5 92h57q0 -37 24 -58.5t66 -21.5q40 0 63.5 19.5t23.5 52.5q0 34 -23 53t-65 19h-37v44h37q39 0 60.5 17.5t21.5 49.5q0 29 -22 47t-58 18q-38 0 -61 -19.5t-23 -51.5h-57q0 51 38.5 82.5t103.5 31.5q62 0 99 -28.5t37 -76.5q0 -75 -83 -92
q39 -3 64 -30.5t25 -66.5q0 -51 -39.5 -82.5t-105.5 -31.5z" />
    <glyph glyph-name="four.dnom" horiz-adv-x="384" 
d="M349 176v-49h-64v-128h-55v128h-171v267h55v-218h116v116h55v-116h64z" />
    <glyph glyph-name="five.dnom" horiz-adv-x="390" 
d="M198 -7q-63 0 -101.5 29.5t-40.5 80.5h55q1 -29 25.5 -46.5t62.5 -17.5q43 0 68.5 25.5t25.5 69.5q0 42 -23.5 66t-65.5 24q-65 0 -88 -48h-51v218h256v-44h-205v-127q31 44 101 44q60 0 95 -35.5t35 -96.5q0 -65 -40.5 -103.5t-108.5 -38.5z" />
    <glyph glyph-name="six.dnom" horiz-adv-x="387" 
d="M193 277q67 0 107.5 -40.5t40.5 -102.5q0 -61 -40.5 -101.5t-107.5 -40.5q-66 0 -107 40.5t-41 101.5q0 56 33 95l116 165h65l-87 -118q7 1 21 1zM193 38q43 0 68 27.5t25 68.5q0 42 -25 69.5t-68 27.5t-68.5 -27.5t-25.5 -69.5q0 -41 25.5 -68.5t68.5 -27.5z" />
    <glyph glyph-name="seven.dnom" horiz-adv-x="343" 
d="M54 0l195 346h-206v48h289l-214 -394h-64z" />
    <glyph glyph-name="eight.dnom" horiz-adv-x="389" 
d="M194 -7q-67 0 -107 30t-40 81q0 39 22 65.5t63 33.5q-37 8 -57.5 33t-20.5 60q0 48 38.5 76.5t101.5 28.5t102 -28.5t39 -76.5q0 -35 -21 -60t-57 -33q41 -7 63 -33.5t22 -65.5q0 -51 -40.5 -81t-107.5 -30zM194 224q40 0 63.5 18.5t23.5 49.5t-24 50.5t-63 19.5
q-38 0 -62 -19.5t-24 -50.5t24 -49.5t62 -18.5zM194 34q42 0 67 21t25 54q0 34 -25 54t-67 20q-41 0 -66 -20t-25 -54q0 -33 25 -54t66 -21z" />
    <glyph glyph-name="nine.dnom" horiz-adv-x="387" 
d="M342 260q0 -56 -33 -95l-116 -165h-65l87 118q-7 -1 -21 -1q-67 0 -107.5 40.5t-40.5 102.5q0 61 40.5 101.5t107.5 40.5q66 0 107 -40.5t41 -101.5zM101 260q0 -42 25 -69.5t68 -27.5t68.5 27.5t25.5 69.5q0 41 -25.5 68.5t-68.5 27.5t-68 -27.5t-25 -68.5z" />
    <glyph glyph-name="zero.numr" horiz-adv-x="412" 
d="M206 279q-78 0 -119 52.5t-41 152.5t41 152t119 52t119 -52t41 -152t-41 -152.5t-119 -52.5zM206 327q104 0 104 157q0 156 -104 156q-103 0 -103 -156q0 -157 103 -157z" />
    <glyph glyph-name="one.numr" horiz-adv-x="266" 
d="M125 286v282h-90v43q56 0 76 15t20 54h48v-394h-54z" />
    <glyph glyph-name="two.numr" horiz-adv-x="373" 
d="M39 286q0 69 23.5 108.5t81.5 67.5l67 32q58 26 58 82q0 30 -20.5 48t-54.5 18q-41 0 -64.5 -23.5t-23.5 -65.5h-57q0 61 39.5 97.5t104.5 36.5q62 0 98 -29.5t36 -79.5q0 -79 -80 -117l-66 -32q-38 -18 -54.5 -39.5t-19.5 -56.5h220v-47h-288z" />
    <glyph glyph-name="three.numr" horiz-adv-x="381" 
d="M189 279q-69 0 -107.5 33t-38.5 92h57q0 -37 24 -58.5t66 -21.5q40 0 63.5 19.5t23.5 52.5q0 34 -23 53t-65 19h-37v44h37q39 0 60.5 17.5t21.5 49.5q0 29 -22 47t-58 18q-38 0 -61 -19.5t-23 -51.5h-57q0 51 38.5 82.5t103.5 31.5q62 0 99 -28.5t37 -76.5q0 -75 -83 -92
q39 -3 64 -30.5t25 -66.5q0 -51 -39.5 -82.5t-105.5 -31.5z" />
    <glyph glyph-name="four.numr" horiz-adv-x="384" 
d="M349 462v-49h-64v-128h-55v128h-171v267h55v-218h116v116h55v-116h64z" />
    <glyph glyph-name="five.numr" horiz-adv-x="390" 
d="M198 279q-63 0 -101.5 29.5t-40.5 80.5h55q1 -29 25.5 -46.5t62.5 -17.5q43 0 68.5 25.5t25.5 69.5q0 42 -23.5 66t-65.5 24q-65 0 -88 -48h-51v218h256v-44h-205v-127q31 44 101 44q60 0 95 -35.5t35 -96.5q0 -65 -40.5 -103.5t-108.5 -38.5z" />
    <glyph glyph-name="six.numr" horiz-adv-x="387" 
d="M193 563q67 0 107.5 -40.5t40.5 -102.5q0 -61 -40.5 -101.5t-107.5 -40.5q-66 0 -107 40.5t-41 101.5q0 56 33 95l116 165h65l-87 -118q7 1 21 1zM193 324q43 0 68 27.5t25 68.5q0 42 -25 69.5t-68 27.5t-68.5 -27.5t-25.5 -69.5q0 -41 25.5 -68.5t68.5 -27.5z" />
    <glyph glyph-name="seven.numr" horiz-adv-x="343" 
d="M54 286l195 346h-206v48h289l-214 -394h-64z" />
    <glyph glyph-name="eight.numr" horiz-adv-x="389" 
d="M194 279q-67 0 -107 30t-40 81q0 39 22 65.5t63 33.5q-37 8 -57.5 33t-20.5 60q0 48 38.5 76.5t101.5 28.5t102 -28.5t39 -76.5q0 -35 -21 -60t-57 -33q41 -7 63 -33.5t22 -65.5q0 -51 -40.5 -81t-107.5 -30zM194 510q40 0 63.5 18.5t23.5 49.5t-24 50.5t-63 19.5
q-38 0 -62 -19.5t-24 -50.5t24 -49.5t62 -18.5zM194 320q42 0 67 21t25 54q0 34 -25 54t-67 20q-41 0 -66 -20t-25 -54q0 -33 25 -54t66 -21z" />
    <glyph glyph-name="nine.numr" horiz-adv-x="387" 
d="M342 546q0 -56 -33 -95l-116 -165h-65l87 118q-7 -1 -21 -1q-67 0 -107.5 40.5t-40.5 102.5q0 61 40.5 101.5t107.5 40.5q66 0 107 -40.5t41 -101.5zM101 546q0 -42 25 -69.5t68 -27.5t68.5 27.5t25.5 69.5q0 41 -25.5 68.5t-68.5 27.5t-68 -27.5t-25 -68.5z" />
    <glyph glyph-name="zero.sups" horiz-adv-x="412" 
d="M206 393q-78 0 -119 52.5t-41 152.5t41 152t119 52t119 -52t41 -152t-41 -152.5t-119 -52.5zM206 441q104 0 104 157q0 156 -104 156q-103 0 -103 -156q0 -157 103 -157z" />
    <glyph glyph-name="four.sups" horiz-adv-x="384" 
d="M349 576v-49h-64v-128h-55v128h-171v267h55v-218h116v116h55v-116h64z" />
    <glyph glyph-name="five.sups" horiz-adv-x="390" 
d="M198 393q-63 0 -101.5 29.5t-40.5 80.5h55q1 -29 25.5 -46.5t62.5 -17.5q43 0 68.5 25.5t25.5 69.5q0 42 -23.5 66t-65.5 24q-65 0 -88 -48h-51v218h256v-44h-205v-127q31 44 101 44q60 0 95 -35.5t35 -96.5q0 -65 -40.5 -103.5t-108.5 -38.5z" />
    <glyph glyph-name="six.sups" horiz-adv-x="387" 
d="M193 677q67 0 107.5 -40.5t40.5 -102.5q0 -61 -40.5 -101.5t-107.5 -40.5q-66 0 -107 40.5t-41 101.5q0 56 33 95l116 165h65l-87 -118q7 1 21 1zM193 438q43 0 68 27.5t25 68.5q0 42 -25 69.5t-68 27.5t-68.5 -27.5t-25.5 -69.5q0 -41 25.5 -68.5t68.5 -27.5z" />
    <glyph glyph-name="seven.sups" horiz-adv-x="343" 
d="M54 400l195 346h-206v48h289l-214 -394h-64z" />
    <glyph glyph-name="eight.sups" horiz-adv-x="389" 
d="M194 393q-67 0 -107 30t-40 81q0 39 22 65.5t63 33.5q-37 8 -57.5 33t-20.5 60q0 48 38.5 76.5t101.5 28.5t102 -28.5t39 -76.5q0 -35 -21 -60t-57 -33q41 -7 63 -33.5t22 -65.5q0 -51 -40.5 -81t-107.5 -30zM194 624q40 0 63.5 18.5t23.5 49.5t-24 50.5t-63 19.5
q-38 0 -62 -19.5t-24 -50.5t24 -49.5t62 -18.5zM194 434q42 0 67 21t25 54q0 34 -25 54t-67 20q-41 0 -66 -20t-25 -54q0 -33 25 -54t66 -21z" />
    <glyph glyph-name="nine.sups" horiz-adv-x="387" 
d="M342 660q0 -56 -33 -95l-116 -165h-65l87 118q-7 -1 -21 -1q-67 0 -107.5 40.5t-40.5 102.5q0 61 40.5 101.5t107.5 40.5q66 0 107 -40.5t41 -101.5zM101 660q0 -42 25 -69.5t68 -27.5t68.5 27.5t25.5 69.5q0 41 -25.5 68.5t-68.5 27.5t-68 -27.5t-25 -68.5z" />
    <glyph glyph-name="colon.case" horiz-adv-x="283" 
d="M141 352q-25 0 -43 18t-18 44t18 43.5t43 17.5q26 0 44 -18t18 -43q0 -26 -18.5 -44t-43.5 -18zM141 -6q-25 0 -43 18t-18 43q0 26 18 44t43 18t43.5 -18.5t18.5 -43.5t-18 -43t-44 -18z" />
    <glyph glyph-name="semicolon.case" horiz-adv-x="292" 
d="M141 352q-25 0 -43 18t-18 43t18 43t43 18q26 0 44 -18t18 -43t-18 -43t-44 -18zM112 -118q-16 0 -29 3v34q20 -2 30 -2q47 0 57 44q7 17 4 49q-13 -14 -36 -14q-25 0 -41.5 16t-16.5 42t17 43t44 17q34 0 58.5 -28.5t24.5 -78.5q0 -57 -30 -91t-82 -34z" />
    <glyph glyph-name="exclamdown.case" horiz-adv-x="254" 
d="M126 706q26 0 44 -17.5t18 -43.5t-18 -44t-44 -18q-25 0 -42.5 18t-17.5 44t17.5 43.5t42.5 17.5zM95 502h64v-502h-64v502z" />
    <glyph glyph-name="questiondown.case" horiz-adv-x="475" 
d="M262 706q25 0 42.5 -17.5t17.5 -43.5t-17.5 -44t-42.5 -18q-26 0 -44 18t-18 44t18 43.5t44 17.5zM293 502v-20q0 -51 -14.5 -81.5t-52.5 -57.5l-54 -37q-73 -51 -73 -135q0 -57 37.5 -92.5t104.5 -35.5q71 0 112.5 43.5t41.5 119.5h67q0 -103 -60 -163t-164 -60
q-99 0 -153.5 52t-54.5 134q0 103 98 176l49 35q29 21 40.5 42.5t11.5 60.5v19h64z" />
    <glyph glyph-name="period.tf" horiz-adv-x="320" 
d="M159 -6q-25 0 -43 18t-18 43q0 26 18 44t43 18t43.5 -18.5t18.5 -43.5t-18 -43t-44 -18z" />
    <glyph glyph-name="comma.tf" horiz-adv-x="320" 
d="M120 -118q-17 0 -29 3v34q20 -2 30 -2q47 0 57 44q7 22 3 49q-11 -14 -36 -14t-41 16t-16 42t17 43t44 17q33 0 58 -28.5t25 -78.5q0 -57 -30.5 -91t-81.5 -34z" />
    <glyph glyph-name="colon.tf" horiz-adv-x="320" 
d="M159 342q-25 0 -43 18t-18 44q0 25 18 43t43 18t43.5 -18t18.5 -43q0 -26 -18.5 -44t-43.5 -18zM159 -6q-25 0 -43 18t-18 43q0 26 18 44t43 18t43.5 -18.5t18.5 -43.5t-18 -43t-44 -18z" />
    <glyph glyph-name="semicolon.tf" horiz-adv-x="320" 
d="M148 327q-25 0 -42.5 18t-17.5 43q0 26 17.5 44t42.5 18q26 0 44 -18t18 -44q0 -25 -18 -43t-44 -18zM120 -118q-17 0 -29 3v34q20 -2 30 -2q47 0 57 44q7 22 3 49q-11 -14 -36 -14t-41 16t-16 42t17 43t44 17q33 0 58 -28.5t25 -78.5q0 -57 -30.5 -91t-81.5 -34z" />
    <glyph glyph-name="slash.tf" 
d="M174 -60l-52 22l343 795l52 -22z" />
    <glyph glyph-name="parenleft.case" horiz-adv-x="310" 
d="M281 -111q-216 189 -216 462q0 274 216 463l39 -37q-95 -91 -143 -193.5t-48 -232.5t48 -232t143 -193z" />
    <glyph glyph-name="parenright.case" horiz-adv-x="310" 
d="M30 -111l-40 37q95 90 143 192.5t48 232.5q0 131 -48 233t-143 193l40 37q215 -188 215 -463q0 -274 -215 -462z" />
    <glyph glyph-name="braceleft.case" horiz-adv-x="309" 
d="M249 -114q-52 0 -92 36.5t-40 102.5v204q0 44 -31 69t-61 25v54q30 0 61 25t31 69v204q0 66 40 102.5t92 36.5h53v-53h-45q-38 0 -59.5 -27t-21.5 -70v-201q0 -50 -27 -77t-61 -36q34 -9 61 -36t27 -77v-201q0 -43 21.5 -70t59.5 -27h45v-53h-53z" />
    <glyph glyph-name="braceright.case" horiz-adv-x="309" 
d="M60 -114h-52v53h44q39 0 60 27t21 70v201q0 51 27 77.5t62 35.5q-35 9 -62 35.5t-27 77.5v201q0 43 -21 70t-60 27h-44v53h52q52 0 92 -36.5t40 -102.5v-204q0 -44 31 -69t61 -25v-54q-30 0 -61 -25t-31 -69v-204q0 -66 -40 -102.5t-92 -36.5z" />
    <glyph glyph-name="bracketleft.case" horiz-adv-x="284" 
d="M85 -113v926h192v-54h-133v-819h133v-53h-192z" />
    <glyph glyph-name="bracketright.case" horiz-adv-x="284" 
d="M199 -113h-192v53h133v819h-133v54h192v-926z" />
    <glyph glyph-name="parenleft.tf" 
d="M408 -191q-216 189 -216 462q0 274 216 463l39 -37q-95 -91 -143 -193.5t-48 -232.5t48 -232t143 -193z" />
    <glyph glyph-name="parenright.tf" 
d="M232 -191l-40 37q95 90 143 192.5t48 232.5q0 131 -48 233t-143 193l40 37q215 -188 215 -463q0 -274 -215 -462z" />
    <glyph glyph-name="hyphen.case" horiz-adv-x="371" 
d="M35 316v58h281v-58h-281z" />
    <glyph glyph-name="endash.case" horiz-adv-x="564" 
d="M25 318v53h484v-53h-484z" />
    <glyph glyph-name="emdash.case" horiz-adv-x="778" 
d="M55 318v53h668v-53h-668z" />
    <glyph glyph-name="underscore.case" horiz-adv-x="510" 
d="M0 -64v47h510v-47h-510z" />
    <glyph glyph-name="hyphen.tf" 
d="M119 231v58h401v-58h-401z" />
    <glyph glyph-name="underscore.tf" 
d="M0 -215v47h640v-47h-640z" />
    <glyph glyph-name="guillemotleft.case" horiz-adv-x="481" 
d="M212 145l-204 189l204 188l38 -38l-163 -150l163 -151zM425 145l-205 189l205 188l38 -38l-163 -150l163 -151z" />
    <glyph glyph-name="guillemotright.case" horiz-adv-x="481" 
d="M55 145l-37 38l163 151l-163 150l37 38l205 -188zM268 145l-38 38l164 151l-164 150l38 38l205 -188z" />
    <glyph glyph-name="guilsinglleft.case" horiz-adv-x="268" 
d="M212 145l-204 189l204 188l38 -38l-163 -150l163 -151z" />
    <glyph glyph-name="guilsinglright.case" horiz-adv-x="268" 
d="M55 145l-37 38l163 151l-163 150l37 38l205 -188z" />
    <glyph glyph-name="quotedbl.case" horiz-adv-x="388" 
d="M175 653q0 -12 -2 -20l-37 -178h-36l-38 178q-2 16 -2 20q0 24 16.5 40.5t40.5 16.5q25 0 41.5 -16.5t16.5 -40.5zM328 653q0 -12 -2 -20l-37 -178h-36l-38 178q-2 8 -2 20q0 24 16.5 40.5t40.5 16.5q25 0 41.5 -16.5t16.5 -40.5z" />
    <glyph glyph-name="quotesingle.case" horiz-adv-x="235" 
d="M175 653q0 -12 -2 -20l-37 -178h-36l-38 178q-2 16 -2 20q0 24 16.5 40.5t40.5 16.5q25 0 41.5 -16.5t16.5 -40.5z" />
    <glyph glyph-name="parenleft.dnom" horiz-adv-x="227" 
d="M174 -91q-120 116 -120 272q0 155 120 273l38 -32q-55 -53 -81.5 -109.5t-26.5 -131.5t26 -131t82 -109z" />
    <glyph glyph-name="parenright.dnom" horiz-adv-x="227" 
d="M53 -91l-38 32q56 53 82 109t26 131t-26.5 131.5t-81.5 109.5l38 32q120 -118 120 -273q0 -156 -120 -272z" />
    <glyph glyph-name="parenleft.numr" horiz-adv-x="227" 
d="M174 219q-120 116 -120 272q0 155 120 273l38 -32q-55 -53 -81.5 -109.5t-26.5 -131.5t26 -131t82 -109z" />
    <glyph glyph-name="parenright.numr" horiz-adv-x="227" 
d="M53 219l-38 32q56 53 82 109t26 131t-26.5 131.5t-81.5 109.5l38 32q120 -118 120 -273q0 -156 -120 -272z" />
    <glyph glyph-name="parenleft.subs" horiz-adv-x="227" 
d="M174 -153q-120 116 -120 272q0 155 120 273l38 -32q-55 -53 -81.5 -109.5t-26.5 -131.5t26 -131t82 -109z" />
    <glyph glyph-name="parenright.subs" horiz-adv-x="227" 
d="M53 -153l-38 32q56 53 82 109t26 131t-26.5 131.5t-81.5 109.5l38 32q120 -118 120 -273q0 -156 -120 -272z" />
    <glyph glyph-name="parenleft.sups" horiz-adv-x="227" 
d="M174 329q-120 116 -120 272q0 155 120 273l38 -32q-55 -53 -81.5 -109.5t-26.5 -131.5t26 -131t82 -109z" />
    <glyph glyph-name="parenright.sups" horiz-adv-x="227" 
d="M53 329l-38 32q56 53 82 109t26 131t-26.5 131.5t-81.5 109.5l38 32q120 -118 120 -273q0 -156 -120 -272z" />
    <glyph glyph-name="uni0E3F.case" horiz-adv-x="579" 
d="M391 354q60 -9 99 -53.5t39 -113.5q0 -87 -57 -137t-154 -50h-8v-101h-50v101h-175v700h175v102h50v-102h2q97 0 153.5 -48t56.5 -132q0 -70 -35.5 -113t-95.5 -53zM309 640h-157v-257h170q59 0 96 35t37 94q0 60 -39 94t-107 34zM317 61q67 0 106 35t39 97
q0 58 -37.5 94.5t-93.5 36.5h-179v-263h165z" />
    <glyph glyph-name="uni20BF.case" horiz-adv-x="579" 
d="M529 187q0 -78 -46.5 -127t-128.5 -58v-103h-50v101h-72v-101h-51v101h-96v700h96v102h51v-102h72v102h50v-105q79 -10 123.5 -56.5t44.5 -120.5q0 -70 -35.5 -113t-95.5 -53q60 -9 99 -53.5t39 -113.5zM309 640h-157v-257h170q59 0 96 35t37 94q0 60 -39 94t-107 34z
M317 61q67 0 106 35t39 97q0 58 -37.5 94.5t-93.5 36.5h-179v-263h165z" />
    <glyph glyph-name="cent.case" horiz-adv-x="516" 
d="M266 171q60 0 98 30t47 87h65q-9 -74 -57.5 -120.5t-126.5 -53.5v-114h-51v114q-92 8 -146.5 72.5t-54.5 164.5t54.5 164.5t146.5 72.5v112h51v-112q78 -7 126.5 -54t57.5 -122h-65q-9 58 -46.5 88.5t-98.5 30.5q-75 0 -118.5 -48.5t-43.5 -131.5t43.5 -131.5
t118.5 -48.5z" />
    <glyph glyph-name="dollar.case" horiz-adv-x="556" 
d="M511 181q0 -85 -53 -137t-146 -58v-90h-50v90q-106 7 -164 70t-58 165h67q0 -79 48 -127.5t132 -48.5q74 0 115.5 35t41.5 99q0 102 -113 131l-119 30q-150 38 -150 185q0 76 54 131.5t146 60.5v93h50v-95q85 -10 134.5 -65.5t50.5 -144.5h-68q-2 72 -42 112.5t-112 40.5
q-70 0 -107.5 -36.5t-37.5 -92.5q0 -55 30 -87t93 -48l122 -32q64 -17 100 -62.5t36 -118.5z" />
    <glyph glyph-name="Euro.case" horiz-adv-x="588" 
d="M320 49q66 0 104 41t49 110h65q-14 -94 -69 -152t-149 -58q-201 0 -231 265h-66l12 48h50q-1 16 -1 50q0 33 1 49h-60l12 47h52q28 267 231 267q94 0 149 -57.5t69 -151.5h-65q-11 68 -49 108.5t-104 40.5q-79 0 -117.5 -54t-49.5 -153h224l-12 -47h-215q-1 -16 -1 -49
q0 -34 1 -50h225l-13 -48h-208q22 -206 166 -206z" />
    <glyph glyph-name="florin.case" horiz-adv-x="428" 
d="M374 658q-41 0 -66.5 -23.5t-36.5 -87.5l-15 -89h138l-10 -56h-138l-80 -468q-28 -165 -159 -165q-42 0 -69 11l9 57q27 -10 53 -10q41 0 66.5 23t35.5 82l80 470h-101l10 56h101l15 90q16 93 58 131t107 38q41 0 65 -12l-9 -56q-24 9 -54 9z" />
    <glyph glyph-name="uni20B4.case" horiz-adv-x="567" 
d="M357 354l-97 -44h267l-13 -40h-333q-53 -36 -53 -99q0 -59 38 -91.5t107 -32.5q77 0 121 38.5t44 102.5h62q0 -91 -60.5 -146t-167.5 -55q-96 0 -152 48t-56 133q0 61 29 102h-53l12 40h81q23 17 52 30l123 54h-268l12 41h327q42 37 42 106q0 53 -35.5 84.5t-97.5 31.5
q-69 0 -108 -33.5t-39 -93.5h-62q0 86 57 136.5t151 50.5q90 0 143.5 -46.5t53.5 -127.5q0 -64 -28 -108h71l-13 -41h-93q-30 -25 -64 -40z" />
    <glyph glyph-name="uni20BA.case" horiz-adv-x="457" 
d="M382 271h65q0 -271 -304 -271h-65v231l-51 -26v54l51 26v87l-51 -26v54l51 26v274h67v-240l173 88v-54l-173 -88v-87l173 88v-54l-173 -88v-203q123 0 180 53t57 156z" />
    <glyph glyph-name="uni20BD.case" horiz-adv-x="579" 
d="M331 209h-166v-71h176v-47h-176v-91h-68v91h-100v47h100v71h-100v62h100v429h234q100 0 165.5 -69t65.5 -176t-65 -176.5t-166 -69.5zM165 638v-367h163q72 0 119.5 52.5t47.5 131.5t-47.5 131t-119.5 52h-163z" />
    <glyph glyph-name="uni20B9.case" horiz-adv-x="513" 
d="M359 652q79 -62 87 -174h79l-13 -47h-66q-6 -77 -47.5 -133t-107.5 -77l147 -221h-77l-139 209h-5h-151v62h148q66 0 111.5 44.5t53.5 115.5h-314v47h314q-7 71 -52.5 115.5t-112.5 44.5h-149v62h460l-13 -48h-153z" />
    <glyph glyph-name="sterling.case" horiz-adv-x="514" 
d="M172 249q0 -126 -57 -187h358v-62h-433v48q65 65 65 189v121h-67v51h67v84q0 111 54 167.5t148 56.5q92 0 144.5 -53t52.5 -143h-68q0 65 -33.5 102t-96.5 37q-134 0 -134 -173v-78h186v-51h-186v-109z" />
    <glyph glyph-name="uni20B8.case" horiz-adv-x="510" 
d="M8 638v62h495v-62h-495zM221 0v484h-213v63h495v-63h-215v-484h-67z" />
    <glyph glyph-name="uni0E3F.tf.case" 
d="M403 354q60 -9 99.5 -53.5t39.5 -113.5q0 -87 -57.5 -137t-154.5 -50h-7v-101h-51v101h-174v700h174v102h51v-102h1q97 0 154 -48t57 -132q0 -70 -35.5 -113t-96.5 -53zM322 640h-157v-257h170q59 0 96 35t37 94q0 60 -39 94t-107 34zM329 61q67 0 106.5 35t39.5 97
q0 58 -37.5 94.5t-94.5 36.5h-178v-263h164z" />
    <glyph glyph-name="uni20BF.tf.case" 
d="M542 187q0 -77 -46.5 -126t-128.5 -59v-103h-51v101h-72v-101h-50v101h-96v700h96v102h50v-102h72v102h51v-105q79 -10 123.5 -56.5t44.5 -120.5q0 -70 -35.5 -113t-96.5 -53q60 -9 99.5 -53.5t39.5 -113.5zM322 640h-157v-257h170q59 0 96 35t37 94q0 60 -39 94t-107 34
zM329 61q67 0 106.5 35t39.5 97q0 58 -37.5 94.5t-94.5 36.5h-178v-263h164z" />
    <glyph glyph-name="cent.tf.case" 
d="M328 171q60 0 97.5 30t47.5 87h64q-8 -74 -57 -120.5t-127 -53.5v-114h-50v114q-92 8 -146.5 72.5t-54.5 164.5t54.5 164.5t146.5 72.5v112h50v-112q78 -7 127 -54t57 -122h-64q-10 58 -47.5 88.5t-97.5 30.5q-75 0 -118.5 -48.5t-43.5 -131.5t43.5 -131.5t118.5 -48.5z
" />
    <glyph glyph-name="dollar.tf.case" 
d="M555 181q0 -85 -53 -137t-146 -58v-90h-50v90q-106 7 -164 70t-58 165h67q0 -79 48 -127.5t132 -48.5q74 0 115.5 35t41.5 99q0 102 -113 131l-119 30q-150 38 -150 185q0 76 54 131.5t146 60.5v93h50v-95q85 -10 134.5 -65.5t50.5 -144.5h-68q-2 72 -42 112.5t-112 40.5
q-70 0 -107.5 -36.5t-37.5 -92.5q0 -55 30 -87t93 -48l122 -32q64 -17 100 -62.5t36 -118.5z" />
    <glyph glyph-name="Euro.tf.case" 
d="M360 49q66 0 104 41t48 110h66q-14 -94 -69 -152t-149 -58q-201 0 -231 265h-67l13 48h50q-1 16 -1 50q0 33 1 49h-60l12 47h52q28 267 231 267q94 0 149 -57.5t69 -151.5h-66q-11 69 -48.5 109t-103.5 40q-79 0 -117.5 -54t-49.5 -153h224l-12 -47h-215q-1 -16 -1 -49
q0 -34 1 -50h224l-12 -48h-208q22 -206 166 -206z" />
    <glyph glyph-name="florin.tf.case" 
d="M507 658q-41 0 -67 -23.5t-36 -87.5l-15 -89h138l-10 -56h-138l-80 -468q-28 -165 -159 -165q-42 0 -70 11l9 57q28 -10 54 -10q40 0 66 23t36 82l80 470h-101l10 56h101l15 90q16 92 58 130.5t107 38.5q41 0 64 -12l-9 -56q-24 9 -53 9z" />
    <glyph glyph-name="uni20B4.tf.case" 
d="M465 394q-28 -24 -63 -40l-98 -44h257v-40h-335q-54 -36 -54 -99q0 -58 38.5 -91t106.5 -33q77 0 121.5 38.5t44.5 102.5h62q0 -91 -61 -146t-168 -55q-95 0 -151.5 48t-56.5 133q0 62 30 102h-60v40h99q26 18 53 30l122 54h-274v41h346q42 37 42 106q0 53 -36 84.5
t-98 31.5q-69 0 -108 -33.5t-39 -93.5h-62q0 86 57 136.5t151 50.5q91 0 144.5 -46.5t53.5 -127.5q0 -64 -28 -108h60v-41h-96z" />
    <glyph glyph-name="uni20BA.tf.case" 
d="M464 271h66q0 -271 -305 -271h-64v231l-51 -26v54l51 26v87l-51 -26v54l51 26v274h67v-240l173 88v-54l-173 -88v-87l173 88v-54l-173 -88v-203q123 0 179.5 53t56.5 156z" />
    <glyph glyph-name="uni20BD.tf.case" 
d="M366 209h-161v-71h176v-47h-176v-91h-67v91h-100v47h100v71h-100v62h100v429h228q101 0 168.5 -69.5t67.5 -175.5q0 -107 -67.5 -176.5t-168.5 -69.5zM205 638v-367h163q72 0 119.5 52.5t47.5 131.5t-47.5 131t-119.5 52h-163z" />
    <glyph glyph-name="uni20B9.tf.case" 
d="M384 652q79 -62 87 -174h79l-13 -47h-66q-6 -77 -47.5 -133t-107.5 -77l147 -221h-77l-139 209h-5h-151v62h148q66 0 111.5 44.5t53.5 115.5h-314v47h314q-7 71 -52.5 115.5t-112.5 44.5h-149v62h460l-13 -48h-153z" />
    <glyph glyph-name="sterling.tf.case" 
d="M221 249q0 -126 -57 -187h358v-62h-433v48q65 65 65 189v121h-67v51h67v84q0 111 54 167.5t148 56.5q92 0 144 -53t52 -143h-67q0 65 -33.5 102t-96.5 37q-134 0 -134 -173v-78h186v-51h-186v-109z" />
    <glyph glyph-name="uni20B8.tf.case" 
d="M72 638v62h495v-62h-495zM286 0v484h-214v63h495v-63h-214v-484h-67z" />
    <glyph glyph-name="uni20AE.tf.case" 
d="M567 638h-214v-176l131 64v-54l-131 -64v-85l131 64v-55l-131 -64v-268h-67v235l-132 -64v54l132 65v85l-132 -65v54l132 65v209h-214v62h495v-62z" />
    <glyph glyph-name="uni20A9.tf.case" 
d="M624 409h-59l-17 -98h76v-52h-85l-45 -259h-67l-106 597l-106 -597h-67l-45 259h-87v52h78l-17 98h-61v51h52l-41 240h68l90 -597l106 597h60l106 -597l90 597h68l-41 -240h50v-51z" />
    <glyph glyph-name="yen.tf.case" 
d="M574 700l-218 -419h155v-47h-157v-90h157v-48h-157v-96h-68v96h-157v48h157v90h-157v47h155l-218 419h76l178 -364l178 364h76z" />
    <glyph glyph-name="uni20AE.case" horiz-adv-x="510" 
d="M503 638h-215v-176l131 64v-54l-131 -64v-85l131 64v-55l-131 -64v-268h-67v235l-132 -64v54l132 65v85l-132 -65v54l132 65v209h-213v62h495v-62z" />
    <glyph glyph-name="uni20A9.case" horiz-adv-x="770" 
d="M752 409h-87l-20 -98h107v-52h-118l-53 -259h-65l-131 595l-132 -595h-64l-53 259h-118v52h107l-20 98h-87v51h76l-49 240h68l111 -598l133 598h55l134 -598l110 598h69l-49 -240h76v-51z" />
    <glyph glyph-name="yen.case" horiz-adv-x="538" 
d="M523 700l-218 -419h155v-47h-157v-90h157v-48h-157v-96h-68v96h-158v48h158v90h-158v47h156l-218 419h76l178 -364l178 364h76z" />
    <glyph glyph-name="uni0E3F.tf" 
d="M403 345q60 -9 99.5 -52.5t39.5 -110.5q0 -84 -57.5 -133t-154.5 -49h-7v-98h-51v98h-174v681h174v99h51v-99h1q97 0 154 -46.5t57 -129.5q0 -68 -35.5 -109.5t-96.5 -50.5zM322 622h-157v-249h170q59 0 96 34t37 91q0 58 -39 91t-107 33zM329 60q67 0 106.5 34t39.5 94
q0 56 -37.5 91t-94.5 35h-178v-254h164z" />
    <glyph glyph-name="uni20BF.tf" 
d="M542 182q0 -76 -46.5 -123.5t-128.5 -56.5v-100h-51v98h-72v-98h-50v98h-96v681h96v99h50v-99h72v99h51v-102q79 -10 123.5 -55t44.5 -118q0 -68 -35.5 -109.5t-96.5 -50.5q60 -9 99.5 -52.5t39.5 -110.5zM322 622h-157v-249h170q59 0 96 34t37 91q0 58 -39 91t-107 33z
M329 60q67 0 106.5 34t39.5 94q0 56 -37.5 91t-94.5 35h-178v-254h164z" />
    <glyph glyph-name="currency.tf" 
d="M105 116l-41 41l71 71q-47 61 -47 142t47 142l-71 71l41 41l70 -71q62 49 145 49q84 0 145 -48l69 70l41 -41l-70 -70q48 -60 48 -143t-48 -143l70 -70l-41 -41l-69 70q-60 -47 -145 -47t-144 48zM320 197q75 0 122 50t47 123t-47 123.5t-122 50.5t-121.5 -50.5
t-46.5 -123.5q0 -72 46.5 -122.5t121.5 -50.5z" />
    <glyph glyph-name="uni20BA.tf" 
d="M464 263h66q0 -263 -305 -263h-64v224l-51 -25v53l51 25v84l-51 -25v53l51 25v266h67v-233l173 86v-53l-173 -86v-84l173 86v-53l-173 -86v-196q123 0 179.5 51t56.5 151z" />
    <glyph glyph-name="uni20BD.tf" 
d="M366 203h-161v-69h176v-46h-176v-88h-67v88h-100v46h100v69h-100v61h100v416h228q101 0 168.5 -67.5t67.5 -170.5q0 -104 -67.5 -171.5t-168.5 -67.5zM205 619v-355h163q72 0 119.5 50.5t47.5 127.5q0 76 -47.5 126.5t-119.5 50.5h-163z" />
    <glyph glyph-name="uni20B9.tf" 
d="M385 633q77 -60 86 -168h79l-13 -47h-66q-6 -74 -47.5 -128.5t-107.5 -75.5l147 -214h-77l-139 203h-5h-151v61h148q66 0 111.5 43t53.5 111h-314v47h314q-8 68 -53.5 111t-111.5 43h-149v61h460l-13 -47h-152z" />
    <glyph glyph-name="plus.case" horiz-adv-x="504" 
d="M221 153v167h-166v58h166v169h62v-169h166v-58h-166v-167h-62z" />
    <glyph glyph-name="minus.case" horiz-adv-x="504" 
d="M55 320v58h394v-58h-394z" />
    <glyph glyph-name="multiply.case" horiz-adv-x="477" 
d="M422 493l-142 -144l142 -142l-41 -41l-143 142l-141 -141l-42 40l143 142l-143 143l41 41l142 -142l143 142z" />
    <glyph glyph-name="divide.case" horiz-adv-x="504" 
d="M252 437q-25 0 -42 16.5t-17 41.5t17 42.5t42 17.5t42.5 -17.5t17.5 -42.5t-17.5 -41.5t-42.5 -16.5zM55 318v58h394v-58h-394zM252 144q-25 0 -42 17t-17 42t17 42t42 17t42.5 -17t17.5 -42t-17.5 -42t-42.5 -17z" />
    <glyph glyph-name="equal.case" horiz-adv-x="534" 
d="M55 408v58h424v-58h-424zM55 231v58h424v-58h-424z" />
    <glyph glyph-name="notequal.case" horiz-adv-x="534" 
d="M479 408h-156l-57 -119h213v-58h-240l-54 -114h-55l54 114h-129v58h157l56 119h-213v58h241l54 114h54l-54 -114h129v-58z" />
    <glyph glyph-name="greater.case" horiz-adv-x="501" 
d="M55 159v62l301 133l-301 133v62l391 -171v-48z" />
    <glyph glyph-name="less.case" horiz-adv-x="501" 
d="M446 159l-391 171v48l391 171v-62l-301 -133l301 -133v-62z" />
    <glyph glyph-name="greaterequal.case" horiz-adv-x="504" 
d="M57 264v62l291 83l-291 82v62l390 -120v-48zM55 136v58h394v-58h-394z" />
    <glyph glyph-name="lessequal.case" horiz-adv-x="504" 
d="M447 264l-390 121v48l390 120v-62l-291 -82l291 -83v-62zM449 136h-394v58h394v-58z" />
    <glyph glyph-name="approxequal.case" horiz-adv-x="536" 
d="M371 368q-38 0 -104.5 34t-108.5 34q-53 0 -103 -52v60q43 50 105 50q38 0 110.5 -34t100.5 -34q51 0 108 54v-59q-49 -53 -108 -53zM372 206q-38 0 -104.5 34t-108.5 34q-54 0 -102 -52v60q41 50 103 50q38 0 111 -34t101 -34q51 0 109 54v-59q-49 -53 -109 -53z" />
    <glyph glyph-name="logicalnot.case" horiz-adv-x="504" 
d="M385 243v146h-330v58h394v-204h-64z" />
    <glyph glyph-name="plus.tf.case" 
d="M289 148v167h-166v58h166v169h62v-169h166v-58h-166v-167h-62z" />
    <glyph glyph-name="minus.tf.case" 
d="M123 315v58h394v-58h-394z" />
    <glyph glyph-name="multiply.tf.case" 
d="M503 488l-142 -144l142 -142l-41 -41l-142 142l-142 -141l-42 40l143 142l-143 143l41 41l143 -142l142 142z" />
    <glyph glyph-name="divide.tf.case" 
d="M320 432q-25 0 -42 16.5t-17 41.5t17 42.5t42 17.5t42.5 -17.5t17.5 -42.5t-17.5 -41.5t-42.5 -16.5zM123 313v58h394v-58h-394zM320 139q-25 0 -42 17t-17 42t17 42t42 17t42.5 -17t17.5 -42t-17.5 -42t-42.5 -17z" />
    <glyph glyph-name="equal.tf.case" 
d="M108 403v58h424v-58h-424zM108 226v58h424v-58h-424z" />
    <glyph glyph-name="notequal.tf.case" 
d="M532 403h-156l-57 -119h213v-58h-240l-54 -114h-55l54 114h-129v58h157l56 119h-213v58h241l54 114h54l-54 -114h129v-58z" />
    <glyph glyph-name="greater.tf.case" 
d="M125 154v62l301 133l-301 133v62l390 -171v-48z" />
    <glyph glyph-name="less.tf.case" 
d="M515 154l-390 171v48l390 171v-62l-301 -133l301 -133v-62z" />
    <glyph glyph-name="greaterequal.tf.case" 
d="M125 259v62l291 83l-291 82v62l390 -120v-48zM123 131v58h394v-58h-394z" />
    <glyph glyph-name="lessequal.tf.case" 
d="M515 259l-390 121v48l390 120v-62l-291 -82l291 -83v-62zM517 131h-394v58h394v-58z" />
    <glyph glyph-name="plusminus.tf.case" 
d="M288 301v117h-165v59h165v118h64v-118h165v-59h-165v-117h-64zM123 184v57h394v-57h-394z" />
    <glyph glyph-name="approxequal.tf.case" 
d="M423 363q-38 0 -104.5 34t-109.5 34q-54 0 -102 -52v60q41 50 105 50q38 0 110.5 -34t100.5 -34q51 0 108 54v-59q-49 -53 -108 -53zM424 201q-38 0 -104.5 34t-108.5 34q-54 0 -102 -52v60q41 50 103 50q38 0 111 -34t101 -34q50 0 109 54v-59q-49 -53 -109 -53z" />
    <glyph glyph-name="logicalnot.tf.case" 
d="M453 238v146h-330v58h394v-204h-64z" />
    <glyph glyph-name="plus.tf" 
d="M289 118v167h-166v58h166v169h62v-169h166v-58h-166v-167h-62z" />
    <glyph glyph-name="minus.tf" 
d="M123 285v58h394v-58h-394z" />
    <glyph glyph-name="multiply.tf" 
d="M503 458l-142 -144l142 -142l-41 -41l-142 142l-142 -141l-42 40l143 142l-143 143l41 41l143 -142l142 142z" />
    <glyph glyph-name="divide.tf" 
d="M320 402q-25 0 -42 16.5t-17 41.5t17 42.5t42 17.5t42.5 -17.5t17.5 -42.5t-17.5 -41.5t-42.5 -16.5zM123 283v58h394v-58h-394zM320 109q-25 0 -42 17t-17 42t17 42t42 17t42.5 -17t17.5 -42t-17.5 -42t-42.5 -17z" />
    <glyph glyph-name="equal.tf" 
d="M108 373v58h424v-58h-424zM108 196v58h424v-58h-424z" />
    <glyph glyph-name="notequal.tf" 
d="M532 373h-156l-57 -119h213v-58h-240l-54 -114h-55l54 114h-129v58h157l56 119h-213v58h241l54 114h54l-54 -114h129v-58z" />
    <glyph glyph-name="greater.tf" 
d="M125 124v62l301 133l-301 133v62l390 -171v-48z" />
    <glyph glyph-name="less.tf" 
d="M515 124l-390 171v48l390 171v-62l-301 -133l301 -133v-62z" />
    <glyph glyph-name="greaterequal.tf" 
d="M125 224v62l291 83l-291 82v62l390 -120v-48zM123 96v58h394v-58h-394z" />
    <glyph glyph-name="lessequal.tf" 
d="M515 224l-390 121v48l390 120v-62l-291 -82l291 -83v-62zM517 96h-394v58h394v-58z" />
    <glyph glyph-name="plusminus.tf" 
d="M288 271v117h-165v59h165v118h64v-118h165v-59h-165v-117h-64zM123 154v57h394v-57h-394z" />
    <glyph glyph-name="approxequal.tf" 
d="M423 333q-38 0 -104.5 34t-109.5 34q-54 0 -102 -52v60q41 50 105 50q38 0 110.5 -34t100.5 -34q51 0 108 54v-59q-49 -53 -108 -53zM424 171q-38 0 -104.5 34t-108.5 34q-54 0 -102 -52v60q41 50 103 50q38 0 111 -34t101 -34q50 0 109 54v-59q-49 -53 -109 -53z" />
    <glyph glyph-name="logicalnot.tf" 
d="M453 208v146h-330v58h394v-204h-64z" />
    <glyph glyph-name="percent.tf" 
d="M124 -11l-44 25l437 682l44 -25zM167 349q-68 0 -108.5 49.5t-40.5 120.5t40.5 120.5t108.5 49.5q67 0 107.5 -49.5t40.5 -120.5t-40.5 -120.5t-107.5 -49.5zM167 398q45 0 70.5 34t25.5 87t-25.5 87t-70.5 34t-71 -34t-26 -87t26 -87t71 -34zM473 -5q-67 0 -107.5 49.5
t-40.5 120.5t40.5 120.5t107.5 49.5q68 0 108.5 -49.5t40.5 -120.5t-40.5 -120.5t-108.5 -49.5zM473 44q45 0 71 34t26 87q0 52 -26 86.5t-71 34.5t-70.5 -34t-25.5 -87t25.5 -87t70.5 -34z" />
    <glyph glyph-name="at.case" horiz-adv-x="894" 
d="M456 -61q-193 0 -304.5 112.5t-111.5 294.5q0 186 113.5 296.5t303.5 110.5q181 0 289 -105t108 -309q0 -112 -37.5 -178t-113.5 -66q-61 0 -90 34t-36 106q-19 -42 -60 -68.5t-98 -26.5q-88 0 -144 60t-56 144q0 86 56.5 146.5t144.5 60.5q55 0 96.5 -26t60.5 -69v86h55
v-282q0 -68 20 -93.5t55 -25.5q43 0 68.5 51t25.5 144q0 186 -92 277.5t-253 91.5q-167 0 -265 -97.5t-98 -262.5q0 -162 96.5 -260t267.5 -98q124 0 218 61l22 -44q-104 -65 -241 -65zM425 190q67 0 109.5 45t42.5 110t-42.5 110.5t-109.5 45.5t-109 -45.5t-42 -110.5
t42 -110t109 -45z" />
    <glyph glyph-name="bar.case" horiz-adv-x="222" 
d="M85 -113v931h52v-931h-52z" />
    <glyph glyph-name="brokenbar.case" horiz-adv-x="222" 
d="M85 402v416h52v-416h-52zM85 -113v431h52v-431h-52z" />
    <glyph glyph-name="bar.tf" horiz-adv-x="320" 
d="M134 -193v926h52v-926h-52z" />
    <glyph glyph-name="plus.dnom" horiz-adv-x="393" 
d="M175 40v105h-104v42h104v106h43v-106h104v-42h-104v-105h-43z" />
    <glyph glyph-name="minus.dnom" horiz-adv-x="393" 
d="M71 145v42h251v-42h-251z" />
    <glyph glyph-name="equal.dnom" horiz-adv-x="392" 
d="M63 209v41h266v-41h-266zM63 85v41h266v-41h-266z" />
    <glyph glyph-name="plus.numr" horiz-adv-x="393" 
d="M175 360v105h-104v42h104v106h43v-106h104v-42h-104v-105h-43z" />
    <glyph glyph-name="minus.numr" horiz-adv-x="393" 
d="M71 465v42h251v-42h-251z" />
    <glyph glyph-name="equal.numr" horiz-adv-x="392" 
d="M63 529v41h266v-41h-266zM63 405v41h266v-41h-266z" />
    <glyph glyph-name="plus.subs" horiz-adv-x="393" 
d="M175 -22v105h-104v42h104v106h43v-106h104v-42h-104v-105h-43z" />
    <glyph glyph-name="minus.subs" horiz-adv-x="393" 
d="M71 83v42h251v-42h-251z" />
    <glyph glyph-name="equal.subs" horiz-adv-x="392" 
d="M63 147v41h266v-41h-266zM63 23v41h266v-41h-266z" />
    <glyph glyph-name="plus.sups" horiz-adv-x="393" 
d="M175 460v105h-104v42h104v106h43v-106h104v-42h-104v-105h-43z" />
    <glyph glyph-name="minus.sups" horiz-adv-x="393" 
d="M71 565v42h251v-42h-251z" />
    <glyph glyph-name="equal.sups" horiz-adv-x="392" 
d="M63 629v41h266v-41h-266zM63 505v41h266v-41h-266z" />
    <glyph glyph-name="acendcaroncomb" horiz-adv-x="262" 
d="M106 504q-12 0 -17 1v33q6 -1 16 -1q45 0 53 41q5 21 -2 44q-11 -16 -37 -16q-21 0 -35 15t-14 37q0 23 15.5 38.5t40.5 15.5q33 0 54.5 -27.5t21.5 -72.5q0 -51 -26 -79.5t-70 -28.5z" />
    </font>
</defs>
</svg>
